%TF.GenerationSoftware,KiCad,Pcbnew,7.0.9*%
%TF.CreationDate,2024-02-15T22:09:52+01:00*%
%TF.ProjectId,esp32c3,65737033-3263-4332-9e6b-696361645f70,rev?*%
%TF.SameCoordinates,Original*%
%TF.FileFunction,Copper,L1,Top*%
%TF.FilePolarity,Positive*%
%FSLAX46Y46*%
G04 Gerber Fmt 4.6, Leading zero omitted, Abs format (unit mm)*
G04 Created by KiCad (PCBNEW 7.0.9) date 2024-02-15 22:09:52*
%MOMM*%
%LPD*%
G01*
G04 APERTURE LIST*
%TA.AperFunction,SMDPad,CuDef*%
%ADD10R,1.100000X2.800000*%
%TD*%
%TA.AperFunction,SMDPad,CuDef*%
%ADD11R,1.100000X2.600000*%
%TD*%
%TA.AperFunction,SMDPad,CuDef*%
%ADD12O,2.748280X1.998980*%
%TD*%
%TA.AperFunction,ComponentPad*%
%ADD13R,1.700000X1.700000*%
%TD*%
%TA.AperFunction,ComponentPad*%
%ADD14O,1.700000X1.700000*%
%TD*%
%TA.AperFunction,ComponentPad*%
%ADD15C,1.524000*%
%TD*%
%TA.AperFunction,ViaPad*%
%ADD16C,0.800000*%
%TD*%
%TA.AperFunction,Conductor*%
%ADD17C,0.500000*%
%TD*%
%TA.AperFunction,Conductor*%
%ADD18C,0.250000*%
%TD*%
G04 APERTURE END LIST*
D10*
%TO.P,U3,1,GND*%
%TO.N,Net-(J1-Pin_2)*%
X173482000Y-73152000D03*
D11*
%TO.P,U3,2,GND*%
X171482000Y-73052000D03*
%TO.P,U3,3,3.3V*%
%TO.N,Net-(J1-Pin_1)*%
X169482000Y-73052000D03*
%TO.P,U3,4,RESET*%
%TO.N,Net-(U2-PA4_A1_D1)*%
X167482000Y-73052000D03*
%TO.P,U3,5,DI00*%
%TO.N,unconnected-(U3-DI00-Pad5)*%
X165482000Y-73052000D03*
%TO.P,U3,6,DI01*%
%TO.N,unconnected-(U3-DI01-Pad6)*%
X163482000Y-73052000D03*
%TO.P,U3,7,DI02*%
%TO.N,unconnected-(U3-DI02-Pad7)*%
X161482000Y-73052000D03*
%TO.P,U3,8,DI03*%
%TO.N,unconnected-(U3-DI03-Pad8)*%
X159482000Y-73052000D03*
%TO.P,U3,9,GND*%
%TO.N,Net-(J1-Pin_2)*%
X159482000Y-88452000D03*
%TO.P,U3,10,DI04*%
%TO.N,unconnected-(U3-DI04-Pad10)*%
X161482000Y-88452000D03*
%TO.P,U3,11,DI05*%
%TO.N,unconnected-(U3-DI05-Pad11)*%
X163482000Y-88452000D03*
%TO.P,U3,12,SCK*%
%TO.N,Net-(U2-PA7_A8_D8_SCK)*%
X165482000Y-88452000D03*
%TO.P,U3,13,MISO*%
%TO.N,Net-(U2-PA6_A10_D10_MOSI)*%
X167482000Y-88452000D03*
%TO.P,U3,14,MOSI*%
%TO.N,Net-(U2-PA5_A9_D9_MISO)*%
X169482000Y-88452000D03*
%TO.P,U3,15,NSS*%
%TO.N,Net-(U2-PA02_A0_D0)*%
X171482000Y-88452000D03*
%TO.P,U3,16,GND*%
%TO.N,Net-(J1-Pin_2)*%
X173482000Y-88452000D03*
%TD*%
D12*
%TO.P,U2,1,PA02_A0_D0*%
%TO.N,Net-(U2-PA02_A0_D0)*%
X136743440Y-73406000D03*
%TO.P,U2,2,PA4_A1_D1*%
%TO.N,Net-(U2-PA4_A1_D1)*%
X136743440Y-75946000D03*
%TO.P,U2,3,PA10_A2_D2*%
%TO.N,unconnected-(U2-PA10_A2_D2-Pad3)*%
X136743440Y-78486000D03*
%TO.P,U2,4,PA11_A3_D3*%
%TO.N,unconnected-(U2-PA11_A3_D3-Pad4)*%
X136743440Y-81026000D03*
%TO.P,U2,5,PA8_A4_D4_SDA*%
%TO.N,Net-(J1-Pin_4)*%
X136743440Y-83566000D03*
%TO.P,U2,6,PA9_A5_D5_SCL*%
%TO.N,Net-(J1-Pin_3)*%
X136743440Y-86106000D03*
%TO.P,U2,7,PB08_A6_D6_TX*%
%TO.N,unconnected-(U2-PB08_A6_D6_TX-Pad7)*%
X136743440Y-88646000D03*
%TO.P,U2,8,PB09_A7_D7_RX*%
%TO.N,unconnected-(U2-PB09_A7_D7_RX-Pad8)*%
X152908000Y-88646000D03*
%TO.P,U2,9,PA7_A8_D8_SCK*%
%TO.N,Net-(U2-PA7_A8_D8_SCK)*%
X152908000Y-86106000D03*
%TO.P,U2,10,PA5_A9_D9_MISO*%
%TO.N,Net-(U2-PA5_A9_D9_MISO)*%
X152908000Y-83566000D03*
%TO.P,U2,11,PA6_A10_D10_MOSI*%
%TO.N,Net-(U2-PA6_A10_D10_MOSI)*%
X152908000Y-81026000D03*
%TO.P,U2,12,3V3*%
%TO.N,Net-(J1-Pin_1)*%
X152908000Y-78486000D03*
%TO.P,U2,13,GND*%
%TO.N,Net-(J1-Pin_2)*%
X152908000Y-75946000D03*
%TO.P,U2,14,5V*%
%TO.N,unconnected-(U2-5V-Pad14)*%
X152908000Y-73406000D03*
%TD*%
D13*
%TO.P,J1,1,Pin_1*%
%TO.N,Net-(J1-Pin_1)*%
X160274000Y-65532000D03*
D14*
%TO.P,J1,2,Pin_2*%
%TO.N,Net-(J1-Pin_2)*%
X157734000Y-65532000D03*
%TO.P,J1,3,Pin_3*%
%TO.N,Net-(J1-Pin_3)*%
X155194000Y-65532000D03*
%TO.P,J1,4,Pin_4*%
%TO.N,Net-(J1-Pin_4)*%
X152654000Y-65532000D03*
%TO.P,J1,5,Pin_5*%
%TO.N,unconnected-(J1-Pin_5-Pad5)*%
X150114000Y-65532000D03*
%TO.P,J1,6,Pin_6*%
%TO.N,Net-(J1-Pin_1)*%
X147574000Y-65532000D03*
%TD*%
D15*
%TO.P,U1,1,VCC*%
%TO.N,unconnected-(U1-VCC-Pad1)*%
X160401000Y-60071000D03*
%TO.P,U1,2,GND*%
%TO.N,unconnected-(U1-GND-Pad2)*%
X157861000Y-60071000D03*
%TO.P,U1,3,SCL*%
%TO.N,unconnected-(U1-SCL-Pad3)*%
X155321000Y-60071000D03*
%TO.P,U1,4,SDA*%
%TO.N,unconnected-(U1-SDA-Pad4)*%
X152781000Y-60071000D03*
%TO.P,U1,5,CSB*%
%TO.N,unconnected-(U1-CSB-Pad5)*%
X150241000Y-60071000D03*
%TO.P,U1,6,SDO*%
%TO.N,unconnected-(U1-SDO-Pad6)*%
X147701000Y-60071000D03*
%TD*%
D16*
%TO.N,Net-(J1-Pin_2)*%
X170942000Y-70358000D03*
X155956000Y-67310000D03*
X155194000Y-72390000D03*
%TO.N,Net-(J1-Pin_3)*%
X154178000Y-67564000D03*
X134620000Y-84582000D03*
%TO.N,Net-(J1-Pin_4)*%
X151892000Y-67564000D03*
X133858000Y-82296000D03*
%TO.N,Net-(U2-PA4_A1_D1)*%
X167482000Y-69184000D03*
X132846299Y-75188299D03*
%TO.N,Net-(U2-PA5_A9_D9_MISO)*%
X167132000Y-83566000D03*
X155448000Y-83566000D03*
%TD*%
D17*
%TO.N,Net-(J1-Pin_2)*%
X155194000Y-74676000D02*
X153924000Y-75946000D01*
X155956000Y-67310000D02*
X157734000Y-65532000D01*
X172466000Y-70358000D02*
X173482000Y-71374000D01*
X170942000Y-70358000D02*
X172466000Y-70358000D01*
X155194000Y-72390000D02*
X155194000Y-74676000D01*
X153924000Y-75946000D02*
X152908000Y-75946000D01*
X173482000Y-71374000D02*
X173482000Y-73152000D01*
%TO.N,Net-(J1-Pin_1)*%
X152908000Y-78486000D02*
X164798000Y-78486000D01*
X155702000Y-68580000D02*
X150622000Y-68580000D01*
X164798000Y-78486000D02*
X169482000Y-73802000D01*
X156464000Y-74930000D02*
X156464000Y-69342000D01*
X156464000Y-69342000D02*
X155702000Y-68580000D01*
X156464000Y-69342000D02*
X160274000Y-65532000D01*
X169482000Y-73802000D02*
X169482000Y-73052000D01*
X152908000Y-78486000D02*
X156464000Y-74930000D01*
X150622000Y-68580000D02*
X147574000Y-65532000D01*
D18*
%TO.N,Net-(J1-Pin_3)*%
X155194000Y-66548000D02*
X154178000Y-67564000D01*
X134620000Y-84582000D02*
X136144000Y-86106000D01*
X155194000Y-65532000D02*
X155194000Y-66548000D01*
X136144000Y-86106000D02*
X136743440Y-86106000D01*
%TO.N,Net-(J1-Pin_4)*%
X152654000Y-65532000D02*
X152654000Y-66802000D01*
X152654000Y-66802000D02*
X151892000Y-67564000D01*
X135128000Y-83566000D02*
X136743440Y-83566000D01*
X133858000Y-82296000D02*
X135128000Y-83566000D01*
%TO.N,Net-(U2-PA02_A0_D0)*%
X168698000Y-91948000D02*
X171482000Y-89164000D01*
X171482000Y-89164000D02*
X171482000Y-88452000D01*
X131318000Y-85852000D02*
X137414000Y-91948000D01*
X131318000Y-75692000D02*
X131318000Y-85852000D01*
X134112000Y-72898000D02*
X131318000Y-75692000D01*
X136235440Y-72898000D02*
X134112000Y-72898000D01*
X137414000Y-91948000D02*
X168698000Y-91948000D01*
X136743440Y-73406000D02*
X136235440Y-72898000D01*
%TO.N,Net-(U2-PA4_A1_D1)*%
X167482000Y-69184000D02*
X167482000Y-73052000D01*
X137160000Y-75946000D02*
X136743440Y-75946000D01*
X133604000Y-75946000D02*
X132846299Y-75188299D01*
X136743440Y-75946000D02*
X133604000Y-75946000D01*
%TO.N,Net-(U2-PA7_A8_D8_SCK)*%
X165482000Y-87702000D02*
X163886000Y-86106000D01*
X163886000Y-86106000D02*
X152908000Y-86106000D01*
X165482000Y-88452000D02*
X165482000Y-87702000D01*
%TO.N,Net-(U2-PA5_A9_D9_MISO)*%
X169482000Y-85916000D02*
X167132000Y-83566000D01*
X155448000Y-83566000D02*
X152908000Y-83566000D01*
X169482000Y-88452000D02*
X169482000Y-85916000D01*
%TO.N,Net-(U2-PA6_A10_D10_MOSI)*%
X167482000Y-88452000D02*
X167482000Y-87702000D01*
X160806000Y-81026000D02*
X152908000Y-81026000D01*
X167482000Y-87702000D02*
X160806000Y-81026000D01*
%TD*%
M02*
