M48
; DRILL file {KiCad 7.0.9} date Thu Feb 15 22:09:57 2024
; FORMAT={-:-/ absolute / inch / decimal}
; #@! TF.CreationDate,2024-02-15T22:09:57+01:00
; #@! TF.GenerationSoftware,Kicad,Pcbnew,7.0.9
; #@! TF.FileFunction,Plated,1,2,PTH
FMAT,2
INCH
; #@! TA.AperFunction,Plated,PTH,ViaDrill
T1C0.0157
; #@! TA.AperFunction,Plated,PTH,ComponentDrill
T2C0.0300
; #@! TA.AperFunction,Plated,PTH,ComponentDrill
T3C0.0394
%
G90
G05
T1
X5.2302Y-2.9602
X5.27Y-3.24
X5.3Y-3.33
X5.98Y-2.66
X6.07Y-2.66
X6.11Y-2.85
X6.12Y-3.29
X6.14Y-2.65
X6.58Y-3.29
X6.5938Y-2.7238
X6.73Y-2.77
T2
X5.815Y-2.365
X5.915Y-2.365
X6.015Y-2.365
X6.115Y-2.365
X6.215Y-2.365
X6.315Y-2.365
T3
X5.81Y-2.58
X5.91Y-2.58
X6.01Y-2.58
X6.11Y-2.58
X6.21Y-2.58
X6.31Y-2.58
T0
M30
