%TF.GenerationSoftware,KiCad,Pcbnew,7.0.9*%
%TF.CreationDate,2024-03-27T18:07:55+01:00*%
%TF.ProjectId,BeaglebonePCBma_yC,42656167-6c65-4626-9f6e-655043426d61,rev?*%
%TF.SameCoordinates,Original*%
%TF.FileFunction,Legend,Bot*%
%TF.FilePolarity,Positive*%
%FSLAX46Y46*%
G04 Gerber Fmt 4.6, Leading zero omitted, Abs format (unit mm)*
G04 Created by KiCad (PCBNEW 7.0.9) date 2024-03-27 18:07:55*
%MOMM*%
%LPD*%
G01*
G04 APERTURE LIST*
%ADD10C,0.150000*%
%ADD11C,0.120000*%
G04 APERTURE END LIST*
D10*
X99754819Y-82907714D02*
X98754819Y-82907714D01*
X98754819Y-82907714D02*
X98754819Y-83288666D01*
X98754819Y-83288666D02*
X98802438Y-83383904D01*
X98802438Y-83383904D02*
X98850057Y-83431523D01*
X98850057Y-83431523D02*
X98945295Y-83479142D01*
X98945295Y-83479142D02*
X99088152Y-83479142D01*
X99088152Y-83479142D02*
X99183390Y-83431523D01*
X99183390Y-83431523D02*
X99231009Y-83383904D01*
X99231009Y-83383904D02*
X99278628Y-83288666D01*
X99278628Y-83288666D02*
X99278628Y-82907714D01*
X99707200Y-83860095D02*
X99754819Y-84002952D01*
X99754819Y-84002952D02*
X99754819Y-84241047D01*
X99754819Y-84241047D02*
X99707200Y-84336285D01*
X99707200Y-84336285D02*
X99659580Y-84383904D01*
X99659580Y-84383904D02*
X99564342Y-84431523D01*
X99564342Y-84431523D02*
X99469104Y-84431523D01*
X99469104Y-84431523D02*
X99373866Y-84383904D01*
X99373866Y-84383904D02*
X99326247Y-84336285D01*
X99326247Y-84336285D02*
X99278628Y-84241047D01*
X99278628Y-84241047D02*
X99231009Y-84050571D01*
X99231009Y-84050571D02*
X99183390Y-83955333D01*
X99183390Y-83955333D02*
X99135771Y-83907714D01*
X99135771Y-83907714D02*
X99040533Y-83860095D01*
X99040533Y-83860095D02*
X98945295Y-83860095D01*
X98945295Y-83860095D02*
X98850057Y-83907714D01*
X98850057Y-83907714D02*
X98802438Y-83955333D01*
X98802438Y-83955333D02*
X98754819Y-84050571D01*
X98754819Y-84050571D02*
X98754819Y-84288666D01*
X98754819Y-84288666D02*
X98802438Y-84431523D01*
X99754819Y-85383904D02*
X99754819Y-84812476D01*
X99754819Y-85098190D02*
X98754819Y-85098190D01*
X98754819Y-85098190D02*
X98897676Y-85002952D01*
X98897676Y-85002952D02*
X98992914Y-84907714D01*
X98992914Y-84907714D02*
X99040533Y-84812476D01*
D11*
%TO.C,PS1*%
X100095000Y-79112000D02*
X101345000Y-79112000D01*
X122465000Y-79412000D02*
X122465000Y-88832000D01*
X100395000Y-79412000D02*
X122465000Y-79412000D01*
X100095000Y-80362000D02*
X100095000Y-79112000D01*
X122465000Y-88832000D02*
X100395000Y-88832000D01*
X100395000Y-88832000D02*
X100395000Y-79412000D01*
%TD*%
M02*
