%TF.GenerationSoftware,KiCad,Pcbnew,7.0.9*%
%TF.CreationDate,2024-03-27T18:07:41+01:00*%
%TF.ProjectId,BeaglebonePCBma_yC,42656167-6c65-4626-9f6e-655043426d61,rev?*%
%TF.SameCoordinates,Original*%
%TF.FileFunction,Copper,L1,Top*%
%TF.FilePolarity,Positive*%
%FSLAX46Y46*%
G04 Gerber Fmt 4.6, Leading zero omitted, Abs format (unit mm)*
G04 Created by KiCad (PCBNEW 7.0.9) date 2024-03-27 18:07:41*
%MOMM*%
%LPD*%
G01*
G04 APERTURE LIST*
G04 Aperture macros list*
%AMRoundRect*
0 Rectangle with rounded corners*
0 $1 Rounding radius*
0 $2 $3 $4 $5 $6 $7 $8 $9 X,Y pos of 4 corners*
0 Add a 4 corners polygon primitive as box body*
4,1,4,$2,$3,$4,$5,$6,$7,$8,$9,$2,$3,0*
0 Add four circle primitives for the rounded corners*
1,1,$1+$1,$2,$3*
1,1,$1+$1,$4,$5*
1,1,$1+$1,$6,$7*
1,1,$1+$1,$8,$9*
0 Add four rect primitives between the rounded corners*
20,1,$1+$1,$2,$3,$4,$5,0*
20,1,$1+$1,$4,$5,$6,$7,0*
20,1,$1+$1,$6,$7,$8,$9,0*
20,1,$1+$1,$8,$9,$2,$3,0*%
G04 Aperture macros list end*
%TA.AperFunction,ComponentPad*%
%ADD10R,1.700000X1.700000*%
%TD*%
%TA.AperFunction,ComponentPad*%
%ADD11O,1.700000X1.700000*%
%TD*%
%TA.AperFunction,SMDPad,CuDef*%
%ADD12RoundRect,0.150000X-0.150000X0.825000X-0.150000X-0.825000X0.150000X-0.825000X0.150000X0.825000X0*%
%TD*%
%TA.AperFunction,ComponentPad*%
%ADD13R,2.400000X2.400000*%
%TD*%
%TA.AperFunction,ComponentPad*%
%ADD14C,2.400000*%
%TD*%
%TA.AperFunction,SMDPad,CuDef*%
%ADD15RoundRect,0.225000X0.250000X-0.225000X0.250000X0.225000X-0.250000X0.225000X-0.250000X-0.225000X0*%
%TD*%
%TA.AperFunction,SMDPad,CuDef*%
%ADD16RoundRect,0.200000X-0.200000X-0.275000X0.200000X-0.275000X0.200000X0.275000X-0.200000X0.275000X0*%
%TD*%
%TA.AperFunction,SMDPad,CuDef*%
%ADD17RoundRect,0.225000X-0.225000X-0.250000X0.225000X-0.250000X0.225000X0.250000X-0.225000X0.250000X0*%
%TD*%
%TA.AperFunction,SMDPad,CuDef*%
%ADD18R,2.800000X1.100000*%
%TD*%
%TA.AperFunction,SMDPad,CuDef*%
%ADD19R,2.600000X1.100000*%
%TD*%
%TA.AperFunction,SMDPad,CuDef*%
%ADD20R,0.350000X0.500000*%
%TD*%
%TA.AperFunction,SMDPad,CuDef*%
%ADD21RoundRect,0.200000X-0.275000X0.200000X-0.275000X-0.200000X0.275000X-0.200000X0.275000X0.200000X0*%
%TD*%
%TA.AperFunction,SMDPad,CuDef*%
%ADD22RoundRect,0.225000X-0.250000X0.225000X-0.250000X-0.225000X0.250000X-0.225000X0.250000X0.225000X0*%
%TD*%
%TA.AperFunction,ComponentPad*%
%ADD23R,1.850000X1.850000*%
%TD*%
%TA.AperFunction,ComponentPad*%
%ADD24C,1.850000*%
%TD*%
%TA.AperFunction,ViaPad*%
%ADD25C,0.600000*%
%TD*%
%TA.AperFunction,Conductor*%
%ADD26C,0.250000*%
%TD*%
%TA.AperFunction,Conductor*%
%ADD27C,0.500000*%
%TD*%
G04 APERTURE END LIST*
D10*
%TO.P,P8,1,Pin_1*%
%TO.N,GNDD*%
X119685000Y-49835000D03*
D11*
%TO.P,P8,2,Pin_2*%
X119685000Y-47295000D03*
%TO.P,P8,3,Pin_3*%
%TO.N,/MMC1.DAT6*%
X122225000Y-49835000D03*
%TO.P,P8,4,Pin_4*%
%TO.N,/MMC1.DAT7*%
X122225000Y-47295000D03*
%TO.P,P8,5,Pin_5*%
%TO.N,/MMC1.DAT2*%
X124765000Y-49835000D03*
%TO.P,P8,6,Pin_6*%
%TO.N,/MMC1.DAT3*%
X124765000Y-47295000D03*
%TO.P,P8,7,Pin_7*%
%TO.N,/GPIO66*%
X127305000Y-49835000D03*
%TO.P,P8,8,Pin_8*%
%TO.N,/GPIO67*%
X127305000Y-47295000D03*
%TO.P,P8,9,Pin_9*%
%TO.N,/GPIO69*%
X129845000Y-49835000D03*
%TO.P,P8,10,Pin_10*%
%TO.N,/GPIO68*%
X129845000Y-47295000D03*
%TO.P,P8,11,Pin_11*%
%TO.N,/GPIO45*%
X132385000Y-49835000D03*
%TO.P,P8,12,Pin_12*%
%TO.N,/GPIO44*%
X132385000Y-47295000D03*
%TO.P,P8,13,Pin_13*%
%TO.N,/GPIO23*%
X134925000Y-49835000D03*
%TO.P,P8,14,Pin_14*%
%TO.N,/GPIO26*%
X134925000Y-47295000D03*
%TO.P,P8,15,Pin_15*%
%TO.N,/GPIO47*%
X137465000Y-49835000D03*
%TO.P,P8,16,Pin_16*%
%TO.N,/GPIO46*%
X137465000Y-47295000D03*
%TO.P,P8,17,Pin_17*%
%TO.N,/GPIO27*%
X140005000Y-49835000D03*
%TO.P,P8,18,Pin_18*%
%TO.N,/GPIO65*%
X140005000Y-47295000D03*
%TO.P,P8,19,Pin_19*%
%TO.N,/GPIO22*%
X142545000Y-49835000D03*
%TO.P,P8,20,Pin_20*%
%TO.N,/MMC1.CMD*%
X142545000Y-47295000D03*
%TO.P,P8,21,Pin_21*%
%TO.N,/MMC1.CLK*%
X145085000Y-49835000D03*
%TO.P,P8,22,Pin_22*%
%TO.N,/MMC1.DAT5*%
X145085000Y-47295000D03*
%TO.P,P8,23,Pin_23*%
%TO.N,/MMC1.DAT4*%
X147625000Y-49835000D03*
%TO.P,P8,24,Pin_24*%
%TO.N,/MMC1.DAT1*%
X147625000Y-47295000D03*
%TO.P,P8,25,Pin_25*%
%TO.N,/MMC1.DAT0*%
X150165000Y-49835000D03*
%TO.P,P8,26,Pin_26*%
%TO.N,/LCD.PCLK*%
X150165000Y-47295000D03*
%TO.P,P8,27,Pin_27*%
%TO.N,/LCD.VSYNC*%
X152705000Y-49835000D03*
%TO.P,P8,28,Pin_28*%
%TO.N,/GPIO61*%
X152705000Y-47295000D03*
%TO.P,P8,29,Pin_29*%
%TO.N,/LCD.HSYNC*%
X155245000Y-49835000D03*
%TO.P,P8,30,Pin_30*%
%TO.N,/LCD.AC_BIAS_E*%
X155245000Y-47295000D03*
%TO.P,P8,31,Pin_31*%
%TO.N,/LCD.DATA14*%
X157785000Y-49835000D03*
%TO.P,P8,32,Pin_32*%
%TO.N,/LCD.DATA15*%
X157785000Y-47295000D03*
%TO.P,P8,33,Pin_33*%
%TO.N,/LCD.DATA13*%
X160325000Y-49835000D03*
%TO.P,P8,34,Pin_34*%
%TO.N,/LCD.DATA11*%
X160325000Y-47295000D03*
%TO.P,P8,35,Pin_35*%
%TO.N,/LCD.DATA8*%
X162865000Y-49835000D03*
%TO.P,P8,36,Pin_36*%
%TO.N,/LCD.DATA10*%
X162865000Y-47295000D03*
%TO.P,P8,37,Pin_37*%
%TO.N,/LCD.DATA6*%
X165405000Y-49835000D03*
%TO.P,P8,38,Pin_38*%
%TO.N,/LCD.DATA9*%
X165405000Y-47295000D03*
%TO.P,P8,39,Pin_39*%
%TO.N,/LCD.DATA4*%
X167945000Y-49835000D03*
%TO.P,P8,40,Pin_40*%
%TO.N,/LCD.DATA7*%
X167945000Y-47295000D03*
%TO.P,P8,41,Pin_41*%
%TO.N,/LCD.DATA2*%
X170485000Y-49835000D03*
%TO.P,P8,42,Pin_42*%
%TO.N,/LCD.DATA5*%
X170485000Y-47295000D03*
%TO.P,P8,43,Pin_43*%
%TO.N,/LCD.DATA0*%
X173025000Y-49835000D03*
%TO.P,P8,44,Pin_44*%
%TO.N,/LCD.DATA3*%
X173025000Y-47295000D03*
%TO.P,P8,45,Pin_45*%
%TO.N,GNDD*%
X175565000Y-49835000D03*
%TO.P,P8,46,Pin_46*%
%TO.N,/LCD.DATA1*%
X175565000Y-47295000D03*
%TD*%
D10*
%TO.P,P9,1,Pin_1*%
%TO.N,GNDD*%
X119685000Y-98095000D03*
D11*
%TO.P,P9,2,Pin_2*%
X119685000Y-95555000D03*
%TO.P,P9,3,Pin_3*%
%TO.N,+3V3*%
X122225000Y-98095000D03*
%TO.P,P9,4,Pin_4*%
X122225000Y-95555000D03*
%TO.P,P9,5,Pin_5*%
%TO.N,+5V*%
X124765000Y-98095000D03*
%TO.P,P9,6,Pin_6*%
X124765000Y-95555000D03*
%TO.P,P9,7,Pin_7*%
%TO.N,VBUS*%
X127305000Y-98095000D03*
%TO.P,P9,8,Pin_8*%
X127305000Y-95555000D03*
%TO.P,P9,9,Pin_9*%
%TO.N,/PWR_BUT*%
X129845000Y-98095000D03*
%TO.P,P9,10,Pin_10*%
%TO.N,/~{SYS_RESET}*%
X129845000Y-95555000D03*
%TO.P,P9,11,Pin_11*%
%TO.N,/GPIO30*%
X132385000Y-98095000D03*
%TO.P,P9,12,Pin_12*%
%TO.N,/GPIO60*%
X132385000Y-95555000D03*
%TO.P,P9,13,Pin_13*%
%TO.N,/GPIO31*%
X134925000Y-98095000D03*
%TO.P,P9,14,Pin_14*%
%TO.N,/GPIO40*%
X134925000Y-95555000D03*
%TO.P,P9,15,Pin_15*%
%TO.N,/GPIO48*%
X137465000Y-98095000D03*
%TO.P,P9,16,Pin_16*%
%TO.N,/GPIO51*%
X137465000Y-95555000D03*
%TO.P,P9,17,Pin_17*%
%TO.N,/GPIO4*%
X140005000Y-98095000D03*
%TO.P,P9,18,Pin_18*%
%TO.N,/GPIO5*%
X140005000Y-95555000D03*
%TO.P,P9,19,Pin_19*%
%TO.N,/I2C2.SCL*%
X142545000Y-98095000D03*
%TO.P,P9,20,Pin_20*%
%TO.N,/I2C2.SDA*%
X142545000Y-95555000D03*
%TO.P,P9,21,Pin_21*%
%TO.N,/GPIO3*%
X145085000Y-98095000D03*
%TO.P,P9,22,Pin_22*%
%TO.N,/GPIO2*%
X145085000Y-95555000D03*
%TO.P,P9,23,Pin_23*%
%TO.N,/GPIO49*%
X147625000Y-98095000D03*
%TO.P,P9,24,Pin_24*%
%TO.N,/GPIO15*%
X147625000Y-95555000D03*
%TO.P,P9,25,Pin_25*%
%TO.N,/GPIO117*%
X150165000Y-98095000D03*
%TO.P,P9,26,Pin_26*%
%TO.N,/GPIO14*%
X150165000Y-95555000D03*
%TO.P,P9,27,Pin_27*%
%TO.N,/GPIO125*%
X152705000Y-98095000D03*
%TO.P,P9,28,Pin_28*%
%TO.N,/SPI1.CS0*%
X152705000Y-95555000D03*
%TO.P,P9,29,Pin_29*%
%TO.N,/SPI1.D0*%
X155245000Y-98095000D03*
%TO.P,P9,30,Pin_30*%
%TO.N,/GPIO122*%
X155245000Y-95555000D03*
%TO.P,P9,31,Pin_31*%
%TO.N,/SPI1.SCLK*%
X157785000Y-98095000D03*
%TO.P,P9,32,Pin_32*%
%TO.N,+1V8*%
X157785000Y-95555000D03*
%TO.P,P9,33,Pin_33*%
%TO.N,/AIN4*%
X160325000Y-98095000D03*
%TO.P,P9,34,Pin_34*%
%TO.N,GNDA*%
X160325000Y-95555000D03*
%TO.P,P9,35,Pin_35*%
%TO.N,/AIN6*%
X162865000Y-98095000D03*
%TO.P,P9,36,Pin_36*%
%TO.N,/AIN5*%
X162865000Y-95555000D03*
%TO.P,P9,37,Pin_37*%
%TO.N,/AIN2*%
X165405000Y-98095000D03*
%TO.P,P9,38,Pin_38*%
%TO.N,/AIN3*%
X165405000Y-95555000D03*
%TO.P,P9,39,Pin_39*%
%TO.N,/AIN0*%
X167945000Y-98095000D03*
%TO.P,P9,40,Pin_40*%
%TO.N,/AIN1*%
X167945000Y-95555000D03*
%TO.P,P9,41,Pin_41*%
%TO.N,/GPIO20*%
X170485000Y-98095000D03*
%TO.P,P9,42,Pin_42*%
%TO.N,/GPIO7*%
X170485000Y-95555000D03*
%TO.P,P9,43,Pin_43*%
%TO.N,GNDD*%
X173025000Y-98095000D03*
%TO.P,P9,44,Pin_44*%
X173025000Y-95555000D03*
%TO.P,P9,45,Pin_45*%
X175565000Y-98095000D03*
%TO.P,P9,46,Pin_46*%
X175565000Y-95555000D03*
%TD*%
D12*
%TO.P,U2,1,IP+*%
%TO.N,Net-(J4-Pin_1)*%
X127178000Y-60122000D03*
%TO.P,U2,2,IP+*%
X125908000Y-60122000D03*
%TO.P,U2,3,IP-*%
%TO.N,Net-(J4-Pin_2)*%
X124638000Y-60122000D03*
%TO.P,U2,4,IP-*%
X123368000Y-60122000D03*
%TO.P,U2,5,GND*%
%TO.N,GNDD*%
X123368000Y-65072000D03*
%TO.P,U2,6,FILTER*%
%TO.N,Net-(U2-FILTER)*%
X124638000Y-65072000D03*
%TO.P,U2,7,VIOUT*%
%TO.N,Net-(U2-VIOUT)*%
X125908000Y-65072000D03*
%TO.P,U2,8,VCC*%
%TO.N,+5V*%
X127178000Y-65072000D03*
%TD*%
D13*
%TO.P,J4,1,Pin_1*%
%TO.N,Net-(J4-Pin_1)*%
X108128000Y-56058000D03*
D14*
%TO.P,J4,2,Pin_2*%
%TO.N,Net-(J4-Pin_2)*%
X111628000Y-56058000D03*
%TO.P,J4,3,Pin_3*%
%TO.N,GNDA*%
X115128000Y-56058000D03*
%TD*%
D15*
%TO.P,C1,1*%
%TO.N,+3V3*%
X160000000Y-61405000D03*
%TO.P,C1,2*%
%TO.N,GNDD*%
X160000000Y-59855000D03*
%TD*%
D16*
%TO.P,R3,1*%
%TO.N,+3V3*%
X137212000Y-81712000D03*
%TO.P,R3,2*%
%TO.N,/I2C2.SDA*%
X138862000Y-81712000D03*
%TD*%
D17*
%TO.P,C4,1*%
%TO.N,+3V3*%
X130493000Y-84760000D03*
%TO.P,C4,2*%
%TO.N,GNDD*%
X132043000Y-84760000D03*
%TD*%
%TO.P,C3,1*%
%TO.N,+3V3*%
X130480000Y-82728000D03*
%TO.P,C3,2*%
%TO.N,GNDD*%
X132030000Y-82728000D03*
%TD*%
D13*
%TO.P,J2,1,Pin_1*%
%TO.N,Net-(J2-Pin_1)*%
X105644000Y-94158000D03*
D14*
%TO.P,J2,2,Pin_2*%
%TO.N,Net-(J2-Pin_2)*%
X109144000Y-94158000D03*
%TD*%
D16*
%TO.P,R9,1*%
%TO.N,/AIN1*%
X130354000Y-70028000D03*
%TO.P,R9,2*%
%TO.N,GNDA*%
X132004000Y-70028000D03*
%TD*%
D18*
%TO.P,U1,1,GND*%
%TO.N,GNDD*%
X163440000Y-58660000D03*
D19*
%TO.P,U1,2,GND*%
X163340000Y-60660000D03*
%TO.P,U1,3,3.3V*%
%TO.N,+3V3*%
X163340000Y-62660000D03*
%TO.P,U1,4,RESET*%
%TO.N,/GPIO66*%
X163340000Y-64660000D03*
%TO.P,U1,5,DI00*%
%TO.N,unconnected-(U1-DI00-Pad5)*%
X163340000Y-66660000D03*
%TO.P,U1,6,DI01*%
%TO.N,unconnected-(U1-DI01-Pad6)*%
X163340000Y-68660000D03*
%TO.P,U1,7,DI02*%
%TO.N,unconnected-(U1-DI02-Pad7)*%
X163340000Y-70660000D03*
%TO.P,U1,8,DI03*%
%TO.N,unconnected-(U1-DI03-Pad8)*%
X163340000Y-72660000D03*
%TO.P,U1,9,GND*%
%TO.N,GNDD*%
X178740000Y-72660000D03*
%TO.P,U1,10,DI04*%
%TO.N,unconnected-(U1-DI04-Pad10)*%
X178740000Y-70660000D03*
%TO.P,U1,11,DI05*%
%TO.N,unconnected-(U1-DI05-Pad11)*%
X178740000Y-68660000D03*
%TO.P,U1,12,SCK*%
%TO.N,/GPIO2*%
X178740000Y-66660000D03*
%TO.P,U1,13,MISO*%
%TO.N,/GPIO3*%
X178740000Y-64660000D03*
%TO.P,U1,14,MOSI*%
%TO.N,/GPIO4*%
X178740000Y-62660000D03*
%TO.P,U1,15,NSS*%
%TO.N,/GPIO67*%
X178740000Y-60660000D03*
%TO.P,U1,16,GND*%
%TO.N,GNDD*%
X178740000Y-58660000D03*
%TD*%
D16*
%TO.P,R2,1*%
%TO.N,+3V3*%
X136005000Y-78156000D03*
%TO.P,R2,2*%
%TO.N,/I2C2.SCL*%
X137655000Y-78156000D03*
%TD*%
D20*
%TO.P,U3,1,GND*%
%TO.N,GNDD*%
X130958000Y-74600000D03*
%TO.P,U3,2,CSB*%
%TO.N,unconnected-(U3-CSB-Pad2)*%
X131608000Y-74600000D03*
%TO.P,U3,3,SDI*%
%TO.N,/I2C2.SDA*%
X132258000Y-74600000D03*
%TO.P,U3,4,SCK*%
%TO.N,/I2C2.SCL*%
X132908000Y-74600000D03*
%TO.P,U3,5,SDO*%
%TO.N,+3V3*%
X132908000Y-76650000D03*
%TO.P,U3,6,VDDIO*%
X132258000Y-76650000D03*
%TO.P,U3,7,GND*%
%TO.N,GNDD*%
X131608000Y-76650000D03*
%TO.P,U3,8,VDD*%
%TO.N,+3V3*%
X130958000Y-76650000D03*
%TD*%
D15*
%TO.P,C2,1*%
%TO.N,+3V3*%
X158000000Y-61405000D03*
%TO.P,C2,2*%
%TO.N,GNDD*%
X158000000Y-59855000D03*
%TD*%
D21*
%TO.P,R7,1*%
%TO.N,/AIN0*%
X132829000Y-65139000D03*
%TO.P,R7,2*%
%TO.N,GNDA*%
X132829000Y-66789000D03*
%TD*%
D16*
%TO.P,R1,1*%
%TO.N,+3V3*%
X130417000Y-88062000D03*
%TO.P,R1,2*%
%TO.N,GNDD*%
X132067000Y-88062000D03*
%TD*%
D22*
%TO.P,C5,1*%
%TO.N,Net-(U2-FILTER)*%
X124638000Y-68491000D03*
%TO.P,C5,2*%
%TO.N,GNDD*%
X124638000Y-70041000D03*
%TD*%
D16*
%TO.P,R8,1*%
%TO.N,Net-(U2-VIOUT)*%
X126290000Y-70028000D03*
%TO.P,R8,2*%
%TO.N,/AIN1*%
X127940000Y-70028000D03*
%TD*%
D21*
%TO.P,R6,1*%
%TO.N,Net-(J4-Pin_1)*%
X132829000Y-61075000D03*
%TO.P,R6,2*%
%TO.N,/AIN0*%
X132829000Y-62725000D03*
%TD*%
D22*
%TO.P,C8,1*%
%TO.N,/AIN0*%
X136322000Y-65202000D03*
%TO.P,C8,2*%
%TO.N,GNDA*%
X136322000Y-66752000D03*
%TD*%
D23*
%TO.P,PS1,1,-Vin*%
%TO.N,Net-(J2-Pin_1)*%
X102540000Y-85522000D03*
D24*
%TO.P,PS1,2,+Vin*%
%TO.N,Net-(J2-Pin_2)*%
X105080000Y-85522000D03*
%TO.P,PS1,6,+Vout*%
%TO.N,+5V*%
X115240000Y-85522000D03*
%TO.P,PS1,7,-Vout*%
%TO.N,GNDD*%
X117780000Y-85522000D03*
%TO.P,PS1,8,NC*%
%TO.N,unconnected-(PS1-NC-Pad8)*%
X120320000Y-85522000D03*
%TD*%
D25*
%TO.N,/GPIO3*%
X180391000Y-73711000D03*
X181280000Y-66450000D03*
%TO.N,GNDD*%
X175946000Y-71552000D03*
%TO.N,+5V*%
X123622000Y-96952000D03*
%TO.N,/I2C2.SDA*%
X140640000Y-84760000D03*
%TO.N,/I2C2.SCL*%
X139370000Y-79172000D03*
%TO.N,+3V3*%
X127305000Y-87935000D03*
X133274000Y-81458000D03*
X137212000Y-87172000D03*
X133274000Y-85522000D03*
X123876000Y-91364000D03*
%TO.N,+5V*%
X126924000Y-93650000D03*
X127178000Y-67996000D03*
X116002000Y-87808000D03*
%TO.N,/AIN1*%
X136576000Y-71552000D03*
X162738000Y-89840000D03*
%TO.N,/AIN0*%
X163754000Y-88062000D03*
X141656000Y-65964000D03*
%TO.N,GNDA*%
X120066000Y-58598000D03*
X130988000Y-66472000D03*
X160325000Y-93015000D03*
X141656000Y-74346000D03*
%TD*%
D26*
%TO.N,/GPIO3*%
X179490000Y-64660000D02*
X178740000Y-64660000D01*
X181280000Y-66450000D02*
X179490000Y-64660000D01*
X148111701Y-96730000D02*
X146450000Y-96730000D01*
X148990000Y-95851701D02*
X148111701Y-96730000D01*
X148990000Y-95068299D02*
X148990000Y-95851701D01*
X175819000Y-73711000D02*
X155150000Y-94380000D01*
X180391000Y-73711000D02*
X175819000Y-73711000D01*
X149678299Y-94380000D02*
X148990000Y-95068299D01*
X155150000Y-94380000D02*
X149678299Y-94380000D01*
X146450000Y-96730000D02*
X145085000Y-98095000D01*
D27*
%TO.N,+5V*%
X123622000Y-96952000D02*
X124765000Y-98095000D01*
X124765000Y-95555000D02*
X124765000Y-98095000D01*
%TO.N,+3V3*%
X131623000Y-86284000D02*
X132512000Y-86284000D01*
X130417000Y-87490000D02*
X131623000Y-86284000D01*
X130417000Y-88062000D02*
X130417000Y-87490000D01*
D26*
%TO.N,VBUS*%
X127305000Y-95555000D02*
X127305000Y-98095000D01*
%TO.N,/GPIO66*%
X168580000Y-59360000D02*
X166040000Y-56820000D01*
X166040000Y-56820000D02*
X134290000Y-56820000D01*
X163340000Y-64660000D02*
X165820000Y-64660000D01*
X168580000Y-61900000D02*
X168580000Y-59360000D01*
X134290000Y-56820000D02*
X127305000Y-49835000D01*
X165820000Y-64660000D02*
X168580000Y-61900000D01*
%TO.N,/GPIO67*%
X132628299Y-51740000D02*
X131020000Y-50131701D01*
X169070000Y-51740000D02*
X132628299Y-51740000D01*
X177990000Y-60660000D02*
X169070000Y-51740000D01*
X131020000Y-49348299D02*
X130331701Y-48660000D01*
X178740000Y-60660000D02*
X177990000Y-60660000D01*
X131020000Y-50131701D02*
X131020000Y-49348299D01*
X128670000Y-48660000D02*
X127305000Y-47295000D01*
X130331701Y-48660000D02*
X128670000Y-48660000D01*
%TO.N,/I2C2.SDA*%
X140005000Y-79680000D02*
X138862000Y-80823000D01*
X140005000Y-79680000D02*
X140005000Y-75743000D01*
X140005000Y-75743000D02*
X137346000Y-73084000D01*
X137346000Y-73084000D02*
X133274000Y-73084000D01*
X132258000Y-74100000D02*
X132258000Y-74600000D01*
X140640000Y-84760000D02*
X140005000Y-84125000D01*
X140005000Y-84125000D02*
X140005000Y-79680000D01*
X138862000Y-80823000D02*
X138862000Y-81712000D01*
X133274000Y-73084000D02*
X132258000Y-74100000D01*
%TO.N,/I2C2.SCL*%
X137338000Y-74600000D02*
X132908000Y-74600000D01*
X138608000Y-78156000D02*
X139370000Y-77394000D01*
X139370000Y-76632000D02*
X137338000Y-74600000D01*
X139370000Y-79172000D02*
X139370000Y-77394000D01*
X139370000Y-77394000D02*
X139370000Y-76632000D01*
X137655000Y-78156000D02*
X138608000Y-78156000D01*
D27*
%TO.N,GNDD*%
X143180000Y-61900000D02*
X143180000Y-82220000D01*
X117780000Y-85522000D02*
X121209000Y-88951000D01*
X143180000Y-84760000D02*
X138100000Y-89840000D01*
X119685000Y-93015000D02*
X119685000Y-98095000D01*
X138100000Y-89840000D02*
X133020000Y-89840000D01*
X134290000Y-83490000D02*
X134290000Y-81458000D01*
D26*
X124638000Y-70041000D02*
X124625000Y-70041000D01*
D27*
X122860000Y-89840000D02*
X121209000Y-91491000D01*
X131633000Y-75950000D02*
X131633000Y-76285051D01*
X134290000Y-85776000D02*
X134290000Y-83490000D01*
X134290000Y-81839000D02*
X134290000Y-81458000D01*
X134290000Y-88570000D02*
X134290000Y-85776000D01*
X132043000Y-84760000D02*
X133528000Y-84760000D01*
X133020000Y-89840000D02*
X122860000Y-89840000D01*
X146420000Y-58660000D02*
X143180000Y-61900000D01*
X160000000Y-59855000D02*
X160000000Y-59620000D01*
X158000000Y-59080000D02*
X158420000Y-58660000D01*
X133528000Y-84760000D02*
X134290000Y-83998000D01*
X121209000Y-91491000D02*
X119685000Y-93015000D01*
X163440000Y-58660000D02*
X160960000Y-58660000D01*
X143180000Y-82220000D02*
X143180000Y-84760000D01*
X121209000Y-88951000D02*
X121209000Y-91491000D01*
X133401000Y-82728000D02*
X134290000Y-81839000D01*
X133020000Y-89840000D02*
X134290000Y-88570000D01*
X132067000Y-87999000D02*
X134290000Y-85776000D01*
X131633000Y-75950000D02*
X130958000Y-75275000D01*
X158420000Y-58660000D02*
X146420000Y-58660000D01*
X134290000Y-83998000D02*
X134290000Y-83490000D01*
X133533000Y-75950000D02*
X131633000Y-75950000D01*
X123368000Y-89332000D02*
X122860000Y-89840000D01*
X132030000Y-82728000D02*
X133401000Y-82728000D01*
X130958000Y-75275000D02*
X130958000Y-74600000D01*
X160000000Y-59620000D02*
X160960000Y-58660000D01*
X124625000Y-70041000D02*
X123368000Y-71298000D01*
X134290000Y-81458000D02*
X134290000Y-76707000D01*
X158000000Y-59855000D02*
X158000000Y-59080000D01*
X123368000Y-65072000D02*
X123368000Y-71298000D01*
X160960000Y-58660000D02*
X158420000Y-58660000D01*
X134290000Y-76707000D02*
X133533000Y-75950000D01*
X123368000Y-71298000D02*
X123368000Y-89332000D01*
D26*
X132067000Y-88062000D02*
X132067000Y-87999000D01*
D27*
%TO.N,+3V3*%
X163340000Y-62660000D02*
X160960000Y-62660000D01*
X125400000Y-92380000D02*
X122225000Y-95555000D01*
X160000000Y-61700000D02*
X160960000Y-62660000D01*
X127305000Y-87935000D02*
X128194000Y-87046000D01*
X160960000Y-62660000D02*
X158420000Y-62660000D01*
X158420000Y-62660000D02*
X150040000Y-62660000D01*
X137212000Y-85014000D02*
X136322000Y-85014000D01*
X132258000Y-77400000D02*
X128194000Y-81464000D01*
X138100000Y-92380000D02*
X125400000Y-92380000D01*
X158000000Y-62240000D02*
X158420000Y-62660000D01*
X133274000Y-77016000D02*
X132908000Y-76650000D01*
X132258000Y-76650000D02*
X132258000Y-77400000D01*
X122225000Y-95555000D02*
X122225000Y-98095000D01*
X145720000Y-66980000D02*
X145720000Y-69520000D01*
X137212000Y-87172000D02*
X137212000Y-85014000D01*
X128956000Y-84760000D02*
X128194000Y-83998000D01*
X136322000Y-85014000D02*
X136005000Y-84697000D01*
X158000000Y-61405000D02*
X158000000Y-62240000D01*
X128194000Y-83490000D02*
X128194000Y-82220000D01*
X128194000Y-82220000D02*
X128194000Y-79711682D01*
X128194000Y-79711682D02*
X128225682Y-79680000D01*
X145720000Y-84760000D02*
X138100000Y-92380000D01*
X145720000Y-69520000D02*
X145720000Y-84760000D01*
X128956000Y-86284000D02*
X127305000Y-87935000D01*
X128194000Y-87046000D02*
X128194000Y-83490000D01*
X133274000Y-81458000D02*
X133274000Y-77016000D01*
X128194000Y-81464000D02*
X128194000Y-82220000D01*
X128956000Y-82728000D02*
X128194000Y-81966000D01*
X130480000Y-82728000D02*
X128956000Y-82728000D01*
X136005000Y-84697000D02*
X136005000Y-78156000D01*
X128194000Y-83998000D02*
X128194000Y-83490000D01*
X128194000Y-81966000D02*
X128194000Y-81464000D01*
X160000000Y-61405000D02*
X160000000Y-61700000D01*
X133274000Y-85522000D02*
X132512000Y-86284000D01*
X150040000Y-62660000D02*
X145720000Y-66980000D01*
X130958000Y-76947682D02*
X130958000Y-76650000D01*
X130493000Y-84760000D02*
X128956000Y-84760000D01*
X123876000Y-91364000D02*
X122225000Y-93015000D01*
X128225682Y-79680000D02*
X130958000Y-76947682D01*
X122225000Y-93015000D02*
X122225000Y-95555000D01*
X132512000Y-86284000D02*
X128956000Y-86284000D01*
X137212000Y-85014000D02*
X137212000Y-81712000D01*
%TO.N,+5V*%
X126670000Y-93650000D02*
X124765000Y-95555000D01*
X115240000Y-87046000D02*
X116002000Y-87808000D01*
X126924000Y-93650000D02*
X126670000Y-93650000D01*
X127178000Y-67488000D02*
X127178000Y-67996000D01*
X127178000Y-65072000D02*
X127178000Y-67488000D01*
X115240000Y-85522000D02*
X115240000Y-87046000D01*
%TO.N,/AIN1*%
X127940000Y-70028000D02*
X128956000Y-70028000D01*
X162738000Y-89840000D02*
X162738000Y-90348000D01*
X128956000Y-70028000D02*
X130354000Y-70028000D01*
X130480000Y-71552000D02*
X136576000Y-71552000D01*
X162738000Y-90348000D02*
X167945000Y-95555000D01*
X128956000Y-70028000D02*
X130480000Y-71552000D01*
%TO.N,/AIN0*%
X132829000Y-63424000D02*
X132829000Y-63487000D01*
X176865000Y-95016522D02*
X176865000Y-98633478D01*
X135560000Y-63932000D02*
X136830000Y-63932000D01*
X132829000Y-63487000D02*
X133274000Y-63932000D01*
X132829000Y-63424000D02*
X132829000Y-64885000D01*
X136830000Y-63932000D02*
X139624000Y-63932000D01*
X132829000Y-62725000D02*
X132829000Y-63424000D01*
X139624000Y-63932000D02*
X141656000Y-65964000D01*
X133274000Y-63932000D02*
X135560000Y-63932000D01*
X163754000Y-88062000D02*
X169910478Y-88062000D01*
X136322000Y-64440000D02*
X136322000Y-65202000D01*
X169910478Y-88062000D02*
X176865000Y-95016522D01*
X169245000Y-99395000D02*
X167945000Y-98095000D01*
X176865000Y-98633478D02*
X176103478Y-99395000D01*
X176103478Y-99395000D02*
X169245000Y-99395000D01*
X136830000Y-63932000D02*
X136322000Y-64440000D01*
%TO.N,GNDA*%
X160325000Y-93015000D02*
X160325000Y-95555000D01*
X138608000Y-67742000D02*
X138608000Y-71298000D01*
X117526000Y-56058000D02*
X120066000Y-58598000D01*
X132004000Y-70028000D02*
X134036000Y-70028000D01*
X136322000Y-66752000D02*
X137618000Y-66752000D01*
X130988000Y-66472000D02*
X132512000Y-66472000D01*
X115128000Y-56058000D02*
X117526000Y-56058000D01*
X138608000Y-71298000D02*
X141656000Y-74346000D01*
X134036000Y-70028000D02*
X137338000Y-70028000D01*
X132829000Y-66789000D02*
X136285000Y-66789000D01*
X132512000Y-66472000D02*
X132829000Y-66789000D01*
X137618000Y-66752000D02*
X138608000Y-67742000D01*
X136285000Y-66789000D02*
X136322000Y-66752000D01*
X137338000Y-70028000D02*
X138608000Y-71298000D01*
D26*
%TO.N,/GPIO4*%
X166040000Y-74600000D02*
X173660000Y-66980000D01*
X141370000Y-95068299D02*
X161838299Y-74600000D01*
X173660000Y-64440000D02*
X175440000Y-62660000D01*
X140005000Y-98095000D02*
X141370000Y-96730000D01*
X175440000Y-62660000D02*
X178740000Y-62660000D01*
X141370000Y-96730000D02*
X141370000Y-95068299D01*
X161838299Y-74600000D02*
X166040000Y-74600000D01*
X173660000Y-66980000D02*
X173660000Y-64440000D01*
%TO.N,/GPIO2*%
X178740000Y-66660000D02*
X177990000Y-66660000D01*
X152270000Y-92380000D02*
X148260000Y-92380000D01*
X177990000Y-66660000D02*
X152270000Y-92380000D01*
X148260000Y-92380000D02*
X145085000Y-95555000D01*
D27*
%TO.N,Net-(U2-FILTER)*%
X124638000Y-65072000D02*
X124638000Y-68491000D01*
%TO.N,Net-(J2-Pin_1)*%
X105644000Y-88626000D02*
X102540000Y-85522000D01*
X105644000Y-94158000D02*
X105644000Y-88626000D01*
%TO.N,Net-(J2-Pin_2)*%
X109144000Y-94158000D02*
X109144000Y-89586000D01*
X109144000Y-89586000D02*
X105080000Y-85522000D01*
%TO.N,Net-(U2-VIOUT)*%
X125908000Y-69646000D02*
X126290000Y-70028000D01*
X125908000Y-65072000D02*
X125908000Y-69646000D01*
%TO.N,Net-(J4-Pin_1)*%
X124892000Y-57836000D02*
X125781000Y-58725000D01*
X120828000Y-53772000D02*
X124892000Y-57836000D01*
X124892000Y-57836000D02*
X129464000Y-57836000D01*
X108128000Y-56058000D02*
X110414000Y-53772000D01*
X110414000Y-53772000D02*
X120828000Y-53772000D01*
X132703000Y-61075000D02*
X132829000Y-61075000D01*
X129464000Y-57836000D02*
X132703000Y-61075000D01*
X125781000Y-58725000D02*
X127178000Y-60122000D01*
X125908000Y-58852000D02*
X125908000Y-60122000D01*
X125781000Y-58725000D02*
X125908000Y-58852000D01*
%TO.N,Net-(J4-Pin_2)*%
X120828000Y-60122000D02*
X124638000Y-60122000D01*
X115692000Y-60122000D02*
X120828000Y-60122000D01*
X111628000Y-56058000D02*
X115692000Y-60122000D01*
%TD*%
%TA.AperFunction,Conductor*%
%TO.N,GNDD*%
G36*
X174345796Y-45410348D02*
G01*
X174349149Y-45410530D01*
X174475296Y-45420801D01*
X175031263Y-45466073D01*
X175034561Y-45466431D01*
X175697384Y-45556739D01*
X175714549Y-45559163D01*
X175717490Y-45559653D01*
X176184930Y-45649347D01*
X176301794Y-45671772D01*
X176314980Y-45674394D01*
X176400767Y-45691458D01*
X176403566Y-45692085D01*
X176936659Y-45824659D01*
X177001087Y-45841279D01*
X177078523Y-45861255D01*
X177081203Y-45862010D01*
X177414551Y-45964364D01*
X177578952Y-46014843D01*
X177598577Y-46021098D01*
X177747114Y-46068440D01*
X178108864Y-46201340D01*
X178219057Y-46241824D01*
X178258516Y-46256886D01*
X178401832Y-46311592D01*
X178851218Y-46504904D01*
X179042043Y-46590293D01*
X179471370Y-46803220D01*
X179632283Y-46886349D01*
X179665829Y-46903680D01*
X180076578Y-47135907D01*
X180271263Y-47250748D01*
X180340494Y-47295000D01*
X180664329Y-47501992D01*
X180856497Y-47630394D01*
X181232294Y-47900328D01*
X181328296Y-47972578D01*
X181419800Y-48041442D01*
X181778392Y-48329686D01*
X181959428Y-48482557D01*
X182300772Y-48788790D01*
X182473756Y-48952332D01*
X182797667Y-49276243D01*
X182961209Y-49449227D01*
X183267442Y-49790571D01*
X183420313Y-49971607D01*
X183708557Y-50330199D01*
X183809295Y-50464056D01*
X183837181Y-50501110D01*
X183849675Y-50517711D01*
X184084877Y-50845154D01*
X184119601Y-50893496D01*
X184248007Y-51085670D01*
X184499247Y-51478730D01*
X184614092Y-51673421D01*
X184846319Y-52084170D01*
X184915541Y-52218161D01*
X184942526Y-52270396D01*
X184946777Y-52278625D01*
X184992175Y-52370160D01*
X185159706Y-52707956D01*
X185245105Y-52898805D01*
X185438406Y-53348164D01*
X185508175Y-53530942D01*
X185681554Y-54002871D01*
X185735157Y-54171047D01*
X185887978Y-54668762D01*
X185888743Y-54671474D01*
X185925355Y-54813401D01*
X186057907Y-55346407D01*
X186058549Y-55349275D01*
X186078227Y-55448204D01*
X186190340Y-56032480D01*
X186190842Y-56035493D01*
X186193274Y-56052714D01*
X186217947Y-56233802D01*
X186283565Y-56715416D01*
X186283928Y-56718755D01*
X186339469Y-57400850D01*
X186339651Y-57404203D01*
X186358230Y-58090000D01*
X186358230Y-87300000D01*
X186339651Y-87985796D01*
X186339469Y-87989149D01*
X186283928Y-88671244D01*
X186283565Y-88674583D01*
X186215233Y-89176116D01*
X186210592Y-89210184D01*
X186193282Y-89337230D01*
X186190842Y-89354506D01*
X186190340Y-89357519D01*
X186078227Y-89941795D01*
X186058549Y-90040724D01*
X186057907Y-90043591D01*
X185925355Y-90576598D01*
X185888743Y-90718524D01*
X185887978Y-90721236D01*
X185735157Y-91218952D01*
X185681554Y-91387128D01*
X185508175Y-91859057D01*
X185438406Y-92041835D01*
X185245105Y-92491194D01*
X185159706Y-92682043D01*
X184946783Y-93111364D01*
X184846319Y-93305829D01*
X184614092Y-93716578D01*
X184499247Y-93911269D01*
X184248007Y-94304329D01*
X184119601Y-94496503D01*
X183849682Y-94872279D01*
X183708557Y-95059800D01*
X183420313Y-95418392D01*
X183267442Y-95599428D01*
X182961209Y-95940772D01*
X182797667Y-96113756D01*
X182473756Y-96437667D01*
X182300772Y-96601209D01*
X181959428Y-96907442D01*
X181778392Y-97060313D01*
X181419800Y-97348557D01*
X181232279Y-97489682D01*
X180856503Y-97759601D01*
X180664329Y-97888007D01*
X180271269Y-98139247D01*
X180076578Y-98254092D01*
X179665829Y-98486319D01*
X179471364Y-98586783D01*
X179042043Y-98799706D01*
X178851194Y-98885105D01*
X178401835Y-99078406D01*
X178219057Y-99148175D01*
X177747128Y-99321554D01*
X177578952Y-99375157D01*
X177493609Y-99401360D01*
X177423745Y-99402220D01*
X177364506Y-99365172D01*
X177334702Y-99301978D01*
X177343793Y-99232702D01*
X177378904Y-99188702D01*
X177378280Y-99188041D01*
X177382940Y-99183644D01*
X177383171Y-99183354D01*
X177383530Y-99183088D01*
X177417101Y-99143079D01*
X177420761Y-99139084D01*
X177426590Y-99133256D01*
X177446941Y-99107517D01*
X177471368Y-99078406D01*
X177496302Y-99048692D01*
X177496306Y-99048683D01*
X177500274Y-99042653D01*
X177500325Y-99042686D01*
X177504372Y-99036334D01*
X177504320Y-99036302D01*
X177508112Y-99030153D01*
X177540575Y-98960536D01*
X177575036Y-98891918D01*
X177575040Y-98891911D01*
X177575042Y-98891899D01*
X177577509Y-98885124D01*
X177577567Y-98885145D01*
X177580043Y-98878024D01*
X177579986Y-98878005D01*
X177582255Y-98871158D01*
X177582256Y-98871153D01*
X177582257Y-98871151D01*
X177597791Y-98795915D01*
X177615500Y-98721199D01*
X177615500Y-98721197D01*
X177616339Y-98714026D01*
X177616398Y-98714032D01*
X177617164Y-98706532D01*
X177617105Y-98706527D01*
X177617734Y-98699337D01*
X177617268Y-98683338D01*
X177615500Y-98622560D01*
X177615500Y-95080227D01*
X177616809Y-95062257D01*
X177620289Y-95038496D01*
X177615736Y-94986461D01*
X177615500Y-94981054D01*
X177615500Y-94972819D01*
X177615500Y-94972813D01*
X177611691Y-94940229D01*
X177604998Y-94863724D01*
X177604996Y-94863719D01*
X177603538Y-94856655D01*
X177603597Y-94856642D01*
X177601967Y-94849286D01*
X177601908Y-94849301D01*
X177600242Y-94842275D01*
X177600241Y-94842267D01*
X177573973Y-94770095D01*
X177570667Y-94760119D01*
X177549815Y-94697188D01*
X177546763Y-94690643D01*
X177546817Y-94690617D01*
X177543533Y-94683834D01*
X177543480Y-94683862D01*
X177540238Y-94677408D01*
X177540237Y-94677405D01*
X177498038Y-94613245D01*
X177457712Y-94547866D01*
X177457711Y-94547865D01*
X177457710Y-94547863D01*
X177453234Y-94542203D01*
X177453280Y-94542165D01*
X177448519Y-94536321D01*
X177448474Y-94536360D01*
X177443834Y-94530830D01*
X177387982Y-94478135D01*
X170486207Y-87576361D01*
X170474427Y-87562730D01*
X170466143Y-87551603D01*
X170460090Y-87543472D01*
X170457685Y-87541454D01*
X170420065Y-87509886D01*
X170416090Y-87506244D01*
X170413168Y-87503322D01*
X170410258Y-87500411D01*
X170384518Y-87480059D01*
X170325687Y-87430694D01*
X170319658Y-87426729D01*
X170319690Y-87426680D01*
X170313331Y-87422628D01*
X170313300Y-87422679D01*
X170307158Y-87418891D01*
X170307156Y-87418890D01*
X170307155Y-87418889D01*
X170267952Y-87400608D01*
X170237536Y-87386424D01*
X170195535Y-87365331D01*
X170168911Y-87351960D01*
X170168909Y-87351959D01*
X170168908Y-87351959D01*
X170162123Y-87349489D01*
X170162143Y-87349433D01*
X170155027Y-87346959D01*
X170155009Y-87347015D01*
X170148149Y-87344742D01*
X170120319Y-87338996D01*
X170072912Y-87329207D01*
X170023950Y-87317603D01*
X169998197Y-87311499D01*
X169991025Y-87310661D01*
X169991031Y-87310601D01*
X169983533Y-87309835D01*
X169983528Y-87309895D01*
X169976338Y-87309265D01*
X169899561Y-87311500D01*
X164053972Y-87311500D01*
X164013017Y-87304542D01*
X163933254Y-87276631D01*
X163933249Y-87276630D01*
X163754004Y-87256435D01*
X163753996Y-87256435D01*
X163574750Y-87276630D01*
X163574742Y-87276632D01*
X163415644Y-87332303D01*
X163345865Y-87335864D01*
X163285238Y-87301135D01*
X163253011Y-87239142D01*
X163259416Y-87169566D01*
X163287007Y-87127582D01*
X176041772Y-74372819D01*
X176103095Y-74339334D01*
X176129453Y-74336500D01*
X179846145Y-74336500D01*
X179912116Y-74355505D01*
X180041478Y-74436789D01*
X180211745Y-74496368D01*
X180211750Y-74496369D01*
X180390996Y-74516565D01*
X180391000Y-74516565D01*
X180391004Y-74516565D01*
X180570249Y-74496369D01*
X180570252Y-74496368D01*
X180570255Y-74496368D01*
X180740522Y-74436789D01*
X180893262Y-74340816D01*
X181020816Y-74213262D01*
X181116789Y-74060522D01*
X181176368Y-73890255D01*
X181176369Y-73890249D01*
X181196565Y-73711003D01*
X181196565Y-73710996D01*
X181176369Y-73531750D01*
X181176368Y-73531745D01*
X181116788Y-73361476D01*
X181051691Y-73257876D01*
X181020816Y-73208738D01*
X180893262Y-73081184D01*
X180809478Y-73028539D01*
X180740521Y-72985210D01*
X180633457Y-72947747D01*
X180574473Y-72927108D01*
X180547247Y-72910000D01*
X180434998Y-72910000D01*
X180428058Y-72909610D01*
X180402411Y-72906720D01*
X180391002Y-72905435D01*
X180390998Y-72905435D01*
X180379588Y-72906720D01*
X180353941Y-72909610D01*
X180347002Y-72910000D01*
X176940000Y-72910000D01*
X176940000Y-72961500D01*
X176920315Y-73028539D01*
X176867511Y-73074294D01*
X176816000Y-73085500D01*
X175901738Y-73085500D01*
X175886121Y-73083776D01*
X175886094Y-73084062D01*
X175878332Y-73083327D01*
X175809204Y-73085500D01*
X175779650Y-73085500D01*
X175778929Y-73085590D01*
X175772757Y-73086369D01*
X175766945Y-73086826D01*
X175720373Y-73088290D01*
X175720372Y-73088290D01*
X175701129Y-73093881D01*
X175682079Y-73097825D01*
X175662211Y-73100334D01*
X175662209Y-73100335D01*
X175618884Y-73117488D01*
X175613357Y-73119380D01*
X175568610Y-73132381D01*
X175568609Y-73132382D01*
X175551367Y-73142579D01*
X175533899Y-73151137D01*
X175515269Y-73158513D01*
X175515267Y-73158514D01*
X175477576Y-73185898D01*
X175472694Y-73189105D01*
X175432579Y-73212830D01*
X175418408Y-73227000D01*
X175403623Y-73239628D01*
X175387412Y-73251407D01*
X175357709Y-73287310D01*
X175353776Y-73291631D01*
X165130590Y-83514819D01*
X154927228Y-93718181D01*
X154865905Y-93751666D01*
X154839547Y-93754500D01*
X149761042Y-93754500D01*
X149745421Y-93752775D01*
X149745395Y-93753061D01*
X149737633Y-93752327D01*
X149737632Y-93752327D01*
X149668485Y-93754500D01*
X149638948Y-93754500D01*
X149632065Y-93755369D01*
X149626248Y-93755826D01*
X149579672Y-93757290D01*
X149560428Y-93762881D01*
X149541378Y-93766825D01*
X149521510Y-93769334D01*
X149478183Y-93786488D01*
X149472657Y-93788379D01*
X149427913Y-93801379D01*
X149427909Y-93801381D01*
X149410665Y-93811579D01*
X149393204Y-93820133D01*
X149374573Y-93827510D01*
X149374561Y-93827517D01*
X149336869Y-93854902D01*
X149331986Y-93858109D01*
X149291879Y-93881829D01*
X149277713Y-93895995D01*
X149262923Y-93908627D01*
X149246713Y-93920404D01*
X149246710Y-93920407D01*
X149217009Y-93956309D01*
X149213076Y-93960631D01*
X148664180Y-94509526D01*
X148602857Y-94543011D01*
X148533165Y-94538027D01*
X148501045Y-94519310D01*
X148500836Y-94519610D01*
X148497247Y-94517097D01*
X148496787Y-94516829D01*
X148496397Y-94516502D01*
X148302834Y-94380967D01*
X148302830Y-94380965D01*
X148244435Y-94353735D01*
X148088663Y-94281097D01*
X148088659Y-94281096D01*
X148088655Y-94281094D01*
X147860413Y-94219938D01*
X147860403Y-94219936D01*
X147625001Y-94199341D01*
X147624611Y-94199341D01*
X147624445Y-94199292D01*
X147619606Y-94198869D01*
X147619691Y-94197896D01*
X147557572Y-94179656D01*
X147511817Y-94126852D01*
X147501873Y-94057694D01*
X147530898Y-93994138D01*
X147536930Y-93987660D01*
X147959656Y-93564935D01*
X148482772Y-93041819D01*
X148544095Y-93008334D01*
X148570453Y-93005500D01*
X152187257Y-93005500D01*
X152202877Y-93007224D01*
X152202904Y-93006939D01*
X152210660Y-93007671D01*
X152210667Y-93007673D01*
X152279814Y-93005500D01*
X152309350Y-93005500D01*
X152316228Y-93004630D01*
X152322041Y-93004172D01*
X152368627Y-93002709D01*
X152387869Y-92997117D01*
X152406912Y-92993174D01*
X152426792Y-92990664D01*
X152470122Y-92973507D01*
X152475646Y-92971617D01*
X152487142Y-92968277D01*
X152520390Y-92958618D01*
X152537629Y-92948422D01*
X152555103Y-92939862D01*
X152573727Y-92932488D01*
X152573727Y-92932487D01*
X152573732Y-92932486D01*
X152611449Y-92905082D01*
X152616305Y-92901892D01*
X152656420Y-92878170D01*
X152670589Y-92863999D01*
X152685379Y-92851368D01*
X152701587Y-92839594D01*
X152731299Y-92803676D01*
X152735212Y-92799376D01*
X176727821Y-68806768D01*
X176789142Y-68773285D01*
X176858834Y-68778269D01*
X176914767Y-68820141D01*
X176939184Y-68885605D01*
X176939500Y-68894451D01*
X176939500Y-69257869D01*
X176939501Y-69257876D01*
X176945908Y-69317483D01*
X176996202Y-69452328D01*
X176996206Y-69452335D01*
X177082452Y-69567544D01*
X177087227Y-69572319D01*
X177120712Y-69633642D01*
X177115728Y-69703334D01*
X177087227Y-69747681D01*
X177082452Y-69752455D01*
X176996206Y-69867664D01*
X176996202Y-69867671D01*
X176945908Y-70002517D01*
X176940881Y-70049283D01*
X176939501Y-70062123D01*
X176939500Y-70062135D01*
X176939500Y-71257870D01*
X176939501Y-71257876D01*
X176945908Y-71317483D01*
X176996202Y-71452328D01*
X176996206Y-71452335D01*
X177082452Y-71567544D01*
X177087584Y-71572676D01*
X177121069Y-71633999D01*
X177116085Y-71703691D01*
X177087584Y-71748038D01*
X177082809Y-71752812D01*
X176996649Y-71867906D01*
X176996645Y-71867913D01*
X176946403Y-72002620D01*
X176946401Y-72002627D01*
X176940000Y-72062155D01*
X176940000Y-72410000D01*
X180540000Y-72410000D01*
X180540000Y-72062172D01*
X180539999Y-72062155D01*
X180533598Y-72002627D01*
X180533596Y-72002620D01*
X180483354Y-71867913D01*
X180483350Y-71867906D01*
X180397190Y-71752812D01*
X180392416Y-71748038D01*
X180358931Y-71686715D01*
X180363915Y-71617023D01*
X180392416Y-71572676D01*
X180397542Y-71567548D01*
X180397546Y-71567546D01*
X180483796Y-71452331D01*
X180534091Y-71317483D01*
X180540500Y-71257873D01*
X180540499Y-70062128D01*
X180534091Y-70002517D01*
X180527601Y-69985117D01*
X180483797Y-69867671D01*
X180483793Y-69867664D01*
X180397547Y-69752455D01*
X180392773Y-69747681D01*
X180359288Y-69686358D01*
X180364272Y-69616666D01*
X180392773Y-69572319D01*
X180397542Y-69567548D01*
X180397546Y-69567546D01*
X180483796Y-69452331D01*
X180534091Y-69317483D01*
X180540500Y-69257873D01*
X180540499Y-68062128D01*
X180534091Y-68002517D01*
X180531661Y-67996003D01*
X180483797Y-67867671D01*
X180483793Y-67867664D01*
X180397547Y-67752455D01*
X180392773Y-67747681D01*
X180359288Y-67686358D01*
X180364272Y-67616666D01*
X180392773Y-67572319D01*
X180397542Y-67567548D01*
X180397546Y-67567546D01*
X180483796Y-67452331D01*
X180534091Y-67317483D01*
X180540500Y-67257873D01*
X180540499Y-67141937D01*
X180560183Y-67074900D01*
X180612987Y-67029145D01*
X180682145Y-67019201D01*
X180745701Y-67048225D01*
X180752180Y-67054258D01*
X180777738Y-67079816D01*
X180868080Y-67136582D01*
X180928063Y-67174272D01*
X180930478Y-67175789D01*
X181083855Y-67229458D01*
X181100745Y-67235368D01*
X181100750Y-67235369D01*
X181279996Y-67255565D01*
X181280000Y-67255565D01*
X181280004Y-67255565D01*
X181459249Y-67235369D01*
X181459252Y-67235368D01*
X181459255Y-67235368D01*
X181629522Y-67175789D01*
X181782262Y-67079816D01*
X181909816Y-66952262D01*
X182005789Y-66799522D01*
X182065368Y-66629255D01*
X182069361Y-66593815D01*
X182085565Y-66450003D01*
X182085565Y-66449996D01*
X182065369Y-66270750D01*
X182065368Y-66270745D01*
X182005788Y-66100476D01*
X181942386Y-65999573D01*
X181909816Y-65947738D01*
X181782262Y-65820184D01*
X181725861Y-65784745D01*
X181629521Y-65724210D01*
X181481849Y-65672538D01*
X181459255Y-65664632D01*
X181459254Y-65664631D01*
X181459249Y-65664630D01*
X181412174Y-65659326D01*
X181347760Y-65632259D01*
X181338378Y-65623787D01*
X180576818Y-64862227D01*
X180543333Y-64800904D01*
X180540499Y-64774546D01*
X180540499Y-64062129D01*
X180540498Y-64062123D01*
X180540497Y-64062116D01*
X180534091Y-64002517D01*
X180528231Y-63986806D01*
X180483797Y-63867671D01*
X180483793Y-63867664D01*
X180397547Y-63752455D01*
X180392773Y-63747681D01*
X180359288Y-63686358D01*
X180364272Y-63616666D01*
X180392773Y-63572319D01*
X180397542Y-63567548D01*
X180397546Y-63567546D01*
X180483796Y-63452331D01*
X180534091Y-63317483D01*
X180540500Y-63257873D01*
X180540499Y-62062128D01*
X180534091Y-62002517D01*
X180527469Y-61984763D01*
X180483797Y-61867671D01*
X180483793Y-61867664D01*
X180397547Y-61752455D01*
X180392773Y-61747681D01*
X180359288Y-61686358D01*
X180364272Y-61616666D01*
X180392773Y-61572319D01*
X180397542Y-61567548D01*
X180397546Y-61567546D01*
X180483796Y-61452331D01*
X180534091Y-61317483D01*
X180540500Y-61257873D01*
X180540499Y-60062128D01*
X180534091Y-60002517D01*
X180483884Y-59867906D01*
X180483797Y-59867671D01*
X180483793Y-59867664D01*
X180397547Y-59752455D01*
X180392416Y-59747324D01*
X180358931Y-59686001D01*
X180363915Y-59616309D01*
X180392416Y-59571962D01*
X180397190Y-59567187D01*
X180483350Y-59452093D01*
X180483354Y-59452086D01*
X180533596Y-59317379D01*
X180533598Y-59317372D01*
X180539999Y-59257844D01*
X180540000Y-59257827D01*
X180540000Y-58910000D01*
X178614000Y-58910000D01*
X178546961Y-58890315D01*
X178501206Y-58837511D01*
X178490000Y-58786000D01*
X178490000Y-57610000D01*
X178990000Y-57610000D01*
X178990000Y-58410000D01*
X180540000Y-58410000D01*
X180540000Y-58062172D01*
X180539999Y-58062155D01*
X180533598Y-58002627D01*
X180533596Y-58002620D01*
X180483354Y-57867913D01*
X180483350Y-57867906D01*
X180397190Y-57752812D01*
X180397187Y-57752809D01*
X180282093Y-57666649D01*
X180282086Y-57666645D01*
X180147379Y-57616403D01*
X180147372Y-57616401D01*
X180087844Y-57610000D01*
X178990000Y-57610000D01*
X178490000Y-57610000D01*
X177392155Y-57610000D01*
X177332627Y-57616401D01*
X177332620Y-57616403D01*
X177197913Y-57666645D01*
X177197906Y-57666649D01*
X177082812Y-57752809D01*
X177082809Y-57752812D01*
X176996649Y-57867906D01*
X176996645Y-57867913D01*
X176946403Y-58002620D01*
X176946401Y-58002627D01*
X176940000Y-58062155D01*
X176940000Y-58426047D01*
X176920315Y-58493086D01*
X176867511Y-58538841D01*
X176798353Y-58548785D01*
X176734797Y-58519760D01*
X176728319Y-58513728D01*
X169570803Y-51356212D01*
X169560980Y-51343950D01*
X169560759Y-51344134D01*
X169555786Y-51338123D01*
X169505364Y-51290773D01*
X169494919Y-51280328D01*
X169484475Y-51269883D01*
X169478986Y-51265625D01*
X169474561Y-51261847D01*
X169440582Y-51229938D01*
X169440580Y-51229936D01*
X169440577Y-51229935D01*
X169423029Y-51220288D01*
X169406763Y-51209604D01*
X169390933Y-51197325D01*
X169348168Y-51178818D01*
X169342922Y-51176248D01*
X169302093Y-51153803D01*
X169302092Y-51153802D01*
X169282693Y-51148822D01*
X169264281Y-51142518D01*
X169245898Y-51134562D01*
X169245892Y-51134560D01*
X169199874Y-51127272D01*
X169194152Y-51126087D01*
X169149021Y-51114500D01*
X169149019Y-51114500D01*
X169128984Y-51114500D01*
X169109586Y-51112973D01*
X169095670Y-51110769D01*
X169089805Y-51109840D01*
X169089804Y-51109840D01*
X169043416Y-51114225D01*
X169037578Y-51114500D01*
X168865488Y-51114500D01*
X168798449Y-51094815D01*
X168752694Y-51042011D01*
X168742750Y-50972853D01*
X168771775Y-50909297D01*
X168794365Y-50888925D01*
X168806437Y-50880472D01*
X168816401Y-50873495D01*
X168983495Y-50706401D01*
X169113425Y-50520842D01*
X169168002Y-50477217D01*
X169237500Y-50470023D01*
X169299855Y-50501546D01*
X169316575Y-50520842D01*
X169446281Y-50706082D01*
X169446505Y-50706401D01*
X169613599Y-50873495D01*
X169664730Y-50909297D01*
X169807165Y-51009032D01*
X169807167Y-51009033D01*
X169807170Y-51009035D01*
X170021337Y-51108903D01*
X170021343Y-51108904D01*
X170021344Y-51108905D01*
X170076285Y-51123626D01*
X170249592Y-51170063D01*
X170420319Y-51185000D01*
X170484999Y-51190659D01*
X170485000Y-51190659D01*
X170485001Y-51190659D01*
X170549681Y-51185000D01*
X170720408Y-51170063D01*
X170948663Y-51108903D01*
X171162830Y-51009035D01*
X171356401Y-50873495D01*
X171523495Y-50706401D01*
X171653425Y-50520842D01*
X171708002Y-50477217D01*
X171777500Y-50470023D01*
X171839855Y-50501546D01*
X171856575Y-50520842D01*
X171986281Y-50706082D01*
X171986505Y-50706401D01*
X172153599Y-50873495D01*
X172204730Y-50909297D01*
X172347165Y-51009032D01*
X172347167Y-51009033D01*
X172347170Y-51009035D01*
X172561337Y-51108903D01*
X172561343Y-51108904D01*
X172561344Y-51108905D01*
X172616285Y-51123626D01*
X172789592Y-51170063D01*
X172960319Y-51185000D01*
X173024999Y-51190659D01*
X173025000Y-51190659D01*
X173025001Y-51190659D01*
X173089681Y-51185000D01*
X173260408Y-51170063D01*
X173488663Y-51108903D01*
X173702830Y-51009035D01*
X173896401Y-50873495D01*
X174063495Y-50706401D01*
X174193730Y-50520405D01*
X174248307Y-50476781D01*
X174317805Y-50469587D01*
X174380160Y-50501110D01*
X174396879Y-50520405D01*
X174526890Y-50706078D01*
X174693917Y-50873105D01*
X174887421Y-51008600D01*
X175101507Y-51108429D01*
X175101516Y-51108433D01*
X175315000Y-51165634D01*
X175315000Y-50270501D01*
X175422685Y-50319680D01*
X175529237Y-50335000D01*
X175600763Y-50335000D01*
X175707315Y-50319680D01*
X175815000Y-50270501D01*
X175815000Y-51165633D01*
X176028483Y-51108433D01*
X176028492Y-51108429D01*
X176242578Y-51008600D01*
X176436082Y-50873105D01*
X176603105Y-50706082D01*
X176738600Y-50512578D01*
X176838429Y-50298492D01*
X176838432Y-50298486D01*
X176895636Y-50085000D01*
X175998686Y-50085000D01*
X176024493Y-50044844D01*
X176065000Y-49906889D01*
X176065000Y-49763111D01*
X176024493Y-49625156D01*
X175998686Y-49585000D01*
X176895636Y-49585000D01*
X176895635Y-49584999D01*
X176838432Y-49371513D01*
X176838429Y-49371507D01*
X176738600Y-49157422D01*
X176738599Y-49157420D01*
X176603113Y-48963926D01*
X176603108Y-48963920D01*
X176436078Y-48796890D01*
X176250405Y-48666879D01*
X176206780Y-48612302D01*
X176199588Y-48542804D01*
X176231110Y-48480449D01*
X176250406Y-48463730D01*
X176250842Y-48463425D01*
X176436401Y-48333495D01*
X176603495Y-48166401D01*
X176739035Y-47972830D01*
X176838903Y-47758663D01*
X176900063Y-47530408D01*
X176920659Y-47295000D01*
X176900063Y-47059592D01*
X176838903Y-46831337D01*
X176739035Y-46617171D01*
X176733731Y-46609595D01*
X176603494Y-46423597D01*
X176436402Y-46256506D01*
X176436395Y-46256501D01*
X176242834Y-46120967D01*
X176242830Y-46120965D01*
X176130205Y-46068447D01*
X176028663Y-46021097D01*
X176028659Y-46021096D01*
X176028655Y-46021094D01*
X175800413Y-45959938D01*
X175800403Y-45959936D01*
X175565001Y-45939341D01*
X175564999Y-45939341D01*
X175329596Y-45959936D01*
X175329586Y-45959938D01*
X175101344Y-46021094D01*
X175101335Y-46021098D01*
X174887171Y-46120964D01*
X174887169Y-46120965D01*
X174693597Y-46256505D01*
X174526505Y-46423597D01*
X174396575Y-46609158D01*
X174341998Y-46652783D01*
X174272500Y-46659977D01*
X174210145Y-46628454D01*
X174193425Y-46609158D01*
X174063494Y-46423597D01*
X173896402Y-46256506D01*
X173896395Y-46256501D01*
X173702834Y-46120967D01*
X173702830Y-46120965D01*
X173590205Y-46068447D01*
X173488663Y-46021097D01*
X173488659Y-46021096D01*
X173488655Y-46021094D01*
X173260413Y-45959938D01*
X173260403Y-45959936D01*
X173025001Y-45939341D01*
X173024999Y-45939341D01*
X172789596Y-45959936D01*
X172789586Y-45959938D01*
X172561344Y-46021094D01*
X172561335Y-46021098D01*
X172347171Y-46120964D01*
X172347169Y-46120965D01*
X172153597Y-46256505D01*
X171986505Y-46423597D01*
X171856575Y-46609158D01*
X171801998Y-46652783D01*
X171732500Y-46659977D01*
X171670145Y-46628454D01*
X171653425Y-46609158D01*
X171523494Y-46423597D01*
X171356402Y-46256506D01*
X171356395Y-46256501D01*
X171162834Y-46120967D01*
X171162830Y-46120965D01*
X171050205Y-46068447D01*
X170948663Y-46021097D01*
X170948659Y-46021096D01*
X170948655Y-46021094D01*
X170720413Y-45959938D01*
X170720403Y-45959936D01*
X170485001Y-45939341D01*
X170484999Y-45939341D01*
X170249596Y-45959936D01*
X170249586Y-45959938D01*
X170021344Y-46021094D01*
X170021335Y-46021098D01*
X169807171Y-46120964D01*
X169807169Y-46120965D01*
X169613597Y-46256505D01*
X169446505Y-46423597D01*
X169316575Y-46609158D01*
X169261998Y-46652783D01*
X169192500Y-46659977D01*
X169130145Y-46628454D01*
X169113425Y-46609158D01*
X168983494Y-46423597D01*
X168816402Y-46256506D01*
X168816395Y-46256501D01*
X168622834Y-46120967D01*
X168622830Y-46120965D01*
X168510205Y-46068447D01*
X168408663Y-46021097D01*
X168408659Y-46021096D01*
X168408655Y-46021094D01*
X168180413Y-45959938D01*
X168180403Y-45959936D01*
X167945001Y-45939341D01*
X167944999Y-45939341D01*
X167709596Y-45959936D01*
X167709586Y-45959938D01*
X167481344Y-46021094D01*
X167481335Y-46021098D01*
X167267171Y-46120964D01*
X167267169Y-46120965D01*
X167073597Y-46256505D01*
X166906505Y-46423597D01*
X166776575Y-46609158D01*
X166721998Y-46652783D01*
X166652500Y-46659977D01*
X166590145Y-46628454D01*
X166573425Y-46609158D01*
X166443494Y-46423597D01*
X166276402Y-46256506D01*
X166276395Y-46256501D01*
X166082834Y-46120967D01*
X166082830Y-46120965D01*
X165970205Y-46068447D01*
X165868663Y-46021097D01*
X165868659Y-46021096D01*
X165868655Y-46021094D01*
X165640413Y-45959938D01*
X165640403Y-45959936D01*
X165405001Y-45939341D01*
X165404999Y-45939341D01*
X165169596Y-45959936D01*
X165169586Y-45959938D01*
X164941344Y-46021094D01*
X164941335Y-46021098D01*
X164727171Y-46120964D01*
X164727169Y-46120965D01*
X164533597Y-46256505D01*
X164366505Y-46423597D01*
X164236575Y-46609158D01*
X164181998Y-46652783D01*
X164112500Y-46659977D01*
X164050145Y-46628454D01*
X164033425Y-46609158D01*
X163903494Y-46423597D01*
X163736402Y-46256506D01*
X163736395Y-46256501D01*
X163542834Y-46120967D01*
X163542830Y-46120965D01*
X163430205Y-46068447D01*
X163328663Y-46021097D01*
X163328659Y-46021096D01*
X163328655Y-46021094D01*
X163100413Y-45959938D01*
X163100403Y-45959936D01*
X162865001Y-45939341D01*
X162864999Y-45939341D01*
X162629596Y-45959936D01*
X162629586Y-45959938D01*
X162401344Y-46021094D01*
X162401335Y-46021098D01*
X162187171Y-46120964D01*
X162187169Y-46120965D01*
X161993597Y-46256505D01*
X161826505Y-46423597D01*
X161696575Y-46609158D01*
X161641998Y-46652783D01*
X161572500Y-46659977D01*
X161510145Y-46628454D01*
X161493425Y-46609158D01*
X161363494Y-46423597D01*
X161196402Y-46256506D01*
X161196395Y-46256501D01*
X161002834Y-46120967D01*
X161002830Y-46120965D01*
X160890205Y-46068447D01*
X160788663Y-46021097D01*
X160788659Y-46021096D01*
X160788655Y-46021094D01*
X160560413Y-45959938D01*
X160560403Y-45959936D01*
X160325001Y-45939341D01*
X160324999Y-45939341D01*
X160089596Y-45959936D01*
X160089586Y-45959938D01*
X159861344Y-46021094D01*
X159861335Y-46021098D01*
X159647171Y-46120964D01*
X159647169Y-46120965D01*
X159453597Y-46256505D01*
X159286505Y-46423597D01*
X159156575Y-46609158D01*
X159101998Y-46652783D01*
X159032500Y-46659977D01*
X158970145Y-46628454D01*
X158953425Y-46609158D01*
X158823494Y-46423597D01*
X158656402Y-46256506D01*
X158656395Y-46256501D01*
X158462834Y-46120967D01*
X158462830Y-46120965D01*
X158350205Y-46068447D01*
X158248663Y-46021097D01*
X158248659Y-46021096D01*
X158248655Y-46021094D01*
X158020413Y-45959938D01*
X158020403Y-45959936D01*
X157785001Y-45939341D01*
X157784999Y-45939341D01*
X157549596Y-45959936D01*
X157549586Y-45959938D01*
X157321344Y-46021094D01*
X157321335Y-46021098D01*
X157107171Y-46120964D01*
X157107169Y-46120965D01*
X156913597Y-46256505D01*
X156746505Y-46423597D01*
X156616575Y-46609158D01*
X156561998Y-46652783D01*
X156492500Y-46659977D01*
X156430145Y-46628454D01*
X156413425Y-46609158D01*
X156283494Y-46423597D01*
X156116402Y-46256506D01*
X156116395Y-46256501D01*
X155922834Y-46120967D01*
X155922830Y-46120965D01*
X155810205Y-46068447D01*
X155708663Y-46021097D01*
X155708659Y-46021096D01*
X155708655Y-46021094D01*
X155480413Y-45959938D01*
X155480403Y-45959936D01*
X155245001Y-45939341D01*
X155244999Y-45939341D01*
X155009596Y-45959936D01*
X155009586Y-45959938D01*
X154781344Y-46021094D01*
X154781335Y-46021098D01*
X154567171Y-46120964D01*
X154567169Y-46120965D01*
X154373597Y-46256505D01*
X154206505Y-46423597D01*
X154076575Y-46609158D01*
X154021998Y-46652783D01*
X153952500Y-46659977D01*
X153890145Y-46628454D01*
X153873425Y-46609158D01*
X153743494Y-46423597D01*
X153576402Y-46256506D01*
X153576395Y-46256501D01*
X153382834Y-46120967D01*
X153382830Y-46120965D01*
X153270205Y-46068447D01*
X153168663Y-46021097D01*
X153168659Y-46021096D01*
X153168655Y-46021094D01*
X152940413Y-45959938D01*
X152940403Y-45959936D01*
X152705001Y-45939341D01*
X152704999Y-45939341D01*
X152469596Y-45959936D01*
X152469586Y-45959938D01*
X152241344Y-46021094D01*
X152241335Y-46021098D01*
X152027171Y-46120964D01*
X152027169Y-46120965D01*
X151833597Y-46256505D01*
X151666505Y-46423597D01*
X151536575Y-46609158D01*
X151481998Y-46652783D01*
X151412500Y-46659977D01*
X151350145Y-46628454D01*
X151333425Y-46609158D01*
X151203494Y-46423597D01*
X151036402Y-46256506D01*
X151036395Y-46256501D01*
X150842834Y-46120967D01*
X150842830Y-46120965D01*
X150730205Y-46068447D01*
X150628663Y-46021097D01*
X150628659Y-46021096D01*
X150628655Y-46021094D01*
X150400413Y-45959938D01*
X150400403Y-45959936D01*
X150165001Y-45939341D01*
X150164999Y-45939341D01*
X149929596Y-45959936D01*
X149929586Y-45959938D01*
X149701344Y-46021094D01*
X149701335Y-46021098D01*
X149487171Y-46120964D01*
X149487169Y-46120965D01*
X149293597Y-46256505D01*
X149126505Y-46423597D01*
X148996575Y-46609158D01*
X148941998Y-46652783D01*
X148872500Y-46659977D01*
X148810145Y-46628454D01*
X148793425Y-46609158D01*
X148663494Y-46423597D01*
X148496402Y-46256506D01*
X148496395Y-46256501D01*
X148302834Y-46120967D01*
X148302830Y-46120965D01*
X148190205Y-46068447D01*
X148088663Y-46021097D01*
X148088659Y-46021096D01*
X148088655Y-46021094D01*
X147860413Y-45959938D01*
X147860403Y-45959936D01*
X147625001Y-45939341D01*
X147624999Y-45939341D01*
X147389596Y-45959936D01*
X147389586Y-45959938D01*
X147161344Y-46021094D01*
X147161335Y-46021098D01*
X146947171Y-46120964D01*
X146947169Y-46120965D01*
X146753597Y-46256505D01*
X146586505Y-46423597D01*
X146456575Y-46609158D01*
X146401998Y-46652783D01*
X146332500Y-46659977D01*
X146270145Y-46628454D01*
X146253425Y-46609158D01*
X146123494Y-46423597D01*
X145956402Y-46256506D01*
X145956395Y-46256501D01*
X145762834Y-46120967D01*
X145762830Y-46120965D01*
X145650205Y-46068447D01*
X145548663Y-46021097D01*
X145548659Y-46021096D01*
X145548655Y-46021094D01*
X145320413Y-45959938D01*
X145320403Y-45959936D01*
X145085001Y-45939341D01*
X145084999Y-45939341D01*
X144849596Y-45959936D01*
X144849586Y-45959938D01*
X144621344Y-46021094D01*
X144621335Y-46021098D01*
X144407171Y-46120964D01*
X144407169Y-46120965D01*
X144213597Y-46256505D01*
X144046505Y-46423597D01*
X143916575Y-46609158D01*
X143861998Y-46652783D01*
X143792500Y-46659977D01*
X143730145Y-46628454D01*
X143713425Y-46609158D01*
X143583494Y-46423597D01*
X143416402Y-46256506D01*
X143416395Y-46256501D01*
X143222834Y-46120967D01*
X143222830Y-46120965D01*
X143110205Y-46068447D01*
X143008663Y-46021097D01*
X143008659Y-46021096D01*
X143008655Y-46021094D01*
X142780413Y-45959938D01*
X142780403Y-45959936D01*
X142545001Y-45939341D01*
X142544999Y-45939341D01*
X142309596Y-45959936D01*
X142309586Y-45959938D01*
X142081344Y-46021094D01*
X142081335Y-46021098D01*
X141867171Y-46120964D01*
X141867169Y-46120965D01*
X141673597Y-46256505D01*
X141506505Y-46423597D01*
X141376575Y-46609158D01*
X141321998Y-46652783D01*
X141252500Y-46659977D01*
X141190145Y-46628454D01*
X141173425Y-46609158D01*
X141043494Y-46423597D01*
X140876402Y-46256506D01*
X140876395Y-46256501D01*
X140682834Y-46120967D01*
X140682830Y-46120965D01*
X140570205Y-46068447D01*
X140468663Y-46021097D01*
X140468659Y-46021096D01*
X140468655Y-46021094D01*
X140240413Y-45959938D01*
X140240403Y-45959936D01*
X140005001Y-45939341D01*
X140004999Y-45939341D01*
X139769596Y-45959936D01*
X139769586Y-45959938D01*
X139541344Y-46021094D01*
X139541335Y-46021098D01*
X139327171Y-46120964D01*
X139327169Y-46120965D01*
X139133597Y-46256505D01*
X138966505Y-46423597D01*
X138836575Y-46609158D01*
X138781998Y-46652783D01*
X138712500Y-46659977D01*
X138650145Y-46628454D01*
X138633425Y-46609158D01*
X138503494Y-46423597D01*
X138336402Y-46256506D01*
X138336395Y-46256501D01*
X138142834Y-46120967D01*
X138142830Y-46120965D01*
X138030205Y-46068447D01*
X137928663Y-46021097D01*
X137928659Y-46021096D01*
X137928655Y-46021094D01*
X137700413Y-45959938D01*
X137700403Y-45959936D01*
X137465001Y-45939341D01*
X137464999Y-45939341D01*
X137229596Y-45959936D01*
X137229586Y-45959938D01*
X137001344Y-46021094D01*
X137001335Y-46021098D01*
X136787171Y-46120964D01*
X136787169Y-46120965D01*
X136593597Y-46256505D01*
X136426505Y-46423597D01*
X136296575Y-46609158D01*
X136241998Y-46652783D01*
X136172500Y-46659977D01*
X136110145Y-46628454D01*
X136093425Y-46609158D01*
X135963494Y-46423597D01*
X135796402Y-46256506D01*
X135796395Y-46256501D01*
X135602834Y-46120967D01*
X135602830Y-46120965D01*
X135490205Y-46068447D01*
X135388663Y-46021097D01*
X135388659Y-46021096D01*
X135388655Y-46021094D01*
X135160413Y-45959938D01*
X135160403Y-45959936D01*
X134925001Y-45939341D01*
X134924999Y-45939341D01*
X134689596Y-45959936D01*
X134689586Y-45959938D01*
X134461344Y-46021094D01*
X134461335Y-46021098D01*
X134247171Y-46120964D01*
X134247169Y-46120965D01*
X134053597Y-46256505D01*
X133886505Y-46423597D01*
X133756575Y-46609158D01*
X133701998Y-46652783D01*
X133632500Y-46659977D01*
X133570145Y-46628454D01*
X133553425Y-46609158D01*
X133423494Y-46423597D01*
X133256402Y-46256506D01*
X133256395Y-46256501D01*
X133062834Y-46120967D01*
X133062830Y-46120965D01*
X132950205Y-46068447D01*
X132848663Y-46021097D01*
X132848659Y-46021096D01*
X132848655Y-46021094D01*
X132620413Y-45959938D01*
X132620403Y-45959936D01*
X132385001Y-45939341D01*
X132384999Y-45939341D01*
X132149596Y-45959936D01*
X132149586Y-45959938D01*
X131921344Y-46021094D01*
X131921335Y-46021098D01*
X131707171Y-46120964D01*
X131707169Y-46120965D01*
X131513597Y-46256505D01*
X131346505Y-46423597D01*
X131216575Y-46609158D01*
X131161998Y-46652783D01*
X131092500Y-46659977D01*
X131030145Y-46628454D01*
X131013425Y-46609158D01*
X130883494Y-46423597D01*
X130716402Y-46256506D01*
X130716395Y-46256501D01*
X130522834Y-46120967D01*
X130522830Y-46120965D01*
X130410205Y-46068447D01*
X130308663Y-46021097D01*
X130308659Y-46021096D01*
X130308655Y-46021094D01*
X130080413Y-45959938D01*
X130080403Y-45959936D01*
X129845001Y-45939341D01*
X129844999Y-45939341D01*
X129609596Y-45959936D01*
X129609586Y-45959938D01*
X129381344Y-46021094D01*
X129381335Y-46021098D01*
X129167171Y-46120964D01*
X129167169Y-46120965D01*
X128973597Y-46256505D01*
X128806505Y-46423597D01*
X128676575Y-46609158D01*
X128621998Y-46652783D01*
X128552500Y-46659977D01*
X128490145Y-46628454D01*
X128473425Y-46609158D01*
X128343494Y-46423597D01*
X128176402Y-46256506D01*
X128176395Y-46256501D01*
X127982834Y-46120967D01*
X127982830Y-46120965D01*
X127870205Y-46068447D01*
X127768663Y-46021097D01*
X127768659Y-46021096D01*
X127768655Y-46021094D01*
X127540413Y-45959938D01*
X127540403Y-45959936D01*
X127305001Y-45939341D01*
X127304999Y-45939341D01*
X127069596Y-45959936D01*
X127069586Y-45959938D01*
X126841344Y-46021094D01*
X126841335Y-46021098D01*
X126627171Y-46120964D01*
X126627169Y-46120965D01*
X126433597Y-46256505D01*
X126266505Y-46423597D01*
X126136575Y-46609158D01*
X126081998Y-46652783D01*
X126012500Y-46659977D01*
X125950145Y-46628454D01*
X125933425Y-46609158D01*
X125803494Y-46423597D01*
X125636402Y-46256506D01*
X125636395Y-46256501D01*
X125442834Y-46120967D01*
X125442830Y-46120965D01*
X125330205Y-46068447D01*
X125228663Y-46021097D01*
X125228659Y-46021096D01*
X125228655Y-46021094D01*
X125000413Y-45959938D01*
X125000403Y-45959936D01*
X124765001Y-45939341D01*
X124764999Y-45939341D01*
X124529596Y-45959936D01*
X124529586Y-45959938D01*
X124301344Y-46021094D01*
X124301335Y-46021098D01*
X124087171Y-46120964D01*
X124087169Y-46120965D01*
X123893597Y-46256505D01*
X123726505Y-46423597D01*
X123596575Y-46609158D01*
X123541998Y-46652783D01*
X123472500Y-46659977D01*
X123410145Y-46628454D01*
X123393425Y-46609158D01*
X123263494Y-46423597D01*
X123096402Y-46256506D01*
X123096395Y-46256501D01*
X122902834Y-46120967D01*
X122902830Y-46120965D01*
X122790205Y-46068447D01*
X122688663Y-46021097D01*
X122688659Y-46021096D01*
X122688655Y-46021094D01*
X122460413Y-45959938D01*
X122460403Y-45959936D01*
X122225001Y-45939341D01*
X122224999Y-45939341D01*
X121989596Y-45959936D01*
X121989586Y-45959938D01*
X121761344Y-46021094D01*
X121761335Y-46021098D01*
X121547171Y-46120964D01*
X121547169Y-46120965D01*
X121353597Y-46256505D01*
X121186508Y-46423594D01*
X121056269Y-46609595D01*
X121001692Y-46653219D01*
X120932193Y-46660412D01*
X120869839Y-46628890D01*
X120853119Y-46609594D01*
X120723113Y-46423926D01*
X120723108Y-46423920D01*
X120556082Y-46256894D01*
X120362578Y-46121399D01*
X120148492Y-46021570D01*
X120148486Y-46021567D01*
X119935000Y-45964364D01*
X119935000Y-46859498D01*
X119827315Y-46810320D01*
X119720763Y-46795000D01*
X119649237Y-46795000D01*
X119542685Y-46810320D01*
X119435000Y-46859498D01*
X119435000Y-45964364D01*
X119434999Y-45964364D01*
X119221513Y-46021567D01*
X119221507Y-46021570D01*
X119007422Y-46121399D01*
X119007420Y-46121400D01*
X118813926Y-46256886D01*
X118813920Y-46256891D01*
X118646891Y-46423920D01*
X118646886Y-46423926D01*
X118511400Y-46617420D01*
X118511399Y-46617422D01*
X118411570Y-46831507D01*
X118411567Y-46831513D01*
X118354364Y-47044999D01*
X118354364Y-47045000D01*
X119251314Y-47045000D01*
X119225507Y-47085156D01*
X119185000Y-47223111D01*
X119185000Y-47366889D01*
X119225507Y-47504844D01*
X119251314Y-47545000D01*
X118354364Y-47545000D01*
X118411567Y-47758486D01*
X118411570Y-47758492D01*
X118511399Y-47972578D01*
X118646894Y-48166082D01*
X118769334Y-48288522D01*
X118802819Y-48349845D01*
X118797835Y-48419537D01*
X118755963Y-48475470D01*
X118724987Y-48492385D01*
X118592911Y-48541646D01*
X118592906Y-48541649D01*
X118477812Y-48627809D01*
X118477809Y-48627812D01*
X118391649Y-48742906D01*
X118391645Y-48742913D01*
X118341403Y-48877620D01*
X118341401Y-48877627D01*
X118335000Y-48937155D01*
X118335000Y-49585000D01*
X119251314Y-49585000D01*
X119225507Y-49625156D01*
X119185000Y-49763111D01*
X119185000Y-49906889D01*
X119225507Y-50044844D01*
X119251314Y-50085000D01*
X118335000Y-50085000D01*
X118335000Y-50732844D01*
X118341401Y-50792372D01*
X118341403Y-50792379D01*
X118391645Y-50927086D01*
X118391649Y-50927093D01*
X118477809Y-51042187D01*
X118477812Y-51042190D01*
X118592906Y-51128350D01*
X118592913Y-51128354D01*
X118727620Y-51178596D01*
X118727627Y-51178598D01*
X118787155Y-51184999D01*
X118787172Y-51185000D01*
X119435000Y-51185000D01*
X119435000Y-50270501D01*
X119542685Y-50319680D01*
X119649237Y-50335000D01*
X119720763Y-50335000D01*
X119827315Y-50319680D01*
X119935000Y-50270501D01*
X119935000Y-51185000D01*
X120582828Y-51185000D01*
X120582844Y-51184999D01*
X120642372Y-51178598D01*
X120642379Y-51178596D01*
X120777086Y-51128354D01*
X120777093Y-51128350D01*
X120892187Y-51042190D01*
X120892190Y-51042187D01*
X120978350Y-50927093D01*
X120978354Y-50927086D01*
X121027422Y-50795529D01*
X121069293Y-50739595D01*
X121134757Y-50715178D01*
X121203030Y-50730030D01*
X121231285Y-50751181D01*
X121353599Y-50873495D01*
X121404730Y-50909297D01*
X121547165Y-51009032D01*
X121547167Y-51009033D01*
X121547170Y-51009035D01*
X121761337Y-51108903D01*
X121761343Y-51108904D01*
X121761344Y-51108905D01*
X121816285Y-51123626D01*
X121989592Y-51170063D01*
X122160319Y-51185000D01*
X122224999Y-51190659D01*
X122225000Y-51190659D01*
X122225001Y-51190659D01*
X122289681Y-51185000D01*
X122460408Y-51170063D01*
X122688663Y-51108903D01*
X122902830Y-51009035D01*
X123096401Y-50873495D01*
X123263495Y-50706401D01*
X123393425Y-50520842D01*
X123448002Y-50477217D01*
X123517500Y-50470023D01*
X123579855Y-50501546D01*
X123596575Y-50520842D01*
X123726281Y-50706082D01*
X123726505Y-50706401D01*
X123893599Y-50873495D01*
X123944730Y-50909297D01*
X124087165Y-51009032D01*
X124087167Y-51009033D01*
X124087170Y-51009035D01*
X124301337Y-51108903D01*
X124301343Y-51108904D01*
X124301344Y-51108905D01*
X124356285Y-51123626D01*
X124529592Y-51170063D01*
X124700319Y-51185000D01*
X124764999Y-51190659D01*
X124765000Y-51190659D01*
X124765001Y-51190659D01*
X124829681Y-51185000D01*
X125000408Y-51170063D01*
X125228663Y-51108903D01*
X125442830Y-51009035D01*
X125636401Y-50873495D01*
X125803495Y-50706401D01*
X125933425Y-50520842D01*
X125988002Y-50477217D01*
X126057500Y-50470023D01*
X126119855Y-50501546D01*
X126136575Y-50520842D01*
X126266281Y-50706082D01*
X126266505Y-50706401D01*
X126433599Y-50873495D01*
X126484730Y-50909297D01*
X126627165Y-51009032D01*
X126627167Y-51009033D01*
X126627170Y-51009035D01*
X126841337Y-51108903D01*
X126841343Y-51108904D01*
X126841344Y-51108905D01*
X126896285Y-51123626D01*
X127069592Y-51170063D01*
X127240319Y-51185000D01*
X127304999Y-51190659D01*
X127305000Y-51190659D01*
X127305001Y-51190659D01*
X127369681Y-51185000D01*
X127540408Y-51170063D01*
X127640873Y-51143143D01*
X127710722Y-51144806D01*
X127760647Y-51175237D01*
X133789194Y-57203784D01*
X133799019Y-57216048D01*
X133799240Y-57215866D01*
X133804210Y-57221873D01*
X133804213Y-57221876D01*
X133804214Y-57221877D01*
X133854651Y-57269241D01*
X133875530Y-57290120D01*
X133881004Y-57294366D01*
X133885442Y-57298156D01*
X133919418Y-57330062D01*
X133919422Y-57330064D01*
X133936973Y-57339713D01*
X133953231Y-57350392D01*
X133969064Y-57362674D01*
X133991015Y-57372172D01*
X134011837Y-57381183D01*
X134017081Y-57383752D01*
X134057908Y-57406197D01*
X134077312Y-57411179D01*
X134095710Y-57417478D01*
X134114105Y-57425438D01*
X134160129Y-57432726D01*
X134165832Y-57433907D01*
X134210981Y-57445500D01*
X134231016Y-57445500D01*
X134250413Y-57447026D01*
X134270196Y-57450160D01*
X134316584Y-57445775D01*
X134322422Y-57445500D01*
X161720768Y-57445500D01*
X161787807Y-57465185D01*
X161833562Y-57517989D01*
X161843506Y-57587147D01*
X161814481Y-57650703D01*
X161795079Y-57668766D01*
X161682812Y-57752809D01*
X161682809Y-57752812D01*
X161596649Y-57867906D01*
X161596645Y-57867913D01*
X161546403Y-58002620D01*
X161546401Y-58002627D01*
X161540000Y-58062155D01*
X161540000Y-58410000D01*
X165340000Y-58410000D01*
X165340000Y-58062172D01*
X165339999Y-58062155D01*
X165333598Y-58002627D01*
X165333596Y-58002620D01*
X165283354Y-57867913D01*
X165283350Y-57867906D01*
X165197190Y-57752812D01*
X165197187Y-57752809D01*
X165084921Y-57668766D01*
X165043050Y-57612832D01*
X165038066Y-57543141D01*
X165071552Y-57481818D01*
X165132875Y-57448334D01*
X165159232Y-57445500D01*
X165729548Y-57445500D01*
X165796587Y-57465185D01*
X165817229Y-57481819D01*
X167918181Y-59582771D01*
X167951666Y-59644094D01*
X167954500Y-59670452D01*
X167954500Y-61589547D01*
X167934815Y-61656586D01*
X167918181Y-61677228D01*
X165597228Y-63998181D01*
X165535905Y-64031666D01*
X165509547Y-64034500D01*
X165232115Y-64034500D01*
X165165076Y-64014815D01*
X165119321Y-63962011D01*
X165115933Y-63953833D01*
X165083797Y-63867671D01*
X165083793Y-63867664D01*
X164997547Y-63752455D01*
X164992773Y-63747681D01*
X164959288Y-63686358D01*
X164964272Y-63616666D01*
X164992773Y-63572319D01*
X164997542Y-63567548D01*
X164997546Y-63567546D01*
X165083796Y-63452331D01*
X165134091Y-63317483D01*
X165140500Y-63257873D01*
X165140499Y-62062128D01*
X165134091Y-62002517D01*
X165127469Y-61984763D01*
X165083797Y-61867671D01*
X165083793Y-61867664D01*
X164997547Y-61752455D01*
X164992416Y-61747324D01*
X164958931Y-61686001D01*
X164963915Y-61616309D01*
X164992416Y-61571962D01*
X164997190Y-61567187D01*
X165083350Y-61452093D01*
X165083354Y-61452086D01*
X165133596Y-61317379D01*
X165133598Y-61317372D01*
X165139999Y-61257844D01*
X165140000Y-61257827D01*
X165140000Y-60910000D01*
X161540000Y-60910000D01*
X161540000Y-61257844D01*
X161546401Y-61317372D01*
X161546403Y-61317379D01*
X161596645Y-61452086D01*
X161596649Y-61452093D01*
X161682809Y-61567187D01*
X161687584Y-61571962D01*
X161721069Y-61633285D01*
X161716085Y-61702977D01*
X161687584Y-61747324D01*
X161682456Y-61752451D01*
X161602087Y-61859811D01*
X161546153Y-61901682D01*
X161502820Y-61909500D01*
X161322230Y-61909500D01*
X161255191Y-61889815D01*
X161234549Y-61873181D01*
X161011818Y-61650450D01*
X160978333Y-61589127D01*
X160975499Y-61562769D01*
X160975499Y-61131662D01*
X160975498Y-61131644D01*
X160965349Y-61032292D01*
X160965348Y-61032289D01*
X160936420Y-60944989D01*
X160912003Y-60871303D01*
X160911999Y-60871297D01*
X160911998Y-60871294D01*
X160822970Y-60726959D01*
X160822967Y-60726955D01*
X160813339Y-60717327D01*
X160779854Y-60656004D01*
X160784838Y-60586312D01*
X160813345Y-60541959D01*
X160822573Y-60532731D01*
X160911542Y-60388492D01*
X160911547Y-60388481D01*
X160964855Y-60227606D01*
X160974999Y-60128322D01*
X160975000Y-60128309D01*
X160975000Y-60105000D01*
X157025001Y-60105000D01*
X157025001Y-60128322D01*
X157035144Y-60227607D01*
X157088452Y-60388481D01*
X157088457Y-60388492D01*
X157177424Y-60532728D01*
X157177427Y-60532732D01*
X157186660Y-60541965D01*
X157220145Y-60603288D01*
X157215161Y-60672980D01*
X157186663Y-60717324D01*
X157177033Y-60726953D01*
X157177029Y-60726959D01*
X157088001Y-60871294D01*
X157087996Y-60871305D01*
X157034651Y-61032290D01*
X157024500Y-61131647D01*
X157024500Y-61678337D01*
X157024501Y-61678353D01*
X157034160Y-61772898D01*
X157021390Y-61841591D01*
X156973510Y-61892476D01*
X156910802Y-61909500D01*
X150103705Y-61909500D01*
X150085735Y-61908191D01*
X150061972Y-61904710D01*
X150016533Y-61908686D01*
X150009931Y-61909264D01*
X150004530Y-61909500D01*
X149996289Y-61909500D01*
X149974579Y-61912037D01*
X149963724Y-61913306D01*
X149948419Y-61914645D01*
X149887199Y-61920001D01*
X149880132Y-61921460D01*
X149880120Y-61921404D01*
X149872763Y-61923035D01*
X149872777Y-61923092D01*
X149865743Y-61924759D01*
X149793575Y-61951025D01*
X149720675Y-61975181D01*
X149714126Y-61978236D01*
X149714101Y-61978183D01*
X149707308Y-61981471D01*
X149707334Y-61981523D01*
X149700880Y-61984764D01*
X149636708Y-62026971D01*
X149571347Y-62067285D01*
X149565683Y-62071765D01*
X149565647Y-62071719D01*
X149559798Y-62076484D01*
X149559835Y-62076528D01*
X149554310Y-62081164D01*
X149554304Y-62081169D01*
X149554304Y-62081170D01*
X149529450Y-62107513D01*
X149501597Y-62137035D01*
X145234358Y-66404272D01*
X145220729Y-66416051D01*
X145201468Y-66430390D01*
X145167898Y-66470397D01*
X145164253Y-66474376D01*
X145158409Y-66480222D01*
X145138059Y-66505959D01*
X145088695Y-66564789D01*
X145084729Y-66570819D01*
X145084682Y-66570788D01*
X145080630Y-66577147D01*
X145080679Y-66577177D01*
X145076889Y-66583321D01*
X145044424Y-66652941D01*
X145009960Y-66721566D01*
X145007488Y-66728357D01*
X145007432Y-66728336D01*
X145004960Y-66735450D01*
X145005015Y-66735469D01*
X145002742Y-66742327D01*
X144996090Y-66774547D01*
X144987207Y-66817565D01*
X144976622Y-66862228D01*
X144969498Y-66892286D01*
X144968661Y-66899454D01*
X144968601Y-66899447D01*
X144967835Y-66906945D01*
X144967895Y-66906951D01*
X144967265Y-66914140D01*
X144969500Y-66990916D01*
X144969500Y-84397770D01*
X144949815Y-84464809D01*
X144933181Y-84485451D01*
X137825451Y-91593181D01*
X137764128Y-91626666D01*
X137737770Y-91629500D01*
X125463705Y-91629500D01*
X125445735Y-91628191D01*
X125421972Y-91624710D01*
X125376533Y-91628686D01*
X125369931Y-91629264D01*
X125364530Y-91629500D01*
X125356289Y-91629500D01*
X125334579Y-91632037D01*
X125323724Y-91633306D01*
X125308419Y-91634645D01*
X125247199Y-91640001D01*
X125240132Y-91641460D01*
X125240120Y-91641404D01*
X125232763Y-91643035D01*
X125232777Y-91643092D01*
X125225743Y-91644759D01*
X125153575Y-91671025D01*
X125080665Y-91695185D01*
X125074126Y-91698235D01*
X125074101Y-91698183D01*
X125067308Y-91701471D01*
X125067334Y-91701522D01*
X125060884Y-91704761D01*
X124996716Y-91746964D01*
X124931347Y-91787285D01*
X124925677Y-91791769D01*
X124925641Y-91791723D01*
X124919798Y-91796484D01*
X124919835Y-91796528D01*
X124914310Y-91801164D01*
X124914304Y-91801169D01*
X124914304Y-91801170D01*
X124863609Y-91854902D01*
X124861614Y-91857017D01*
X124698109Y-92020522D01*
X124636786Y-92054006D01*
X124567094Y-92049022D01*
X124544791Y-92032325D01*
X124558154Y-92048069D01*
X124567392Y-92117325D01*
X124537720Y-92180582D01*
X124532521Y-92186109D01*
X123187181Y-93531450D01*
X123125858Y-93564935D01*
X123056166Y-93559951D01*
X123000233Y-93518079D01*
X122975816Y-93452615D01*
X122975500Y-93443769D01*
X122975500Y-93377228D01*
X122995185Y-93310189D01*
X123011814Y-93289551D01*
X124184059Y-92117306D01*
X124220132Y-92094657D01*
X124219244Y-92092813D01*
X124225515Y-92089792D01*
X124225516Y-92089790D01*
X124225522Y-92089789D01*
X124378262Y-91993816D01*
X124378265Y-91993812D01*
X124378868Y-91993434D01*
X124446104Y-91974434D01*
X124505736Y-91992605D01*
X124486744Y-91941686D01*
X124501596Y-91873413D01*
X124505435Y-91866867D01*
X124505813Y-91866264D01*
X124505816Y-91866262D01*
X124601789Y-91713522D01*
X124661368Y-91543255D01*
X124681565Y-91364000D01*
X124665222Y-91218952D01*
X124661369Y-91184750D01*
X124661368Y-91184745D01*
X124603986Y-91020758D01*
X124601789Y-91014478D01*
X124505816Y-90861738D01*
X124378262Y-90734184D01*
X124225523Y-90638211D01*
X124055254Y-90578631D01*
X124055249Y-90578630D01*
X123876004Y-90558435D01*
X123875996Y-90558435D01*
X123696750Y-90578630D01*
X123696745Y-90578631D01*
X123526476Y-90638211D01*
X123373737Y-90734184D01*
X123246184Y-90861737D01*
X123150208Y-91014483D01*
X123147186Y-91020758D01*
X123145361Y-91019878D01*
X123122692Y-91055939D01*
X121739358Y-92439272D01*
X121725729Y-92451051D01*
X121706468Y-92465390D01*
X121672898Y-92505397D01*
X121669253Y-92509376D01*
X121663409Y-92515222D01*
X121643059Y-92540959D01*
X121593695Y-92599789D01*
X121589729Y-92605819D01*
X121589682Y-92605788D01*
X121585630Y-92612147D01*
X121585679Y-92612177D01*
X121581889Y-92618321D01*
X121549424Y-92687941D01*
X121514960Y-92756566D01*
X121512488Y-92763357D01*
X121512432Y-92763336D01*
X121509960Y-92770450D01*
X121510015Y-92770469D01*
X121507742Y-92777327D01*
X121503192Y-92799365D01*
X121492207Y-92852565D01*
X121486139Y-92878170D01*
X121474498Y-92927286D01*
X121473661Y-92934454D01*
X121473601Y-92934447D01*
X121472835Y-92941945D01*
X121472895Y-92941951D01*
X121472265Y-92949140D01*
X121474500Y-93025916D01*
X121474500Y-94367298D01*
X121454815Y-94434337D01*
X121421625Y-94468872D01*
X121353595Y-94516507D01*
X121186508Y-94683594D01*
X121056269Y-94869595D01*
X121001692Y-94913219D01*
X120932193Y-94920412D01*
X120869839Y-94888890D01*
X120853119Y-94869594D01*
X120723113Y-94683926D01*
X120723108Y-94683920D01*
X120556082Y-94516894D01*
X120362578Y-94381399D01*
X120148492Y-94281570D01*
X120148486Y-94281567D01*
X119935000Y-94224364D01*
X119935000Y-95119498D01*
X119827315Y-95070320D01*
X119720763Y-95055000D01*
X119649237Y-95055000D01*
X119542685Y-95070320D01*
X119435000Y-95119498D01*
X119435000Y-94224364D01*
X119434999Y-94224364D01*
X119221513Y-94281567D01*
X119221507Y-94281570D01*
X119007422Y-94381399D01*
X119007420Y-94381400D01*
X118813926Y-94516886D01*
X118813920Y-94516891D01*
X118646891Y-94683920D01*
X118646886Y-94683926D01*
X118511400Y-94877420D01*
X118511399Y-94877422D01*
X118411570Y-95091507D01*
X118411567Y-95091513D01*
X118354364Y-95304999D01*
X118354364Y-95305000D01*
X119251314Y-95305000D01*
X119225507Y-95345156D01*
X119185000Y-95483111D01*
X119185000Y-95626889D01*
X119225507Y-95764844D01*
X119251314Y-95805000D01*
X118354364Y-95805000D01*
X118411567Y-96018486D01*
X118411570Y-96018492D01*
X118511399Y-96232578D01*
X118646894Y-96426082D01*
X118769334Y-96548522D01*
X118802819Y-96609845D01*
X118797835Y-96679537D01*
X118755963Y-96735470D01*
X118724987Y-96752385D01*
X118592911Y-96801646D01*
X118592906Y-96801649D01*
X118477812Y-96887809D01*
X118477809Y-96887812D01*
X118391649Y-97002906D01*
X118391645Y-97002913D01*
X118341403Y-97137620D01*
X118341401Y-97137627D01*
X118335000Y-97197155D01*
X118335000Y-97845000D01*
X119251314Y-97845000D01*
X119225507Y-97885156D01*
X119185000Y-98023111D01*
X119185000Y-98166889D01*
X119225507Y-98304844D01*
X119251314Y-98345000D01*
X118335000Y-98345000D01*
X118335000Y-98992844D01*
X118341401Y-99052372D01*
X118341403Y-99052379D01*
X118391645Y-99187086D01*
X118391649Y-99187093D01*
X118477809Y-99302187D01*
X118477812Y-99302190D01*
X118592906Y-99388350D01*
X118592913Y-99388354D01*
X118727620Y-99438596D01*
X118727627Y-99438598D01*
X118787155Y-99444999D01*
X118787172Y-99445000D01*
X119435000Y-99445000D01*
X119435000Y-98530501D01*
X119542685Y-98579680D01*
X119649237Y-98595000D01*
X119720763Y-98595000D01*
X119827315Y-98579680D01*
X119935000Y-98530501D01*
X119935000Y-99445000D01*
X120582828Y-99445000D01*
X120582844Y-99444999D01*
X120642372Y-99438598D01*
X120642379Y-99438596D01*
X120777086Y-99388354D01*
X120777093Y-99388350D01*
X120892187Y-99302190D01*
X120892190Y-99302187D01*
X120978350Y-99187093D01*
X120978354Y-99187086D01*
X121027422Y-99055529D01*
X121069293Y-98999595D01*
X121134757Y-98975178D01*
X121203030Y-98990030D01*
X121231285Y-99011181D01*
X121353599Y-99133495D01*
X121424418Y-99183083D01*
X121547165Y-99269032D01*
X121547167Y-99269033D01*
X121547170Y-99269035D01*
X121761337Y-99368903D01*
X121761343Y-99368904D01*
X121761344Y-99368905D01*
X121816285Y-99383626D01*
X121989592Y-99430063D01*
X122177918Y-99446539D01*
X122224999Y-99450659D01*
X122225000Y-99450659D01*
X122225001Y-99450659D01*
X122269805Y-99446739D01*
X122460408Y-99430063D01*
X122688663Y-99368903D01*
X122902830Y-99269035D01*
X123096401Y-99133495D01*
X123263495Y-98966401D01*
X123393425Y-98780842D01*
X123448002Y-98737217D01*
X123517500Y-98730023D01*
X123579855Y-98761546D01*
X123596575Y-98780842D01*
X123722397Y-98960535D01*
X123726505Y-98966401D01*
X123893599Y-99133495D01*
X123964418Y-99183083D01*
X124087165Y-99269032D01*
X124087167Y-99269033D01*
X124087170Y-99269035D01*
X124301337Y-99368903D01*
X124301343Y-99368904D01*
X124301344Y-99368905D01*
X124356285Y-99383626D01*
X124529592Y-99430063D01*
X124717918Y-99446539D01*
X124764999Y-99450659D01*
X124765000Y-99450659D01*
X124765001Y-99450659D01*
X124809805Y-99446739D01*
X125000408Y-99430063D01*
X125228663Y-99368903D01*
X125442830Y-99269035D01*
X125636401Y-99133495D01*
X125803495Y-98966401D01*
X125933425Y-98780842D01*
X125988002Y-98737217D01*
X126057500Y-98730023D01*
X126119855Y-98761546D01*
X126136575Y-98780842D01*
X126262397Y-98960535D01*
X126266505Y-98966401D01*
X126433599Y-99133495D01*
X126504418Y-99183083D01*
X126627165Y-99269032D01*
X126627167Y-99269033D01*
X126627170Y-99269035D01*
X126841337Y-99368903D01*
X126841343Y-99368904D01*
X126841344Y-99368905D01*
X126896285Y-99383626D01*
X127069592Y-99430063D01*
X127257918Y-99446539D01*
X127304999Y-99450659D01*
X127305000Y-99450659D01*
X127305001Y-99450659D01*
X127349805Y-99446739D01*
X127540408Y-99430063D01*
X127768663Y-99368903D01*
X127982830Y-99269035D01*
X128176401Y-99133495D01*
X128343495Y-98966401D01*
X128473425Y-98780842D01*
X128528002Y-98737217D01*
X128597500Y-98730023D01*
X128659855Y-98761546D01*
X128676575Y-98780842D01*
X128802397Y-98960535D01*
X128806505Y-98966401D01*
X128973599Y-99133495D01*
X129044418Y-99183083D01*
X129167165Y-99269032D01*
X129167167Y-99269033D01*
X129167170Y-99269035D01*
X129381337Y-99368903D01*
X129381343Y-99368904D01*
X129381344Y-99368905D01*
X129436285Y-99383626D01*
X129609592Y-99430063D01*
X129797918Y-99446539D01*
X129844999Y-99450659D01*
X129845000Y-99450659D01*
X129845001Y-99450659D01*
X129889805Y-99446739D01*
X130080408Y-99430063D01*
X130308663Y-99368903D01*
X130522830Y-99269035D01*
X130716401Y-99133495D01*
X130883495Y-98966401D01*
X131013425Y-98780842D01*
X131068002Y-98737217D01*
X131137500Y-98730023D01*
X131199855Y-98761546D01*
X131216575Y-98780842D01*
X131342397Y-98960535D01*
X131346505Y-98966401D01*
X131513599Y-99133495D01*
X131584418Y-99183083D01*
X131707165Y-99269032D01*
X131707167Y-99269033D01*
X131707170Y-99269035D01*
X131921337Y-99368903D01*
X131921343Y-99368904D01*
X131921344Y-99368905D01*
X131976285Y-99383626D01*
X132149592Y-99430063D01*
X132337918Y-99446539D01*
X132384999Y-99450659D01*
X132385000Y-99450659D01*
X132385001Y-99450659D01*
X132429805Y-99446739D01*
X132620408Y-99430063D01*
X132848663Y-99368903D01*
X133062830Y-99269035D01*
X133256401Y-99133495D01*
X133423495Y-98966401D01*
X133553425Y-98780842D01*
X133608002Y-98737217D01*
X133677500Y-98730023D01*
X133739855Y-98761546D01*
X133756575Y-98780842D01*
X133882397Y-98960535D01*
X133886505Y-98966401D01*
X134053599Y-99133495D01*
X134124418Y-99183083D01*
X134247165Y-99269032D01*
X134247167Y-99269033D01*
X134247170Y-99269035D01*
X134461337Y-99368903D01*
X134461343Y-99368904D01*
X134461344Y-99368905D01*
X134516285Y-99383626D01*
X134689592Y-99430063D01*
X134877918Y-99446539D01*
X134924999Y-99450659D01*
X134925000Y-99450659D01*
X134925001Y-99450659D01*
X134969805Y-99446739D01*
X135160408Y-99430063D01*
X135388663Y-99368903D01*
X135602830Y-99269035D01*
X135796401Y-99133495D01*
X135963495Y-98966401D01*
X136093425Y-98780842D01*
X136148002Y-98737217D01*
X136217500Y-98730023D01*
X136279855Y-98761546D01*
X136296575Y-98780842D01*
X136422397Y-98960535D01*
X136426505Y-98966401D01*
X136593599Y-99133495D01*
X136664418Y-99183083D01*
X136787165Y-99269032D01*
X136787167Y-99269033D01*
X136787170Y-99269035D01*
X137001337Y-99368903D01*
X137001343Y-99368904D01*
X137001344Y-99368905D01*
X137056285Y-99383626D01*
X137229592Y-99430063D01*
X137417918Y-99446539D01*
X137464999Y-99450659D01*
X137465000Y-99450659D01*
X137465001Y-99450659D01*
X137509805Y-99446739D01*
X137700408Y-99430063D01*
X137928663Y-99368903D01*
X138142830Y-99269035D01*
X138336401Y-99133495D01*
X138503495Y-98966401D01*
X138633425Y-98780842D01*
X138688002Y-98737217D01*
X138757500Y-98730023D01*
X138819855Y-98761546D01*
X138836575Y-98780842D01*
X138962397Y-98960535D01*
X138966505Y-98966401D01*
X139133599Y-99133495D01*
X139204418Y-99183083D01*
X139327165Y-99269032D01*
X139327167Y-99269033D01*
X139327170Y-99269035D01*
X139541337Y-99368903D01*
X139541343Y-99368904D01*
X139541344Y-99368905D01*
X139596285Y-99383626D01*
X139769592Y-99430063D01*
X139957918Y-99446539D01*
X140004999Y-99450659D01*
X140005000Y-99450659D01*
X140005001Y-99450659D01*
X140049805Y-99446739D01*
X140240408Y-99430063D01*
X140468663Y-99368903D01*
X140682830Y-99269035D01*
X140876401Y-99133495D01*
X141043495Y-98966401D01*
X141173425Y-98780842D01*
X141228002Y-98737217D01*
X141297500Y-98730023D01*
X141359855Y-98761546D01*
X141376575Y-98780842D01*
X141502397Y-98960535D01*
X141506505Y-98966401D01*
X141673599Y-99133495D01*
X141744418Y-99183083D01*
X141867165Y-99269032D01*
X141867167Y-99269033D01*
X141867170Y-99269035D01*
X142081337Y-99368903D01*
X142081343Y-99368904D01*
X142081344Y-99368905D01*
X142136285Y-99383626D01*
X142309592Y-99430063D01*
X142497918Y-99446539D01*
X142544999Y-99450659D01*
X142545000Y-99450659D01*
X142545001Y-99450659D01*
X142589805Y-99446739D01*
X142780408Y-99430063D01*
X143008663Y-99368903D01*
X143222830Y-99269035D01*
X143416401Y-99133495D01*
X143583495Y-98966401D01*
X143713425Y-98780842D01*
X143768002Y-98737217D01*
X143837500Y-98730023D01*
X143899855Y-98761546D01*
X143916575Y-98780842D01*
X144042397Y-98960535D01*
X144046505Y-98966401D01*
X144213599Y-99133495D01*
X144284418Y-99183083D01*
X144407165Y-99269032D01*
X144407167Y-99269033D01*
X144407170Y-99269035D01*
X144621337Y-99368903D01*
X144621343Y-99368904D01*
X144621344Y-99368905D01*
X144676285Y-99383626D01*
X144849592Y-99430063D01*
X145037918Y-99446539D01*
X145084999Y-99450659D01*
X145085000Y-99450659D01*
X145085001Y-99450659D01*
X145129805Y-99446739D01*
X145320408Y-99430063D01*
X145548663Y-99368903D01*
X145762830Y-99269035D01*
X145956401Y-99133495D01*
X146123495Y-98966401D01*
X146253425Y-98780842D01*
X146308002Y-98737217D01*
X146377500Y-98730023D01*
X146439855Y-98761546D01*
X146456575Y-98780842D01*
X146582397Y-98960535D01*
X146586505Y-98966401D01*
X146753599Y-99133495D01*
X146824418Y-99183083D01*
X146947165Y-99269032D01*
X146947167Y-99269033D01*
X146947170Y-99269035D01*
X147161337Y-99368903D01*
X147161343Y-99368904D01*
X147161344Y-99368905D01*
X147216285Y-99383626D01*
X147389592Y-99430063D01*
X147577918Y-99446539D01*
X147624999Y-99450659D01*
X147625000Y-99450659D01*
X147625001Y-99450659D01*
X147669805Y-99446739D01*
X147860408Y-99430063D01*
X148088663Y-99368903D01*
X148302830Y-99269035D01*
X148496401Y-99133495D01*
X148663495Y-98966401D01*
X148793425Y-98780842D01*
X148848002Y-98737217D01*
X148917500Y-98730023D01*
X148979855Y-98761546D01*
X148996575Y-98780842D01*
X149122397Y-98960535D01*
X149126505Y-98966401D01*
X149293599Y-99133495D01*
X149364418Y-99183083D01*
X149487165Y-99269032D01*
X149487167Y-99269033D01*
X149487170Y-99269035D01*
X149701337Y-99368903D01*
X149701343Y-99368904D01*
X149701344Y-99368905D01*
X149756285Y-99383626D01*
X149929592Y-99430063D01*
X150117918Y-99446539D01*
X150164999Y-99450659D01*
X150165000Y-99450659D01*
X150165001Y-99450659D01*
X150209805Y-99446739D01*
X150400408Y-99430063D01*
X150628663Y-99368903D01*
X150842830Y-99269035D01*
X151036401Y-99133495D01*
X151203495Y-98966401D01*
X151333425Y-98780842D01*
X151388002Y-98737217D01*
X151457500Y-98730023D01*
X151519855Y-98761546D01*
X151536575Y-98780842D01*
X151662397Y-98960535D01*
X151666505Y-98966401D01*
X151833599Y-99133495D01*
X151904418Y-99183083D01*
X152027165Y-99269032D01*
X152027167Y-99269033D01*
X152027170Y-99269035D01*
X152241337Y-99368903D01*
X152241343Y-99368904D01*
X152241344Y-99368905D01*
X152296285Y-99383626D01*
X152469592Y-99430063D01*
X152657918Y-99446539D01*
X152704999Y-99450659D01*
X152705000Y-99450659D01*
X152705001Y-99450659D01*
X152749805Y-99446739D01*
X152940408Y-99430063D01*
X153168663Y-99368903D01*
X153382830Y-99269035D01*
X153576401Y-99133495D01*
X153743495Y-98966401D01*
X153873425Y-98780842D01*
X153928002Y-98737217D01*
X153997500Y-98730023D01*
X154059855Y-98761546D01*
X154076575Y-98780842D01*
X154202397Y-98960535D01*
X154206505Y-98966401D01*
X154373599Y-99133495D01*
X154444418Y-99183083D01*
X154567165Y-99269032D01*
X154567167Y-99269033D01*
X154567170Y-99269035D01*
X154781337Y-99368903D01*
X154781343Y-99368904D01*
X154781344Y-99368905D01*
X154836285Y-99383626D01*
X155009592Y-99430063D01*
X155197918Y-99446539D01*
X155244999Y-99450659D01*
X155245000Y-99450659D01*
X155245001Y-99450659D01*
X155289805Y-99446739D01*
X155480408Y-99430063D01*
X155708663Y-99368903D01*
X155922830Y-99269035D01*
X156116401Y-99133495D01*
X156283495Y-98966401D01*
X156413425Y-98780842D01*
X156468002Y-98737217D01*
X156537500Y-98730023D01*
X156599855Y-98761546D01*
X156616575Y-98780842D01*
X156742397Y-98960535D01*
X156746505Y-98966401D01*
X156913599Y-99133495D01*
X156984418Y-99183083D01*
X157107165Y-99269032D01*
X157107167Y-99269033D01*
X157107170Y-99269035D01*
X157321337Y-99368903D01*
X157321343Y-99368904D01*
X157321344Y-99368905D01*
X157376285Y-99383626D01*
X157549592Y-99430063D01*
X157737918Y-99446539D01*
X157784999Y-99450659D01*
X157785000Y-99450659D01*
X157785001Y-99450659D01*
X157829805Y-99446739D01*
X158020408Y-99430063D01*
X158248663Y-99368903D01*
X158462830Y-99269035D01*
X158656401Y-99133495D01*
X158823495Y-98966401D01*
X158953425Y-98780842D01*
X159008002Y-98737217D01*
X159077500Y-98730023D01*
X159139855Y-98761546D01*
X159156575Y-98780842D01*
X159282397Y-98960535D01*
X159286505Y-98966401D01*
X159453599Y-99133495D01*
X159524418Y-99183083D01*
X159647165Y-99269032D01*
X159647167Y-99269033D01*
X159647170Y-99269035D01*
X159861337Y-99368903D01*
X159861343Y-99368904D01*
X159861344Y-99368905D01*
X159916285Y-99383626D01*
X160089592Y-99430063D01*
X160277918Y-99446539D01*
X160324999Y-99450659D01*
X160325000Y-99450659D01*
X160325001Y-99450659D01*
X160369805Y-99446739D01*
X160560408Y-99430063D01*
X160788663Y-99368903D01*
X161002830Y-99269035D01*
X161196401Y-99133495D01*
X161363495Y-98966401D01*
X161493425Y-98780842D01*
X161548002Y-98737217D01*
X161617500Y-98730023D01*
X161679855Y-98761546D01*
X161696575Y-98780842D01*
X161822397Y-98960535D01*
X161826505Y-98966401D01*
X161993599Y-99133495D01*
X162064418Y-99183083D01*
X162187165Y-99269032D01*
X162187167Y-99269033D01*
X162187170Y-99269035D01*
X162401337Y-99368903D01*
X162401343Y-99368904D01*
X162401344Y-99368905D01*
X162456285Y-99383626D01*
X162629592Y-99430063D01*
X162817918Y-99446539D01*
X162864999Y-99450659D01*
X162865000Y-99450659D01*
X162865001Y-99450659D01*
X162909805Y-99446739D01*
X163100408Y-99430063D01*
X163328663Y-99368903D01*
X163542830Y-99269035D01*
X163736401Y-99133495D01*
X163903495Y-98966401D01*
X164033425Y-98780842D01*
X164088002Y-98737217D01*
X164157500Y-98730023D01*
X164219855Y-98761546D01*
X164236575Y-98780842D01*
X164362397Y-98960535D01*
X164366505Y-98966401D01*
X164533599Y-99133495D01*
X164604418Y-99183083D01*
X164727165Y-99269032D01*
X164727167Y-99269033D01*
X164727170Y-99269035D01*
X164941337Y-99368903D01*
X164941343Y-99368904D01*
X164941344Y-99368905D01*
X164996285Y-99383626D01*
X165169592Y-99430063D01*
X165357918Y-99446539D01*
X165404999Y-99450659D01*
X165405000Y-99450659D01*
X165405001Y-99450659D01*
X165449805Y-99446739D01*
X165640408Y-99430063D01*
X165868663Y-99368903D01*
X166082830Y-99269035D01*
X166276401Y-99133495D01*
X166443495Y-98966401D01*
X166573425Y-98780842D01*
X166628002Y-98737217D01*
X166697500Y-98730023D01*
X166759855Y-98761546D01*
X166776575Y-98780842D01*
X166902397Y-98960535D01*
X166906505Y-98966401D01*
X167073599Y-99133495D01*
X167144418Y-99183083D01*
X167267165Y-99269032D01*
X167267167Y-99269033D01*
X167267170Y-99269035D01*
X167481337Y-99368903D01*
X167481343Y-99368904D01*
X167481344Y-99368905D01*
X167536285Y-99383626D01*
X167709592Y-99430063D01*
X167897918Y-99446539D01*
X167944999Y-99450659D01*
X167945000Y-99450659D01*
X167945001Y-99450659D01*
X167989805Y-99446739D01*
X168158014Y-99432022D01*
X168226513Y-99445788D01*
X168256502Y-99467869D01*
X168575182Y-99786549D01*
X168608667Y-99847872D01*
X168603683Y-99917564D01*
X168561811Y-99973497D01*
X168496347Y-99997914D01*
X168487501Y-99998230D01*
X106350000Y-99998230D01*
X105877904Y-99980565D01*
X105873288Y-99980219D01*
X105844097Y-99976930D01*
X105406150Y-99927585D01*
X105401566Y-99926894D01*
X105003461Y-99851569D01*
X104930093Y-99836974D01*
X104926142Y-99836053D01*
X104571068Y-99740912D01*
X104461545Y-99710023D01*
X104457896Y-99708871D01*
X104130725Y-99594390D01*
X104004205Y-99547712D01*
X104000871Y-99546371D01*
X103694849Y-99412857D01*
X103560801Y-99351060D01*
X103557787Y-99349570D01*
X103269785Y-99197355D01*
X103133937Y-99121275D01*
X103131245Y-99119678D01*
X102859900Y-98949181D01*
X102726079Y-98859765D01*
X102723731Y-98858116D01*
X102468538Y-98669775D01*
X102338600Y-98567341D01*
X102283533Y-98519952D01*
X102098559Y-98360769D01*
X102069378Y-98333794D01*
X101976008Y-98247483D01*
X101752516Y-98023991D01*
X101639227Y-97901436D01*
X101432658Y-97661398D01*
X101330215Y-97531450D01*
X101299389Y-97489682D01*
X101141871Y-97276252D01*
X101140233Y-97273919D01*
X101050818Y-97140099D01*
X100880320Y-96868753D01*
X100878722Y-96866061D01*
X100802644Y-96730214D01*
X100744425Y-96620060D01*
X100650414Y-96442182D01*
X100648951Y-96439224D01*
X100587147Y-96305162D01*
X100536723Y-96189587D01*
X100453627Y-95999127D01*
X100452285Y-95995793D01*
X100405609Y-95869274D01*
X100401838Y-95858498D01*
X100291126Y-95542101D01*
X100289980Y-95538469D01*
X100259094Y-95428956D01*
X100163943Y-95073847D01*
X100163024Y-95069904D01*
X100161014Y-95059800D01*
X100148442Y-94996597D01*
X100073104Y-94598432D01*
X100072416Y-94593871D01*
X100019778Y-94126686D01*
X100019435Y-94122119D01*
X100001770Y-93650000D01*
X100001770Y-93648230D01*
X100001770Y-86494870D01*
X101114500Y-86494870D01*
X101114501Y-86494876D01*
X101120908Y-86554483D01*
X101171202Y-86689328D01*
X101171206Y-86689335D01*
X101257452Y-86804544D01*
X101257455Y-86804547D01*
X101372664Y-86890793D01*
X101372671Y-86890797D01*
X101507517Y-86941091D01*
X101507516Y-86941091D01*
X101514444Y-86941835D01*
X101567127Y-86947500D01*
X102852769Y-86947499D01*
X102919808Y-86967184D01*
X102940450Y-86983818D01*
X104857181Y-88900549D01*
X104890666Y-88961872D01*
X104893500Y-88988230D01*
X104893500Y-92333500D01*
X104873815Y-92400539D01*
X104821011Y-92446294D01*
X104769500Y-92457500D01*
X104396130Y-92457500D01*
X104396123Y-92457501D01*
X104336516Y-92463908D01*
X104201671Y-92514202D01*
X104201664Y-92514206D01*
X104086455Y-92600452D01*
X104086452Y-92600455D01*
X104000206Y-92715664D01*
X104000202Y-92715671D01*
X103949908Y-92850517D01*
X103943501Y-92910116D01*
X103943501Y-92910123D01*
X103943500Y-92910135D01*
X103943500Y-95405870D01*
X103943501Y-95405876D01*
X103949908Y-95465483D01*
X104000202Y-95600328D01*
X104000206Y-95600335D01*
X104086452Y-95715544D01*
X104086455Y-95715547D01*
X104201664Y-95801793D01*
X104201671Y-95801797D01*
X104336517Y-95852091D01*
X104336516Y-95852091D01*
X104343444Y-95852835D01*
X104396127Y-95858500D01*
X106891872Y-95858499D01*
X106951483Y-95852091D01*
X107086331Y-95801796D01*
X107201546Y-95715546D01*
X107287796Y-95600331D01*
X107338091Y-95465483D01*
X107344500Y-95405873D01*
X107344499Y-94882854D01*
X107364183Y-94815818D01*
X107416987Y-94770063D01*
X107486146Y-94760119D01*
X107549702Y-94789144D01*
X107583927Y-94837553D01*
X107603904Y-94888454D01*
X107607609Y-94897892D01*
X107616458Y-94913219D01*
X107735041Y-95118612D01*
X107893950Y-95317877D01*
X108080783Y-95491232D01*
X108291366Y-95634805D01*
X108291371Y-95634807D01*
X108291372Y-95634808D01*
X108291373Y-95634809D01*
X108413328Y-95693538D01*
X108520992Y-95745387D01*
X108520993Y-95745387D01*
X108520996Y-95745389D01*
X108764542Y-95820513D01*
X109016565Y-95858500D01*
X109271435Y-95858500D01*
X109523458Y-95820513D01*
X109767004Y-95745389D01*
X109996634Y-95634805D01*
X110207217Y-95491232D01*
X110394050Y-95317877D01*
X110552959Y-95118612D01*
X110680393Y-94897888D01*
X110773508Y-94660637D01*
X110830222Y-94412157D01*
X110842505Y-94248246D01*
X110849268Y-94158004D01*
X110849268Y-94157995D01*
X110834478Y-93960631D01*
X110830222Y-93903843D01*
X110773508Y-93655363D01*
X110680393Y-93418112D01*
X110552959Y-93197388D01*
X110394050Y-92998123D01*
X110207217Y-92824768D01*
X109996634Y-92681195D01*
X109964696Y-92665814D01*
X109912838Y-92618992D01*
X109894500Y-92554095D01*
X109894500Y-89649705D01*
X109895809Y-89631735D01*
X109896129Y-89629547D01*
X109899289Y-89607977D01*
X109894735Y-89555931D01*
X109894500Y-89550528D01*
X109894500Y-89542297D01*
X109894500Y-89542291D01*
X109890693Y-89509724D01*
X109883999Y-89433203D01*
X109883999Y-89433201D01*
X109882539Y-89426129D01*
X109882597Y-89426116D01*
X109880965Y-89418757D01*
X109880906Y-89418772D01*
X109879242Y-89411753D01*
X109879241Y-89411745D01*
X109852974Y-89339576D01*
X109828814Y-89266666D01*
X109828809Y-89266659D01*
X109825760Y-89260118D01*
X109825815Y-89260091D01*
X109822533Y-89253313D01*
X109822480Y-89253340D01*
X109819235Y-89246880D01*
X109777028Y-89182708D01*
X109736710Y-89117342D01*
X109732234Y-89111682D01*
X109732281Y-89111644D01*
X109727519Y-89105799D01*
X109727474Y-89105838D01*
X109722834Y-89100308D01*
X109666964Y-89047596D01*
X106517645Y-85898277D01*
X106484160Y-85836954D01*
X106485121Y-85780155D01*
X106490876Y-85757434D01*
X106505944Y-85575594D01*
X106510385Y-85522005D01*
X113809615Y-85522005D01*
X113829123Y-85757430D01*
X113829123Y-85757433D01*
X113829124Y-85757434D01*
X113831320Y-85766105D01*
X113887117Y-85986445D01*
X113982013Y-86202787D01*
X114111225Y-86400562D01*
X114252921Y-86554483D01*
X114271227Y-86574368D01*
X114441663Y-86707024D01*
X114482475Y-86763733D01*
X114489500Y-86804876D01*
X114489500Y-86982294D01*
X114488191Y-87000263D01*
X114484710Y-87024025D01*
X114489264Y-87076064D01*
X114489500Y-87081470D01*
X114489500Y-87089709D01*
X114493306Y-87122274D01*
X114500000Y-87198791D01*
X114501461Y-87205867D01*
X114501403Y-87205878D01*
X114503034Y-87213237D01*
X114503092Y-87213224D01*
X114504757Y-87220250D01*
X114531025Y-87292424D01*
X114555185Y-87365331D01*
X114558236Y-87371874D01*
X114558182Y-87371898D01*
X114561470Y-87378688D01*
X114561521Y-87378663D01*
X114564761Y-87385113D01*
X114564762Y-87385114D01*
X114564763Y-87385117D01*
X114606965Y-87449283D01*
X114647287Y-87514655D01*
X114651766Y-87520319D01*
X114651719Y-87520356D01*
X114656482Y-87526202D01*
X114656528Y-87526164D01*
X114661173Y-87531700D01*
X114717017Y-87584385D01*
X115248692Y-88116060D01*
X115271356Y-88152129D01*
X115273188Y-88151247D01*
X115276207Y-88157516D01*
X115342533Y-88263073D01*
X115372184Y-88310262D01*
X115499738Y-88437816D01*
X115652478Y-88533789D01*
X115741148Y-88564816D01*
X115822745Y-88593368D01*
X115822750Y-88593369D01*
X116001996Y-88613565D01*
X116002000Y-88613565D01*
X116002004Y-88613565D01*
X116181249Y-88593369D01*
X116181252Y-88593368D01*
X116181255Y-88593368D01*
X116351522Y-88533789D01*
X116504262Y-88437816D01*
X116631816Y-88310262D01*
X116727789Y-88157522D01*
X116787368Y-87987255D01*
X116787369Y-87987249D01*
X116793256Y-87935003D01*
X126499435Y-87935003D01*
X126519630Y-88114249D01*
X126519631Y-88114254D01*
X126579211Y-88284523D01*
X126638937Y-88379576D01*
X126675184Y-88437262D01*
X126802738Y-88564816D01*
X126955478Y-88660789D01*
X127044148Y-88691816D01*
X127125745Y-88720368D01*
X127125750Y-88720369D01*
X127304996Y-88740565D01*
X127305000Y-88740565D01*
X127305004Y-88740565D01*
X127484249Y-88720369D01*
X127484252Y-88720368D01*
X127484255Y-88720368D01*
X127654522Y-88660789D01*
X127807262Y-88564816D01*
X127934816Y-88437262D01*
X128030789Y-88284522D01*
X128030792Y-88284510D01*
X128033810Y-88278248D01*
X128035650Y-88279134D01*
X128058305Y-88243061D01*
X128643672Y-87657696D01*
X128679647Y-87621719D01*
X128693266Y-87609950D01*
X128712530Y-87595610D01*
X128746117Y-87555581D01*
X128749764Y-87551603D01*
X128755591Y-87545777D01*
X128755593Y-87545774D01*
X129230548Y-87070819D01*
X129291871Y-87037334D01*
X129318229Y-87034500D01*
X129604896Y-87034500D01*
X129671935Y-87054185D01*
X129717690Y-87106989D01*
X129727634Y-87176147D01*
X129715707Y-87214149D01*
X129706960Y-87231566D01*
X129704488Y-87238357D01*
X129704432Y-87238336D01*
X129701960Y-87245450D01*
X129702015Y-87245469D01*
X129699743Y-87252325D01*
X129691305Y-87293190D01*
X129664094Y-87344299D01*
X129666153Y-87345912D01*
X129661527Y-87351815D01*
X129573522Y-87497393D01*
X129522913Y-87659807D01*
X129516500Y-87730386D01*
X129516500Y-88393613D01*
X129522913Y-88464192D01*
X129522913Y-88464194D01*
X129522914Y-88464196D01*
X129573522Y-88626606D01*
X129655058Y-88761483D01*
X129661530Y-88772188D01*
X129781811Y-88892469D01*
X129781813Y-88892470D01*
X129781815Y-88892472D01*
X129927394Y-88980478D01*
X130089804Y-89031086D01*
X130160384Y-89037500D01*
X130160387Y-89037500D01*
X130673613Y-89037500D01*
X130673616Y-89037500D01*
X130744196Y-89031086D01*
X130906606Y-88980478D01*
X131052185Y-88892472D01*
X131154673Y-88789983D01*
X131215994Y-88756499D01*
X131285685Y-88761483D01*
X131330034Y-88789984D01*
X131432122Y-88892072D01*
X131577604Y-88980019D01*
X131577603Y-88980019D01*
X131739894Y-89030590D01*
X131739893Y-89030590D01*
X131810408Y-89036998D01*
X131810426Y-89036999D01*
X131816999Y-89036998D01*
X131817000Y-89036998D01*
X131817000Y-88312000D01*
X132317000Y-88312000D01*
X132317000Y-89036999D01*
X132323581Y-89036999D01*
X132394102Y-89030591D01*
X132394107Y-89030590D01*
X132556396Y-88980018D01*
X132701877Y-88892072D01*
X132822072Y-88771877D01*
X132910019Y-88626395D01*
X132960590Y-88464106D01*
X132967000Y-88393572D01*
X132967000Y-88312000D01*
X132317000Y-88312000D01*
X131817000Y-88312000D01*
X131817000Y-87936000D01*
X131836685Y-87868961D01*
X131889489Y-87823206D01*
X131941000Y-87812000D01*
X132966999Y-87812000D01*
X132966999Y-87730417D01*
X132960591Y-87659897D01*
X132960590Y-87659892D01*
X132910018Y-87497603D01*
X132822072Y-87352122D01*
X132701875Y-87231925D01*
X132698109Y-87229649D01*
X132650923Y-87178120D01*
X132639086Y-87109260D01*
X132666357Y-87044932D01*
X132719853Y-87007012D01*
X132743890Y-86998263D01*
X132758424Y-86992974D01*
X132772953Y-86988158D01*
X132831334Y-86968814D01*
X132831343Y-86968807D01*
X132837882Y-86965760D01*
X132837908Y-86965816D01*
X132844690Y-86962532D01*
X132844663Y-86962478D01*
X132851106Y-86959240D01*
X132851117Y-86959237D01*
X132915283Y-86917034D01*
X132980656Y-86876712D01*
X132980662Y-86876705D01*
X132986325Y-86872229D01*
X132986363Y-86872277D01*
X132992200Y-86867522D01*
X132992161Y-86867475D01*
X132997696Y-86862830D01*
X133050385Y-86806983D01*
X133362497Y-86494870D01*
X133582061Y-86275305D01*
X133618134Y-86252655D01*
X133617246Y-86250811D01*
X133623518Y-86247790D01*
X133623522Y-86247789D01*
X133776262Y-86151816D01*
X133903816Y-86024262D01*
X133999789Y-85871522D01*
X134059368Y-85701255D01*
X134065220Y-85649319D01*
X134079565Y-85522003D01*
X134079565Y-85521996D01*
X134059369Y-85342750D01*
X134059368Y-85342745D01*
X134033590Y-85269077D01*
X133999789Y-85172478D01*
X133995502Y-85165656D01*
X133927577Y-85057554D01*
X133903816Y-85019738D01*
X133776262Y-84892184D01*
X133720073Y-84856878D01*
X133623523Y-84796211D01*
X133453254Y-84736631D01*
X133453249Y-84736630D01*
X133274004Y-84716435D01*
X133273996Y-84716435D01*
X133130882Y-84732559D01*
X133062060Y-84720504D01*
X133010681Y-84673155D01*
X132992999Y-84609339D01*
X132992999Y-84461692D01*
X132992998Y-84461677D01*
X132982855Y-84362392D01*
X132929547Y-84201518D01*
X132929542Y-84201507D01*
X132840575Y-84057271D01*
X132840572Y-84057267D01*
X132720732Y-83937427D01*
X132720728Y-83937424D01*
X132571743Y-83845528D01*
X132525018Y-83793580D01*
X132513797Y-83724617D01*
X132541640Y-83660536D01*
X132571743Y-83634451D01*
X132707733Y-83550571D01*
X132827572Y-83430732D01*
X132827575Y-83430728D01*
X132916542Y-83286492D01*
X132916547Y-83286481D01*
X132969855Y-83125606D01*
X132979999Y-83026322D01*
X132980000Y-83026309D01*
X132980000Y-82978000D01*
X131904000Y-82978000D01*
X131836961Y-82958315D01*
X131791206Y-82905511D01*
X131780000Y-82854000D01*
X131780000Y-81752999D01*
X131756693Y-81753000D01*
X131756674Y-81753001D01*
X131657392Y-81763144D01*
X131496518Y-81816452D01*
X131496507Y-81816457D01*
X131352271Y-81905424D01*
X131352265Y-81905428D01*
X131343031Y-81914663D01*
X131281707Y-81948146D01*
X131212015Y-81943159D01*
X131167672Y-81914660D01*
X131158044Y-81905032D01*
X131158040Y-81905029D01*
X131013705Y-81816001D01*
X131013699Y-81815998D01*
X131013697Y-81815997D01*
X130973512Y-81802681D01*
X130852709Y-81762651D01*
X130753346Y-81752500D01*
X130206662Y-81752500D01*
X130206644Y-81752501D01*
X130107292Y-81762650D01*
X130107289Y-81762651D01*
X129946305Y-81815996D01*
X129946294Y-81816001D01*
X129801959Y-81905029D01*
X129801955Y-81905032D01*
X129765807Y-81941181D01*
X129704484Y-81974666D01*
X129678126Y-81977500D01*
X129318229Y-81977500D01*
X129251190Y-81957815D01*
X129230548Y-81941181D01*
X129092048Y-81802681D01*
X129058563Y-81741358D01*
X129063547Y-81671666D01*
X129092048Y-81627319D01*
X130397168Y-80322199D01*
X132311821Y-78407546D01*
X132373142Y-78374063D01*
X132442834Y-78379047D01*
X132498767Y-78420919D01*
X132523184Y-78486383D01*
X132523500Y-78495229D01*
X132523500Y-81158028D01*
X132516542Y-81198982D01*
X132488631Y-81278747D01*
X132468435Y-81457996D01*
X132468435Y-81458003D01*
X132486757Y-81620623D01*
X132474702Y-81689445D01*
X132427353Y-81740824D01*
X132359743Y-81758448D01*
X132350936Y-81757864D01*
X132303327Y-81753000D01*
X132280000Y-81753000D01*
X132280000Y-82478000D01*
X132979999Y-82478000D01*
X132979999Y-82429692D01*
X132979998Y-82429679D01*
X132975042Y-82381167D01*
X132987811Y-82312474D01*
X133035691Y-82261589D01*
X133103481Y-82244668D01*
X133112279Y-82245343D01*
X133162517Y-82251004D01*
X133273997Y-82263565D01*
X133274000Y-82263565D01*
X133274004Y-82263565D01*
X133453249Y-82243369D01*
X133453252Y-82243368D01*
X133453255Y-82243368D01*
X133623522Y-82183789D01*
X133776262Y-82087816D01*
X133903816Y-81960262D01*
X133999789Y-81807522D01*
X134059368Y-81637255D01*
X134079565Y-81458000D01*
X134072820Y-81398140D01*
X134059368Y-81278747D01*
X134059368Y-81278745D01*
X134031458Y-81198982D01*
X134024500Y-81158028D01*
X134024500Y-77079705D01*
X134025809Y-77061735D01*
X134029289Y-77037974D01*
X134024736Y-76985939D01*
X134024500Y-76980532D01*
X134024500Y-76972296D01*
X134024500Y-76972291D01*
X134020691Y-76939705D01*
X134013998Y-76863203D01*
X134013995Y-76863194D01*
X134012538Y-76856135D01*
X134012598Y-76856122D01*
X134010966Y-76848764D01*
X134010908Y-76848778D01*
X134009241Y-76841747D01*
X134009241Y-76841745D01*
X133982969Y-76769563D01*
X133958814Y-76696666D01*
X133955762Y-76690121D01*
X133955815Y-76690095D01*
X133952531Y-76683311D01*
X133952479Y-76683338D01*
X133949236Y-76676882D01*
X133933193Y-76652490D01*
X133907034Y-76612716D01*
X133866712Y-76547344D01*
X133866710Y-76547342D01*
X133862234Y-76541681D01*
X133862280Y-76541643D01*
X133857519Y-76535799D01*
X133857474Y-76535838D01*
X133852834Y-76530308D01*
X133796982Y-76477613D01*
X133575468Y-76256100D01*
X133546967Y-76211752D01*
X133526796Y-76157669D01*
X133526793Y-76157664D01*
X133440547Y-76042455D01*
X133440544Y-76042452D01*
X133325335Y-75956206D01*
X133325328Y-75956202D01*
X133190482Y-75905908D01*
X133190483Y-75905908D01*
X133130883Y-75899501D01*
X133130881Y-75899500D01*
X133130873Y-75899500D01*
X133130865Y-75899500D01*
X132997345Y-75899500D01*
X132981053Y-75897835D01*
X132981048Y-75897895D01*
X132973858Y-75897265D01*
X132897065Y-75899500D01*
X132685130Y-75899500D01*
X132685123Y-75899501D01*
X132625520Y-75905908D01*
X132617974Y-75907692D01*
X132617628Y-75906230D01*
X132556622Y-75910584D01*
X132541600Y-75906172D01*
X132540482Y-75905908D01*
X132480883Y-75899501D01*
X132480881Y-75899500D01*
X132480873Y-75899500D01*
X132480865Y-75899500D01*
X132281647Y-75899500D01*
X132278048Y-75899395D01*
X132239553Y-75897153D01*
X132214067Y-75895669D01*
X132214061Y-75895669D01*
X132203012Y-75897617D01*
X132181488Y-75899500D01*
X132035130Y-75899500D01*
X132035123Y-75899501D01*
X131975515Y-75905909D01*
X131967971Y-75907692D01*
X131967675Y-75906439D01*
X131905926Y-75910855D01*
X131892357Y-75906870D01*
X131890372Y-75906401D01*
X131830844Y-75900000D01*
X131783000Y-75900000D01*
X131783000Y-75937305D01*
X131763315Y-76004344D01*
X131733315Y-76036569D01*
X131725454Y-76042453D01*
X131707266Y-76066750D01*
X131651332Y-76108620D01*
X131581640Y-76113604D01*
X131520317Y-76080118D01*
X131508734Y-76066750D01*
X131508474Y-76066402D01*
X131490546Y-76042454D01*
X131490545Y-76042453D01*
X131482685Y-76036569D01*
X131440816Y-75980633D01*
X131433000Y-75937305D01*
X131433000Y-75900000D01*
X131385155Y-75900000D01*
X131325624Y-75906401D01*
X131318073Y-75908186D01*
X131317684Y-75906542D01*
X131257348Y-75910853D01*
X131240614Y-75905939D01*
X131240483Y-75905908D01*
X131180883Y-75899501D01*
X131180881Y-75899500D01*
X131180873Y-75899500D01*
X131180865Y-75899500D01*
X130981647Y-75899500D01*
X130978048Y-75899395D01*
X130939553Y-75897153D01*
X130914067Y-75895669D01*
X130914061Y-75895669D01*
X130903012Y-75897617D01*
X130881488Y-75899500D01*
X130735130Y-75899500D01*
X130735123Y-75899501D01*
X130675516Y-75905908D01*
X130540671Y-75956202D01*
X130540664Y-75956206D01*
X130425455Y-76042452D01*
X130425452Y-76042455D01*
X130339206Y-76157664D01*
X130339202Y-76157671D01*
X130288910Y-76292512D01*
X130287127Y-76300060D01*
X130286710Y-76299961D01*
X130276436Y-76334864D01*
X130247960Y-76391565D01*
X130247960Y-76391567D01*
X130215078Y-76530308D01*
X130207500Y-76562281D01*
X130207500Y-76585451D01*
X130187815Y-76652490D01*
X130171181Y-76673132D01*
X127757026Y-79087288D01*
X127708357Y-79135955D01*
X127694729Y-79147733D01*
X127675468Y-79162072D01*
X127641898Y-79202079D01*
X127638253Y-79206058D01*
X127632409Y-79211904D01*
X127612059Y-79237641D01*
X127562695Y-79296471D01*
X127558729Y-79302501D01*
X127558682Y-79302470D01*
X127554630Y-79308829D01*
X127554679Y-79308859D01*
X127550889Y-79315003D01*
X127518424Y-79384623D01*
X127483960Y-79453248D01*
X127481488Y-79460039D01*
X127481432Y-79460018D01*
X127478960Y-79467132D01*
X127479015Y-79467151D01*
X127476742Y-79474009D01*
X127468975Y-79511628D01*
X127461207Y-79549247D01*
X127448001Y-79604966D01*
X127443498Y-79623968D01*
X127442661Y-79631136D01*
X127442601Y-79631129D01*
X127441835Y-79638627D01*
X127441895Y-79638633D01*
X127441265Y-79645822D01*
X127443500Y-79722598D01*
X127443500Y-81374655D01*
X127441835Y-81390945D01*
X127441895Y-81390951D01*
X127441265Y-81398140D01*
X127443500Y-81474916D01*
X127443500Y-81902294D01*
X127442191Y-81920263D01*
X127438710Y-81944025D01*
X127443264Y-81996064D01*
X127443500Y-82001470D01*
X127443500Y-83934294D01*
X127442191Y-83952263D01*
X127438710Y-83976025D01*
X127443264Y-84028064D01*
X127443500Y-84033470D01*
X127443500Y-86683769D01*
X127423815Y-86750808D01*
X127407181Y-86771450D01*
X126996937Y-87181693D01*
X126960873Y-87204370D01*
X126961750Y-87206191D01*
X126955475Y-87209212D01*
X126802737Y-87305184D01*
X126675184Y-87432737D01*
X126579211Y-87585476D01*
X126519631Y-87755745D01*
X126519630Y-87755750D01*
X126499435Y-87934996D01*
X126499435Y-87935003D01*
X116793256Y-87935003D01*
X116807565Y-87808003D01*
X116807565Y-87807996D01*
X116787369Y-87628750D01*
X116787368Y-87628745D01*
X116775774Y-87595610D01*
X116727789Y-87458478D01*
X116722011Y-87449283D01*
X116681691Y-87385113D01*
X116631816Y-87305738D01*
X116504262Y-87178184D01*
X116351522Y-87082211D01*
X116351518Y-87082209D01*
X116345244Y-87079188D01*
X116346125Y-87077358D01*
X116310059Y-87054692D01*
X116094919Y-86839552D01*
X116061434Y-86778229D01*
X116066418Y-86708537D01*
X116106435Y-86654020D01*
X116208773Y-86574368D01*
X116368775Y-86400561D01*
X116406490Y-86342832D01*
X116459634Y-86297477D01*
X116528865Y-86288053D01*
X116592201Y-86317554D01*
X116609547Y-86337571D01*
X116610749Y-86337696D01*
X117360195Y-85588251D01*
X117370762Y-85654969D01*
X117431882Y-85774923D01*
X117527077Y-85870118D01*
X117647031Y-85931238D01*
X117713747Y-85941804D01*
X116963386Y-86692165D01*
X116963386Y-86692167D01*
X116997919Y-86719045D01*
X116997925Y-86719049D01*
X117205621Y-86831449D01*
X117205629Y-86831452D01*
X117428981Y-86908129D01*
X117661921Y-86947000D01*
X117898079Y-86947000D01*
X118131018Y-86908129D01*
X118354370Y-86831452D01*
X118354388Y-86831445D01*
X118562066Y-86719054D01*
X118562075Y-86719048D01*
X118596612Y-86692166D01*
X118596613Y-86692165D01*
X117846251Y-85941804D01*
X117912969Y-85931238D01*
X118032923Y-85870118D01*
X118128118Y-85774923D01*
X118189238Y-85654969D01*
X118199804Y-85588251D01*
X118949248Y-86337696D01*
X118952277Y-86337382D01*
X118999036Y-86297477D01*
X119068267Y-86288052D01*
X119131603Y-86317553D01*
X119153509Y-86342832D01*
X119191227Y-86400564D01*
X119332921Y-86554483D01*
X119351227Y-86574368D01*
X119453560Y-86654017D01*
X119537119Y-86719054D01*
X119537654Y-86719470D01*
X119745421Y-86831908D01*
X119968861Y-86908616D01*
X120201880Y-86947500D01*
X120201881Y-86947500D01*
X120438119Y-86947500D01*
X120438120Y-86947500D01*
X120671139Y-86908616D01*
X120894579Y-86831908D01*
X121102346Y-86719470D01*
X121288773Y-86574368D01*
X121448775Y-86400561D01*
X121577986Y-86202788D01*
X121672883Y-85986445D01*
X121730876Y-85757434D01*
X121746586Y-85567851D01*
X121750385Y-85522005D01*
X121750385Y-85521994D01*
X121733974Y-85323950D01*
X121730876Y-85286566D01*
X121672883Y-85057555D01*
X121577986Y-84841212D01*
X121522279Y-84755945D01*
X121448774Y-84643437D01*
X121288776Y-84469635D01*
X121288775Y-84469634D01*
X121288773Y-84469632D01*
X121167691Y-84375390D01*
X121102348Y-84324531D01*
X120894580Y-84212092D01*
X120894571Y-84212089D01*
X120671141Y-84135384D01*
X120476521Y-84102908D01*
X120438120Y-84096500D01*
X120201880Y-84096500D01*
X120163479Y-84102908D01*
X119968858Y-84135384D01*
X119745428Y-84212089D01*
X119745419Y-84212092D01*
X119537651Y-84324531D01*
X119351228Y-84469631D01*
X119351223Y-84469635D01*
X119191225Y-84643438D01*
X119191223Y-84643440D01*
X119153509Y-84701166D01*
X119100363Y-84746523D01*
X119031132Y-84755946D01*
X118967796Y-84726444D01*
X118950451Y-84706427D01*
X118949248Y-84706302D01*
X118199804Y-85455747D01*
X118189238Y-85389031D01*
X118128118Y-85269077D01*
X118032923Y-85173882D01*
X117912969Y-85112762D01*
X117846252Y-85102195D01*
X118596612Y-84351833D01*
X118596612Y-84351831D01*
X118562080Y-84324954D01*
X118562074Y-84324950D01*
X118354378Y-84212550D01*
X118354370Y-84212547D01*
X118131018Y-84135870D01*
X117898079Y-84097000D01*
X117661921Y-84097000D01*
X117428981Y-84135870D01*
X117205629Y-84212547D01*
X117205621Y-84212550D01*
X116997922Y-84324952D01*
X116963386Y-84351831D01*
X116963385Y-84351833D01*
X117713748Y-85102195D01*
X117647031Y-85112762D01*
X117527077Y-85173882D01*
X117431882Y-85269077D01*
X117370762Y-85389031D01*
X117360195Y-85455748D01*
X116610749Y-84706302D01*
X116607717Y-84706616D01*
X116560960Y-84746521D01*
X116491729Y-84755945D01*
X116428393Y-84726443D01*
X116406489Y-84701165D01*
X116388189Y-84673155D01*
X116368775Y-84643439D01*
X116368773Y-84643437D01*
X116368772Y-84643435D01*
X116208776Y-84469635D01*
X116208775Y-84469634D01*
X116208773Y-84469632D01*
X116087691Y-84375390D01*
X116022348Y-84324531D01*
X115814580Y-84212092D01*
X115814571Y-84212089D01*
X115591141Y-84135384D01*
X115396521Y-84102908D01*
X115358120Y-84096500D01*
X115121880Y-84096500D01*
X115083479Y-84102908D01*
X114888858Y-84135384D01*
X114665428Y-84212089D01*
X114665419Y-84212092D01*
X114457651Y-84324531D01*
X114271228Y-84469631D01*
X114271223Y-84469635D01*
X114111225Y-84643437D01*
X113982013Y-84841212D01*
X113887117Y-85057554D01*
X113829123Y-85286569D01*
X113809615Y-85521994D01*
X113809615Y-85522005D01*
X106510385Y-85522005D01*
X106510385Y-85521994D01*
X106493974Y-85323950D01*
X106490876Y-85286566D01*
X106432883Y-85057555D01*
X106337986Y-84841212D01*
X106282279Y-84755945D01*
X106208774Y-84643437D01*
X106048776Y-84469635D01*
X106048775Y-84469634D01*
X106048773Y-84469632D01*
X105927691Y-84375390D01*
X105862348Y-84324531D01*
X105654580Y-84212092D01*
X105654571Y-84212089D01*
X105431141Y-84135384D01*
X105236521Y-84102908D01*
X105198120Y-84096500D01*
X104961880Y-84096500D01*
X104923479Y-84102908D01*
X104728858Y-84135384D01*
X104505428Y-84212089D01*
X104505419Y-84212092D01*
X104297651Y-84324531D01*
X104297645Y-84324535D01*
X104120881Y-84462117D01*
X104055887Y-84487760D01*
X103987347Y-84474194D01*
X103937023Y-84425725D01*
X103928537Y-84407597D01*
X103908797Y-84354671D01*
X103908793Y-84354664D01*
X103822547Y-84239455D01*
X103822544Y-84239452D01*
X103707335Y-84153206D01*
X103707328Y-84153202D01*
X103572482Y-84102908D01*
X103572483Y-84102908D01*
X103512883Y-84096501D01*
X103512881Y-84096500D01*
X103512873Y-84096500D01*
X103512864Y-84096500D01*
X101567129Y-84096500D01*
X101567123Y-84096501D01*
X101507516Y-84102908D01*
X101372671Y-84153202D01*
X101372664Y-84153206D01*
X101257455Y-84239452D01*
X101257452Y-84239455D01*
X101171206Y-84354664D01*
X101171202Y-84354671D01*
X101120908Y-84489517D01*
X101114501Y-84549116D01*
X101114500Y-84549135D01*
X101114500Y-86494870D01*
X100001770Y-86494870D01*
X100001770Y-79170770D01*
X100021455Y-79103731D01*
X100074259Y-79057976D01*
X100125770Y-79046770D01*
X120295017Y-79046770D01*
X120295772Y-79046919D01*
X120320001Y-79046916D01*
X120321353Y-79046356D01*
X120321353Y-79046355D01*
X120321355Y-79046355D01*
X120321770Y-79045353D01*
X120321770Y-79045352D01*
X120321916Y-79045000D01*
X120321927Y-79020812D01*
X120321770Y-79020016D01*
X120321770Y-70291000D01*
X123663001Y-70291000D01*
X123663001Y-70314322D01*
X123673144Y-70413607D01*
X123726452Y-70574481D01*
X123726457Y-70574492D01*
X123815424Y-70718728D01*
X123815427Y-70718732D01*
X123935267Y-70838572D01*
X123935271Y-70838575D01*
X124079507Y-70927542D01*
X124079518Y-70927547D01*
X124240393Y-70980855D01*
X124339683Y-70990999D01*
X124387999Y-70990998D01*
X124388000Y-70990998D01*
X124388000Y-70291000D01*
X123663001Y-70291000D01*
X120321770Y-70291000D01*
X120321770Y-65322000D01*
X122568000Y-65322000D01*
X122568000Y-65962644D01*
X122570899Y-65999489D01*
X122570900Y-65999495D01*
X122616716Y-66157193D01*
X122616717Y-66157196D01*
X122700314Y-66298552D01*
X122700321Y-66298561D01*
X122816438Y-66414678D01*
X122816447Y-66414685D01*
X122957801Y-66498281D01*
X123115514Y-66544100D01*
X123115511Y-66544100D01*
X123117998Y-66544295D01*
X123118000Y-66544295D01*
X123118000Y-65322000D01*
X122568000Y-65322000D01*
X120321770Y-65322000D01*
X120321770Y-64822000D01*
X122568000Y-64822000D01*
X123118000Y-64822000D01*
X123118000Y-63599703D01*
X123115503Y-63599900D01*
X122957806Y-63645716D01*
X122957803Y-63645717D01*
X122816447Y-63729314D01*
X122816438Y-63729321D01*
X122700321Y-63845438D01*
X122700314Y-63845447D01*
X122616717Y-63986803D01*
X122616716Y-63986806D01*
X122570900Y-64144504D01*
X122570899Y-64144510D01*
X122568000Y-64181356D01*
X122568000Y-64822000D01*
X120321770Y-64822000D01*
X120321770Y-61290047D01*
X120321908Y-61289354D01*
X120321916Y-61264998D01*
X120321356Y-61263646D01*
X120321353Y-61263643D01*
X120320354Y-61263230D01*
X120320001Y-61263084D01*
X120295751Y-61263084D01*
X120295016Y-61263230D01*
X105840770Y-61263230D01*
X105773731Y-61243545D01*
X105727976Y-61190741D01*
X105716770Y-61139230D01*
X105716770Y-57305870D01*
X106427500Y-57305870D01*
X106427501Y-57305876D01*
X106433908Y-57365483D01*
X106484202Y-57500328D01*
X106484206Y-57500335D01*
X106570452Y-57615544D01*
X106570455Y-57615547D01*
X106685664Y-57701793D01*
X106685671Y-57701797D01*
X106820517Y-57752091D01*
X106820516Y-57752091D01*
X106827195Y-57752809D01*
X106880127Y-57758500D01*
X109375872Y-57758499D01*
X109435483Y-57752091D01*
X109570331Y-57701796D01*
X109685546Y-57615546D01*
X109771796Y-57500331D01*
X109822091Y-57365483D01*
X109828500Y-57305873D01*
X109828499Y-56782854D01*
X109848183Y-56715818D01*
X109900987Y-56670063D01*
X109970146Y-56660119D01*
X110033702Y-56689144D01*
X110067927Y-56737553D01*
X110091607Y-56797888D01*
X110219041Y-57018612D01*
X110377950Y-57217877D01*
X110564783Y-57391232D01*
X110775366Y-57534805D01*
X110775371Y-57534807D01*
X110775372Y-57534808D01*
X110775373Y-57534809D01*
X110884055Y-57587147D01*
X111004992Y-57645387D01*
X111004993Y-57645387D01*
X111004996Y-57645389D01*
X111248542Y-57720513D01*
X111500565Y-57758500D01*
X111755435Y-57758500D01*
X112007458Y-57720513D01*
X112105488Y-57690273D01*
X112175347Y-57689323D01*
X112229716Y-57721084D01*
X115116270Y-60607638D01*
X115128051Y-60621270D01*
X115142388Y-60640528D01*
X115182409Y-60674111D01*
X115186397Y-60677766D01*
X115192216Y-60683585D01*
X115192220Y-60683588D01*
X115192223Y-60683591D01*
X115217959Y-60703940D01*
X115276786Y-60753302D01*
X115276787Y-60753302D01*
X115276789Y-60753304D01*
X115282818Y-60757270D01*
X115282785Y-60757319D01*
X115289147Y-60761372D01*
X115289179Y-60761321D01*
X115295319Y-60765108D01*
X115295323Y-60765111D01*
X115330132Y-60781343D01*
X115364941Y-60797575D01*
X115433565Y-60832039D01*
X115433567Y-60832040D01*
X115433569Y-60832040D01*
X115440357Y-60834511D01*
X115440336Y-60834567D01*
X115447457Y-60837043D01*
X115447476Y-60836986D01*
X115454322Y-60839254D01*
X115454327Y-60839257D01*
X115454332Y-60839258D01*
X115454335Y-60839259D01*
X115529565Y-60854792D01*
X115604279Y-60872500D01*
X115604282Y-60872500D01*
X115604286Y-60872501D01*
X115611453Y-60873339D01*
X115611446Y-60873398D01*
X115618944Y-60874164D01*
X115618950Y-60874105D01*
X115626139Y-60874734D01*
X115626143Y-60874733D01*
X115626144Y-60874734D01*
X115702917Y-60872500D01*
X120740279Y-60872500D01*
X122443500Y-60872500D01*
X122510539Y-60892185D01*
X122556294Y-60944989D01*
X122567500Y-60996500D01*
X122567500Y-61012696D01*
X122570401Y-61049567D01*
X122570402Y-61049573D01*
X122616254Y-61207393D01*
X122616255Y-61207396D01*
X122616256Y-61207398D01*
X122646113Y-61257883D01*
X122699917Y-61348862D01*
X122699923Y-61348870D01*
X122816129Y-61465076D01*
X122816133Y-61465079D01*
X122816135Y-61465081D01*
X122957602Y-61548744D01*
X122999224Y-61560836D01*
X123115426Y-61594597D01*
X123115429Y-61594597D01*
X123115431Y-61594598D01*
X123127722Y-61595565D01*
X123152304Y-61597500D01*
X123152306Y-61597500D01*
X123583696Y-61597500D01*
X123602131Y-61596049D01*
X123620569Y-61594598D01*
X123620571Y-61594597D01*
X123620573Y-61594597D01*
X123697253Y-61572319D01*
X123778398Y-61548744D01*
X123919865Y-61465081D01*
X123919870Y-61465075D01*
X123926031Y-61460298D01*
X123927933Y-61462750D01*
X123976579Y-61436155D01*
X124046274Y-61441104D01*
X124078695Y-61461940D01*
X124079969Y-61460298D01*
X124086132Y-61465078D01*
X124086135Y-61465081D01*
X124227602Y-61548744D01*
X124269224Y-61560836D01*
X124385426Y-61594597D01*
X124385429Y-61594597D01*
X124385431Y-61594598D01*
X124397722Y-61595565D01*
X124422304Y-61597500D01*
X124422306Y-61597500D01*
X124853696Y-61597500D01*
X124872131Y-61596049D01*
X124890569Y-61594598D01*
X124890571Y-61594597D01*
X124890573Y-61594597D01*
X124967253Y-61572319D01*
X125048398Y-61548744D01*
X125189865Y-61465081D01*
X125189870Y-61465075D01*
X125196031Y-61460298D01*
X125197933Y-61462750D01*
X125246579Y-61436155D01*
X125316274Y-61441104D01*
X125348695Y-61461940D01*
X125349969Y-61460298D01*
X125356132Y-61465078D01*
X125356135Y-61465081D01*
X125497602Y-61548744D01*
X125539224Y-61560836D01*
X125655426Y-61594597D01*
X125655429Y-61594597D01*
X125655431Y-61594598D01*
X125667722Y-61595565D01*
X125692304Y-61597500D01*
X125692306Y-61597500D01*
X126123696Y-61597500D01*
X126142131Y-61596049D01*
X126160569Y-61594598D01*
X126160571Y-61594597D01*
X126160573Y-61594597D01*
X126237253Y-61572319D01*
X126318398Y-61548744D01*
X126459865Y-61465081D01*
X126459870Y-61465075D01*
X126466031Y-61460298D01*
X126467933Y-61462750D01*
X126516579Y-61436155D01*
X126586274Y-61441104D01*
X126618695Y-61461940D01*
X126619969Y-61460298D01*
X126626132Y-61465078D01*
X126626135Y-61465081D01*
X126767602Y-61548744D01*
X126809224Y-61560836D01*
X126925426Y-61594597D01*
X126925429Y-61594597D01*
X126925431Y-61594598D01*
X126937722Y-61595565D01*
X126962304Y-61597500D01*
X126962306Y-61597500D01*
X127393696Y-61597500D01*
X127412131Y-61596049D01*
X127430569Y-61594598D01*
X127430571Y-61594597D01*
X127430573Y-61594597D01*
X127507253Y-61572319D01*
X127588398Y-61548744D01*
X127729865Y-61465081D01*
X127846081Y-61348865D01*
X127929744Y-61207398D01*
X127975598Y-61049569D01*
X127978500Y-61012694D01*
X127978500Y-59231306D01*
X127975598Y-59194431D01*
X127970611Y-59177267D01*
X127935458Y-59056269D01*
X127929744Y-59036602D01*
X127846081Y-58895135D01*
X127846079Y-58895133D01*
X127846076Y-58895129D01*
X127749128Y-58798181D01*
X127715643Y-58736858D01*
X127720627Y-58667166D01*
X127762499Y-58611233D01*
X127827963Y-58586816D01*
X127836809Y-58586500D01*
X129101770Y-58586500D01*
X129168809Y-58606185D01*
X129189451Y-58622819D01*
X131817362Y-61250730D01*
X131850847Y-61312053D01*
X131853037Y-61328836D01*
X131853246Y-61328818D01*
X131859913Y-61402192D01*
X131859913Y-61402194D01*
X131859914Y-61402196D01*
X131910522Y-61564606D01*
X131994386Y-61703334D01*
X131998530Y-61710188D01*
X132100661Y-61812319D01*
X132134146Y-61873642D01*
X132129162Y-61943334D01*
X132100661Y-61987681D01*
X131998531Y-62089810D01*
X131998530Y-62089811D01*
X131910522Y-62235393D01*
X131859913Y-62397807D01*
X131853500Y-62468386D01*
X131853500Y-62981613D01*
X131859913Y-63052192D01*
X131859913Y-63052194D01*
X131859914Y-63052196D01*
X131910522Y-63214606D01*
X131997200Y-63357989D01*
X131998530Y-63360188D01*
X132038953Y-63400611D01*
X132072438Y-63461934D01*
X132074800Y-63477481D01*
X132078264Y-63517061D01*
X132078500Y-63522469D01*
X132078500Y-64372480D01*
X132058815Y-64439519D01*
X132042181Y-64460161D01*
X131998531Y-64503810D01*
X131998530Y-64503811D01*
X131910522Y-64649393D01*
X131859913Y-64811807D01*
X131853500Y-64882386D01*
X131853500Y-65395613D01*
X131859913Y-65466192D01*
X131859913Y-65466194D01*
X131859914Y-65466196D01*
X131889335Y-65560613D01*
X131890485Y-65630470D01*
X131853684Y-65689863D01*
X131790615Y-65719931D01*
X131770949Y-65721500D01*
X131287972Y-65721500D01*
X131247017Y-65714542D01*
X131167254Y-65686631D01*
X131167249Y-65686630D01*
X130988004Y-65666435D01*
X130987996Y-65666435D01*
X130808750Y-65686630D01*
X130808745Y-65686631D01*
X130638476Y-65746211D01*
X130485737Y-65842184D01*
X130358184Y-65969737D01*
X130262211Y-66122476D01*
X130202631Y-66292745D01*
X130202630Y-66292750D01*
X130182435Y-66471996D01*
X130182435Y-66472003D01*
X130202630Y-66651249D01*
X130202631Y-66651254D01*
X130262211Y-66821523D01*
X130320407Y-66914140D01*
X130358184Y-66974262D01*
X130485738Y-67101816D01*
X130498577Y-67109883D01*
X130603463Y-67175788D01*
X130638478Y-67197789D01*
X130796025Y-67252917D01*
X130808745Y-67257368D01*
X130808750Y-67257369D01*
X130987996Y-67277565D01*
X130988000Y-67277565D01*
X130988004Y-67277565D01*
X131167249Y-67257369D01*
X131167252Y-67257368D01*
X131167255Y-67257368D01*
X131247017Y-67229457D01*
X131287972Y-67222500D01*
X131806669Y-67222500D01*
X131873708Y-67242185D01*
X131912784Y-67282348D01*
X131993653Y-67416121D01*
X131998530Y-67424188D01*
X132118811Y-67544469D01*
X132118813Y-67544470D01*
X132118815Y-67544472D01*
X132264394Y-67632478D01*
X132426804Y-67683086D01*
X132497384Y-67689500D01*
X132497387Y-67689500D01*
X133160613Y-67689500D01*
X133160616Y-67689500D01*
X133231196Y-67683086D01*
X133393606Y-67632478D01*
X133517828Y-67557382D01*
X133581977Y-67539500D01*
X135566818Y-67539500D01*
X135631915Y-67557962D01*
X135763294Y-67638998D01*
X135763297Y-67638999D01*
X135763303Y-67639003D01*
X135924292Y-67692349D01*
X136023655Y-67702500D01*
X136620344Y-67702499D01*
X136620352Y-67702498D01*
X136620355Y-67702498D01*
X136683692Y-67696028D01*
X136719708Y-67692349D01*
X136880697Y-67639003D01*
X137025044Y-67549968D01*
X137036193Y-67538819D01*
X137097516Y-67505334D01*
X137123874Y-67502500D01*
X137255770Y-67502500D01*
X137322809Y-67522185D01*
X137343451Y-67538819D01*
X137821181Y-68016548D01*
X137854666Y-68077871D01*
X137857500Y-68104229D01*
X137857500Y-69247520D01*
X137837815Y-69314559D01*
X137785011Y-69360314D01*
X137715853Y-69370258D01*
X137681097Y-69359903D01*
X137665059Y-69352425D01*
X137596430Y-69317958D01*
X137589645Y-69315489D01*
X137589665Y-69315433D01*
X137582549Y-69312959D01*
X137582531Y-69313015D01*
X137575671Y-69310742D01*
X137547841Y-69304996D01*
X137500434Y-69295207D01*
X137451472Y-69283603D01*
X137425719Y-69277499D01*
X137418547Y-69276661D01*
X137418553Y-69276601D01*
X137411055Y-69275835D01*
X137411050Y-69275895D01*
X137403860Y-69275265D01*
X137327083Y-69277500D01*
X132770519Y-69277500D01*
X132703480Y-69257815D01*
X132682837Y-69241180D01*
X132639188Y-69197531D01*
X132639188Y-69197530D01*
X132607993Y-69178672D01*
X132493606Y-69109522D01*
X132331196Y-69058914D01*
X132331194Y-69058913D01*
X132331192Y-69058913D01*
X132281778Y-69054423D01*
X132260616Y-69052500D01*
X131747384Y-69052500D01*
X131728145Y-69054248D01*
X131676807Y-69058913D01*
X131514393Y-69109522D01*
X131368811Y-69197530D01*
X131368810Y-69197531D01*
X131266681Y-69299661D01*
X131205358Y-69333146D01*
X131135666Y-69328162D01*
X131091319Y-69299661D01*
X130989188Y-69197530D01*
X130957993Y-69178672D01*
X130843606Y-69109522D01*
X130681196Y-69058914D01*
X130681194Y-69058913D01*
X130681192Y-69058913D01*
X130631778Y-69054423D01*
X130610616Y-69052500D01*
X130097384Y-69052500D01*
X130078145Y-69054248D01*
X130026807Y-69058913D01*
X129864393Y-69109522D01*
X129718811Y-69197530D01*
X129718811Y-69197531D01*
X129675163Y-69241180D01*
X129613840Y-69274666D01*
X129587481Y-69277500D01*
X129045345Y-69277500D01*
X129029055Y-69275835D01*
X129029050Y-69275895D01*
X129021860Y-69275265D01*
X128945083Y-69277500D01*
X128706519Y-69277500D01*
X128639480Y-69257815D01*
X128618837Y-69241180D01*
X128575188Y-69197531D01*
X128575188Y-69197530D01*
X128543993Y-69178672D01*
X128429606Y-69109522D01*
X128267196Y-69058914D01*
X128267194Y-69058913D01*
X128267192Y-69058913D01*
X128217778Y-69054423D01*
X128196616Y-69052500D01*
X127683384Y-69052500D01*
X127664145Y-69054248D01*
X127612807Y-69058913D01*
X127450393Y-69109522D01*
X127304811Y-69197530D01*
X127304810Y-69197531D01*
X127202681Y-69299661D01*
X127141358Y-69333146D01*
X127071666Y-69328162D01*
X127027319Y-69299661D01*
X126925188Y-69197530D01*
X126925185Y-69197528D01*
X126779606Y-69109522D01*
X126779604Y-69109521D01*
X126779602Y-69109520D01*
X126779603Y-69109520D01*
X126745610Y-69098928D01*
X126687462Y-69060191D01*
X126659488Y-68996166D01*
X126658500Y-68980543D01*
X126658500Y-68837073D01*
X126678185Y-68770034D01*
X126730989Y-68724279D01*
X126800147Y-68714335D01*
X126823455Y-68720032D01*
X126998737Y-68781366D01*
X126998743Y-68781367D01*
X126998745Y-68781368D01*
X126998746Y-68781368D01*
X126998750Y-68781369D01*
X127177996Y-68801565D01*
X127178000Y-68801565D01*
X127178004Y-68801565D01*
X127357249Y-68781369D01*
X127357252Y-68781368D01*
X127357255Y-68781368D01*
X127527522Y-68721789D01*
X127680262Y-68625816D01*
X127807816Y-68498262D01*
X127903789Y-68345522D01*
X127963368Y-68175255D01*
X127969786Y-68118292D01*
X127983565Y-67996003D01*
X127983565Y-67995996D01*
X127963368Y-67816747D01*
X127963368Y-67816745D01*
X127935458Y-67736982D01*
X127928500Y-67696028D01*
X127928500Y-66179328D01*
X127933424Y-66144733D01*
X127975597Y-65999573D01*
X127975598Y-65999567D01*
X127978500Y-65962696D01*
X127978500Y-64181304D01*
X127975598Y-64144432D01*
X127975597Y-64144426D01*
X127929745Y-63986606D01*
X127929744Y-63986603D01*
X127929744Y-63986602D01*
X127846081Y-63845135D01*
X127846079Y-63845133D01*
X127846076Y-63845129D01*
X127729870Y-63728923D01*
X127729862Y-63728917D01*
X127602838Y-63653796D01*
X127588398Y-63645256D01*
X127588397Y-63645255D01*
X127588396Y-63645255D01*
X127588393Y-63645254D01*
X127430573Y-63599402D01*
X127430567Y-63599401D01*
X127393696Y-63596500D01*
X127393694Y-63596500D01*
X126962306Y-63596500D01*
X126962304Y-63596500D01*
X126925432Y-63599401D01*
X126925426Y-63599402D01*
X126767606Y-63645254D01*
X126767603Y-63645255D01*
X126626137Y-63728917D01*
X126619969Y-63733702D01*
X126618072Y-63731256D01*
X126569358Y-63757857D01*
X126499666Y-63752873D01*
X126467296Y-63732069D01*
X126466031Y-63733702D01*
X126459862Y-63728917D01*
X126332838Y-63653796D01*
X126318398Y-63645256D01*
X126318397Y-63645255D01*
X126318396Y-63645255D01*
X126318393Y-63645254D01*
X126160573Y-63599402D01*
X126160567Y-63599401D01*
X126123696Y-63596500D01*
X126123694Y-63596500D01*
X125692306Y-63596500D01*
X125692304Y-63596500D01*
X125655432Y-63599401D01*
X125655426Y-63599402D01*
X125497606Y-63645254D01*
X125497603Y-63645255D01*
X125356137Y-63728917D01*
X125349969Y-63733702D01*
X125348072Y-63731256D01*
X125299358Y-63757857D01*
X125229666Y-63752873D01*
X125197296Y-63732069D01*
X125196031Y-63733702D01*
X125189862Y-63728917D01*
X125062838Y-63653796D01*
X125048398Y-63645256D01*
X125048397Y-63645255D01*
X125048396Y-63645255D01*
X125048393Y-63645254D01*
X124890573Y-63599402D01*
X124890567Y-63599401D01*
X124853696Y-63596500D01*
X124853694Y-63596500D01*
X124422306Y-63596500D01*
X124422304Y-63596500D01*
X124385432Y-63599401D01*
X124385426Y-63599402D01*
X124227606Y-63645254D01*
X124227603Y-63645255D01*
X124086140Y-63728915D01*
X124079974Y-63733699D01*
X124078174Y-63731379D01*
X124028913Y-63758230D01*
X123959225Y-63753193D01*
X123926992Y-63732461D01*
X123925722Y-63734100D01*
X123919552Y-63729314D01*
X123778196Y-63645717D01*
X123778193Y-63645716D01*
X123620494Y-63599900D01*
X123620497Y-63599900D01*
X123618000Y-63599703D01*
X123618000Y-66544295D01*
X123618001Y-66544295D01*
X123620488Y-66544100D01*
X123620494Y-66544099D01*
X123728905Y-66512603D01*
X123798775Y-66512802D01*
X123857445Y-66550744D01*
X123886288Y-66614383D01*
X123887500Y-66631679D01*
X123887500Y-67689126D01*
X123867815Y-67756165D01*
X123851181Y-67776807D01*
X123815032Y-67812955D01*
X123815029Y-67812959D01*
X123726001Y-67957294D01*
X123725996Y-67957305D01*
X123672651Y-68118290D01*
X123662500Y-68217647D01*
X123662500Y-68764337D01*
X123662501Y-68764355D01*
X123672650Y-68863707D01*
X123672651Y-68863710D01*
X123725996Y-69024694D01*
X123726001Y-69024705D01*
X123815029Y-69169040D01*
X123815032Y-69169044D01*
X123824660Y-69178672D01*
X123858145Y-69239995D01*
X123853161Y-69309687D01*
X123824663Y-69354031D01*
X123815428Y-69363265D01*
X123815424Y-69363271D01*
X123726457Y-69507507D01*
X123726452Y-69507518D01*
X123673144Y-69668393D01*
X123663000Y-69767677D01*
X123663000Y-69791000D01*
X124764000Y-69791000D01*
X124831039Y-69810685D01*
X124876794Y-69863489D01*
X124888000Y-69915000D01*
X124888000Y-70990999D01*
X124936308Y-70990999D01*
X124936322Y-70990998D01*
X125035607Y-70980855D01*
X125196481Y-70927547D01*
X125196492Y-70927542D01*
X125340727Y-70838576D01*
X125400141Y-70779162D01*
X125461464Y-70745677D01*
X125531156Y-70750661D01*
X125575504Y-70779162D01*
X125654811Y-70858469D01*
X125654813Y-70858470D01*
X125654815Y-70858472D01*
X125800394Y-70946478D01*
X125962804Y-70997086D01*
X126033384Y-71003500D01*
X126033387Y-71003500D01*
X126546613Y-71003500D01*
X126546616Y-71003500D01*
X126617196Y-70997086D01*
X126779606Y-70946478D01*
X126925185Y-70858472D01*
X126957446Y-70826211D01*
X127027319Y-70756339D01*
X127088642Y-70722854D01*
X127158334Y-70727838D01*
X127202681Y-70756339D01*
X127304811Y-70858469D01*
X127304813Y-70858470D01*
X127304815Y-70858472D01*
X127450394Y-70946478D01*
X127612804Y-70997086D01*
X127683384Y-71003500D01*
X127683387Y-71003500D01*
X128196613Y-71003500D01*
X128196616Y-71003500D01*
X128267196Y-70997086D01*
X128429606Y-70946478D01*
X128575185Y-70858472D01*
X128575186Y-70858470D01*
X128581604Y-70854591D01*
X128582704Y-70856410D01*
X128637666Y-70834515D01*
X128706251Y-70847854D01*
X128736921Y-70870289D01*
X129298495Y-71431862D01*
X129904267Y-72037634D01*
X129916048Y-72051266D01*
X129930390Y-72070530D01*
X129970420Y-72104119D01*
X129974392Y-72107759D01*
X129980223Y-72113590D01*
X130005939Y-72133923D01*
X130063013Y-72181815D01*
X130064786Y-72183302D01*
X130064788Y-72183303D01*
X130070823Y-72187272D01*
X130070789Y-72187322D01*
X130077144Y-72191370D01*
X130077177Y-72191318D01*
X130083319Y-72195107D01*
X130083323Y-72195110D01*
X130152914Y-72227561D01*
X130221558Y-72262036D01*
X130221561Y-72262037D01*
X130221567Y-72262040D01*
X130221572Y-72262041D01*
X130228355Y-72264510D01*
X130228334Y-72264567D01*
X130235451Y-72267040D01*
X130235470Y-72266984D01*
X130242330Y-72269257D01*
X130317532Y-72284784D01*
X130392279Y-72302500D01*
X130392288Y-72302500D01*
X130399452Y-72303338D01*
X130399445Y-72303397D01*
X130406946Y-72304163D01*
X130406952Y-72304104D01*
X130414140Y-72304733D01*
X130414143Y-72304732D01*
X130414144Y-72304733D01*
X130490898Y-72302500D01*
X132903894Y-72302500D01*
X132970933Y-72322185D01*
X133016688Y-72374989D01*
X133026632Y-72444147D01*
X132997607Y-72507703D01*
X132975558Y-72525526D01*
X132976578Y-72526929D01*
X132932570Y-72558902D01*
X132927687Y-72562109D01*
X132887580Y-72585829D01*
X132873414Y-72599995D01*
X132858624Y-72612627D01*
X132842414Y-72624404D01*
X132842411Y-72624407D01*
X132812710Y-72660309D01*
X132808777Y-72664631D01*
X131874208Y-73599199D01*
X131861951Y-73609020D01*
X131862134Y-73609241D01*
X131856123Y-73614213D01*
X131808772Y-73664636D01*
X131787889Y-73685519D01*
X131787877Y-73685532D01*
X131783621Y-73691017D01*
X131779837Y-73695447D01*
X131747937Y-73729418D01*
X131747936Y-73729420D01*
X131738284Y-73746976D01*
X131727610Y-73763226D01*
X131715329Y-73779061D01*
X131711354Y-73785782D01*
X131709118Y-73784459D01*
X131672482Y-73828469D01*
X131605845Y-73849476D01*
X131603394Y-73849500D01*
X131385130Y-73849500D01*
X131385123Y-73849501D01*
X131325515Y-73855909D01*
X131317971Y-73857692D01*
X131317675Y-73856439D01*
X131255926Y-73860855D01*
X131242357Y-73856870D01*
X131240372Y-73856401D01*
X131180844Y-73850000D01*
X131133000Y-73850000D01*
X131133000Y-73887305D01*
X131113315Y-73954344D01*
X131083315Y-73986569D01*
X131075453Y-73992454D01*
X131075452Y-73992455D01*
X131006266Y-74084876D01*
X130950332Y-74126747D01*
X130880641Y-74131731D01*
X130819318Y-74098245D01*
X130785834Y-74036922D01*
X130783000Y-74010565D01*
X130783000Y-73850000D01*
X130735155Y-73850000D01*
X130675627Y-73856401D01*
X130675620Y-73856403D01*
X130540913Y-73906645D01*
X130540906Y-73906649D01*
X130425812Y-73992809D01*
X130425809Y-73992812D01*
X130339649Y-74107906D01*
X130339645Y-74107913D01*
X130289403Y-74242620D01*
X130289401Y-74242627D01*
X130283000Y-74302155D01*
X130283000Y-74425000D01*
X130808500Y-74425000D01*
X130875539Y-74444685D01*
X130921294Y-74497489D01*
X130932500Y-74548999D01*
X130932501Y-74650999D01*
X130912817Y-74718038D01*
X130860014Y-74763794D01*
X130808501Y-74775000D01*
X130283000Y-74775000D01*
X130283000Y-74897844D01*
X130289401Y-74957372D01*
X130289403Y-74957379D01*
X130339645Y-75092086D01*
X130339649Y-75092093D01*
X130425809Y-75207187D01*
X130425812Y-75207190D01*
X130540906Y-75293350D01*
X130540913Y-75293354D01*
X130675620Y-75343596D01*
X130675627Y-75343598D01*
X130735155Y-75349999D01*
X130735172Y-75350000D01*
X130783000Y-75350000D01*
X130783000Y-75189435D01*
X130802685Y-75122396D01*
X130855489Y-75076641D01*
X130924647Y-75066697D01*
X130988203Y-75095722D01*
X131006266Y-75115123D01*
X131011711Y-75122396D01*
X131064946Y-75193510D01*
X131075454Y-75207546D01*
X131083308Y-75213425D01*
X131125180Y-75269356D01*
X131133000Y-75312694D01*
X131133000Y-75350000D01*
X131180828Y-75350000D01*
X131180844Y-75349999D01*
X131240375Y-75343598D01*
X131247926Y-75341814D01*
X131248315Y-75343462D01*
X131308624Y-75339140D01*
X131325387Y-75344060D01*
X131325511Y-75344088D01*
X131325517Y-75344091D01*
X131385127Y-75350500D01*
X131830872Y-75350499D01*
X131890483Y-75344091D01*
X131890485Y-75344090D01*
X131890487Y-75344090D01*
X131898031Y-75342308D01*
X131898377Y-75343775D01*
X131959342Y-75339408D01*
X131974378Y-75343822D01*
X131975511Y-75344089D01*
X131975517Y-75344091D01*
X132035127Y-75350500D01*
X132480872Y-75350499D01*
X132540483Y-75344091D01*
X132540485Y-75344090D01*
X132540487Y-75344090D01*
X132548031Y-75342308D01*
X132548377Y-75343775D01*
X132609342Y-75339408D01*
X132624378Y-75343822D01*
X132625511Y-75344089D01*
X132625517Y-75344091D01*
X132685127Y-75350500D01*
X133130872Y-75350499D01*
X133190483Y-75344091D01*
X133325331Y-75293796D01*
X133383524Y-75250233D01*
X133448989Y-75225816D01*
X133457835Y-75225500D01*
X137027548Y-75225500D01*
X137094587Y-75245185D01*
X137115229Y-75261819D01*
X138708181Y-76854771D01*
X138741666Y-76916094D01*
X138744500Y-76942452D01*
X138744500Y-77083546D01*
X138724815Y-77150585D01*
X138708181Y-77171227D01*
X138509713Y-77369694D01*
X138448390Y-77403179D01*
X138378698Y-77398195D01*
X138334350Y-77369693D01*
X138290189Y-77325531D01*
X138290188Y-77325530D01*
X138144606Y-77237522D01*
X137982196Y-77186914D01*
X137982194Y-77186913D01*
X137982192Y-77186913D01*
X137932778Y-77182423D01*
X137911616Y-77180500D01*
X137398384Y-77180500D01*
X137379145Y-77182248D01*
X137327807Y-77186913D01*
X137165393Y-77237522D01*
X137019811Y-77325530D01*
X137019810Y-77325531D01*
X136917681Y-77427661D01*
X136856358Y-77461146D01*
X136786666Y-77456162D01*
X136742319Y-77427661D01*
X136640188Y-77325530D01*
X136494606Y-77237522D01*
X136332196Y-77186914D01*
X136332194Y-77186913D01*
X136332192Y-77186913D01*
X136282778Y-77182423D01*
X136261616Y-77180500D01*
X135748384Y-77180500D01*
X135729145Y-77182248D01*
X135677807Y-77186913D01*
X135515393Y-77237522D01*
X135369811Y-77325530D01*
X135249530Y-77445811D01*
X135161522Y-77591393D01*
X135110913Y-77753807D01*
X135104500Y-77824386D01*
X135104500Y-78487613D01*
X135110913Y-78558192D01*
X135110913Y-78558194D01*
X135110914Y-78558196D01*
X135161522Y-78720606D01*
X135236617Y-78844829D01*
X135254500Y-78908976D01*
X135254500Y-84633294D01*
X135253191Y-84651263D01*
X135249710Y-84675025D01*
X135251998Y-84701165D01*
X135254209Y-84726443D01*
X135254264Y-84727064D01*
X135254500Y-84732470D01*
X135254500Y-84740709D01*
X135255179Y-84746523D01*
X135258306Y-84773274D01*
X135265000Y-84849791D01*
X135266461Y-84856867D01*
X135266403Y-84856878D01*
X135268034Y-84864237D01*
X135268092Y-84864224D01*
X135269757Y-84871250D01*
X135296025Y-84943424D01*
X135320185Y-85016331D01*
X135323236Y-85022874D01*
X135323182Y-85022898D01*
X135326470Y-85029688D01*
X135326521Y-85029663D01*
X135329761Y-85036113D01*
X135329762Y-85036114D01*
X135329763Y-85036117D01*
X135363274Y-85087069D01*
X135371965Y-85100283D01*
X135412287Y-85165655D01*
X135416766Y-85171319D01*
X135416719Y-85171356D01*
X135421482Y-85177202D01*
X135421528Y-85177164D01*
X135426173Y-85182700D01*
X135480606Y-85234054D01*
X135482020Y-85235388D01*
X135746274Y-85499641D01*
X135758050Y-85513268D01*
X135772390Y-85532530D01*
X135812415Y-85566116D01*
X135816403Y-85569771D01*
X135822218Y-85575586D01*
X135822227Y-85575594D01*
X135847947Y-85595931D01*
X135906788Y-85645304D01*
X135912818Y-85649270D01*
X135912785Y-85649319D01*
X135919147Y-85653372D01*
X135919179Y-85653321D01*
X135925319Y-85657108D01*
X135925323Y-85657111D01*
X135960132Y-85673343D01*
X135994941Y-85689575D01*
X136063565Y-85724039D01*
X136063567Y-85724040D01*
X136063569Y-85724040D01*
X136070357Y-85726511D01*
X136070336Y-85726567D01*
X136077455Y-85729042D01*
X136077474Y-85728986D01*
X136084329Y-85731258D01*
X136159562Y-85746791D01*
X136234279Y-85764500D01*
X136234289Y-85764500D01*
X136241452Y-85765338D01*
X136241444Y-85765397D01*
X136248945Y-85766164D01*
X136248951Y-85766105D01*
X136256140Y-85766734D01*
X136256144Y-85766733D01*
X136256145Y-85766734D01*
X136332918Y-85764500D01*
X136337500Y-85764500D01*
X136404539Y-85784185D01*
X136450294Y-85836989D01*
X136461500Y-85888500D01*
X136461500Y-86872028D01*
X136454542Y-86912982D01*
X136426631Y-86992747D01*
X136406435Y-87171996D01*
X136406435Y-87172003D01*
X136426630Y-87351249D01*
X136426631Y-87351254D01*
X136486211Y-87521523D01*
X136571890Y-87657880D01*
X136582184Y-87674262D01*
X136709738Y-87801816D01*
X136719580Y-87808000D01*
X136838543Y-87882750D01*
X136862478Y-87897789D01*
X136968821Y-87935000D01*
X137032745Y-87957368D01*
X137032750Y-87957369D01*
X137211996Y-87977565D01*
X137212000Y-87977565D01*
X137212004Y-87977565D01*
X137391249Y-87957369D01*
X137391252Y-87957368D01*
X137391255Y-87957368D01*
X137561522Y-87897789D01*
X137714262Y-87801816D01*
X137841816Y-87674262D01*
X137937789Y-87521522D01*
X137997368Y-87351255D01*
X137997567Y-87349489D01*
X138017565Y-87172003D01*
X138017565Y-87171996D01*
X137997368Y-86992747D01*
X137997368Y-86992745D01*
X137969458Y-86912982D01*
X137962500Y-86872028D01*
X137962500Y-85037640D01*
X137962605Y-85034034D01*
X137962860Y-85029663D01*
X137966331Y-84970065D01*
X137964384Y-84959021D01*
X137962500Y-84937490D01*
X137962500Y-82577520D01*
X137982185Y-82510481D01*
X138034989Y-82464726D01*
X138104147Y-82454782D01*
X138167703Y-82483807D01*
X138174181Y-82489839D01*
X138226811Y-82542469D01*
X138226813Y-82542470D01*
X138226815Y-82542472D01*
X138372394Y-82630478D01*
X138534804Y-82681086D01*
X138605384Y-82687500D01*
X138605387Y-82687500D01*
X139118613Y-82687500D01*
X139118616Y-82687500D01*
X139189196Y-82681086D01*
X139218611Y-82671919D01*
X139288469Y-82670768D01*
X139347862Y-82707569D01*
X139377930Y-82770637D01*
X139379500Y-82790305D01*
X139379500Y-84042255D01*
X139377775Y-84057872D01*
X139378061Y-84057899D01*
X139377326Y-84065665D01*
X139379500Y-84134814D01*
X139379500Y-84164343D01*
X139379501Y-84164360D01*
X139380368Y-84171231D01*
X139380826Y-84177050D01*
X139382290Y-84223624D01*
X139382291Y-84223627D01*
X139387880Y-84242867D01*
X139391824Y-84261911D01*
X139394336Y-84281791D01*
X139411490Y-84325119D01*
X139413382Y-84330647D01*
X139426381Y-84375388D01*
X139436580Y-84392634D01*
X139445136Y-84410100D01*
X139452514Y-84428732D01*
X139476769Y-84462117D01*
X139479898Y-84466423D01*
X139483106Y-84471307D01*
X139506827Y-84511416D01*
X139506833Y-84511424D01*
X139520990Y-84525580D01*
X139533627Y-84540375D01*
X139545406Y-84556587D01*
X139574614Y-84580750D01*
X139581309Y-84586288D01*
X139585620Y-84590210D01*
X139701712Y-84706302D01*
X139813787Y-84818377D01*
X139847272Y-84879700D01*
X139849326Y-84892173D01*
X139854630Y-84939249D01*
X139854631Y-84939254D01*
X139854632Y-84939255D01*
X139856091Y-84943424D01*
X139914210Y-85109521D01*
X139955488Y-85175214D01*
X140010184Y-85262262D01*
X140137738Y-85389816D01*
X140228080Y-85446582D01*
X140254279Y-85463044D01*
X140290478Y-85485789D01*
X140413142Y-85528711D01*
X140460745Y-85545368D01*
X140460750Y-85545369D01*
X140639996Y-85565565D01*
X140640000Y-85565565D01*
X140640004Y-85565565D01*
X140819249Y-85545369D01*
X140819252Y-85545368D01*
X140819255Y-85545368D01*
X140989522Y-85485789D01*
X141142262Y-85389816D01*
X141269816Y-85262262D01*
X141365789Y-85109522D01*
X141425368Y-84939255D01*
X141430673Y-84892173D01*
X141445565Y-84760003D01*
X141445565Y-84759996D01*
X141425369Y-84580750D01*
X141425368Y-84580745D01*
X141414304Y-84549127D01*
X141365789Y-84410478D01*
X141365553Y-84410103D01*
X141284930Y-84281792D01*
X141269816Y-84257738D01*
X141142262Y-84130184D01*
X141039581Y-84065665D01*
X140989521Y-84034210D01*
X140819249Y-83974630D01*
X140772174Y-83969326D01*
X140707760Y-83942259D01*
X140698378Y-83933787D01*
X140666819Y-83902228D01*
X140633334Y-83840905D01*
X140630500Y-83814547D01*
X140630500Y-79738983D01*
X140632027Y-79719582D01*
X140635160Y-79699804D01*
X140630775Y-79653415D01*
X140630500Y-79647577D01*
X140630500Y-75825742D01*
X140632224Y-75810122D01*
X140631939Y-75810096D01*
X140632671Y-75802340D01*
X140632673Y-75802333D01*
X140630500Y-75733185D01*
X140630500Y-75703650D01*
X140629631Y-75696772D01*
X140629172Y-75690943D01*
X140627709Y-75644372D01*
X140622122Y-75625144D01*
X140618174Y-75606084D01*
X140615663Y-75586204D01*
X140598512Y-75542887D01*
X140596619Y-75537358D01*
X140583618Y-75492609D01*
X140583616Y-75492606D01*
X140573423Y-75475371D01*
X140564861Y-75457894D01*
X140557487Y-75439270D01*
X140557486Y-75439268D01*
X140530079Y-75401545D01*
X140526888Y-75396686D01*
X140503172Y-75356583D01*
X140503165Y-75356574D01*
X140489006Y-75342415D01*
X140476368Y-75327619D01*
X140464594Y-75311413D01*
X140443297Y-75293795D01*
X140428688Y-75281709D01*
X140424376Y-75277786D01*
X137846803Y-72700212D01*
X137836980Y-72687950D01*
X137836759Y-72688134D01*
X137831786Y-72682123D01*
X137813159Y-72664631D01*
X137781364Y-72634773D01*
X137770919Y-72624328D01*
X137760475Y-72613883D01*
X137754986Y-72609625D01*
X137750561Y-72605847D01*
X137716582Y-72573938D01*
X137716580Y-72573936D01*
X137716577Y-72573935D01*
X137699029Y-72564288D01*
X137682763Y-72553604D01*
X137666933Y-72541325D01*
X137624168Y-72522818D01*
X137618922Y-72520248D01*
X137578093Y-72497803D01*
X137578092Y-72497802D01*
X137558693Y-72492822D01*
X137540281Y-72486518D01*
X137521898Y-72478562D01*
X137521892Y-72478560D01*
X137475874Y-72471272D01*
X137470152Y-72470087D01*
X137425021Y-72458500D01*
X137425019Y-72458500D01*
X137404984Y-72458500D01*
X137385586Y-72456973D01*
X137378162Y-72455797D01*
X137365805Y-72453840D01*
X137365804Y-72453840D01*
X137319416Y-72458225D01*
X137313578Y-72458500D01*
X137068336Y-72458500D01*
X137001297Y-72438815D01*
X136955542Y-72386011D01*
X136945598Y-72316853D01*
X136974623Y-72253297D01*
X137002364Y-72229506D01*
X137007826Y-72226073D01*
X137078262Y-72181816D01*
X137205816Y-72054262D01*
X137301789Y-71901522D01*
X137361368Y-71731255D01*
X137364514Y-71703334D01*
X137381565Y-71552003D01*
X137381565Y-71551997D01*
X137368029Y-71431862D01*
X137380083Y-71363040D01*
X137427432Y-71311660D01*
X137495043Y-71294036D01*
X137561449Y-71315762D01*
X137578927Y-71330294D01*
X138012945Y-71764312D01*
X138012966Y-71764335D01*
X138014142Y-71765511D01*
X138014988Y-71766550D01*
X138016726Y-71768453D01*
X138018535Y-71770624D01*
X138018399Y-71770736D01*
X138024482Y-71778202D01*
X138024528Y-71778164D01*
X138029173Y-71783700D01*
X138085017Y-71836385D01*
X140902692Y-74654060D01*
X140925356Y-74690129D01*
X140927188Y-74689247D01*
X140930207Y-74695516D01*
X140944359Y-74718038D01*
X141026184Y-74848262D01*
X141153738Y-74975816D01*
X141306478Y-75071789D01*
X141453908Y-75123377D01*
X141476745Y-75131368D01*
X141476750Y-75131369D01*
X141655996Y-75151565D01*
X141656000Y-75151565D01*
X141656004Y-75151565D01*
X141835249Y-75131369D01*
X141835252Y-75131368D01*
X141835255Y-75131368D01*
X142005522Y-75071789D01*
X142158262Y-74975816D01*
X142285816Y-74848262D01*
X142381789Y-74695522D01*
X142441368Y-74525255D01*
X142442347Y-74516565D01*
X142461565Y-74346003D01*
X142461565Y-74345996D01*
X142441369Y-74166750D01*
X142441368Y-74166745D01*
X142410353Y-74078109D01*
X142381789Y-73996478D01*
X142379485Y-73992812D01*
X142317293Y-73893834D01*
X142285816Y-73843738D01*
X142158262Y-73716184D01*
X142005522Y-73620211D01*
X142005518Y-73620209D01*
X141999244Y-73617188D01*
X142000125Y-73615358D01*
X141964059Y-73592692D01*
X139394819Y-71023451D01*
X139361334Y-70962128D01*
X139358500Y-70935770D01*
X139358500Y-67805705D01*
X139359809Y-67787735D01*
X139360223Y-67784905D01*
X139363289Y-67763977D01*
X139358735Y-67711933D01*
X139358500Y-67706532D01*
X139358500Y-67698297D01*
X139358500Y-67698291D01*
X139354691Y-67665707D01*
X139347998Y-67589202D01*
X139347996Y-67589197D01*
X139346538Y-67582133D01*
X139346597Y-67582120D01*
X139344967Y-67574764D01*
X139344908Y-67574779D01*
X139343242Y-67567753D01*
X139343241Y-67567745D01*
X139316973Y-67495573D01*
X139302646Y-67452335D01*
X139292815Y-67422666D01*
X139289763Y-67416121D01*
X139289817Y-67416095D01*
X139286533Y-67409312D01*
X139286480Y-67409340D01*
X139283238Y-67402885D01*
X139283237Y-67402883D01*
X139241029Y-67338709D01*
X139200711Y-67273344D01*
X139200710Y-67273343D01*
X139200709Y-67273341D01*
X139196233Y-67267681D01*
X139196280Y-67267643D01*
X139191519Y-67261799D01*
X139191474Y-67261838D01*
X139186834Y-67256309D01*
X139186832Y-67256307D01*
X139186830Y-67256304D01*
X139151000Y-67222500D01*
X139130965Y-67203597D01*
X138193729Y-66266361D01*
X138181949Y-66252730D01*
X138174482Y-66242701D01*
X138167612Y-66233472D01*
X138167610Y-66233470D01*
X138127587Y-66199886D01*
X138123612Y-66196244D01*
X138120690Y-66193322D01*
X138117780Y-66190411D01*
X138092040Y-66170059D01*
X138076951Y-66157398D01*
X138033214Y-66120698D01*
X138033213Y-66120697D01*
X138033209Y-66120694D01*
X138027180Y-66116729D01*
X138027212Y-66116680D01*
X138020853Y-66112628D01*
X138020822Y-66112679D01*
X138014680Y-66108891D01*
X138014678Y-66108890D01*
X138014677Y-66108889D01*
X137975474Y-66090608D01*
X137945058Y-66076424D01*
X137910894Y-66059267D01*
X137876433Y-66041960D01*
X137876431Y-66041959D01*
X137876430Y-66041959D01*
X137869645Y-66039489D01*
X137869665Y-66039433D01*
X137862549Y-66036959D01*
X137862531Y-66037015D01*
X137855671Y-66034742D01*
X137827841Y-66028996D01*
X137780434Y-66019207D01*
X137731472Y-66007603D01*
X137705719Y-66001499D01*
X137698547Y-66000661D01*
X137698553Y-66000601D01*
X137691055Y-65999835D01*
X137691050Y-65999895D01*
X137683860Y-65999265D01*
X137607083Y-66001500D01*
X137292228Y-66001500D01*
X137225189Y-65981815D01*
X137179434Y-65929011D01*
X137169490Y-65859853D01*
X137186690Y-65812402D01*
X137234003Y-65735697D01*
X137287349Y-65574708D01*
X137297500Y-65475345D01*
X137297499Y-64928656D01*
X137292772Y-64882385D01*
X137286661Y-64822557D01*
X137288784Y-64822340D01*
X137293239Y-64762787D01*
X137335293Y-64706991D01*
X137400837Y-64682788D01*
X137409279Y-64682500D01*
X139261770Y-64682500D01*
X139328809Y-64702185D01*
X139349451Y-64718819D01*
X140902692Y-66272060D01*
X140925356Y-66308129D01*
X140927188Y-66307247D01*
X140930207Y-66313516D01*
X140987233Y-66404272D01*
X141026184Y-66466262D01*
X141153738Y-66593816D01*
X141306478Y-66689789D01*
X141416639Y-66728336D01*
X141476745Y-66749368D01*
X141476750Y-66749369D01*
X141655996Y-66769565D01*
X141656000Y-66769565D01*
X141656004Y-66769565D01*
X141835249Y-66749369D01*
X141835252Y-66749368D01*
X141835255Y-66749368D01*
X142005522Y-66689789D01*
X142158262Y-66593816D01*
X142285816Y-66466262D01*
X142381789Y-66313522D01*
X142441368Y-66143255D01*
X142443709Y-66122478D01*
X142461565Y-65964003D01*
X142461565Y-65963996D01*
X142441369Y-65784750D01*
X142441368Y-65784745D01*
X142419238Y-65721500D01*
X142381789Y-65614478D01*
X142356800Y-65574709D01*
X142288617Y-65466196D01*
X142285816Y-65461738D01*
X142158262Y-65334184D01*
X142005522Y-65238211D01*
X142005518Y-65238209D01*
X141999244Y-65235188D01*
X142000125Y-65233358D01*
X141964059Y-65210692D01*
X140199729Y-63446361D01*
X140187949Y-63432730D01*
X140180482Y-63422701D01*
X140173612Y-63413472D01*
X140173448Y-63413334D01*
X140133587Y-63379886D01*
X140129612Y-63376244D01*
X140126690Y-63373322D01*
X140123780Y-63370411D01*
X140098040Y-63350059D01*
X140064385Y-63321819D01*
X140039214Y-63300698D01*
X140039213Y-63300697D01*
X140039209Y-63300694D01*
X140033180Y-63296729D01*
X140033212Y-63296680D01*
X140026853Y-63292628D01*
X140026822Y-63292679D01*
X140020680Y-63288891D01*
X140020678Y-63288890D01*
X140020677Y-63288889D01*
X139981474Y-63270608D01*
X139951058Y-63256424D01*
X139916894Y-63239267D01*
X139882433Y-63221960D01*
X139882431Y-63221959D01*
X139882430Y-63221959D01*
X139875645Y-63219489D01*
X139875665Y-63219433D01*
X139868549Y-63216959D01*
X139868531Y-63217015D01*
X139861671Y-63214742D01*
X139833841Y-63208996D01*
X139786434Y-63199207D01*
X139737472Y-63187603D01*
X139711719Y-63181499D01*
X139704547Y-63180661D01*
X139704553Y-63180601D01*
X139697055Y-63179835D01*
X139697050Y-63179895D01*
X139689860Y-63179265D01*
X139613083Y-63181500D01*
X136893705Y-63181500D01*
X136875735Y-63180191D01*
X136851972Y-63176710D01*
X136806890Y-63180655D01*
X136799933Y-63181264D01*
X136794532Y-63181500D01*
X133922115Y-63181500D01*
X133855076Y-63161815D01*
X133809321Y-63109011D01*
X133798624Y-63046279D01*
X133804500Y-62981614D01*
X133804500Y-62468386D01*
X133798086Y-62397807D01*
X133798086Y-62397804D01*
X133747478Y-62235394D01*
X133659472Y-62089815D01*
X133659470Y-62089813D01*
X133659469Y-62089811D01*
X133557339Y-61987681D01*
X133523854Y-61926358D01*
X133528838Y-61856666D01*
X133557339Y-61812319D01*
X133659468Y-61710189D01*
X133659469Y-61710188D01*
X133659472Y-61710185D01*
X133747478Y-61564606D01*
X133798086Y-61402196D01*
X133804500Y-61331616D01*
X133804500Y-60818384D01*
X133798086Y-60747804D01*
X133747478Y-60585394D01*
X133659472Y-60439815D01*
X133659470Y-60439813D01*
X133659469Y-60439811D01*
X133539188Y-60319530D01*
X133393606Y-60231522D01*
X133381039Y-60227606D01*
X133231196Y-60180914D01*
X133231194Y-60180913D01*
X133231192Y-60180913D01*
X133181778Y-60176423D01*
X133160616Y-60174500D01*
X133160613Y-60174500D01*
X132915229Y-60174500D01*
X132848190Y-60154815D01*
X132827548Y-60138181D01*
X132294367Y-59605000D01*
X157025000Y-59605000D01*
X157750000Y-59605000D01*
X158250000Y-59605000D01*
X159750000Y-59605000D01*
X159750000Y-58905000D01*
X160250000Y-58905000D01*
X160250000Y-59605000D01*
X160974999Y-59605000D01*
X160974999Y-59581692D01*
X160974998Y-59581677D01*
X160964855Y-59482392D01*
X160911547Y-59321518D01*
X160911542Y-59321507D01*
X160822575Y-59177271D01*
X160822572Y-59177267D01*
X160702732Y-59057427D01*
X160702728Y-59057424D01*
X160558492Y-58968457D01*
X160558481Y-58968452D01*
X160397606Y-58915144D01*
X160347259Y-58910000D01*
X161540000Y-58910000D01*
X161540000Y-59257844D01*
X161546401Y-59317372D01*
X161546403Y-59317379D01*
X161596645Y-59452086D01*
X161596649Y-59452093D01*
X161682809Y-59567187D01*
X161687941Y-59572319D01*
X161721426Y-59633642D01*
X161716442Y-59703334D01*
X161687941Y-59747681D01*
X161682809Y-59752812D01*
X161596649Y-59867906D01*
X161596645Y-59867913D01*
X161546403Y-60002620D01*
X161546401Y-60002627D01*
X161540000Y-60062155D01*
X161540000Y-60410000D01*
X163090000Y-60410000D01*
X163590000Y-60410000D01*
X165140000Y-60410000D01*
X165140000Y-60062172D01*
X165139999Y-60062155D01*
X165133598Y-60002627D01*
X165133596Y-60002620D01*
X165083354Y-59867913D01*
X165083352Y-59867910D01*
X165054276Y-59829069D01*
X165029859Y-59763604D01*
X165044711Y-59695332D01*
X165079232Y-59655491D01*
X165197190Y-59567186D01*
X165283350Y-59452093D01*
X165283354Y-59452086D01*
X165333596Y-59317379D01*
X165333598Y-59317372D01*
X165339999Y-59257844D01*
X165340000Y-59257827D01*
X165340000Y-58910000D01*
X163690000Y-58910000D01*
X163690000Y-59626000D01*
X163670315Y-59693039D01*
X163617511Y-59738794D01*
X163596672Y-59743327D01*
X163590000Y-59750000D01*
X163590000Y-60410000D01*
X163090000Y-60410000D01*
X163090000Y-59694000D01*
X163109685Y-59626961D01*
X163162489Y-59581206D01*
X163183327Y-59576672D01*
X163190000Y-59570000D01*
X163190000Y-58910000D01*
X161540000Y-58910000D01*
X160347259Y-58910000D01*
X160298322Y-58905000D01*
X160250000Y-58905000D01*
X159750000Y-58905000D01*
X159749999Y-58904999D01*
X159701693Y-58905000D01*
X159701675Y-58905001D01*
X159602392Y-58915144D01*
X159441518Y-58968452D01*
X159441507Y-58968457D01*
X159297271Y-59057424D01*
X159297267Y-59057427D01*
X159177427Y-59177267D01*
X159177424Y-59177271D01*
X159105538Y-59293816D01*
X159053590Y-59340541D01*
X158984627Y-59351762D01*
X158920545Y-59323919D01*
X158894462Y-59293816D01*
X158822575Y-59177271D01*
X158822572Y-59177267D01*
X158702732Y-59057427D01*
X158702728Y-59057424D01*
X158558492Y-58968457D01*
X158558481Y-58968452D01*
X158397606Y-58915144D01*
X158298322Y-58905000D01*
X158250000Y-58905000D01*
X158250000Y-59605000D01*
X157750000Y-59605000D01*
X157750000Y-58905000D01*
X157749999Y-58904999D01*
X157701693Y-58905000D01*
X157701675Y-58905001D01*
X157602392Y-58915144D01*
X157441518Y-58968452D01*
X157441507Y-58968457D01*
X157297271Y-59057424D01*
X157297267Y-59057427D01*
X157177427Y-59177267D01*
X157177424Y-59177271D01*
X157088457Y-59321507D01*
X157088452Y-59321518D01*
X157035144Y-59482393D01*
X157025000Y-59581677D01*
X157025000Y-59605000D01*
X132294367Y-59605000D01*
X130039729Y-57350361D01*
X130027949Y-57336730D01*
X130020482Y-57326701D01*
X130013612Y-57317472D01*
X129999801Y-57305883D01*
X129973587Y-57283886D01*
X129969612Y-57280244D01*
X129966690Y-57277322D01*
X129963780Y-57274411D01*
X129938040Y-57254059D01*
X129879209Y-57204694D01*
X129873180Y-57200729D01*
X129873212Y-57200680D01*
X129866853Y-57196628D01*
X129866822Y-57196679D01*
X129860680Y-57192891D01*
X129860678Y-57192890D01*
X129860677Y-57192889D01*
X129821474Y-57174608D01*
X129791058Y-57160424D01*
X129756894Y-57143267D01*
X129722433Y-57125960D01*
X129722431Y-57125959D01*
X129722430Y-57125959D01*
X129715645Y-57123489D01*
X129715665Y-57123433D01*
X129708549Y-57120959D01*
X129708531Y-57121015D01*
X129701671Y-57118742D01*
X129673841Y-57112996D01*
X129626434Y-57103207D01*
X129577472Y-57091603D01*
X129551719Y-57085499D01*
X129544547Y-57084661D01*
X129544553Y-57084601D01*
X129537055Y-57083835D01*
X129537050Y-57083895D01*
X129529860Y-57083265D01*
X129453083Y-57085500D01*
X125254229Y-57085500D01*
X125187190Y-57065815D01*
X125166548Y-57049181D01*
X121403729Y-53286361D01*
X121391949Y-53272730D01*
X121384482Y-53262701D01*
X121377612Y-53253472D01*
X121372303Y-53249017D01*
X121337587Y-53219886D01*
X121333612Y-53216244D01*
X121330690Y-53213322D01*
X121327780Y-53210411D01*
X121302040Y-53190059D01*
X121243209Y-53140694D01*
X121237180Y-53136729D01*
X121237212Y-53136680D01*
X121230853Y-53132628D01*
X121230822Y-53132679D01*
X121224680Y-53128891D01*
X121224678Y-53128890D01*
X121224677Y-53128889D01*
X121185474Y-53110608D01*
X121155058Y-53096424D01*
X121100343Y-53068946D01*
X121086433Y-53061960D01*
X121086431Y-53061959D01*
X121086430Y-53061959D01*
X121079645Y-53059489D01*
X121079665Y-53059433D01*
X121072549Y-53056959D01*
X121072531Y-53057015D01*
X121065671Y-53054742D01*
X121037841Y-53048996D01*
X120990434Y-53039207D01*
X120941472Y-53027603D01*
X120915719Y-53021499D01*
X120908547Y-53020661D01*
X120908553Y-53020601D01*
X120901055Y-53019835D01*
X120901050Y-53019895D01*
X120893860Y-53019265D01*
X120817083Y-53021500D01*
X110477705Y-53021500D01*
X110459735Y-53020191D01*
X110435972Y-53016710D01*
X110390890Y-53020655D01*
X110383933Y-53021264D01*
X110378532Y-53021500D01*
X110370287Y-53021500D01*
X110344222Y-53024546D01*
X110337705Y-53025308D01*
X110332403Y-53025771D01*
X110261201Y-53032001D01*
X110254134Y-53033461D01*
X110254122Y-53033404D01*
X110246753Y-53035038D01*
X110246767Y-53035095D01*
X110239739Y-53036760D01*
X110170505Y-53061959D01*
X110167568Y-53063028D01*
X110094665Y-53087186D01*
X110094663Y-53087186D01*
X110094660Y-53087188D01*
X110088123Y-53090236D01*
X110088098Y-53090184D01*
X110081310Y-53093470D01*
X110081336Y-53093521D01*
X110074885Y-53096761D01*
X110010723Y-53138961D01*
X109945346Y-53179285D01*
X109939682Y-53183765D01*
X109939646Y-53183719D01*
X109933798Y-53188484D01*
X109933835Y-53188528D01*
X109928310Y-53193164D01*
X109875614Y-53249017D01*
X108803449Y-54321181D01*
X108742126Y-54354666D01*
X108715768Y-54357500D01*
X106880129Y-54357500D01*
X106880123Y-54357501D01*
X106820516Y-54363908D01*
X106685671Y-54414202D01*
X106685664Y-54414206D01*
X106570455Y-54500452D01*
X106570452Y-54500455D01*
X106484206Y-54615664D01*
X106484202Y-54615671D01*
X106433908Y-54750517D01*
X106427501Y-54810116D01*
X106427500Y-54810135D01*
X106427500Y-57305870D01*
X105716770Y-57305870D01*
X105716770Y-45515770D01*
X105736455Y-45448731D01*
X105789259Y-45402976D01*
X105840770Y-45391770D01*
X173658230Y-45391770D01*
X173660000Y-45391770D01*
X174345796Y-45410348D01*
G37*
%TD.AperFunction*%
%TA.AperFunction,Conductor*%
G36*
X175105507Y-97885156D02*
G01*
X175065000Y-98023111D01*
X175065000Y-98166889D01*
X175105507Y-98304844D01*
X175131314Y-98345000D01*
X173458686Y-98345000D01*
X173484493Y-98304844D01*
X173525000Y-98166889D01*
X173525000Y-98023111D01*
X173484493Y-97885156D01*
X173458686Y-97845000D01*
X175131314Y-97845000D01*
X175105507Y-97885156D01*
G37*
%TD.AperFunction*%
%TA.AperFunction,Conductor*%
G36*
X119935000Y-97659498D02*
G01*
X119827315Y-97610320D01*
X119720763Y-97595000D01*
X119649237Y-97595000D01*
X119542685Y-97610320D01*
X119435000Y-97659498D01*
X119435000Y-95990501D01*
X119542685Y-96039680D01*
X119649237Y-96055000D01*
X119720763Y-96055000D01*
X119827315Y-96039680D01*
X119935000Y-95990501D01*
X119935000Y-97659498D01*
G37*
%TD.AperFunction*%
%TA.AperFunction,Conductor*%
G36*
X173275000Y-97659498D02*
G01*
X173167315Y-97610320D01*
X173060763Y-97595000D01*
X172989237Y-97595000D01*
X172882685Y-97610320D01*
X172775000Y-97659498D01*
X172775000Y-95990501D01*
X172882685Y-96039680D01*
X172989237Y-96055000D01*
X173060763Y-96055000D01*
X173167315Y-96039680D01*
X173275000Y-95990501D01*
X173275000Y-97659498D01*
G37*
%TD.AperFunction*%
%TA.AperFunction,Conductor*%
G36*
X175815000Y-97659498D02*
G01*
X175707315Y-97610320D01*
X175600763Y-97595000D01*
X175529237Y-97595000D01*
X175422685Y-97610320D01*
X175315000Y-97659498D01*
X175315000Y-95990501D01*
X175422685Y-96039680D01*
X175529237Y-96055000D01*
X175600763Y-96055000D01*
X175707315Y-96039680D01*
X175815000Y-95990501D01*
X175815000Y-97659498D01*
G37*
%TD.AperFunction*%
%TA.AperFunction,Conductor*%
G36*
X175105507Y-95345156D02*
G01*
X175065000Y-95483111D01*
X175065000Y-95626889D01*
X175105507Y-95764844D01*
X175131314Y-95805000D01*
X173458686Y-95805000D01*
X173484493Y-95764844D01*
X173525000Y-95626889D01*
X173525000Y-95483111D01*
X173484493Y-95345156D01*
X173458686Y-95305000D01*
X175131314Y-95305000D01*
X175105507Y-95345156D01*
G37*
%TD.AperFunction*%
%TA.AperFunction,Conductor*%
G36*
X162950595Y-87566508D02*
G01*
X163006528Y-87608380D01*
X163030945Y-87673844D01*
X163024303Y-87723644D01*
X162968632Y-87882742D01*
X162968630Y-87882750D01*
X162948435Y-88061996D01*
X162948435Y-88062003D01*
X162968630Y-88241249D01*
X162968631Y-88241254D01*
X163028211Y-88411523D01*
X163115049Y-88549724D01*
X163124184Y-88564262D01*
X163251738Y-88691816D01*
X163404478Y-88787789D01*
X163574745Y-88847368D01*
X163574750Y-88847369D01*
X163753996Y-88867565D01*
X163754000Y-88867565D01*
X163754004Y-88867565D01*
X163933249Y-88847369D01*
X163933252Y-88847368D01*
X163933255Y-88847368D01*
X164013017Y-88819457D01*
X164053972Y-88812500D01*
X169548248Y-88812500D01*
X169615287Y-88832185D01*
X169635929Y-88848819D01*
X172841116Y-92054006D01*
X174953898Y-94166787D01*
X174987383Y-94228110D01*
X174982399Y-94297802D01*
X174940527Y-94353735D01*
X174918624Y-94366849D01*
X174887424Y-94381398D01*
X174887420Y-94381400D01*
X174693926Y-94516886D01*
X174693920Y-94516891D01*
X174526891Y-94683920D01*
X174526890Y-94683922D01*
X174396575Y-94870031D01*
X174341998Y-94913655D01*
X174272499Y-94920848D01*
X174210145Y-94889326D01*
X174193425Y-94870031D01*
X174063109Y-94683922D01*
X174063108Y-94683920D01*
X173896082Y-94516894D01*
X173702578Y-94381399D01*
X173488492Y-94281570D01*
X173488486Y-94281567D01*
X173275000Y-94224364D01*
X173275000Y-95119498D01*
X173167315Y-95070320D01*
X173060763Y-95055000D01*
X172989237Y-95055000D01*
X172882685Y-95070320D01*
X172775000Y-95119498D01*
X172775000Y-94224364D01*
X172774999Y-94224364D01*
X172561513Y-94281567D01*
X172561507Y-94281570D01*
X172347422Y-94381399D01*
X172347420Y-94381400D01*
X172153926Y-94516886D01*
X172153920Y-94516891D01*
X171986891Y-94683920D01*
X171986890Y-94683922D01*
X171856880Y-94869595D01*
X171802303Y-94913219D01*
X171732804Y-94920412D01*
X171670450Y-94888890D01*
X171653730Y-94869594D01*
X171523494Y-94683597D01*
X171356402Y-94516506D01*
X171356396Y-94516502D01*
X171317521Y-94489281D01*
X171162834Y-94380967D01*
X171162830Y-94380965D01*
X171104435Y-94353735D01*
X170948663Y-94281097D01*
X170948659Y-94281096D01*
X170948655Y-94281094D01*
X170720413Y-94219938D01*
X170720403Y-94219936D01*
X170485001Y-94199341D01*
X170484999Y-94199341D01*
X170249596Y-94219936D01*
X170249586Y-94219938D01*
X170021344Y-94281094D01*
X170021335Y-94281098D01*
X169807171Y-94380964D01*
X169807169Y-94380965D01*
X169613597Y-94516505D01*
X169446505Y-94683597D01*
X169316575Y-94869158D01*
X169261998Y-94912783D01*
X169192500Y-94919977D01*
X169130145Y-94888454D01*
X169113425Y-94869158D01*
X168983494Y-94683597D01*
X168816402Y-94516506D01*
X168816396Y-94516502D01*
X168777521Y-94489281D01*
X168622834Y-94380967D01*
X168622830Y-94380965D01*
X168564435Y-94353735D01*
X168408663Y-94281097D01*
X168408659Y-94281096D01*
X168408655Y-94281094D01*
X168180413Y-94219938D01*
X168180403Y-94219936D01*
X167945001Y-94199341D01*
X167944998Y-94199341D01*
X167731986Y-94217977D01*
X167663486Y-94204210D01*
X167633498Y-94182130D01*
X163560252Y-90108884D01*
X163526767Y-90047561D01*
X163524713Y-90007319D01*
X163543565Y-89840002D01*
X163543565Y-89839996D01*
X163523369Y-89660750D01*
X163523368Y-89660745D01*
X163486693Y-89555934D01*
X163463789Y-89490478D01*
X163367816Y-89337738D01*
X163240262Y-89210184D01*
X163087523Y-89114211D01*
X162917254Y-89054631D01*
X162917249Y-89054630D01*
X162738004Y-89034435D01*
X162737996Y-89034435D01*
X162558750Y-89054630D01*
X162558745Y-89054631D01*
X162388476Y-89114211D01*
X162235737Y-89210184D01*
X162108184Y-89337737D01*
X162012211Y-89490476D01*
X161952631Y-89660745D01*
X161952630Y-89660750D01*
X161932435Y-89839996D01*
X161932435Y-89840003D01*
X161952630Y-90019249D01*
X161952631Y-90019254D01*
X161980542Y-90099017D01*
X161987500Y-90139972D01*
X161987500Y-90284294D01*
X161986191Y-90302263D01*
X161982710Y-90326025D01*
X161987264Y-90378064D01*
X161987500Y-90383470D01*
X161987500Y-90391709D01*
X161991306Y-90424274D01*
X161998000Y-90500791D01*
X161999461Y-90507867D01*
X161999403Y-90507878D01*
X162001034Y-90515237D01*
X162001092Y-90515224D01*
X162002757Y-90522250D01*
X162029025Y-90594424D01*
X162053185Y-90667331D01*
X162056236Y-90673874D01*
X162056182Y-90673898D01*
X162059470Y-90680688D01*
X162059521Y-90680663D01*
X162062761Y-90687113D01*
X162062762Y-90687114D01*
X162062763Y-90687117D01*
X162085203Y-90721236D01*
X162104965Y-90751283D01*
X162145287Y-90816655D01*
X162149766Y-90822319D01*
X162149719Y-90822356D01*
X162154482Y-90828202D01*
X162154528Y-90828164D01*
X162159173Y-90833700D01*
X162215017Y-90886385D01*
X165330047Y-94001415D01*
X165363532Y-94062738D01*
X165358548Y-94132430D01*
X165316676Y-94188363D01*
X165253174Y-94212624D01*
X165169596Y-94219936D01*
X165169586Y-94219938D01*
X164941344Y-94281094D01*
X164941335Y-94281098D01*
X164727171Y-94380964D01*
X164727169Y-94380965D01*
X164533597Y-94516505D01*
X164366505Y-94683597D01*
X164236575Y-94869158D01*
X164181998Y-94912783D01*
X164112500Y-94919977D01*
X164050145Y-94888454D01*
X164033425Y-94869158D01*
X163903494Y-94683597D01*
X163736402Y-94516506D01*
X163736396Y-94516502D01*
X163697521Y-94489281D01*
X163542834Y-94380967D01*
X163542830Y-94380965D01*
X163484435Y-94353735D01*
X163328663Y-94281097D01*
X163328659Y-94281096D01*
X163328655Y-94281094D01*
X163100413Y-94219938D01*
X163100403Y-94219936D01*
X162865001Y-94199341D01*
X162864999Y-94199341D01*
X162629596Y-94219936D01*
X162629586Y-94219938D01*
X162401344Y-94281094D01*
X162401335Y-94281098D01*
X162187171Y-94380964D01*
X162187169Y-94380965D01*
X161993597Y-94516505D01*
X161826505Y-94683597D01*
X161696575Y-94869158D01*
X161641998Y-94912783D01*
X161572500Y-94919977D01*
X161510145Y-94888454D01*
X161493425Y-94869158D01*
X161363494Y-94683597D01*
X161196404Y-94516507D01*
X161128375Y-94468872D01*
X161084751Y-94414294D01*
X161075500Y-94367298D01*
X161075500Y-93314972D01*
X161082458Y-93274017D01*
X161083112Y-93272147D01*
X161110368Y-93194255D01*
X161110369Y-93194249D01*
X161130565Y-93015003D01*
X161130565Y-93014996D01*
X161110369Y-92835750D01*
X161110368Y-92835745D01*
X161068352Y-92715671D01*
X161050789Y-92665478D01*
X160954816Y-92512738D01*
X160827262Y-92385184D01*
X160826987Y-92385011D01*
X160674523Y-92289211D01*
X160504254Y-92229631D01*
X160504249Y-92229630D01*
X160325004Y-92209435D01*
X160324996Y-92209435D01*
X160145750Y-92229630D01*
X160145745Y-92229631D01*
X159975476Y-92289211D01*
X159822737Y-92385184D01*
X159695184Y-92512737D01*
X159599211Y-92665476D01*
X159539631Y-92835745D01*
X159539630Y-92835750D01*
X159519435Y-93014996D01*
X159519435Y-93015003D01*
X159539630Y-93194249D01*
X159539631Y-93194254D01*
X159567542Y-93274017D01*
X159574500Y-93314972D01*
X159574500Y-94367298D01*
X159554815Y-94434337D01*
X159521625Y-94468872D01*
X159453595Y-94516507D01*
X159286505Y-94683597D01*
X159156575Y-94869158D01*
X159101998Y-94912783D01*
X159032500Y-94919977D01*
X158970145Y-94888454D01*
X158953425Y-94869158D01*
X158823494Y-94683597D01*
X158656402Y-94516506D01*
X158656396Y-94516502D01*
X158617521Y-94489281D01*
X158462834Y-94380967D01*
X158462830Y-94380965D01*
X158404435Y-94353735D01*
X158248663Y-94281097D01*
X158248659Y-94281096D01*
X158248655Y-94281094D01*
X158020413Y-94219938D01*
X158020403Y-94219936D01*
X157785001Y-94199341D01*
X157784999Y-94199341D01*
X157549596Y-94219936D01*
X157549586Y-94219938D01*
X157321344Y-94281094D01*
X157321335Y-94281098D01*
X157107171Y-94380964D01*
X157107169Y-94380965D01*
X156913597Y-94516505D01*
X156746505Y-94683597D01*
X156616575Y-94869158D01*
X156561998Y-94912783D01*
X156492500Y-94919977D01*
X156430145Y-94888454D01*
X156413425Y-94869158D01*
X156283494Y-94683597D01*
X156116405Y-94516509D01*
X156116401Y-94516505D01*
X156109045Y-94511354D01*
X156065422Y-94456782D01*
X156058227Y-94387284D01*
X156089748Y-94324928D01*
X156092456Y-94322132D01*
X162819581Y-87595008D01*
X162880903Y-87561524D01*
X162950595Y-87566508D01*
G37*
%TD.AperFunction*%
%TA.AperFunction,Conductor*%
G36*
X119935000Y-49399498D02*
G01*
X119827315Y-49350320D01*
X119720763Y-49335000D01*
X119649237Y-49335000D01*
X119542685Y-49350320D01*
X119435000Y-49399498D01*
X119435000Y-47730501D01*
X119542685Y-47779680D01*
X119649237Y-47795000D01*
X119720763Y-47795000D01*
X119827315Y-47779680D01*
X119935000Y-47730501D01*
X119935000Y-49399498D01*
G37*
%TD.AperFunction*%
%TD*%
M02*
