%TF.GenerationSoftware,KiCad,Pcbnew,7.0.9*%
%TF.CreationDate,2024-03-27T18:07:42+01:00*%
%TF.ProjectId,BeaglebonePCBma_yC,42656167-6c65-4626-9f6e-655043426d61,rev?*%
%TF.SameCoordinates,Original*%
%TF.FileFunction,Copper,L2,Bot*%
%TF.FilePolarity,Positive*%
%FSLAX46Y46*%
G04 Gerber Fmt 4.6, Leading zero omitted, Abs format (unit mm)*
G04 Created by KiCad (PCBNEW 7.0.9) date 2024-03-27 18:07:42*
%MOMM*%
%LPD*%
G01*
G04 APERTURE LIST*
%TA.AperFunction,ComponentPad*%
%ADD10R,1.700000X1.700000*%
%TD*%
%TA.AperFunction,ComponentPad*%
%ADD11O,1.700000X1.700000*%
%TD*%
%TA.AperFunction,ComponentPad*%
%ADD12R,2.400000X2.400000*%
%TD*%
%TA.AperFunction,ComponentPad*%
%ADD13C,2.400000*%
%TD*%
%TA.AperFunction,ComponentPad*%
%ADD14R,1.850000X1.850000*%
%TD*%
%TA.AperFunction,ComponentPad*%
%ADD15C,1.850000*%
%TD*%
%TA.AperFunction,ViaPad*%
%ADD16C,0.600000*%
%TD*%
%TA.AperFunction,Conductor*%
%ADD17C,0.250000*%
%TD*%
%TA.AperFunction,Conductor*%
%ADD18C,0.500000*%
%TD*%
G04 APERTURE END LIST*
D10*
%TO.P,P8,1,Pin_1*%
%TO.N,GNDD*%
X119685000Y-49835000D03*
D11*
%TO.P,P8,2,Pin_2*%
X119685000Y-47295000D03*
%TO.P,P8,3,Pin_3*%
%TO.N,/MMC1.DAT6*%
X122225000Y-49835000D03*
%TO.P,P8,4,Pin_4*%
%TO.N,/MMC1.DAT7*%
X122225000Y-47295000D03*
%TO.P,P8,5,Pin_5*%
%TO.N,/MMC1.DAT2*%
X124765000Y-49835000D03*
%TO.P,P8,6,Pin_6*%
%TO.N,/MMC1.DAT3*%
X124765000Y-47295000D03*
%TO.P,P8,7,Pin_7*%
%TO.N,/GPIO66*%
X127305000Y-49835000D03*
%TO.P,P8,8,Pin_8*%
%TO.N,/GPIO67*%
X127305000Y-47295000D03*
%TO.P,P8,9,Pin_9*%
%TO.N,/GPIO69*%
X129845000Y-49835000D03*
%TO.P,P8,10,Pin_10*%
%TO.N,/GPIO68*%
X129845000Y-47295000D03*
%TO.P,P8,11,Pin_11*%
%TO.N,/GPIO45*%
X132385000Y-49835000D03*
%TO.P,P8,12,Pin_12*%
%TO.N,/GPIO44*%
X132385000Y-47295000D03*
%TO.P,P8,13,Pin_13*%
%TO.N,/GPIO23*%
X134925000Y-49835000D03*
%TO.P,P8,14,Pin_14*%
%TO.N,/GPIO26*%
X134925000Y-47295000D03*
%TO.P,P8,15,Pin_15*%
%TO.N,/GPIO47*%
X137465000Y-49835000D03*
%TO.P,P8,16,Pin_16*%
%TO.N,/GPIO46*%
X137465000Y-47295000D03*
%TO.P,P8,17,Pin_17*%
%TO.N,/GPIO27*%
X140005000Y-49835000D03*
%TO.P,P8,18,Pin_18*%
%TO.N,/GPIO65*%
X140005000Y-47295000D03*
%TO.P,P8,19,Pin_19*%
%TO.N,/GPIO22*%
X142545000Y-49835000D03*
%TO.P,P8,20,Pin_20*%
%TO.N,/MMC1.CMD*%
X142545000Y-47295000D03*
%TO.P,P8,21,Pin_21*%
%TO.N,/MMC1.CLK*%
X145085000Y-49835000D03*
%TO.P,P8,22,Pin_22*%
%TO.N,/MMC1.DAT5*%
X145085000Y-47295000D03*
%TO.P,P8,23,Pin_23*%
%TO.N,/MMC1.DAT4*%
X147625000Y-49835000D03*
%TO.P,P8,24,Pin_24*%
%TO.N,/MMC1.DAT1*%
X147625000Y-47295000D03*
%TO.P,P8,25,Pin_25*%
%TO.N,/MMC1.DAT0*%
X150165000Y-49835000D03*
%TO.P,P8,26,Pin_26*%
%TO.N,/LCD.PCLK*%
X150165000Y-47295000D03*
%TO.P,P8,27,Pin_27*%
%TO.N,/LCD.VSYNC*%
X152705000Y-49835000D03*
%TO.P,P8,28,Pin_28*%
%TO.N,/GPIO61*%
X152705000Y-47295000D03*
%TO.P,P8,29,Pin_29*%
%TO.N,/LCD.HSYNC*%
X155245000Y-49835000D03*
%TO.P,P8,30,Pin_30*%
%TO.N,/LCD.AC_BIAS_E*%
X155245000Y-47295000D03*
%TO.P,P8,31,Pin_31*%
%TO.N,/LCD.DATA14*%
X157785000Y-49835000D03*
%TO.P,P8,32,Pin_32*%
%TO.N,/LCD.DATA15*%
X157785000Y-47295000D03*
%TO.P,P8,33,Pin_33*%
%TO.N,/LCD.DATA13*%
X160325000Y-49835000D03*
%TO.P,P8,34,Pin_34*%
%TO.N,/LCD.DATA11*%
X160325000Y-47295000D03*
%TO.P,P8,35,Pin_35*%
%TO.N,/LCD.DATA8*%
X162865000Y-49835000D03*
%TO.P,P8,36,Pin_36*%
%TO.N,/LCD.DATA10*%
X162865000Y-47295000D03*
%TO.P,P8,37,Pin_37*%
%TO.N,/LCD.DATA6*%
X165405000Y-49835000D03*
%TO.P,P8,38,Pin_38*%
%TO.N,/LCD.DATA9*%
X165405000Y-47295000D03*
%TO.P,P8,39,Pin_39*%
%TO.N,/LCD.DATA4*%
X167945000Y-49835000D03*
%TO.P,P8,40,Pin_40*%
%TO.N,/LCD.DATA7*%
X167945000Y-47295000D03*
%TO.P,P8,41,Pin_41*%
%TO.N,/LCD.DATA2*%
X170485000Y-49835000D03*
%TO.P,P8,42,Pin_42*%
%TO.N,/LCD.DATA5*%
X170485000Y-47295000D03*
%TO.P,P8,43,Pin_43*%
%TO.N,/LCD.DATA0*%
X173025000Y-49835000D03*
%TO.P,P8,44,Pin_44*%
%TO.N,/LCD.DATA3*%
X173025000Y-47295000D03*
%TO.P,P8,45,Pin_45*%
%TO.N,GNDD*%
X175565000Y-49835000D03*
%TO.P,P8,46,Pin_46*%
%TO.N,/LCD.DATA1*%
X175565000Y-47295000D03*
%TD*%
D10*
%TO.P,P9,1,Pin_1*%
%TO.N,GNDD*%
X119685000Y-98095000D03*
D11*
%TO.P,P9,2,Pin_2*%
X119685000Y-95555000D03*
%TO.P,P9,3,Pin_3*%
%TO.N,+3V3*%
X122225000Y-98095000D03*
%TO.P,P9,4,Pin_4*%
X122225000Y-95555000D03*
%TO.P,P9,5,Pin_5*%
%TO.N,+5V*%
X124765000Y-98095000D03*
%TO.P,P9,6,Pin_6*%
X124765000Y-95555000D03*
%TO.P,P9,7,Pin_7*%
%TO.N,VBUS*%
X127305000Y-98095000D03*
%TO.P,P9,8,Pin_8*%
X127305000Y-95555000D03*
%TO.P,P9,9,Pin_9*%
%TO.N,/PWR_BUT*%
X129845000Y-98095000D03*
%TO.P,P9,10,Pin_10*%
%TO.N,/~{SYS_RESET}*%
X129845000Y-95555000D03*
%TO.P,P9,11,Pin_11*%
%TO.N,/GPIO30*%
X132385000Y-98095000D03*
%TO.P,P9,12,Pin_12*%
%TO.N,/GPIO60*%
X132385000Y-95555000D03*
%TO.P,P9,13,Pin_13*%
%TO.N,/GPIO31*%
X134925000Y-98095000D03*
%TO.P,P9,14,Pin_14*%
%TO.N,/GPIO40*%
X134925000Y-95555000D03*
%TO.P,P9,15,Pin_15*%
%TO.N,/GPIO48*%
X137465000Y-98095000D03*
%TO.P,P9,16,Pin_16*%
%TO.N,/GPIO51*%
X137465000Y-95555000D03*
%TO.P,P9,17,Pin_17*%
%TO.N,/GPIO4*%
X140005000Y-98095000D03*
%TO.P,P9,18,Pin_18*%
%TO.N,/GPIO5*%
X140005000Y-95555000D03*
%TO.P,P9,19,Pin_19*%
%TO.N,/I2C2.SCL*%
X142545000Y-98095000D03*
%TO.P,P9,20,Pin_20*%
%TO.N,/I2C2.SDA*%
X142545000Y-95555000D03*
%TO.P,P9,21,Pin_21*%
%TO.N,/GPIO3*%
X145085000Y-98095000D03*
%TO.P,P9,22,Pin_22*%
%TO.N,/GPIO2*%
X145085000Y-95555000D03*
%TO.P,P9,23,Pin_23*%
%TO.N,/GPIO49*%
X147625000Y-98095000D03*
%TO.P,P9,24,Pin_24*%
%TO.N,/GPIO15*%
X147625000Y-95555000D03*
%TO.P,P9,25,Pin_25*%
%TO.N,/GPIO117*%
X150165000Y-98095000D03*
%TO.P,P9,26,Pin_26*%
%TO.N,/GPIO14*%
X150165000Y-95555000D03*
%TO.P,P9,27,Pin_27*%
%TO.N,/GPIO125*%
X152705000Y-98095000D03*
%TO.P,P9,28,Pin_28*%
%TO.N,/SPI1.CS0*%
X152705000Y-95555000D03*
%TO.P,P9,29,Pin_29*%
%TO.N,/SPI1.D0*%
X155245000Y-98095000D03*
%TO.P,P9,30,Pin_30*%
%TO.N,/GPIO122*%
X155245000Y-95555000D03*
%TO.P,P9,31,Pin_31*%
%TO.N,/SPI1.SCLK*%
X157785000Y-98095000D03*
%TO.P,P9,32,Pin_32*%
%TO.N,+1V8*%
X157785000Y-95555000D03*
%TO.P,P9,33,Pin_33*%
%TO.N,/AIN4*%
X160325000Y-98095000D03*
%TO.P,P9,34,Pin_34*%
%TO.N,GNDA*%
X160325000Y-95555000D03*
%TO.P,P9,35,Pin_35*%
%TO.N,/AIN6*%
X162865000Y-98095000D03*
%TO.P,P9,36,Pin_36*%
%TO.N,/AIN5*%
X162865000Y-95555000D03*
%TO.P,P9,37,Pin_37*%
%TO.N,/AIN2*%
X165405000Y-98095000D03*
%TO.P,P9,38,Pin_38*%
%TO.N,/AIN3*%
X165405000Y-95555000D03*
%TO.P,P9,39,Pin_39*%
%TO.N,/AIN0*%
X167945000Y-98095000D03*
%TO.P,P9,40,Pin_40*%
%TO.N,/AIN1*%
X167945000Y-95555000D03*
%TO.P,P9,41,Pin_41*%
%TO.N,/GPIO20*%
X170485000Y-98095000D03*
%TO.P,P9,42,Pin_42*%
%TO.N,/GPIO7*%
X170485000Y-95555000D03*
%TO.P,P9,43,Pin_43*%
%TO.N,GNDD*%
X173025000Y-98095000D03*
%TO.P,P9,44,Pin_44*%
X173025000Y-95555000D03*
%TO.P,P9,45,Pin_45*%
X175565000Y-98095000D03*
%TO.P,P9,46,Pin_46*%
X175565000Y-95555000D03*
%TD*%
D12*
%TO.P,J4,1,Pin_1*%
%TO.N,Net-(J4-Pin_1)*%
X108128000Y-56058000D03*
D13*
%TO.P,J4,2,Pin_2*%
%TO.N,Net-(J4-Pin_2)*%
X111628000Y-56058000D03*
%TO.P,J4,3,Pin_3*%
%TO.N,GNDA*%
X115128000Y-56058000D03*
%TD*%
D12*
%TO.P,J2,1,Pin_1*%
%TO.N,Net-(J2-Pin_1)*%
X105644000Y-94158000D03*
D13*
%TO.P,J2,2,Pin_2*%
%TO.N,Net-(J2-Pin_2)*%
X109144000Y-94158000D03*
%TD*%
D14*
%TO.P,PS1,1,-Vin*%
%TO.N,Net-(J2-Pin_1)*%
X102540000Y-85522000D03*
D15*
%TO.P,PS1,2,+Vin*%
%TO.N,Net-(J2-Pin_2)*%
X105080000Y-85522000D03*
%TO.P,PS1,6,+Vout*%
%TO.N,+5V*%
X115240000Y-85522000D03*
%TO.P,PS1,7,-Vout*%
%TO.N,GNDD*%
X117780000Y-85522000D03*
%TO.P,PS1,8,NC*%
%TO.N,unconnected-(PS1-NC-Pad8)*%
X120320000Y-85522000D03*
%TD*%
D16*
%TO.N,/GPIO3*%
X180391000Y-73711000D03*
X181280000Y-66450000D03*
%TO.N,GNDD*%
X175946000Y-71552000D03*
%TO.N,+5V*%
X123622000Y-96952000D03*
%TO.N,/I2C2.SDA*%
X140640000Y-84760000D03*
%TO.N,/I2C2.SCL*%
X139370000Y-79172000D03*
%TO.N,+3V3*%
X127305000Y-87935000D03*
X133274000Y-81458000D03*
X137212000Y-87172000D03*
X133274000Y-85522000D03*
X123876000Y-91364000D03*
%TO.N,+5V*%
X126924000Y-93650000D03*
X127178000Y-67996000D03*
X116002000Y-87808000D03*
%TO.N,/AIN1*%
X136576000Y-71552000D03*
X162738000Y-89840000D03*
%TO.N,/AIN0*%
X163754000Y-88062000D03*
X141656000Y-65964000D03*
%TO.N,GNDA*%
X120066000Y-58598000D03*
X130988000Y-66472000D03*
X160325000Y-93015000D03*
X141656000Y-74346000D03*
%TD*%
D17*
%TO.N,/GPIO3*%
X181280000Y-66450000D02*
X181280000Y-72822000D01*
X181280000Y-72822000D02*
X180391000Y-73711000D01*
D18*
%TO.N,+5V*%
X123622000Y-94412000D02*
X117018000Y-87808000D01*
X123622000Y-96952000D02*
X123622000Y-94412000D01*
X117018000Y-87808000D02*
X116002000Y-87808000D01*
X124765000Y-95555000D02*
X124765000Y-95809000D01*
D17*
%TO.N,/I2C2.SDA*%
X142545000Y-86665000D02*
X142545000Y-95555000D01*
X140640000Y-84760000D02*
X142545000Y-86665000D01*
%TO.N,/I2C2.SCL*%
X139370000Y-88446116D02*
X141180000Y-90256116D01*
X141180000Y-96730000D02*
X142545000Y-98095000D01*
X141180000Y-90256116D02*
X141180000Y-96730000D01*
X139370000Y-79680000D02*
X139370000Y-79172000D01*
X139370000Y-79680000D02*
X139370000Y-88446116D01*
D18*
%TO.N,+3V3*%
X135306000Y-89078000D02*
X126416000Y-89078000D01*
X126416000Y-89078000D02*
X126289000Y-88951000D01*
X137212000Y-87172000D02*
X135306000Y-89078000D01*
X133274000Y-85522000D02*
X133274000Y-81458000D01*
X126289000Y-88951000D02*
X127305000Y-87935000D01*
X123876000Y-91364000D02*
X126289000Y-88951000D01*
%TO.N,+5V*%
X127178000Y-67996000D02*
X138354000Y-79172000D01*
X133274000Y-93650000D02*
X126924000Y-93650000D01*
X138354000Y-79172000D02*
X138354000Y-88570000D01*
X138354000Y-88570000D02*
X133274000Y-93650000D01*
%TO.N,/AIN1*%
X144450000Y-71552000D02*
X136576000Y-71552000D01*
X162738000Y-89840000D02*
X144450000Y-71552000D01*
%TO.N,/AIN0*%
X141656000Y-65964000D02*
X163754000Y-88062000D01*
%TO.N,GNDA*%
X141656000Y-74346000D02*
X160325000Y-93015000D01*
X123114000Y-58598000D02*
X130988000Y-66472000D01*
X120066000Y-58598000D02*
X123114000Y-58598000D01*
%TD*%
%TA.AperFunction,Conductor*%
%TO.N,GNDD*%
G36*
X175105507Y-97885156D02*
G01*
X175065000Y-98023111D01*
X175065000Y-98166889D01*
X175105507Y-98304844D01*
X175131314Y-98345000D01*
X173458686Y-98345000D01*
X173484493Y-98304844D01*
X173525000Y-98166889D01*
X173525000Y-98023111D01*
X173484493Y-97885156D01*
X173458686Y-97845000D01*
X175131314Y-97845000D01*
X175105507Y-97885156D01*
G37*
%TD.AperFunction*%
%TA.AperFunction,Conductor*%
G36*
X119935000Y-97659498D02*
G01*
X119827315Y-97610320D01*
X119720763Y-97595000D01*
X119649237Y-97595000D01*
X119542685Y-97610320D01*
X119435000Y-97659498D01*
X119435000Y-95990501D01*
X119542685Y-96039680D01*
X119649237Y-96055000D01*
X119720763Y-96055000D01*
X119827315Y-96039680D01*
X119935000Y-95990501D01*
X119935000Y-97659498D01*
G37*
%TD.AperFunction*%
%TA.AperFunction,Conductor*%
G36*
X173275000Y-97659498D02*
G01*
X173167315Y-97610320D01*
X173060763Y-97595000D01*
X172989237Y-97595000D01*
X172882685Y-97610320D01*
X172775000Y-97659498D01*
X172775000Y-95990501D01*
X172882685Y-96039680D01*
X172989237Y-96055000D01*
X173060763Y-96055000D01*
X173167315Y-96039680D01*
X173275000Y-95990501D01*
X173275000Y-97659498D01*
G37*
%TD.AperFunction*%
%TA.AperFunction,Conductor*%
G36*
X175815000Y-97659498D02*
G01*
X175707315Y-97610320D01*
X175600763Y-97595000D01*
X175529237Y-97595000D01*
X175422685Y-97610320D01*
X175315000Y-97659498D01*
X175315000Y-95990501D01*
X175422685Y-96039680D01*
X175529237Y-96055000D01*
X175600763Y-96055000D01*
X175707315Y-96039680D01*
X175815000Y-95990501D01*
X175815000Y-97659498D01*
G37*
%TD.AperFunction*%
%TA.AperFunction,Conductor*%
G36*
X175105507Y-95345156D02*
G01*
X175065000Y-95483111D01*
X175065000Y-95626889D01*
X175105507Y-95764844D01*
X175131314Y-95805000D01*
X173458686Y-95805000D01*
X173484493Y-95764844D01*
X173525000Y-95626889D01*
X173525000Y-95483111D01*
X173484493Y-95345156D01*
X173458686Y-95305000D01*
X175131314Y-95305000D01*
X175105507Y-95345156D01*
G37*
%TD.AperFunction*%
%TA.AperFunction,Conductor*%
G36*
X117370762Y-85654969D02*
G01*
X117431882Y-85774923D01*
X117527077Y-85870118D01*
X117647031Y-85931238D01*
X117713747Y-85941804D01*
X116963386Y-86692165D01*
X116963386Y-86692167D01*
X116997919Y-86719045D01*
X116997930Y-86719052D01*
X117203154Y-86830114D01*
X117252745Y-86879334D01*
X117267853Y-86947550D01*
X117243683Y-87013106D01*
X117187907Y-87055187D01*
X117118234Y-87060433D01*
X117115546Y-87059828D01*
X117105718Y-87057499D01*
X117098547Y-87056661D01*
X117098553Y-87056601D01*
X117091055Y-87055835D01*
X117091050Y-87055895D01*
X117083860Y-87055265D01*
X117007083Y-87057500D01*
X116301972Y-87057500D01*
X116261017Y-87050542D01*
X116181254Y-87022631D01*
X116181249Y-87022630D01*
X116002004Y-87002435D01*
X116001999Y-87002435D01*
X116001466Y-87002495D01*
X116001124Y-87002435D01*
X115995036Y-87002435D01*
X115995036Y-87001368D01*
X115932644Y-86990437D01*
X115881267Y-86943086D01*
X115863645Y-86875475D01*
X115885374Y-86809070D01*
X115928570Y-86770219D01*
X116022346Y-86719470D01*
X116208773Y-86574368D01*
X116368775Y-86400561D01*
X116406490Y-86342832D01*
X116459634Y-86297477D01*
X116528865Y-86288053D01*
X116592201Y-86317554D01*
X116609547Y-86337571D01*
X116610749Y-86337696D01*
X117360195Y-85588251D01*
X117370762Y-85654969D01*
G37*
%TD.AperFunction*%
%TA.AperFunction,Conductor*%
G36*
X119935000Y-49399498D02*
G01*
X119827315Y-49350320D01*
X119720763Y-49335000D01*
X119649237Y-49335000D01*
X119542685Y-49350320D01*
X119435000Y-49399498D01*
X119435000Y-47730501D01*
X119542685Y-47779680D01*
X119649237Y-47795000D01*
X119720763Y-47795000D01*
X119827315Y-47779680D01*
X119935000Y-47730501D01*
X119935000Y-49399498D01*
G37*
%TD.AperFunction*%
%TA.AperFunction,Conductor*%
G36*
X174345796Y-45410348D02*
G01*
X174349149Y-45410530D01*
X174475296Y-45420801D01*
X175031263Y-45466073D01*
X175034561Y-45466431D01*
X175697384Y-45556739D01*
X175714549Y-45559163D01*
X175717490Y-45559653D01*
X176184930Y-45649347D01*
X176301794Y-45671772D01*
X176314980Y-45674394D01*
X176400767Y-45691458D01*
X176403566Y-45692085D01*
X176936659Y-45824659D01*
X177001087Y-45841279D01*
X177078523Y-45861255D01*
X177081203Y-45862010D01*
X177414551Y-45964364D01*
X177578952Y-46014843D01*
X177598577Y-46021098D01*
X177747114Y-46068440D01*
X178108864Y-46201340D01*
X178219057Y-46241824D01*
X178258516Y-46256886D01*
X178401832Y-46311592D01*
X178851218Y-46504904D01*
X179042043Y-46590293D01*
X179471370Y-46803220D01*
X179632283Y-46886349D01*
X179665829Y-46903680D01*
X180076578Y-47135907D01*
X180271263Y-47250748D01*
X180340494Y-47295000D01*
X180664329Y-47501992D01*
X180856497Y-47630394D01*
X181232294Y-47900328D01*
X181328296Y-47972578D01*
X181419800Y-48041442D01*
X181778392Y-48329686D01*
X181959428Y-48482557D01*
X182300772Y-48788790D01*
X182473756Y-48952332D01*
X182797667Y-49276243D01*
X182961209Y-49449227D01*
X183267442Y-49790571D01*
X183420313Y-49971607D01*
X183708557Y-50330199D01*
X183809295Y-50464056D01*
X183837181Y-50501110D01*
X183849675Y-50517711D01*
X184104954Y-50873105D01*
X184119601Y-50893496D01*
X184248007Y-51085670D01*
X184499247Y-51478730D01*
X184614092Y-51673421D01*
X184846319Y-52084170D01*
X184946783Y-52278635D01*
X185159706Y-52707956D01*
X185245105Y-52898805D01*
X185438406Y-53348164D01*
X185508175Y-53530942D01*
X185681554Y-54002871D01*
X185735157Y-54171047D01*
X185887978Y-54668762D01*
X185888743Y-54671474D01*
X185925355Y-54813401D01*
X186057907Y-55346407D01*
X186058549Y-55349275D01*
X186078227Y-55448204D01*
X186190340Y-56032480D01*
X186190842Y-56035493D01*
X186193274Y-56052714D01*
X186193995Y-56058004D01*
X186283565Y-56715416D01*
X186283928Y-56718755D01*
X186339469Y-57400850D01*
X186339651Y-57404203D01*
X186358230Y-58090000D01*
X186358230Y-87300000D01*
X186339651Y-87985796D01*
X186339469Y-87989149D01*
X186283928Y-88671244D01*
X186283565Y-88674583D01*
X186220244Y-89139340D01*
X186210592Y-89210184D01*
X186193282Y-89337230D01*
X186190842Y-89354506D01*
X186190340Y-89357519D01*
X186078227Y-89941795D01*
X186058549Y-90040724D01*
X186057907Y-90043591D01*
X185925355Y-90576598D01*
X185888743Y-90718524D01*
X185887978Y-90721236D01*
X185735157Y-91218952D01*
X185681554Y-91387128D01*
X185508175Y-91859057D01*
X185438406Y-92041835D01*
X185245105Y-92491194D01*
X185159706Y-92682043D01*
X184946783Y-93111364D01*
X184846319Y-93305829D01*
X184614092Y-93716578D01*
X184499247Y-93911269D01*
X184248007Y-94304329D01*
X184119601Y-94496503D01*
X183849682Y-94872279D01*
X183708557Y-95059800D01*
X183420313Y-95418392D01*
X183267442Y-95599428D01*
X182961209Y-95940772D01*
X182797667Y-96113756D01*
X182473756Y-96437667D01*
X182300772Y-96601209D01*
X181959428Y-96907442D01*
X181778392Y-97060313D01*
X181419800Y-97348557D01*
X181232279Y-97489682D01*
X180856503Y-97759601D01*
X180664329Y-97888007D01*
X180271269Y-98139247D01*
X180076578Y-98254092D01*
X179665829Y-98486319D01*
X179471364Y-98586783D01*
X179042043Y-98799706D01*
X178851194Y-98885105D01*
X178401835Y-99078406D01*
X178219057Y-99148175D01*
X177747128Y-99321554D01*
X177578952Y-99375157D01*
X177081236Y-99527978D01*
X177078524Y-99528743D01*
X176936598Y-99565355D01*
X176403591Y-99697907D01*
X176400724Y-99698549D01*
X176301795Y-99718227D01*
X175717519Y-99830340D01*
X175714506Y-99830842D01*
X175699707Y-99832932D01*
X175697199Y-99833286D01*
X175034583Y-99923565D01*
X175031244Y-99923928D01*
X174349149Y-99979469D01*
X174345796Y-99979651D01*
X173660000Y-99998230D01*
X106350000Y-99998230D01*
X105877904Y-99980565D01*
X105873288Y-99980219D01*
X105868247Y-99979651D01*
X105406150Y-99927585D01*
X105401566Y-99926894D01*
X105003461Y-99851569D01*
X104930093Y-99836974D01*
X104926142Y-99836053D01*
X104571068Y-99740912D01*
X104461545Y-99710023D01*
X104457896Y-99708871D01*
X104130725Y-99594390D01*
X104004205Y-99547712D01*
X104000871Y-99546371D01*
X103694849Y-99412857D01*
X103560801Y-99351060D01*
X103557787Y-99349570D01*
X103269785Y-99197355D01*
X103133937Y-99121275D01*
X103131245Y-99119678D01*
X102859900Y-98949181D01*
X102726079Y-98859765D01*
X102723731Y-98858116D01*
X102468538Y-98669775D01*
X102338600Y-98567341D01*
X102328516Y-98558663D01*
X102098559Y-98360769D01*
X101976008Y-98247483D01*
X101752516Y-98023991D01*
X101639227Y-97901436D01*
X101432658Y-97661398D01*
X101330215Y-97531450D01*
X101299389Y-97489682D01*
X101141871Y-97276252D01*
X101140233Y-97273919D01*
X101050818Y-97140099D01*
X100880320Y-96868753D01*
X100878722Y-96866061D01*
X100802644Y-96730214D01*
X100744425Y-96620060D01*
X100650414Y-96442182D01*
X100648951Y-96439224D01*
X100587147Y-96305162D01*
X100536723Y-96189587D01*
X100453627Y-95999127D01*
X100452285Y-95995793D01*
X100405609Y-95869274D01*
X100401838Y-95858498D01*
X100291126Y-95542101D01*
X100289980Y-95538469D01*
X100259094Y-95428956D01*
X100252908Y-95405870D01*
X103943500Y-95405870D01*
X103943501Y-95405876D01*
X103949908Y-95465483D01*
X104000202Y-95600328D01*
X104000206Y-95600335D01*
X104086452Y-95715544D01*
X104086455Y-95715547D01*
X104201664Y-95801793D01*
X104201671Y-95801797D01*
X104336517Y-95852091D01*
X104336516Y-95852091D01*
X104343444Y-95852835D01*
X104396127Y-95858500D01*
X106891872Y-95858499D01*
X106951483Y-95852091D01*
X107086331Y-95801796D01*
X107201546Y-95715546D01*
X107287796Y-95600331D01*
X107338091Y-95465483D01*
X107344500Y-95405873D01*
X107344499Y-94882854D01*
X107364183Y-94815818D01*
X107416987Y-94770063D01*
X107486146Y-94760119D01*
X107549702Y-94789144D01*
X107583927Y-94837553D01*
X107603904Y-94888454D01*
X107607609Y-94897892D01*
X107616458Y-94913219D01*
X107735041Y-95118612D01*
X107893950Y-95317877D01*
X108080783Y-95491232D01*
X108291366Y-95634805D01*
X108291371Y-95634807D01*
X108291372Y-95634808D01*
X108291373Y-95634809D01*
X108413328Y-95693538D01*
X108520992Y-95745387D01*
X108520993Y-95745387D01*
X108520996Y-95745389D01*
X108764542Y-95820513D01*
X109016565Y-95858500D01*
X109271435Y-95858500D01*
X109523458Y-95820513D01*
X109767004Y-95745389D01*
X109996634Y-95634805D01*
X110207217Y-95491232D01*
X110394050Y-95317877D01*
X110552959Y-95118612D01*
X110680393Y-94897888D01*
X110773508Y-94660637D01*
X110830222Y-94412157D01*
X110843292Y-94237745D01*
X110849268Y-94158004D01*
X110849268Y-94157995D01*
X110830222Y-93903845D01*
X110826529Y-93887666D01*
X110773508Y-93655363D01*
X110680393Y-93418112D01*
X110552959Y-93197388D01*
X110394050Y-92998123D01*
X110207217Y-92824768D01*
X109996634Y-92681195D01*
X109996630Y-92681193D01*
X109996627Y-92681191D01*
X109996626Y-92681190D01*
X109767006Y-92570612D01*
X109767008Y-92570612D01*
X109523466Y-92495489D01*
X109523462Y-92495488D01*
X109523458Y-92495487D01*
X109402231Y-92477214D01*
X109271440Y-92457500D01*
X109271435Y-92457500D01*
X109016565Y-92457500D01*
X109016559Y-92457500D01*
X108859609Y-92481157D01*
X108764542Y-92495487D01*
X108764539Y-92495488D01*
X108764533Y-92495489D01*
X108520992Y-92570612D01*
X108291373Y-92681190D01*
X108291372Y-92681191D01*
X108080782Y-92824768D01*
X107893952Y-92998121D01*
X107893950Y-92998123D01*
X107735041Y-93197388D01*
X107607608Y-93418109D01*
X107583927Y-93478447D01*
X107541110Y-93533661D01*
X107475240Y-93556961D01*
X107407230Y-93540950D01*
X107358672Y-93490711D01*
X107344499Y-93433144D01*
X107344499Y-92910129D01*
X107344498Y-92910123D01*
X107344497Y-92910116D01*
X107338091Y-92850517D01*
X107332583Y-92835750D01*
X107287797Y-92715671D01*
X107287793Y-92715664D01*
X107201547Y-92600455D01*
X107201544Y-92600452D01*
X107086335Y-92514206D01*
X107086328Y-92514202D01*
X106951482Y-92463908D01*
X106951483Y-92463908D01*
X106891883Y-92457501D01*
X106891881Y-92457500D01*
X106891873Y-92457500D01*
X106891864Y-92457500D01*
X104396129Y-92457500D01*
X104396123Y-92457501D01*
X104336516Y-92463908D01*
X104201671Y-92514202D01*
X104201664Y-92514206D01*
X104086455Y-92600452D01*
X104086452Y-92600455D01*
X104000206Y-92715664D01*
X104000202Y-92715671D01*
X103949908Y-92850517D01*
X103943501Y-92910116D01*
X103943501Y-92910123D01*
X103943500Y-92910135D01*
X103943500Y-95405870D01*
X100252908Y-95405870D01*
X100163943Y-95073847D01*
X100163024Y-95069904D01*
X100161014Y-95059800D01*
X100148442Y-94996597D01*
X100073104Y-94598432D01*
X100072416Y-94593871D01*
X100019778Y-94126686D01*
X100019435Y-94122119D01*
X100001770Y-93650000D01*
X100001770Y-93648230D01*
X100001770Y-86494870D01*
X101114500Y-86494870D01*
X101114501Y-86494876D01*
X101120908Y-86554483D01*
X101171202Y-86689328D01*
X101171206Y-86689335D01*
X101257452Y-86804544D01*
X101257455Y-86804547D01*
X101372664Y-86890793D01*
X101372671Y-86890797D01*
X101507517Y-86941091D01*
X101507516Y-86941091D01*
X101514444Y-86941835D01*
X101567127Y-86947500D01*
X103512872Y-86947499D01*
X103572483Y-86941091D01*
X103707331Y-86890796D01*
X103822546Y-86804546D01*
X103908796Y-86689331D01*
X103928537Y-86636403D01*
X103970407Y-86580469D01*
X104035871Y-86556051D01*
X104104144Y-86570902D01*
X104120875Y-86581877D01*
X104190930Y-86636403D01*
X104297119Y-86719054D01*
X104297654Y-86719470D01*
X104391430Y-86770219D01*
X104499596Y-86828756D01*
X104505421Y-86831908D01*
X104728861Y-86908616D01*
X104961880Y-86947500D01*
X104961881Y-86947500D01*
X105198119Y-86947500D01*
X105198120Y-86947500D01*
X105431139Y-86908616D01*
X105654579Y-86831908D01*
X105862346Y-86719470D01*
X106048773Y-86574368D01*
X106208775Y-86400561D01*
X106337986Y-86202788D01*
X106432883Y-85986445D01*
X106490876Y-85757434D01*
X106505064Y-85586211D01*
X106510385Y-85522005D01*
X113809615Y-85522005D01*
X113829123Y-85757430D01*
X113887117Y-85986445D01*
X113982013Y-86202787D01*
X114111225Y-86400562D01*
X114263866Y-86566372D01*
X114271227Y-86574368D01*
X114350930Y-86636403D01*
X114457119Y-86719054D01*
X114457654Y-86719470D01*
X114551430Y-86770219D01*
X114659596Y-86828756D01*
X114665421Y-86831908D01*
X114888861Y-86908616D01*
X115121880Y-86947500D01*
X115121881Y-86947500D01*
X115358119Y-86947500D01*
X115358120Y-86947500D01*
X115440656Y-86933727D01*
X115510021Y-86942109D01*
X115563844Y-86986662D01*
X115585034Y-87053240D01*
X115566866Y-87120707D01*
X115527039Y-87161029D01*
X115499740Y-87178182D01*
X115499737Y-87178184D01*
X115372184Y-87305737D01*
X115276211Y-87458476D01*
X115216631Y-87628745D01*
X115216630Y-87628750D01*
X115196435Y-87807996D01*
X115196435Y-87808003D01*
X115216630Y-87987249D01*
X115216631Y-87987254D01*
X115276211Y-88157523D01*
X115328820Y-88241249D01*
X115372184Y-88310262D01*
X115499738Y-88437816D01*
X115652478Y-88533789D01*
X115822745Y-88593368D01*
X115822750Y-88593369D01*
X116001996Y-88613565D01*
X116002000Y-88613565D01*
X116002004Y-88613565D01*
X116181249Y-88593369D01*
X116181252Y-88593368D01*
X116181255Y-88593368D01*
X116261017Y-88565457D01*
X116301972Y-88558500D01*
X116655770Y-88558500D01*
X116722809Y-88578185D01*
X116743451Y-88594819D01*
X119512635Y-91364003D01*
X122150048Y-94001415D01*
X122183533Y-94062738D01*
X122178549Y-94132430D01*
X122136677Y-94188363D01*
X122073175Y-94212624D01*
X121989596Y-94219936D01*
X121989586Y-94219938D01*
X121761344Y-94281094D01*
X121761335Y-94281098D01*
X121547171Y-94380964D01*
X121547169Y-94380965D01*
X121353597Y-94516505D01*
X121186508Y-94683594D01*
X121056269Y-94869595D01*
X121001692Y-94913219D01*
X120932193Y-94920412D01*
X120869839Y-94888890D01*
X120853119Y-94869594D01*
X120723113Y-94683926D01*
X120723108Y-94683920D01*
X120556082Y-94516894D01*
X120362578Y-94381399D01*
X120148492Y-94281570D01*
X120148486Y-94281567D01*
X119935000Y-94224364D01*
X119935000Y-95119498D01*
X119827315Y-95070320D01*
X119720763Y-95055000D01*
X119649237Y-95055000D01*
X119542685Y-95070320D01*
X119435000Y-95119498D01*
X119435000Y-94224364D01*
X119434999Y-94224364D01*
X119221513Y-94281567D01*
X119221507Y-94281570D01*
X119007422Y-94381399D01*
X119007420Y-94381400D01*
X118813926Y-94516886D01*
X118813920Y-94516891D01*
X118646891Y-94683920D01*
X118646886Y-94683926D01*
X118511400Y-94877420D01*
X118511399Y-94877422D01*
X118411570Y-95091507D01*
X118411567Y-95091513D01*
X118354364Y-95304999D01*
X118354364Y-95305000D01*
X119251314Y-95305000D01*
X119225507Y-95345156D01*
X119185000Y-95483111D01*
X119185000Y-95626889D01*
X119225507Y-95764844D01*
X119251314Y-95805000D01*
X118354364Y-95805000D01*
X118411567Y-96018486D01*
X118411570Y-96018492D01*
X118511399Y-96232578D01*
X118646894Y-96426082D01*
X118769334Y-96548522D01*
X118802819Y-96609845D01*
X118797835Y-96679537D01*
X118755963Y-96735470D01*
X118724987Y-96752385D01*
X118592911Y-96801646D01*
X118592906Y-96801649D01*
X118477812Y-96887809D01*
X118477809Y-96887812D01*
X118391649Y-97002906D01*
X118391645Y-97002913D01*
X118341403Y-97137620D01*
X118341401Y-97137627D01*
X118335000Y-97197155D01*
X118335000Y-97845000D01*
X119251314Y-97845000D01*
X119225507Y-97885156D01*
X119185000Y-98023111D01*
X119185000Y-98166889D01*
X119225507Y-98304844D01*
X119251314Y-98345000D01*
X118335000Y-98345000D01*
X118335000Y-98992844D01*
X118341401Y-99052372D01*
X118341403Y-99052379D01*
X118391645Y-99187086D01*
X118391649Y-99187093D01*
X118477809Y-99302187D01*
X118477812Y-99302190D01*
X118592906Y-99388350D01*
X118592913Y-99388354D01*
X118727620Y-99438596D01*
X118727627Y-99438598D01*
X118787155Y-99444999D01*
X118787172Y-99445000D01*
X119435000Y-99445000D01*
X119435000Y-98530501D01*
X119542685Y-98579680D01*
X119649237Y-98595000D01*
X119720763Y-98595000D01*
X119827315Y-98579680D01*
X119935000Y-98530501D01*
X119935000Y-99445000D01*
X120582828Y-99445000D01*
X120582844Y-99444999D01*
X120642372Y-99438598D01*
X120642379Y-99438596D01*
X120777086Y-99388354D01*
X120777093Y-99388350D01*
X120892187Y-99302190D01*
X120892190Y-99302187D01*
X120978350Y-99187093D01*
X120978354Y-99187086D01*
X121027422Y-99055529D01*
X121069293Y-98999595D01*
X121134757Y-98975178D01*
X121203030Y-98990030D01*
X121231285Y-99011181D01*
X121353599Y-99133495D01*
X121430135Y-99187086D01*
X121547165Y-99269032D01*
X121547167Y-99269033D01*
X121547170Y-99269035D01*
X121761337Y-99368903D01*
X121761343Y-99368904D01*
X121761344Y-99368905D01*
X121816285Y-99383626D01*
X121989592Y-99430063D01*
X122160319Y-99445000D01*
X122224999Y-99450659D01*
X122225000Y-99450659D01*
X122225001Y-99450659D01*
X122289681Y-99445000D01*
X122460408Y-99430063D01*
X122688663Y-99368903D01*
X122902830Y-99269035D01*
X123096401Y-99133495D01*
X123263495Y-98966401D01*
X123393425Y-98780842D01*
X123448002Y-98737217D01*
X123517500Y-98730023D01*
X123579855Y-98761546D01*
X123596575Y-98780842D01*
X123726281Y-98966082D01*
X123726505Y-98966401D01*
X123893599Y-99133495D01*
X123970135Y-99187086D01*
X124087165Y-99269032D01*
X124087167Y-99269033D01*
X124087170Y-99269035D01*
X124301337Y-99368903D01*
X124301343Y-99368904D01*
X124301344Y-99368905D01*
X124356285Y-99383626D01*
X124529592Y-99430063D01*
X124700319Y-99445000D01*
X124764999Y-99450659D01*
X124765000Y-99450659D01*
X124765001Y-99450659D01*
X124829681Y-99445000D01*
X125000408Y-99430063D01*
X125228663Y-99368903D01*
X125442830Y-99269035D01*
X125636401Y-99133495D01*
X125803495Y-98966401D01*
X125933425Y-98780842D01*
X125988002Y-98737217D01*
X126057500Y-98730023D01*
X126119855Y-98761546D01*
X126136575Y-98780842D01*
X126266281Y-98966082D01*
X126266505Y-98966401D01*
X126433599Y-99133495D01*
X126510135Y-99187086D01*
X126627165Y-99269032D01*
X126627167Y-99269033D01*
X126627170Y-99269035D01*
X126841337Y-99368903D01*
X126841343Y-99368904D01*
X126841344Y-99368905D01*
X126896285Y-99383626D01*
X127069592Y-99430063D01*
X127240319Y-99445000D01*
X127304999Y-99450659D01*
X127305000Y-99450659D01*
X127305001Y-99450659D01*
X127369681Y-99445000D01*
X127540408Y-99430063D01*
X127768663Y-99368903D01*
X127982830Y-99269035D01*
X128176401Y-99133495D01*
X128343495Y-98966401D01*
X128473425Y-98780842D01*
X128528002Y-98737217D01*
X128597500Y-98730023D01*
X128659855Y-98761546D01*
X128676575Y-98780842D01*
X128806281Y-98966082D01*
X128806505Y-98966401D01*
X128973599Y-99133495D01*
X129050135Y-99187086D01*
X129167165Y-99269032D01*
X129167167Y-99269033D01*
X129167170Y-99269035D01*
X129381337Y-99368903D01*
X129381343Y-99368904D01*
X129381344Y-99368905D01*
X129436285Y-99383626D01*
X129609592Y-99430063D01*
X129780319Y-99445000D01*
X129844999Y-99450659D01*
X129845000Y-99450659D01*
X129845001Y-99450659D01*
X129909681Y-99445000D01*
X130080408Y-99430063D01*
X130308663Y-99368903D01*
X130522830Y-99269035D01*
X130716401Y-99133495D01*
X130883495Y-98966401D01*
X131013425Y-98780842D01*
X131068002Y-98737217D01*
X131137500Y-98730023D01*
X131199855Y-98761546D01*
X131216575Y-98780842D01*
X131346281Y-98966082D01*
X131346505Y-98966401D01*
X131513599Y-99133495D01*
X131590135Y-99187086D01*
X131707165Y-99269032D01*
X131707167Y-99269033D01*
X131707170Y-99269035D01*
X131921337Y-99368903D01*
X131921343Y-99368904D01*
X131921344Y-99368905D01*
X131976285Y-99383626D01*
X132149592Y-99430063D01*
X132320319Y-99445000D01*
X132384999Y-99450659D01*
X132385000Y-99450659D01*
X132385001Y-99450659D01*
X132449681Y-99445000D01*
X132620408Y-99430063D01*
X132848663Y-99368903D01*
X133062830Y-99269035D01*
X133256401Y-99133495D01*
X133423495Y-98966401D01*
X133553425Y-98780842D01*
X133608002Y-98737217D01*
X133677500Y-98730023D01*
X133739855Y-98761546D01*
X133756575Y-98780842D01*
X133886281Y-98966082D01*
X133886505Y-98966401D01*
X134053599Y-99133495D01*
X134130135Y-99187086D01*
X134247165Y-99269032D01*
X134247167Y-99269033D01*
X134247170Y-99269035D01*
X134461337Y-99368903D01*
X134461343Y-99368904D01*
X134461344Y-99368905D01*
X134516285Y-99383626D01*
X134689592Y-99430063D01*
X134860319Y-99445000D01*
X134924999Y-99450659D01*
X134925000Y-99450659D01*
X134925001Y-99450659D01*
X134989681Y-99445000D01*
X135160408Y-99430063D01*
X135388663Y-99368903D01*
X135602830Y-99269035D01*
X135796401Y-99133495D01*
X135963495Y-98966401D01*
X136093425Y-98780842D01*
X136148002Y-98737217D01*
X136217500Y-98730023D01*
X136279855Y-98761546D01*
X136296575Y-98780842D01*
X136426281Y-98966082D01*
X136426505Y-98966401D01*
X136593599Y-99133495D01*
X136670135Y-99187086D01*
X136787165Y-99269032D01*
X136787167Y-99269033D01*
X136787170Y-99269035D01*
X137001337Y-99368903D01*
X137001343Y-99368904D01*
X137001344Y-99368905D01*
X137056285Y-99383626D01*
X137229592Y-99430063D01*
X137400319Y-99445000D01*
X137464999Y-99450659D01*
X137465000Y-99450659D01*
X137465001Y-99450659D01*
X137529681Y-99445000D01*
X137700408Y-99430063D01*
X137928663Y-99368903D01*
X138142830Y-99269035D01*
X138336401Y-99133495D01*
X138503495Y-98966401D01*
X138633425Y-98780842D01*
X138688002Y-98737217D01*
X138757500Y-98730023D01*
X138819855Y-98761546D01*
X138836575Y-98780842D01*
X138966281Y-98966082D01*
X138966505Y-98966401D01*
X139133599Y-99133495D01*
X139210135Y-99187086D01*
X139327165Y-99269032D01*
X139327167Y-99269033D01*
X139327170Y-99269035D01*
X139541337Y-99368903D01*
X139541343Y-99368904D01*
X139541344Y-99368905D01*
X139596285Y-99383626D01*
X139769592Y-99430063D01*
X139940319Y-99445000D01*
X140004999Y-99450659D01*
X140005000Y-99450659D01*
X140005001Y-99450659D01*
X140069681Y-99445000D01*
X140240408Y-99430063D01*
X140468663Y-99368903D01*
X140682830Y-99269035D01*
X140876401Y-99133495D01*
X141043495Y-98966401D01*
X141173425Y-98780842D01*
X141228002Y-98737217D01*
X141297500Y-98730023D01*
X141359855Y-98761546D01*
X141376575Y-98780842D01*
X141506281Y-98966082D01*
X141506505Y-98966401D01*
X141673599Y-99133495D01*
X141750135Y-99187086D01*
X141867165Y-99269032D01*
X141867167Y-99269033D01*
X141867170Y-99269035D01*
X142081337Y-99368903D01*
X142081343Y-99368904D01*
X142081344Y-99368905D01*
X142136285Y-99383626D01*
X142309592Y-99430063D01*
X142480319Y-99445000D01*
X142544999Y-99450659D01*
X142545000Y-99450659D01*
X142545001Y-99450659D01*
X142609681Y-99445000D01*
X142780408Y-99430063D01*
X143008663Y-99368903D01*
X143222830Y-99269035D01*
X143416401Y-99133495D01*
X143583495Y-98966401D01*
X143713425Y-98780842D01*
X143768002Y-98737217D01*
X143837500Y-98730023D01*
X143899855Y-98761546D01*
X143916575Y-98780842D01*
X144046281Y-98966082D01*
X144046505Y-98966401D01*
X144213599Y-99133495D01*
X144290135Y-99187086D01*
X144407165Y-99269032D01*
X144407167Y-99269033D01*
X144407170Y-99269035D01*
X144621337Y-99368903D01*
X144621343Y-99368904D01*
X144621344Y-99368905D01*
X144676285Y-99383626D01*
X144849592Y-99430063D01*
X145020319Y-99445000D01*
X145084999Y-99450659D01*
X145085000Y-99450659D01*
X145085001Y-99450659D01*
X145149681Y-99445000D01*
X145320408Y-99430063D01*
X145548663Y-99368903D01*
X145762830Y-99269035D01*
X145956401Y-99133495D01*
X146123495Y-98966401D01*
X146253425Y-98780842D01*
X146308002Y-98737217D01*
X146377500Y-98730023D01*
X146439855Y-98761546D01*
X146456575Y-98780842D01*
X146586281Y-98966082D01*
X146586505Y-98966401D01*
X146753599Y-99133495D01*
X146830135Y-99187086D01*
X146947165Y-99269032D01*
X146947167Y-99269033D01*
X146947170Y-99269035D01*
X147161337Y-99368903D01*
X147161343Y-99368904D01*
X147161344Y-99368905D01*
X147216285Y-99383626D01*
X147389592Y-99430063D01*
X147560319Y-99445000D01*
X147624999Y-99450659D01*
X147625000Y-99450659D01*
X147625001Y-99450659D01*
X147689681Y-99445000D01*
X147860408Y-99430063D01*
X148088663Y-99368903D01*
X148302830Y-99269035D01*
X148496401Y-99133495D01*
X148663495Y-98966401D01*
X148793425Y-98780842D01*
X148848002Y-98737217D01*
X148917500Y-98730023D01*
X148979855Y-98761546D01*
X148996575Y-98780842D01*
X149126281Y-98966082D01*
X149126505Y-98966401D01*
X149293599Y-99133495D01*
X149370135Y-99187086D01*
X149487165Y-99269032D01*
X149487167Y-99269033D01*
X149487170Y-99269035D01*
X149701337Y-99368903D01*
X149701343Y-99368904D01*
X149701344Y-99368905D01*
X149756285Y-99383626D01*
X149929592Y-99430063D01*
X150100319Y-99445000D01*
X150164999Y-99450659D01*
X150165000Y-99450659D01*
X150165001Y-99450659D01*
X150229681Y-99445000D01*
X150400408Y-99430063D01*
X150628663Y-99368903D01*
X150842830Y-99269035D01*
X151036401Y-99133495D01*
X151203495Y-98966401D01*
X151333425Y-98780842D01*
X151388002Y-98737217D01*
X151457500Y-98730023D01*
X151519855Y-98761546D01*
X151536575Y-98780842D01*
X151666281Y-98966082D01*
X151666505Y-98966401D01*
X151833599Y-99133495D01*
X151910135Y-99187086D01*
X152027165Y-99269032D01*
X152027167Y-99269033D01*
X152027170Y-99269035D01*
X152241337Y-99368903D01*
X152241343Y-99368904D01*
X152241344Y-99368905D01*
X152296285Y-99383626D01*
X152469592Y-99430063D01*
X152640319Y-99445000D01*
X152704999Y-99450659D01*
X152705000Y-99450659D01*
X152705001Y-99450659D01*
X152769681Y-99445000D01*
X152940408Y-99430063D01*
X153168663Y-99368903D01*
X153382830Y-99269035D01*
X153576401Y-99133495D01*
X153743495Y-98966401D01*
X153873425Y-98780842D01*
X153928002Y-98737217D01*
X153997500Y-98730023D01*
X154059855Y-98761546D01*
X154076575Y-98780842D01*
X154206281Y-98966082D01*
X154206505Y-98966401D01*
X154373599Y-99133495D01*
X154450135Y-99187086D01*
X154567165Y-99269032D01*
X154567167Y-99269033D01*
X154567170Y-99269035D01*
X154781337Y-99368903D01*
X154781343Y-99368904D01*
X154781344Y-99368905D01*
X154836285Y-99383626D01*
X155009592Y-99430063D01*
X155180319Y-99445000D01*
X155244999Y-99450659D01*
X155245000Y-99450659D01*
X155245001Y-99450659D01*
X155309681Y-99445000D01*
X155480408Y-99430063D01*
X155708663Y-99368903D01*
X155922830Y-99269035D01*
X156116401Y-99133495D01*
X156283495Y-98966401D01*
X156413425Y-98780842D01*
X156468002Y-98737217D01*
X156537500Y-98730023D01*
X156599855Y-98761546D01*
X156616575Y-98780842D01*
X156746281Y-98966082D01*
X156746505Y-98966401D01*
X156913599Y-99133495D01*
X156990135Y-99187086D01*
X157107165Y-99269032D01*
X157107167Y-99269033D01*
X157107170Y-99269035D01*
X157321337Y-99368903D01*
X157321343Y-99368904D01*
X157321344Y-99368905D01*
X157376285Y-99383626D01*
X157549592Y-99430063D01*
X157720319Y-99445000D01*
X157784999Y-99450659D01*
X157785000Y-99450659D01*
X157785001Y-99450659D01*
X157849681Y-99445000D01*
X158020408Y-99430063D01*
X158248663Y-99368903D01*
X158462830Y-99269035D01*
X158656401Y-99133495D01*
X158823495Y-98966401D01*
X158953425Y-98780842D01*
X159008002Y-98737217D01*
X159077500Y-98730023D01*
X159139855Y-98761546D01*
X159156575Y-98780842D01*
X159286281Y-98966082D01*
X159286505Y-98966401D01*
X159453599Y-99133495D01*
X159530135Y-99187086D01*
X159647165Y-99269032D01*
X159647167Y-99269033D01*
X159647170Y-99269035D01*
X159861337Y-99368903D01*
X159861343Y-99368904D01*
X159861344Y-99368905D01*
X159916285Y-99383626D01*
X160089592Y-99430063D01*
X160260319Y-99445000D01*
X160324999Y-99450659D01*
X160325000Y-99450659D01*
X160325001Y-99450659D01*
X160389681Y-99445000D01*
X160560408Y-99430063D01*
X160788663Y-99368903D01*
X161002830Y-99269035D01*
X161196401Y-99133495D01*
X161363495Y-98966401D01*
X161493425Y-98780842D01*
X161548002Y-98737217D01*
X161617500Y-98730023D01*
X161679855Y-98761546D01*
X161696575Y-98780842D01*
X161826281Y-98966082D01*
X161826505Y-98966401D01*
X161993599Y-99133495D01*
X162070135Y-99187086D01*
X162187165Y-99269032D01*
X162187167Y-99269033D01*
X162187170Y-99269035D01*
X162401337Y-99368903D01*
X162401343Y-99368904D01*
X162401344Y-99368905D01*
X162456285Y-99383626D01*
X162629592Y-99430063D01*
X162800319Y-99445000D01*
X162864999Y-99450659D01*
X162865000Y-99450659D01*
X162865001Y-99450659D01*
X162929681Y-99445000D01*
X163100408Y-99430063D01*
X163328663Y-99368903D01*
X163542830Y-99269035D01*
X163736401Y-99133495D01*
X163903495Y-98966401D01*
X164033425Y-98780842D01*
X164088002Y-98737217D01*
X164157500Y-98730023D01*
X164219855Y-98761546D01*
X164236575Y-98780842D01*
X164366281Y-98966082D01*
X164366505Y-98966401D01*
X164533599Y-99133495D01*
X164610135Y-99187086D01*
X164727165Y-99269032D01*
X164727167Y-99269033D01*
X164727170Y-99269035D01*
X164941337Y-99368903D01*
X164941343Y-99368904D01*
X164941344Y-99368905D01*
X164996285Y-99383626D01*
X165169592Y-99430063D01*
X165340319Y-99445000D01*
X165404999Y-99450659D01*
X165405000Y-99450659D01*
X165405001Y-99450659D01*
X165469681Y-99445000D01*
X165640408Y-99430063D01*
X165868663Y-99368903D01*
X166082830Y-99269035D01*
X166276401Y-99133495D01*
X166443495Y-98966401D01*
X166573425Y-98780842D01*
X166628002Y-98737217D01*
X166697500Y-98730023D01*
X166759855Y-98761546D01*
X166776575Y-98780842D01*
X166906281Y-98966082D01*
X166906505Y-98966401D01*
X167073599Y-99133495D01*
X167150135Y-99187086D01*
X167267165Y-99269032D01*
X167267167Y-99269033D01*
X167267170Y-99269035D01*
X167481337Y-99368903D01*
X167481343Y-99368904D01*
X167481344Y-99368905D01*
X167536285Y-99383626D01*
X167709592Y-99430063D01*
X167880319Y-99445000D01*
X167944999Y-99450659D01*
X167945000Y-99450659D01*
X167945001Y-99450659D01*
X168009681Y-99445000D01*
X168180408Y-99430063D01*
X168408663Y-99368903D01*
X168622830Y-99269035D01*
X168816401Y-99133495D01*
X168983495Y-98966401D01*
X169113425Y-98780842D01*
X169168002Y-98737217D01*
X169237500Y-98730023D01*
X169299855Y-98761546D01*
X169316575Y-98780842D01*
X169446281Y-98966082D01*
X169446505Y-98966401D01*
X169613599Y-99133495D01*
X169690135Y-99187086D01*
X169807165Y-99269032D01*
X169807167Y-99269033D01*
X169807170Y-99269035D01*
X170021337Y-99368903D01*
X170021343Y-99368904D01*
X170021344Y-99368905D01*
X170076285Y-99383626D01*
X170249592Y-99430063D01*
X170420319Y-99445000D01*
X170484999Y-99450659D01*
X170485000Y-99450659D01*
X170485001Y-99450659D01*
X170549681Y-99445000D01*
X170720408Y-99430063D01*
X170948663Y-99368903D01*
X171162830Y-99269035D01*
X171356401Y-99133495D01*
X171523495Y-98966401D01*
X171653730Y-98780405D01*
X171708307Y-98736781D01*
X171777805Y-98729587D01*
X171840160Y-98761110D01*
X171856879Y-98780405D01*
X171986890Y-98966078D01*
X172153917Y-99133105D01*
X172347421Y-99268600D01*
X172561507Y-99368429D01*
X172561516Y-99368433D01*
X172775000Y-99425634D01*
X172775000Y-98530501D01*
X172882685Y-98579680D01*
X172989237Y-98595000D01*
X173060763Y-98595000D01*
X173167315Y-98579680D01*
X173275000Y-98530501D01*
X173275000Y-99425633D01*
X173488483Y-99368433D01*
X173488492Y-99368429D01*
X173702578Y-99268600D01*
X173896082Y-99133105D01*
X174063105Y-98966082D01*
X174193425Y-98779968D01*
X174248002Y-98736344D01*
X174317501Y-98729151D01*
X174379855Y-98760673D01*
X174396575Y-98779968D01*
X174526894Y-98966082D01*
X174693917Y-99133105D01*
X174887421Y-99268600D01*
X175101507Y-99368429D01*
X175101516Y-99368433D01*
X175315000Y-99425634D01*
X175315000Y-98530501D01*
X175422685Y-98579680D01*
X175529237Y-98595000D01*
X175600763Y-98595000D01*
X175707315Y-98579680D01*
X175815000Y-98530501D01*
X175815000Y-99425633D01*
X176028483Y-99368433D01*
X176028492Y-99368429D01*
X176242578Y-99268600D01*
X176436082Y-99133105D01*
X176603105Y-98966082D01*
X176738600Y-98772578D01*
X176838429Y-98558492D01*
X176838432Y-98558486D01*
X176895636Y-98345000D01*
X175998686Y-98345000D01*
X176024493Y-98304844D01*
X176065000Y-98166889D01*
X176065000Y-98023111D01*
X176024493Y-97885156D01*
X175998686Y-97845000D01*
X176895636Y-97845000D01*
X176895635Y-97844999D01*
X176838432Y-97631513D01*
X176838429Y-97631507D01*
X176738600Y-97417422D01*
X176738599Y-97417420D01*
X176603113Y-97223926D01*
X176603108Y-97223920D01*
X176436082Y-97056894D01*
X176249968Y-96926575D01*
X176206344Y-96871998D01*
X176199151Y-96802499D01*
X176230673Y-96740145D01*
X176249968Y-96723425D01*
X176436082Y-96593105D01*
X176603105Y-96426082D01*
X176738600Y-96232578D01*
X176838429Y-96018492D01*
X176838432Y-96018486D01*
X176895636Y-95805000D01*
X175998686Y-95805000D01*
X176024493Y-95764844D01*
X176065000Y-95626889D01*
X176065000Y-95483111D01*
X176024493Y-95345156D01*
X175998686Y-95305000D01*
X176895636Y-95305000D01*
X176895635Y-95304999D01*
X176838432Y-95091513D01*
X176838429Y-95091507D01*
X176738600Y-94877422D01*
X176738599Y-94877420D01*
X176603113Y-94683926D01*
X176603108Y-94683920D01*
X176436082Y-94516894D01*
X176242578Y-94381399D01*
X176028492Y-94281570D01*
X176028486Y-94281567D01*
X175815000Y-94224364D01*
X175815000Y-95119498D01*
X175707315Y-95070320D01*
X175600763Y-95055000D01*
X175529237Y-95055000D01*
X175422685Y-95070320D01*
X175315000Y-95119498D01*
X175315000Y-94224364D01*
X175314999Y-94224364D01*
X175101513Y-94281567D01*
X175101507Y-94281570D01*
X174887422Y-94381399D01*
X174887420Y-94381400D01*
X174693926Y-94516886D01*
X174693920Y-94516891D01*
X174526891Y-94683920D01*
X174526890Y-94683922D01*
X174396575Y-94870031D01*
X174341998Y-94913655D01*
X174272499Y-94920848D01*
X174210145Y-94889326D01*
X174193425Y-94870031D01*
X174063109Y-94683922D01*
X174063108Y-94683920D01*
X173896082Y-94516894D01*
X173702578Y-94381399D01*
X173488492Y-94281570D01*
X173488486Y-94281567D01*
X173275000Y-94224364D01*
X173275000Y-95119498D01*
X173167315Y-95070320D01*
X173060763Y-95055000D01*
X172989237Y-95055000D01*
X172882685Y-95070320D01*
X172775000Y-95119498D01*
X172775000Y-94224364D01*
X172774999Y-94224364D01*
X172561513Y-94281567D01*
X172561507Y-94281570D01*
X172347422Y-94381399D01*
X172347420Y-94381400D01*
X172153926Y-94516886D01*
X172153920Y-94516891D01*
X171986891Y-94683920D01*
X171986890Y-94683922D01*
X171856880Y-94869595D01*
X171802303Y-94913219D01*
X171732804Y-94920412D01*
X171670450Y-94888890D01*
X171653730Y-94869594D01*
X171523494Y-94683597D01*
X171356402Y-94516506D01*
X171356395Y-94516501D01*
X171162834Y-94380967D01*
X171162830Y-94380965D01*
X171063859Y-94334814D01*
X170948663Y-94281097D01*
X170948659Y-94281096D01*
X170948655Y-94281094D01*
X170720413Y-94219938D01*
X170720403Y-94219936D01*
X170485001Y-94199341D01*
X170484999Y-94199341D01*
X170249596Y-94219936D01*
X170249586Y-94219938D01*
X170021344Y-94281094D01*
X170021335Y-94281098D01*
X169807171Y-94380964D01*
X169807169Y-94380965D01*
X169613597Y-94516505D01*
X169446505Y-94683597D01*
X169316575Y-94869158D01*
X169261998Y-94912783D01*
X169192500Y-94919977D01*
X169130145Y-94888454D01*
X169113425Y-94869158D01*
X168983494Y-94683597D01*
X168816402Y-94516506D01*
X168816395Y-94516501D01*
X168622834Y-94380967D01*
X168622830Y-94380965D01*
X168523859Y-94334814D01*
X168408663Y-94281097D01*
X168408659Y-94281096D01*
X168408655Y-94281094D01*
X168180413Y-94219938D01*
X168180403Y-94219936D01*
X167945001Y-94199341D01*
X167944999Y-94199341D01*
X167709596Y-94219936D01*
X167709586Y-94219938D01*
X167481344Y-94281094D01*
X167481335Y-94281098D01*
X167267171Y-94380964D01*
X167267169Y-94380965D01*
X167073597Y-94516505D01*
X166906505Y-94683597D01*
X166776575Y-94869158D01*
X166721998Y-94912783D01*
X166652500Y-94919977D01*
X166590145Y-94888454D01*
X166573425Y-94869158D01*
X166443494Y-94683597D01*
X166276402Y-94516506D01*
X166276395Y-94516501D01*
X166082834Y-94380967D01*
X166082830Y-94380965D01*
X165983859Y-94334814D01*
X165868663Y-94281097D01*
X165868659Y-94281096D01*
X165868655Y-94281094D01*
X165640413Y-94219938D01*
X165640403Y-94219936D01*
X165405001Y-94199341D01*
X165404999Y-94199341D01*
X165169596Y-94219936D01*
X165169586Y-94219938D01*
X164941344Y-94281094D01*
X164941335Y-94281098D01*
X164727171Y-94380964D01*
X164727169Y-94380965D01*
X164533597Y-94516505D01*
X164366505Y-94683597D01*
X164236575Y-94869158D01*
X164181998Y-94912783D01*
X164112500Y-94919977D01*
X164050145Y-94888454D01*
X164033425Y-94869158D01*
X163903494Y-94683597D01*
X163736402Y-94516506D01*
X163736395Y-94516501D01*
X163542834Y-94380967D01*
X163542830Y-94380965D01*
X163443859Y-94334814D01*
X163328663Y-94281097D01*
X163328659Y-94281096D01*
X163328655Y-94281094D01*
X163100413Y-94219938D01*
X163100403Y-94219936D01*
X162865001Y-94199341D01*
X162864999Y-94199341D01*
X162629596Y-94219936D01*
X162629586Y-94219938D01*
X162401344Y-94281094D01*
X162401335Y-94281098D01*
X162187171Y-94380964D01*
X162187169Y-94380965D01*
X161993597Y-94516505D01*
X161826505Y-94683597D01*
X161696575Y-94869158D01*
X161641998Y-94912783D01*
X161572500Y-94919977D01*
X161510145Y-94888454D01*
X161493425Y-94869158D01*
X161363494Y-94683597D01*
X161196402Y-94516506D01*
X161196395Y-94516501D01*
X161002834Y-94380967D01*
X161002830Y-94380965D01*
X160903859Y-94334814D01*
X160788663Y-94281097D01*
X160788659Y-94281096D01*
X160788655Y-94281094D01*
X160560413Y-94219938D01*
X160560403Y-94219936D01*
X160325001Y-94199341D01*
X160324999Y-94199341D01*
X160089596Y-94219936D01*
X160089586Y-94219938D01*
X159861344Y-94281094D01*
X159861335Y-94281098D01*
X159647171Y-94380964D01*
X159647169Y-94380965D01*
X159453597Y-94516505D01*
X159286505Y-94683597D01*
X159156575Y-94869158D01*
X159101998Y-94912783D01*
X159032500Y-94919977D01*
X158970145Y-94888454D01*
X158953425Y-94869158D01*
X158823494Y-94683597D01*
X158656402Y-94516506D01*
X158656395Y-94516501D01*
X158462834Y-94380967D01*
X158462830Y-94380965D01*
X158363859Y-94334814D01*
X158248663Y-94281097D01*
X158248659Y-94281096D01*
X158248655Y-94281094D01*
X158020413Y-94219938D01*
X158020403Y-94219936D01*
X157785001Y-94199341D01*
X157784999Y-94199341D01*
X157549596Y-94219936D01*
X157549586Y-94219938D01*
X157321344Y-94281094D01*
X157321335Y-94281098D01*
X157107171Y-94380964D01*
X157107169Y-94380965D01*
X156913597Y-94516505D01*
X156746505Y-94683597D01*
X156616575Y-94869158D01*
X156561998Y-94912783D01*
X156492500Y-94919977D01*
X156430145Y-94888454D01*
X156413425Y-94869158D01*
X156283494Y-94683597D01*
X156116402Y-94516506D01*
X156116395Y-94516501D01*
X155922834Y-94380967D01*
X155922830Y-94380965D01*
X155823859Y-94334814D01*
X155708663Y-94281097D01*
X155708659Y-94281096D01*
X155708655Y-94281094D01*
X155480413Y-94219938D01*
X155480403Y-94219936D01*
X155245001Y-94199341D01*
X155244999Y-94199341D01*
X155009596Y-94219936D01*
X155009586Y-94219938D01*
X154781344Y-94281094D01*
X154781335Y-94281098D01*
X154567171Y-94380964D01*
X154567169Y-94380965D01*
X154373597Y-94516505D01*
X154206505Y-94683597D01*
X154076575Y-94869158D01*
X154021998Y-94912783D01*
X153952500Y-94919977D01*
X153890145Y-94888454D01*
X153873425Y-94869158D01*
X153743494Y-94683597D01*
X153576402Y-94516506D01*
X153576395Y-94516501D01*
X153382834Y-94380967D01*
X153382830Y-94380965D01*
X153283859Y-94334814D01*
X153168663Y-94281097D01*
X153168659Y-94281096D01*
X153168655Y-94281094D01*
X152940413Y-94219938D01*
X152940403Y-94219936D01*
X152705001Y-94199341D01*
X152704999Y-94199341D01*
X152469596Y-94219936D01*
X152469586Y-94219938D01*
X152241344Y-94281094D01*
X152241335Y-94281098D01*
X152027171Y-94380964D01*
X152027169Y-94380965D01*
X151833597Y-94516505D01*
X151666505Y-94683597D01*
X151536575Y-94869158D01*
X151481998Y-94912783D01*
X151412500Y-94919977D01*
X151350145Y-94888454D01*
X151333425Y-94869158D01*
X151203494Y-94683597D01*
X151036402Y-94516506D01*
X151036395Y-94516501D01*
X150842834Y-94380967D01*
X150842830Y-94380965D01*
X150743859Y-94334814D01*
X150628663Y-94281097D01*
X150628659Y-94281096D01*
X150628655Y-94281094D01*
X150400413Y-94219938D01*
X150400403Y-94219936D01*
X150165001Y-94199341D01*
X150164999Y-94199341D01*
X149929596Y-94219936D01*
X149929586Y-94219938D01*
X149701344Y-94281094D01*
X149701335Y-94281098D01*
X149487171Y-94380964D01*
X149487169Y-94380965D01*
X149293597Y-94516505D01*
X149126505Y-94683597D01*
X148996575Y-94869158D01*
X148941998Y-94912783D01*
X148872500Y-94919977D01*
X148810145Y-94888454D01*
X148793425Y-94869158D01*
X148663494Y-94683597D01*
X148496402Y-94516506D01*
X148496395Y-94516501D01*
X148302834Y-94380967D01*
X148302830Y-94380965D01*
X148203859Y-94334814D01*
X148088663Y-94281097D01*
X148088659Y-94281096D01*
X148088655Y-94281094D01*
X147860413Y-94219938D01*
X147860403Y-94219936D01*
X147625001Y-94199341D01*
X147624999Y-94199341D01*
X147389596Y-94219936D01*
X147389586Y-94219938D01*
X147161344Y-94281094D01*
X147161335Y-94281098D01*
X146947171Y-94380964D01*
X146947169Y-94380965D01*
X146753597Y-94516505D01*
X146586505Y-94683597D01*
X146456575Y-94869158D01*
X146401998Y-94912783D01*
X146332500Y-94919977D01*
X146270145Y-94888454D01*
X146253425Y-94869158D01*
X146123494Y-94683597D01*
X145956402Y-94516506D01*
X145956395Y-94516501D01*
X145762834Y-94380967D01*
X145762830Y-94380965D01*
X145663859Y-94334814D01*
X145548663Y-94281097D01*
X145548659Y-94281096D01*
X145548655Y-94281094D01*
X145320413Y-94219938D01*
X145320403Y-94219936D01*
X145085001Y-94199341D01*
X145084999Y-94199341D01*
X144849596Y-94219936D01*
X144849586Y-94219938D01*
X144621344Y-94281094D01*
X144621335Y-94281098D01*
X144407171Y-94380964D01*
X144407169Y-94380965D01*
X144213597Y-94516505D01*
X144046505Y-94683597D01*
X143916575Y-94869158D01*
X143861998Y-94912783D01*
X143792500Y-94919977D01*
X143730145Y-94888454D01*
X143713425Y-94869158D01*
X143583494Y-94683597D01*
X143416402Y-94516506D01*
X143416401Y-94516505D01*
X143267377Y-94412157D01*
X143223376Y-94381347D01*
X143179751Y-94326770D01*
X143170500Y-94279772D01*
X143170500Y-86747742D01*
X143172224Y-86732122D01*
X143171939Y-86732096D01*
X143172671Y-86724340D01*
X143172673Y-86724333D01*
X143170500Y-86655185D01*
X143170500Y-86625650D01*
X143169631Y-86618772D01*
X143169172Y-86612943D01*
X143167709Y-86566372D01*
X143162122Y-86547144D01*
X143158174Y-86528084D01*
X143155663Y-86508204D01*
X143138512Y-86464887D01*
X143136619Y-86459358D01*
X143123618Y-86414609D01*
X143123616Y-86414606D01*
X143113423Y-86397371D01*
X143104861Y-86379894D01*
X143097487Y-86361270D01*
X143097486Y-86361268D01*
X143070079Y-86323545D01*
X143066888Y-86318686D01*
X143060195Y-86307369D01*
X143043170Y-86278580D01*
X143043168Y-86278578D01*
X143043165Y-86278574D01*
X143029006Y-86264415D01*
X143016368Y-86249619D01*
X143004594Y-86233413D01*
X142968688Y-86203709D01*
X142964376Y-86199786D01*
X141466211Y-84701620D01*
X141432726Y-84640297D01*
X141430673Y-84627836D01*
X141425368Y-84580745D01*
X141365789Y-84410478D01*
X141269816Y-84257738D01*
X141142262Y-84130184D01*
X141088656Y-84096501D01*
X140989523Y-84034211D01*
X140819254Y-83974631D01*
X140819249Y-83974630D01*
X140640004Y-83954435D01*
X140639996Y-83954435D01*
X140460750Y-83974630D01*
X140460745Y-83974631D01*
X140290476Y-84034211D01*
X140185472Y-84100190D01*
X140118235Y-84119190D01*
X140051400Y-84098822D01*
X140006186Y-84045554D01*
X139995500Y-83995196D01*
X139995500Y-79716854D01*
X140014507Y-79650881D01*
X140095788Y-79521524D01*
X140100565Y-79507872D01*
X140155368Y-79351255D01*
X140175565Y-79172000D01*
X140175426Y-79170770D01*
X140155369Y-78992750D01*
X140155368Y-78992745D01*
X140095788Y-78822476D01*
X139999815Y-78669737D01*
X139872262Y-78542184D01*
X139719523Y-78446211D01*
X139549254Y-78386631D01*
X139549249Y-78386630D01*
X139370004Y-78366435D01*
X139369996Y-78366435D01*
X139190750Y-78386630D01*
X139190745Y-78386631D01*
X139020476Y-78446211D01*
X138900994Y-78521287D01*
X138833757Y-78540287D01*
X138766922Y-78519919D01*
X138747341Y-78503974D01*
X134589370Y-74346003D01*
X140850435Y-74346003D01*
X140870630Y-74525249D01*
X140870631Y-74525254D01*
X140930211Y-74695523D01*
X141026184Y-74848262D01*
X141153738Y-74975816D01*
X141306478Y-75071789D01*
X141306480Y-75071789D01*
X141306484Y-75071792D01*
X141312756Y-75074813D01*
X141311869Y-75076653D01*
X141347939Y-75099307D01*
X159571692Y-93323060D01*
X159594356Y-93359129D01*
X159596188Y-93358247D01*
X159599207Y-93364516D01*
X159670795Y-93478447D01*
X159695184Y-93517262D01*
X159822738Y-93644816D01*
X159975478Y-93740789D01*
X160145745Y-93800368D01*
X160145750Y-93800369D01*
X160324996Y-93820565D01*
X160325000Y-93820565D01*
X160325004Y-93820565D01*
X160504249Y-93800369D01*
X160504252Y-93800368D01*
X160504255Y-93800368D01*
X160674522Y-93740789D01*
X160827262Y-93644816D01*
X160954816Y-93517262D01*
X161050789Y-93364522D01*
X161110368Y-93194255D01*
X161115609Y-93147738D01*
X161130565Y-93015003D01*
X161130565Y-93014996D01*
X161110369Y-92835750D01*
X161110368Y-92835745D01*
X161068352Y-92715671D01*
X161050789Y-92665478D01*
X160954816Y-92512738D01*
X160827262Y-92385184D01*
X160674522Y-92289211D01*
X160674516Y-92289207D01*
X160668247Y-92286188D01*
X160669129Y-92284356D01*
X160633060Y-92261692D01*
X142409307Y-74037939D01*
X142386653Y-74001869D01*
X142384813Y-74002756D01*
X142381792Y-73996484D01*
X142381789Y-73996480D01*
X142381789Y-73996478D01*
X142285816Y-73843738D01*
X142158262Y-73716184D01*
X142005523Y-73620211D01*
X141835254Y-73560631D01*
X141835249Y-73560630D01*
X141656004Y-73540435D01*
X141655996Y-73540435D01*
X141476750Y-73560630D01*
X141476745Y-73560631D01*
X141306476Y-73620211D01*
X141153737Y-73716184D01*
X141026184Y-73843737D01*
X140930211Y-73996476D01*
X140870631Y-74166745D01*
X140870630Y-74166750D01*
X140850435Y-74345996D01*
X140850435Y-74346003D01*
X134589370Y-74346003D01*
X131795370Y-71552003D01*
X135770435Y-71552003D01*
X135790630Y-71731249D01*
X135790631Y-71731254D01*
X135850211Y-71901523D01*
X135946184Y-72054262D01*
X136073738Y-72181816D01*
X136226478Y-72277789D01*
X136396745Y-72337368D01*
X136396750Y-72337369D01*
X136575996Y-72357565D01*
X136576000Y-72357565D01*
X136576004Y-72357565D01*
X136755249Y-72337369D01*
X136755252Y-72337368D01*
X136755255Y-72337368D01*
X136835017Y-72309457D01*
X136875972Y-72302500D01*
X144087770Y-72302500D01*
X144154809Y-72322185D01*
X144175451Y-72338819D01*
X161984692Y-90148059D01*
X162007358Y-90184125D01*
X162009188Y-90183244D01*
X162012209Y-90189518D01*
X162012211Y-90189522D01*
X162108184Y-90342262D01*
X162235738Y-90469816D01*
X162388478Y-90565789D01*
X162516806Y-90610693D01*
X162558745Y-90625368D01*
X162558750Y-90625369D01*
X162737996Y-90645565D01*
X162738000Y-90645565D01*
X162738004Y-90645565D01*
X162917249Y-90625369D01*
X162917252Y-90625368D01*
X162917255Y-90625368D01*
X163087522Y-90565789D01*
X163240262Y-90469816D01*
X163367816Y-90342262D01*
X163463789Y-90189522D01*
X163523368Y-90019255D01*
X163523369Y-90019249D01*
X163543565Y-89840003D01*
X163543565Y-89839996D01*
X163523369Y-89660750D01*
X163523368Y-89660745D01*
X163463788Y-89490476D01*
X163367815Y-89337737D01*
X163240262Y-89210184D01*
X163087522Y-89114211D01*
X163087518Y-89114209D01*
X163081244Y-89111188D01*
X163082125Y-89109358D01*
X163046059Y-89086692D01*
X145025729Y-71066361D01*
X145013949Y-71052730D01*
X145006482Y-71042701D01*
X144999612Y-71033472D01*
X144999610Y-71033470D01*
X144959587Y-70999886D01*
X144955612Y-70996244D01*
X144952690Y-70993322D01*
X144949780Y-70990411D01*
X144924040Y-70970059D01*
X144865209Y-70920694D01*
X144859180Y-70916729D01*
X144859212Y-70916680D01*
X144852853Y-70912628D01*
X144852822Y-70912679D01*
X144846680Y-70908891D01*
X144846678Y-70908890D01*
X144846677Y-70908889D01*
X144807474Y-70890608D01*
X144777058Y-70876424D01*
X144742894Y-70859267D01*
X144708433Y-70841960D01*
X144708431Y-70841959D01*
X144708430Y-70841959D01*
X144701645Y-70839489D01*
X144701665Y-70839433D01*
X144694549Y-70836959D01*
X144694531Y-70837015D01*
X144687671Y-70834742D01*
X144659841Y-70828996D01*
X144612434Y-70819207D01*
X144563472Y-70807603D01*
X144537719Y-70801499D01*
X144530547Y-70800661D01*
X144530553Y-70800601D01*
X144523055Y-70799835D01*
X144523050Y-70799895D01*
X144515860Y-70799265D01*
X144439083Y-70801500D01*
X136875972Y-70801500D01*
X136835017Y-70794542D01*
X136755254Y-70766631D01*
X136755249Y-70766630D01*
X136576004Y-70746435D01*
X136575996Y-70746435D01*
X136396750Y-70766630D01*
X136396745Y-70766631D01*
X136226476Y-70826211D01*
X136073737Y-70922184D01*
X135946184Y-71049737D01*
X135850211Y-71202476D01*
X135790631Y-71372745D01*
X135790630Y-71372750D01*
X135770435Y-71551996D01*
X135770435Y-71552003D01*
X131795370Y-71552003D01*
X127931307Y-67687940D01*
X127908651Y-67651867D01*
X127906811Y-67652754D01*
X127903789Y-67646478D01*
X127807815Y-67493737D01*
X127680262Y-67366184D01*
X127527523Y-67270211D01*
X127357254Y-67210631D01*
X127357249Y-67210630D01*
X127178004Y-67190435D01*
X127177996Y-67190435D01*
X126998750Y-67210630D01*
X126998745Y-67210631D01*
X126828476Y-67270211D01*
X126675737Y-67366184D01*
X126548184Y-67493737D01*
X126452211Y-67646476D01*
X126392631Y-67816745D01*
X126392630Y-67816750D01*
X126372435Y-67995996D01*
X126372435Y-67996003D01*
X126392630Y-68175249D01*
X126392631Y-68175254D01*
X126452211Y-68345523D01*
X126548184Y-68498262D01*
X126675738Y-68625816D01*
X126828478Y-68721789D01*
X126828480Y-68721789D01*
X126828484Y-68721792D01*
X126834756Y-68724813D01*
X126833869Y-68726653D01*
X126869939Y-68749307D01*
X137567181Y-79446549D01*
X137600666Y-79507872D01*
X137603500Y-79534230D01*
X137603500Y-86286137D01*
X137583815Y-86353176D01*
X137531011Y-86398931D01*
X137461853Y-86408875D01*
X137438546Y-86403179D01*
X137391257Y-86386632D01*
X137391249Y-86386630D01*
X137212004Y-86366435D01*
X137211996Y-86366435D01*
X137032750Y-86386630D01*
X137032745Y-86386631D01*
X136862476Y-86446211D01*
X136709737Y-86542184D01*
X136582184Y-86669737D01*
X136486211Y-86822478D01*
X136483188Y-86828756D01*
X136481362Y-86827876D01*
X136458693Y-86863937D01*
X135031451Y-88291181D01*
X134970128Y-88324666D01*
X134943770Y-88327500D01*
X128190513Y-88327500D01*
X128123474Y-88307815D01*
X128077719Y-88255011D01*
X128067775Y-88185853D01*
X128073471Y-88162546D01*
X128090367Y-88114257D01*
X128090368Y-88114255D01*
X128090369Y-88114249D01*
X128110565Y-87935003D01*
X128110565Y-87934996D01*
X128090369Y-87755750D01*
X128090368Y-87755745D01*
X128075228Y-87712478D01*
X128030789Y-87585478D01*
X128014615Y-87559738D01*
X127991582Y-87523080D01*
X127934816Y-87432738D01*
X127807262Y-87305184D01*
X127782257Y-87289472D01*
X127654523Y-87209211D01*
X127484254Y-87149631D01*
X127484249Y-87149630D01*
X127305004Y-87129435D01*
X127304996Y-87129435D01*
X127125750Y-87149630D01*
X127125745Y-87149631D01*
X126955476Y-87209211D01*
X126802737Y-87305184D01*
X126675184Y-87432737D01*
X126579211Y-87585478D01*
X126576188Y-87591756D01*
X126574362Y-87590876D01*
X126551693Y-87626937D01*
X125820344Y-88358288D01*
X125775033Y-88403598D01*
X125772410Y-88406072D01*
X125724544Y-88448670D01*
X125724540Y-88448674D01*
X125718106Y-88457863D01*
X125704217Y-88474413D01*
X123567937Y-90610693D01*
X123531876Y-90633362D01*
X123532756Y-90635188D01*
X123526478Y-90638211D01*
X123373737Y-90734184D01*
X123246184Y-90861737D01*
X123150211Y-91014476D01*
X123090631Y-91184745D01*
X123090630Y-91184750D01*
X123070435Y-91363996D01*
X123070435Y-91364003D01*
X123090630Y-91543249D01*
X123090631Y-91543254D01*
X123150211Y-91713523D01*
X123241657Y-91859057D01*
X123246184Y-91866262D01*
X123373738Y-91993816D01*
X123526478Y-92089789D01*
X123696745Y-92149368D01*
X123696750Y-92149369D01*
X123875996Y-92169565D01*
X123876000Y-92169565D01*
X123876004Y-92169565D01*
X124055249Y-92149369D01*
X124055252Y-92149368D01*
X124055255Y-92149368D01*
X124225522Y-92089789D01*
X124378262Y-91993816D01*
X124505816Y-91866262D01*
X124601789Y-91713522D01*
X124601792Y-91713510D01*
X124604810Y-91707248D01*
X124606650Y-91708134D01*
X124629305Y-91672061D01*
X126436548Y-89864819D01*
X126497871Y-89831334D01*
X126524229Y-89828500D01*
X135242295Y-89828500D01*
X135260265Y-89829809D01*
X135284023Y-89833289D01*
X135336068Y-89828735D01*
X135341470Y-89828500D01*
X135349704Y-89828500D01*
X135349709Y-89828500D01*
X135361327Y-89827141D01*
X135382276Y-89824693D01*
X135395028Y-89823577D01*
X135458797Y-89817999D01*
X135458805Y-89817996D01*
X135465866Y-89816539D01*
X135465878Y-89816598D01*
X135473243Y-89814965D01*
X135473229Y-89814906D01*
X135480246Y-89813241D01*
X135480255Y-89813241D01*
X135552423Y-89786974D01*
X135625334Y-89762814D01*
X135625343Y-89762807D01*
X135631882Y-89759760D01*
X135631908Y-89759816D01*
X135638690Y-89756532D01*
X135638663Y-89756478D01*
X135645106Y-89753240D01*
X135645117Y-89753237D01*
X135709283Y-89711034D01*
X135774656Y-89670712D01*
X135774662Y-89670705D01*
X135780325Y-89666229D01*
X135780363Y-89666277D01*
X135786200Y-89661522D01*
X135786161Y-89661475D01*
X135791696Y-89656830D01*
X135844385Y-89600983D01*
X137391819Y-88053548D01*
X137453142Y-88020063D01*
X137522834Y-88025047D01*
X137578767Y-88066919D01*
X137603184Y-88132383D01*
X137603500Y-88141229D01*
X137603500Y-88207770D01*
X137583815Y-88274809D01*
X137567181Y-88295451D01*
X132999451Y-92863181D01*
X132938128Y-92896666D01*
X132911770Y-92899500D01*
X127223972Y-92899500D01*
X127183017Y-92892542D01*
X127103254Y-92864631D01*
X127103249Y-92864630D01*
X126924004Y-92844435D01*
X126923996Y-92844435D01*
X126744750Y-92864630D01*
X126744745Y-92864631D01*
X126574476Y-92924211D01*
X126421737Y-93020184D01*
X126294184Y-93147737D01*
X126198211Y-93300476D01*
X126138631Y-93470745D01*
X126138630Y-93470750D01*
X126118435Y-93649996D01*
X126118435Y-93650000D01*
X126138630Y-93829249D01*
X126138631Y-93829254D01*
X126198211Y-93999523D01*
X126294184Y-94152262D01*
X126421739Y-94279817D01*
X126447946Y-94296284D01*
X126494237Y-94348619D01*
X126504884Y-94417672D01*
X126476509Y-94481520D01*
X126453099Y-94502850D01*
X126433604Y-94516501D01*
X126433595Y-94516508D01*
X126266505Y-94683597D01*
X126136575Y-94869158D01*
X126081998Y-94912783D01*
X126012500Y-94919977D01*
X125950145Y-94888454D01*
X125933425Y-94869158D01*
X125803494Y-94683597D01*
X125636402Y-94516506D01*
X125636395Y-94516501D01*
X125442834Y-94380967D01*
X125442830Y-94380965D01*
X125343859Y-94334814D01*
X125228663Y-94281097D01*
X125228659Y-94281096D01*
X125228655Y-94281094D01*
X125000413Y-94219938D01*
X125000403Y-94219936D01*
X124765001Y-94199341D01*
X124764999Y-94199341D01*
X124529595Y-94219936D01*
X124476714Y-94234105D01*
X124406864Y-94232440D01*
X124349002Y-94193276D01*
X124326917Y-94153331D01*
X124306816Y-94092669D01*
X124303763Y-94086121D01*
X124303817Y-94086095D01*
X124300533Y-94079312D01*
X124300480Y-94079340D01*
X124297238Y-94072885D01*
X124297237Y-94072883D01*
X124255029Y-94008709D01*
X124214711Y-93943344D01*
X124214710Y-93943343D01*
X124214709Y-93943341D01*
X124210233Y-93937681D01*
X124210280Y-93937643D01*
X124205519Y-93931799D01*
X124205474Y-93931838D01*
X124200834Y-93926308D01*
X124144964Y-93873596D01*
X117593729Y-87322361D01*
X117581949Y-87308730D01*
X117574132Y-87298230D01*
X117567612Y-87289472D01*
X117567610Y-87289470D01*
X117527587Y-87255886D01*
X117523612Y-87252244D01*
X117520690Y-87249322D01*
X117517780Y-87246411D01*
X117492040Y-87226059D01*
X117434985Y-87178184D01*
X117433214Y-87176698D01*
X117433213Y-87176697D01*
X117433209Y-87176694D01*
X117427180Y-87172729D01*
X117427212Y-87172680D01*
X117420853Y-87168628D01*
X117420822Y-87168679D01*
X117414677Y-87164888D01*
X117373584Y-87145726D01*
X117321146Y-87099553D01*
X117301995Y-87032359D01*
X117322212Y-86965478D01*
X117375378Y-86920145D01*
X117444613Y-86910751D01*
X117446401Y-86911036D01*
X117661922Y-86947000D01*
X117898079Y-86947000D01*
X118131018Y-86908129D01*
X118354370Y-86831452D01*
X118354388Y-86831445D01*
X118562066Y-86719054D01*
X118562075Y-86719048D01*
X118596612Y-86692166D01*
X118596613Y-86692165D01*
X117846251Y-85941804D01*
X117912969Y-85931238D01*
X118032923Y-85870118D01*
X118128118Y-85774923D01*
X118189238Y-85654969D01*
X118199804Y-85588251D01*
X118949248Y-86337696D01*
X118952277Y-86337382D01*
X118999036Y-86297477D01*
X119068267Y-86288052D01*
X119131603Y-86317553D01*
X119153508Y-86342831D01*
X119182124Y-86386631D01*
X119191227Y-86400564D01*
X119308619Y-86528084D01*
X119351227Y-86574368D01*
X119430930Y-86636403D01*
X119537119Y-86719054D01*
X119537654Y-86719470D01*
X119631430Y-86770219D01*
X119739596Y-86828756D01*
X119745421Y-86831908D01*
X119968861Y-86908616D01*
X120201880Y-86947500D01*
X120201881Y-86947500D01*
X120438119Y-86947500D01*
X120438120Y-86947500D01*
X120671139Y-86908616D01*
X120894579Y-86831908D01*
X121102346Y-86719470D01*
X121288773Y-86574368D01*
X121448775Y-86400561D01*
X121577986Y-86202788D01*
X121672883Y-85986445D01*
X121730876Y-85757434D01*
X121745064Y-85586211D01*
X121750385Y-85522005D01*
X121750385Y-85522003D01*
X132468435Y-85522003D01*
X132488630Y-85701249D01*
X132488631Y-85701254D01*
X132548211Y-85871523D01*
X132585733Y-85931238D01*
X132644184Y-86024262D01*
X132771738Y-86151816D01*
X132848066Y-86199776D01*
X132901598Y-86233413D01*
X132924478Y-86247789D01*
X133039543Y-86288052D01*
X133094745Y-86307368D01*
X133094750Y-86307369D01*
X133273996Y-86327565D01*
X133274000Y-86327565D01*
X133274004Y-86327565D01*
X133453249Y-86307369D01*
X133453252Y-86307368D01*
X133453255Y-86307368D01*
X133623522Y-86247789D01*
X133776262Y-86151816D01*
X133903816Y-86024262D01*
X133999789Y-85871522D01*
X134059368Y-85701255D01*
X134064583Y-85654969D01*
X134079565Y-85522003D01*
X134079565Y-85521996D01*
X134059368Y-85342747D01*
X134059368Y-85342745D01*
X134031458Y-85262982D01*
X134024500Y-85222028D01*
X134024500Y-81757972D01*
X134031458Y-81717017D01*
X134059368Y-81637254D01*
X134059369Y-81637249D01*
X134079565Y-81458003D01*
X134079565Y-81457996D01*
X134059369Y-81278750D01*
X134059368Y-81278745D01*
X133999788Y-81108476D01*
X133903815Y-80955737D01*
X133776262Y-80828184D01*
X133623523Y-80732211D01*
X133453254Y-80672631D01*
X133453249Y-80672630D01*
X133274004Y-80652435D01*
X133273996Y-80652435D01*
X133094750Y-80672630D01*
X133094745Y-80672631D01*
X132924476Y-80732211D01*
X132771737Y-80828184D01*
X132644184Y-80955737D01*
X132548211Y-81108476D01*
X132488631Y-81278745D01*
X132488630Y-81278750D01*
X132468435Y-81457996D01*
X132468435Y-81458003D01*
X132488630Y-81637249D01*
X132488631Y-81637254D01*
X132516542Y-81717017D01*
X132523500Y-81757972D01*
X132523500Y-85222028D01*
X132516542Y-85262982D01*
X132488631Y-85342747D01*
X132468435Y-85521996D01*
X132468435Y-85522003D01*
X121750385Y-85522003D01*
X121750385Y-85521994D01*
X121730876Y-85286569D01*
X121730876Y-85286566D01*
X121672883Y-85057555D01*
X121577986Y-84841212D01*
X121503004Y-84726443D01*
X121448774Y-84643437D01*
X121288776Y-84469635D01*
X121288775Y-84469634D01*
X121288773Y-84469632D01*
X121195559Y-84397081D01*
X121102348Y-84324531D01*
X120894580Y-84212092D01*
X120894571Y-84212089D01*
X120671141Y-84135384D01*
X120476521Y-84102908D01*
X120438120Y-84096500D01*
X120201880Y-84096500D01*
X120163479Y-84102908D01*
X119968858Y-84135384D01*
X119745428Y-84212089D01*
X119745419Y-84212092D01*
X119537651Y-84324531D01*
X119351228Y-84469631D01*
X119351223Y-84469635D01*
X119191225Y-84643438D01*
X119191223Y-84643440D01*
X119153509Y-84701166D01*
X119100363Y-84746523D01*
X119031132Y-84755946D01*
X118967796Y-84726444D01*
X118950451Y-84706427D01*
X118949248Y-84706302D01*
X118199804Y-85455747D01*
X118189238Y-85389031D01*
X118128118Y-85269077D01*
X118032923Y-85173882D01*
X117912969Y-85112762D01*
X117846252Y-85102195D01*
X118596612Y-84351833D01*
X118596612Y-84351831D01*
X118562080Y-84324954D01*
X118562074Y-84324950D01*
X118354378Y-84212550D01*
X118354370Y-84212547D01*
X118131018Y-84135870D01*
X117898079Y-84097000D01*
X117661921Y-84097000D01*
X117428981Y-84135870D01*
X117205629Y-84212547D01*
X117205621Y-84212550D01*
X116997922Y-84324952D01*
X116963386Y-84351831D01*
X116963385Y-84351833D01*
X117713748Y-85102195D01*
X117647031Y-85112762D01*
X117527077Y-85173882D01*
X117431882Y-85269077D01*
X117370762Y-85389031D01*
X117360195Y-85455748D01*
X116610749Y-84706302D01*
X116607717Y-84706616D01*
X116560960Y-84746521D01*
X116491729Y-84755945D01*
X116428393Y-84726443D01*
X116406489Y-84701165D01*
X116368775Y-84643439D01*
X116368773Y-84643437D01*
X116368772Y-84643435D01*
X116208776Y-84469635D01*
X116208775Y-84469634D01*
X116208773Y-84469632D01*
X116115559Y-84397081D01*
X116022348Y-84324531D01*
X115814580Y-84212092D01*
X115814571Y-84212089D01*
X115591141Y-84135384D01*
X115396521Y-84102908D01*
X115358120Y-84096500D01*
X115121880Y-84096500D01*
X115083479Y-84102908D01*
X114888858Y-84135384D01*
X114665428Y-84212089D01*
X114665419Y-84212092D01*
X114457651Y-84324531D01*
X114271228Y-84469631D01*
X114271223Y-84469635D01*
X114111225Y-84643437D01*
X113982013Y-84841212D01*
X113887117Y-85057554D01*
X113829123Y-85286569D01*
X113809615Y-85521994D01*
X113809615Y-85522005D01*
X106510385Y-85522005D01*
X106510385Y-85521994D01*
X106490876Y-85286569D01*
X106490876Y-85286566D01*
X106432883Y-85057555D01*
X106337986Y-84841212D01*
X106263004Y-84726443D01*
X106208774Y-84643437D01*
X106048776Y-84469635D01*
X106048775Y-84469634D01*
X106048773Y-84469632D01*
X105955559Y-84397081D01*
X105862348Y-84324531D01*
X105654580Y-84212092D01*
X105654571Y-84212089D01*
X105431141Y-84135384D01*
X105236521Y-84102908D01*
X105198120Y-84096500D01*
X104961880Y-84096500D01*
X104923479Y-84102908D01*
X104728858Y-84135384D01*
X104505428Y-84212089D01*
X104505419Y-84212092D01*
X104297651Y-84324531D01*
X104297645Y-84324535D01*
X104120881Y-84462117D01*
X104055887Y-84487760D01*
X103987347Y-84474194D01*
X103937023Y-84425725D01*
X103928537Y-84407597D01*
X103908797Y-84354671D01*
X103908793Y-84354664D01*
X103822547Y-84239455D01*
X103822544Y-84239452D01*
X103707335Y-84153206D01*
X103707328Y-84153202D01*
X103572482Y-84102908D01*
X103572483Y-84102908D01*
X103512883Y-84096501D01*
X103512881Y-84096500D01*
X103512873Y-84096500D01*
X103512864Y-84096500D01*
X101567129Y-84096500D01*
X101567123Y-84096501D01*
X101507516Y-84102908D01*
X101372671Y-84153202D01*
X101372664Y-84153206D01*
X101257455Y-84239452D01*
X101257452Y-84239455D01*
X101171206Y-84354664D01*
X101171202Y-84354671D01*
X101120908Y-84489517D01*
X101114501Y-84549116D01*
X101114500Y-84549135D01*
X101114500Y-86494870D01*
X100001770Y-86494870D01*
X100001770Y-79170770D01*
X100021455Y-79103731D01*
X100074259Y-79057976D01*
X100125770Y-79046770D01*
X120295017Y-79046770D01*
X120295772Y-79046919D01*
X120320001Y-79046916D01*
X120321353Y-79046356D01*
X120321353Y-79046355D01*
X120321355Y-79046355D01*
X120321770Y-79045353D01*
X120321770Y-79045352D01*
X120321916Y-79045000D01*
X120321927Y-79020812D01*
X120321770Y-79020016D01*
X120321770Y-61290047D01*
X120321908Y-61289354D01*
X120321916Y-61264998D01*
X120321356Y-61263646D01*
X120321353Y-61263643D01*
X120320354Y-61263230D01*
X120320001Y-61263084D01*
X120295751Y-61263084D01*
X120295016Y-61263230D01*
X105840770Y-61263230D01*
X105773731Y-61243545D01*
X105727976Y-61190741D01*
X105716770Y-61139230D01*
X105716770Y-58598003D01*
X119260435Y-58598003D01*
X119280630Y-58777249D01*
X119280631Y-58777254D01*
X119340211Y-58947523D01*
X119436184Y-59100262D01*
X119563738Y-59227816D01*
X119716478Y-59323789D01*
X119886745Y-59383368D01*
X119886750Y-59383369D01*
X120065996Y-59403565D01*
X120066000Y-59403565D01*
X120066004Y-59403565D01*
X120245249Y-59383369D01*
X120245252Y-59383368D01*
X120245255Y-59383368D01*
X120325017Y-59355457D01*
X120365972Y-59348500D01*
X122751770Y-59348500D01*
X122818809Y-59368185D01*
X122839451Y-59384819D01*
X130234692Y-66780059D01*
X130257358Y-66816125D01*
X130259188Y-66815244D01*
X130262209Y-66821518D01*
X130262211Y-66821522D01*
X130358184Y-66974262D01*
X130485738Y-67101816D01*
X130638478Y-67197789D01*
X130808745Y-67257368D01*
X130808750Y-67257369D01*
X130987996Y-67277565D01*
X130988000Y-67277565D01*
X130988004Y-67277565D01*
X131167249Y-67257369D01*
X131167252Y-67257368D01*
X131167255Y-67257368D01*
X131337522Y-67197789D01*
X131490262Y-67101816D01*
X131617816Y-66974262D01*
X131713789Y-66821522D01*
X131773368Y-66651255D01*
X131775847Y-66629254D01*
X131793565Y-66472003D01*
X131793565Y-66471996D01*
X131773369Y-66292750D01*
X131773368Y-66292745D01*
X131713788Y-66122476D01*
X131617815Y-65969737D01*
X131612081Y-65964003D01*
X140850435Y-65964003D01*
X140870630Y-66143249D01*
X140870631Y-66143254D01*
X140930211Y-66313523D01*
X141015963Y-66449996D01*
X141026184Y-66466262D01*
X141153738Y-66593816D01*
X141306478Y-66689789D01*
X141306480Y-66689789D01*
X141306484Y-66689792D01*
X141312756Y-66692813D01*
X141311869Y-66694653D01*
X141347939Y-66717307D01*
X163000692Y-88370059D01*
X163023358Y-88406125D01*
X163025188Y-88405244D01*
X163028209Y-88411518D01*
X163028211Y-88411522D01*
X163124184Y-88564262D01*
X163251738Y-88691816D01*
X163404478Y-88787789D01*
X163574745Y-88847368D01*
X163574750Y-88847369D01*
X163753996Y-88867565D01*
X163754000Y-88867565D01*
X163754004Y-88867565D01*
X163933249Y-88847369D01*
X163933252Y-88847368D01*
X163933255Y-88847368D01*
X164103522Y-88787789D01*
X164256262Y-88691816D01*
X164383816Y-88564262D01*
X164479789Y-88411522D01*
X164539368Y-88241255D01*
X164543141Y-88207770D01*
X164559565Y-88062003D01*
X164559565Y-88061996D01*
X164539369Y-87882750D01*
X164539368Y-87882745D01*
X164513215Y-87808003D01*
X164479789Y-87712478D01*
X164383816Y-87559738D01*
X164256262Y-87432184D01*
X164103522Y-87336211D01*
X164103516Y-87336207D01*
X164097247Y-87333188D01*
X164098129Y-87331356D01*
X164062060Y-87308692D01*
X150464371Y-73711003D01*
X179585435Y-73711003D01*
X179605630Y-73890249D01*
X179605631Y-73890254D01*
X179665211Y-74060523D01*
X179761184Y-74213262D01*
X179888738Y-74340816D01*
X180041478Y-74436789D01*
X180211745Y-74496368D01*
X180211750Y-74496369D01*
X180390996Y-74516565D01*
X180391000Y-74516565D01*
X180391004Y-74516565D01*
X180570249Y-74496369D01*
X180570252Y-74496368D01*
X180570255Y-74496368D01*
X180740522Y-74436789D01*
X180893262Y-74340816D01*
X181020816Y-74213262D01*
X181116789Y-74060522D01*
X181176368Y-73890255D01*
X181181672Y-73843173D01*
X181208737Y-73778763D01*
X181217201Y-73769387D01*
X181663787Y-73322802D01*
X181676042Y-73312986D01*
X181675859Y-73312764D01*
X181681866Y-73307792D01*
X181681877Y-73307786D01*
X181712775Y-73274882D01*
X181729227Y-73257364D01*
X181739671Y-73246918D01*
X181750120Y-73236471D01*
X181754379Y-73230978D01*
X181758152Y-73226561D01*
X181790062Y-73192582D01*
X181799715Y-73175020D01*
X181810389Y-73158770D01*
X181822673Y-73142936D01*
X181841180Y-73100167D01*
X181843749Y-73094924D01*
X181866196Y-73054093D01*
X181866197Y-73054092D01*
X181871177Y-73034691D01*
X181877478Y-73016288D01*
X181885438Y-72997896D01*
X181892730Y-72951849D01*
X181893911Y-72946152D01*
X181905500Y-72901019D01*
X181905500Y-72880983D01*
X181907027Y-72861582D01*
X181910160Y-72841804D01*
X181905775Y-72795415D01*
X181905500Y-72789577D01*
X181905500Y-66994854D01*
X181924507Y-66928881D01*
X182005788Y-66799524D01*
X182065368Y-66629254D01*
X182065369Y-66629249D01*
X182085565Y-66450003D01*
X182085565Y-66449996D01*
X182065369Y-66270750D01*
X182065368Y-66270745D01*
X182005788Y-66100476D01*
X181966582Y-66038080D01*
X181909816Y-65947738D01*
X181782262Y-65820184D01*
X181629523Y-65724211D01*
X181459254Y-65664631D01*
X181459249Y-65664630D01*
X181280004Y-65644435D01*
X181279996Y-65644435D01*
X181100750Y-65664630D01*
X181100745Y-65664631D01*
X180930476Y-65724211D01*
X180777737Y-65820184D01*
X180650184Y-65947737D01*
X180554211Y-66100476D01*
X180494631Y-66270745D01*
X180494630Y-66270750D01*
X180474435Y-66449996D01*
X180474435Y-66450003D01*
X180494630Y-66629249D01*
X180494631Y-66629254D01*
X180554211Y-66799524D01*
X180635493Y-66928881D01*
X180654500Y-66994854D01*
X180654500Y-72511546D01*
X180634815Y-72578585D01*
X180618181Y-72599227D01*
X180332620Y-72884787D01*
X180271297Y-72918272D01*
X180258825Y-72920326D01*
X180211750Y-72925630D01*
X180041478Y-72985210D01*
X179888737Y-73081184D01*
X179761184Y-73208737D01*
X179665211Y-73361476D01*
X179605631Y-73531745D01*
X179605630Y-73531750D01*
X179585435Y-73710996D01*
X179585435Y-73711003D01*
X150464371Y-73711003D01*
X142409307Y-65655939D01*
X142386653Y-65619869D01*
X142384813Y-65620756D01*
X142381792Y-65614484D01*
X142381789Y-65614480D01*
X142381789Y-65614478D01*
X142285816Y-65461738D01*
X142158262Y-65334184D01*
X142005523Y-65238211D01*
X141835254Y-65178631D01*
X141835249Y-65178630D01*
X141656004Y-65158435D01*
X141655996Y-65158435D01*
X141476750Y-65178630D01*
X141476745Y-65178631D01*
X141306476Y-65238211D01*
X141153737Y-65334184D01*
X141026184Y-65461737D01*
X140930211Y-65614476D01*
X140870631Y-65784745D01*
X140870630Y-65784750D01*
X140850435Y-65963996D01*
X140850435Y-65964003D01*
X131612081Y-65964003D01*
X131490262Y-65842184D01*
X131398848Y-65784745D01*
X131337522Y-65746211D01*
X131337518Y-65746209D01*
X131331244Y-65743188D01*
X131332125Y-65741358D01*
X131296059Y-65718692D01*
X123689729Y-58112361D01*
X123677949Y-58098730D01*
X123670482Y-58088701D01*
X123663612Y-58079472D01*
X123663610Y-58079470D01*
X123623587Y-58045886D01*
X123619612Y-58042244D01*
X123616690Y-58039322D01*
X123613780Y-58036411D01*
X123588040Y-58016059D01*
X123529209Y-57966694D01*
X123523180Y-57962729D01*
X123523212Y-57962680D01*
X123516853Y-57958628D01*
X123516822Y-57958679D01*
X123510680Y-57954891D01*
X123510678Y-57954890D01*
X123510677Y-57954889D01*
X123471474Y-57936608D01*
X123441058Y-57922424D01*
X123406894Y-57905267D01*
X123372433Y-57887960D01*
X123372431Y-57887959D01*
X123372430Y-57887959D01*
X123365645Y-57885489D01*
X123365665Y-57885433D01*
X123358549Y-57882959D01*
X123358531Y-57883015D01*
X123351671Y-57880742D01*
X123323841Y-57874996D01*
X123276434Y-57865207D01*
X123227472Y-57853603D01*
X123201719Y-57847499D01*
X123194547Y-57846661D01*
X123194553Y-57846601D01*
X123187055Y-57845835D01*
X123187050Y-57845895D01*
X123179860Y-57845265D01*
X123103083Y-57847500D01*
X120365972Y-57847500D01*
X120325017Y-57840542D01*
X120245254Y-57812631D01*
X120245249Y-57812630D01*
X120066004Y-57792435D01*
X120065996Y-57792435D01*
X119886750Y-57812630D01*
X119886745Y-57812631D01*
X119716476Y-57872211D01*
X119563737Y-57968184D01*
X119436184Y-58095737D01*
X119340211Y-58248476D01*
X119280631Y-58418745D01*
X119280630Y-58418750D01*
X119260435Y-58597996D01*
X119260435Y-58598003D01*
X105716770Y-58598003D01*
X105716770Y-57305870D01*
X106427500Y-57305870D01*
X106427501Y-57305876D01*
X106433908Y-57365483D01*
X106484202Y-57500328D01*
X106484206Y-57500335D01*
X106570452Y-57615544D01*
X106570455Y-57615547D01*
X106685664Y-57701793D01*
X106685671Y-57701797D01*
X106820517Y-57752091D01*
X106820516Y-57752091D01*
X106827444Y-57752835D01*
X106880127Y-57758500D01*
X109375872Y-57758499D01*
X109435483Y-57752091D01*
X109570331Y-57701796D01*
X109685546Y-57615546D01*
X109771796Y-57500331D01*
X109822091Y-57365483D01*
X109828500Y-57305873D01*
X109828499Y-56782854D01*
X109848183Y-56715818D01*
X109900987Y-56670063D01*
X109970146Y-56660119D01*
X110033702Y-56689144D01*
X110067927Y-56737553D01*
X110091607Y-56797888D01*
X110219041Y-57018612D01*
X110377950Y-57217877D01*
X110564783Y-57391232D01*
X110775366Y-57534805D01*
X110775371Y-57534807D01*
X110775372Y-57534808D01*
X110775373Y-57534809D01*
X110897328Y-57593538D01*
X111004992Y-57645387D01*
X111004993Y-57645387D01*
X111004996Y-57645389D01*
X111248542Y-57720513D01*
X111500565Y-57758500D01*
X111755435Y-57758500D01*
X112007458Y-57720513D01*
X112251004Y-57645389D01*
X112480634Y-57534805D01*
X112691217Y-57391232D01*
X112878050Y-57217877D01*
X113036959Y-57018612D01*
X113164393Y-56797888D01*
X113257508Y-56560637D01*
X113257510Y-56560624D01*
X113258878Y-56556196D01*
X113260324Y-56556642D01*
X113291213Y-56501412D01*
X113352873Y-56468552D01*
X113422510Y-56474243D01*
X113478016Y-56516680D01*
X113496192Y-56556482D01*
X113497122Y-56556196D01*
X113498490Y-56560630D01*
X113498492Y-56560637D01*
X113591607Y-56797888D01*
X113719041Y-57018612D01*
X113877950Y-57217877D01*
X114064783Y-57391232D01*
X114275366Y-57534805D01*
X114275371Y-57534807D01*
X114275372Y-57534808D01*
X114275373Y-57534809D01*
X114397328Y-57593538D01*
X114504992Y-57645387D01*
X114504993Y-57645387D01*
X114504996Y-57645389D01*
X114748542Y-57720513D01*
X115000565Y-57758500D01*
X115255435Y-57758500D01*
X115507458Y-57720513D01*
X115751004Y-57645389D01*
X115980634Y-57534805D01*
X116191217Y-57391232D01*
X116378050Y-57217877D01*
X116536959Y-57018612D01*
X116664393Y-56797888D01*
X116757508Y-56560637D01*
X116814222Y-56312157D01*
X116833268Y-56058000D01*
X116831581Y-56035493D01*
X116814222Y-55803845D01*
X116777225Y-55641752D01*
X116757508Y-55555363D01*
X116664393Y-55318112D01*
X116536959Y-55097388D01*
X116378050Y-54898123D01*
X116191217Y-54724768D01*
X115980634Y-54581195D01*
X115980630Y-54581193D01*
X115980627Y-54581191D01*
X115980626Y-54581190D01*
X115751006Y-54470612D01*
X115751008Y-54470612D01*
X115507466Y-54395489D01*
X115507462Y-54395488D01*
X115507458Y-54395487D01*
X115386231Y-54377214D01*
X115255440Y-54357500D01*
X115255435Y-54357500D01*
X115000565Y-54357500D01*
X115000559Y-54357500D01*
X114843609Y-54381157D01*
X114748542Y-54395487D01*
X114748539Y-54395488D01*
X114748533Y-54395489D01*
X114504992Y-54470612D01*
X114275373Y-54581190D01*
X114275372Y-54581191D01*
X114064782Y-54724768D01*
X113877952Y-54898121D01*
X113877950Y-54898123D01*
X113719041Y-55097388D01*
X113591608Y-55318109D01*
X113498492Y-55555362D01*
X113497122Y-55559804D01*
X113495677Y-55559358D01*
X113464780Y-55614593D01*
X113403117Y-55647449D01*
X113333480Y-55641752D01*
X113277978Y-55599311D01*
X113259805Y-55559517D01*
X113258878Y-55559804D01*
X113257509Y-55555369D01*
X113257508Y-55555363D01*
X113164393Y-55318112D01*
X113036959Y-55097388D01*
X112878050Y-54898123D01*
X112691217Y-54724768D01*
X112480634Y-54581195D01*
X112480630Y-54581193D01*
X112480627Y-54581191D01*
X112480626Y-54581190D01*
X112251006Y-54470612D01*
X112251008Y-54470612D01*
X112007466Y-54395489D01*
X112007462Y-54395488D01*
X112007458Y-54395487D01*
X111886231Y-54377214D01*
X111755440Y-54357500D01*
X111755435Y-54357500D01*
X111500565Y-54357500D01*
X111500559Y-54357500D01*
X111343609Y-54381157D01*
X111248542Y-54395487D01*
X111248539Y-54395488D01*
X111248533Y-54395489D01*
X111004992Y-54470612D01*
X110775373Y-54581190D01*
X110775372Y-54581191D01*
X110564782Y-54724768D01*
X110377952Y-54898121D01*
X110377950Y-54898123D01*
X110219041Y-55097388D01*
X110091608Y-55318109D01*
X110067927Y-55378447D01*
X110025110Y-55433661D01*
X109959240Y-55456961D01*
X109891230Y-55440950D01*
X109842672Y-55390711D01*
X109828499Y-55333144D01*
X109828499Y-54810129D01*
X109828498Y-54810123D01*
X109828497Y-54810116D01*
X109822091Y-54750517D01*
X109812487Y-54724768D01*
X109771797Y-54615671D01*
X109771793Y-54615664D01*
X109685547Y-54500455D01*
X109685544Y-54500452D01*
X109570335Y-54414206D01*
X109570328Y-54414202D01*
X109435482Y-54363908D01*
X109435483Y-54363908D01*
X109375883Y-54357501D01*
X109375881Y-54357500D01*
X109375873Y-54357500D01*
X109375864Y-54357500D01*
X106880129Y-54357500D01*
X106880123Y-54357501D01*
X106820516Y-54363908D01*
X106685671Y-54414202D01*
X106685664Y-54414206D01*
X106570455Y-54500452D01*
X106570452Y-54500455D01*
X106484206Y-54615664D01*
X106484202Y-54615671D01*
X106433908Y-54750517D01*
X106427501Y-54810116D01*
X106427501Y-54810123D01*
X106427500Y-54810135D01*
X106427500Y-57305870D01*
X105716770Y-57305870D01*
X105716770Y-50732844D01*
X118335000Y-50732844D01*
X118341401Y-50792372D01*
X118341403Y-50792379D01*
X118391645Y-50927086D01*
X118391649Y-50927093D01*
X118477809Y-51042187D01*
X118477812Y-51042190D01*
X118592906Y-51128350D01*
X118592913Y-51128354D01*
X118727620Y-51178596D01*
X118727627Y-51178598D01*
X118787155Y-51184999D01*
X118787172Y-51185000D01*
X119435000Y-51185000D01*
X119435000Y-50270501D01*
X119542685Y-50319680D01*
X119649237Y-50335000D01*
X119720763Y-50335000D01*
X119827315Y-50319680D01*
X119935000Y-50270501D01*
X119935000Y-51185000D01*
X120582828Y-51185000D01*
X120582844Y-51184999D01*
X120642372Y-51178598D01*
X120642379Y-51178596D01*
X120777086Y-51128354D01*
X120777093Y-51128350D01*
X120892187Y-51042190D01*
X120892190Y-51042187D01*
X120978350Y-50927093D01*
X120978354Y-50927086D01*
X121027422Y-50795529D01*
X121069293Y-50739595D01*
X121134757Y-50715178D01*
X121203030Y-50730030D01*
X121231285Y-50751181D01*
X121353599Y-50873495D01*
X121430135Y-50927086D01*
X121547165Y-51009032D01*
X121547167Y-51009033D01*
X121547170Y-51009035D01*
X121761337Y-51108903D01*
X121989592Y-51170063D01*
X122160319Y-51185000D01*
X122224999Y-51190659D01*
X122225000Y-51190659D01*
X122225001Y-51190659D01*
X122289681Y-51185000D01*
X122460408Y-51170063D01*
X122688663Y-51108903D01*
X122902830Y-51009035D01*
X123096401Y-50873495D01*
X123263495Y-50706401D01*
X123393425Y-50520842D01*
X123448002Y-50477217D01*
X123517500Y-50470023D01*
X123579855Y-50501546D01*
X123596575Y-50520842D01*
X123726281Y-50706082D01*
X123726505Y-50706401D01*
X123893599Y-50873495D01*
X123970135Y-50927086D01*
X124087165Y-51009032D01*
X124087167Y-51009033D01*
X124087170Y-51009035D01*
X124301337Y-51108903D01*
X124529592Y-51170063D01*
X124700319Y-51185000D01*
X124764999Y-51190659D01*
X124765000Y-51190659D01*
X124765001Y-51190659D01*
X124829681Y-51185000D01*
X125000408Y-51170063D01*
X125228663Y-51108903D01*
X125442830Y-51009035D01*
X125636401Y-50873495D01*
X125803495Y-50706401D01*
X125933425Y-50520842D01*
X125988002Y-50477217D01*
X126057500Y-50470023D01*
X126119855Y-50501546D01*
X126136575Y-50520842D01*
X126266281Y-50706082D01*
X126266505Y-50706401D01*
X126433599Y-50873495D01*
X126510135Y-50927086D01*
X126627165Y-51009032D01*
X126627167Y-51009033D01*
X126627170Y-51009035D01*
X126841337Y-51108903D01*
X127069592Y-51170063D01*
X127240319Y-51185000D01*
X127304999Y-51190659D01*
X127305000Y-51190659D01*
X127305001Y-51190659D01*
X127369681Y-51185000D01*
X127540408Y-51170063D01*
X127768663Y-51108903D01*
X127982830Y-51009035D01*
X128176401Y-50873495D01*
X128343495Y-50706401D01*
X128473425Y-50520842D01*
X128528002Y-50477217D01*
X128597500Y-50470023D01*
X128659855Y-50501546D01*
X128676575Y-50520842D01*
X128806281Y-50706082D01*
X128806505Y-50706401D01*
X128973599Y-50873495D01*
X129050135Y-50927086D01*
X129167165Y-51009032D01*
X129167167Y-51009033D01*
X129167170Y-51009035D01*
X129381337Y-51108903D01*
X129609592Y-51170063D01*
X129780319Y-51185000D01*
X129844999Y-51190659D01*
X129845000Y-51190659D01*
X129845001Y-51190659D01*
X129909681Y-51185000D01*
X130080408Y-51170063D01*
X130308663Y-51108903D01*
X130522830Y-51009035D01*
X130716401Y-50873495D01*
X130883495Y-50706401D01*
X131013425Y-50520842D01*
X131068002Y-50477217D01*
X131137500Y-50470023D01*
X131199855Y-50501546D01*
X131216575Y-50520842D01*
X131346281Y-50706082D01*
X131346505Y-50706401D01*
X131513599Y-50873495D01*
X131590135Y-50927086D01*
X131707165Y-51009032D01*
X131707167Y-51009033D01*
X131707170Y-51009035D01*
X131921337Y-51108903D01*
X132149592Y-51170063D01*
X132320319Y-51185000D01*
X132384999Y-51190659D01*
X132385000Y-51190659D01*
X132385001Y-51190659D01*
X132449681Y-51185000D01*
X132620408Y-51170063D01*
X132848663Y-51108903D01*
X133062830Y-51009035D01*
X133256401Y-50873495D01*
X133423495Y-50706401D01*
X133553425Y-50520842D01*
X133608002Y-50477217D01*
X133677500Y-50470023D01*
X133739855Y-50501546D01*
X133756575Y-50520842D01*
X133886281Y-50706082D01*
X133886505Y-50706401D01*
X134053599Y-50873495D01*
X134130135Y-50927086D01*
X134247165Y-51009032D01*
X134247167Y-51009033D01*
X134247170Y-51009035D01*
X134461337Y-51108903D01*
X134689592Y-51170063D01*
X134860319Y-51185000D01*
X134924999Y-51190659D01*
X134925000Y-51190659D01*
X134925001Y-51190659D01*
X134989681Y-51185000D01*
X135160408Y-51170063D01*
X135388663Y-51108903D01*
X135602830Y-51009035D01*
X135796401Y-50873495D01*
X135963495Y-50706401D01*
X136093425Y-50520842D01*
X136148002Y-50477217D01*
X136217500Y-50470023D01*
X136279855Y-50501546D01*
X136296575Y-50520842D01*
X136426281Y-50706082D01*
X136426505Y-50706401D01*
X136593599Y-50873495D01*
X136670135Y-50927086D01*
X136787165Y-51009032D01*
X136787167Y-51009033D01*
X136787170Y-51009035D01*
X137001337Y-51108903D01*
X137229592Y-51170063D01*
X137400319Y-51185000D01*
X137464999Y-51190659D01*
X137465000Y-51190659D01*
X137465001Y-51190659D01*
X137529681Y-51185000D01*
X137700408Y-51170063D01*
X137928663Y-51108903D01*
X138142830Y-51009035D01*
X138336401Y-50873495D01*
X138503495Y-50706401D01*
X138633425Y-50520842D01*
X138688002Y-50477217D01*
X138757500Y-50470023D01*
X138819855Y-50501546D01*
X138836575Y-50520842D01*
X138966281Y-50706082D01*
X138966505Y-50706401D01*
X139133599Y-50873495D01*
X139210135Y-50927086D01*
X139327165Y-51009032D01*
X139327167Y-51009033D01*
X139327170Y-51009035D01*
X139541337Y-51108903D01*
X139769592Y-51170063D01*
X139940319Y-51185000D01*
X140004999Y-51190659D01*
X140005000Y-51190659D01*
X140005001Y-51190659D01*
X140069681Y-51185000D01*
X140240408Y-51170063D01*
X140468663Y-51108903D01*
X140682830Y-51009035D01*
X140876401Y-50873495D01*
X141043495Y-50706401D01*
X141173425Y-50520842D01*
X141228002Y-50477217D01*
X141297500Y-50470023D01*
X141359855Y-50501546D01*
X141376575Y-50520842D01*
X141506281Y-50706082D01*
X141506505Y-50706401D01*
X141673599Y-50873495D01*
X141750135Y-50927086D01*
X141867165Y-51009032D01*
X141867167Y-51009033D01*
X141867170Y-51009035D01*
X142081337Y-51108903D01*
X142309592Y-51170063D01*
X142480319Y-51185000D01*
X142544999Y-51190659D01*
X142545000Y-51190659D01*
X142545001Y-51190659D01*
X142609681Y-51185000D01*
X142780408Y-51170063D01*
X143008663Y-51108903D01*
X143222830Y-51009035D01*
X143416401Y-50873495D01*
X143583495Y-50706401D01*
X143713425Y-50520842D01*
X143768002Y-50477217D01*
X143837500Y-50470023D01*
X143899855Y-50501546D01*
X143916575Y-50520842D01*
X144046281Y-50706082D01*
X144046505Y-50706401D01*
X144213599Y-50873495D01*
X144290135Y-50927086D01*
X144407165Y-51009032D01*
X144407167Y-51009033D01*
X144407170Y-51009035D01*
X144621337Y-51108903D01*
X144849592Y-51170063D01*
X145020319Y-51185000D01*
X145084999Y-51190659D01*
X145085000Y-51190659D01*
X145085001Y-51190659D01*
X145149681Y-51185000D01*
X145320408Y-51170063D01*
X145548663Y-51108903D01*
X145762830Y-51009035D01*
X145956401Y-50873495D01*
X146123495Y-50706401D01*
X146253425Y-50520842D01*
X146308002Y-50477217D01*
X146377500Y-50470023D01*
X146439855Y-50501546D01*
X146456575Y-50520842D01*
X146586281Y-50706082D01*
X146586505Y-50706401D01*
X146753599Y-50873495D01*
X146830135Y-50927086D01*
X146947165Y-51009032D01*
X146947167Y-51009033D01*
X146947170Y-51009035D01*
X147161337Y-51108903D01*
X147389592Y-51170063D01*
X147560319Y-51185000D01*
X147624999Y-51190659D01*
X147625000Y-51190659D01*
X147625001Y-51190659D01*
X147689681Y-51185000D01*
X147860408Y-51170063D01*
X148088663Y-51108903D01*
X148302830Y-51009035D01*
X148496401Y-50873495D01*
X148663495Y-50706401D01*
X148793425Y-50520842D01*
X148848002Y-50477217D01*
X148917500Y-50470023D01*
X148979855Y-50501546D01*
X148996575Y-50520842D01*
X149126281Y-50706082D01*
X149126505Y-50706401D01*
X149293599Y-50873495D01*
X149370135Y-50927086D01*
X149487165Y-51009032D01*
X149487167Y-51009033D01*
X149487170Y-51009035D01*
X149701337Y-51108903D01*
X149929592Y-51170063D01*
X150100319Y-51185000D01*
X150164999Y-51190659D01*
X150165000Y-51190659D01*
X150165001Y-51190659D01*
X150229681Y-51185000D01*
X150400408Y-51170063D01*
X150628663Y-51108903D01*
X150842830Y-51009035D01*
X151036401Y-50873495D01*
X151203495Y-50706401D01*
X151333425Y-50520842D01*
X151388002Y-50477217D01*
X151457500Y-50470023D01*
X151519855Y-50501546D01*
X151536575Y-50520842D01*
X151666281Y-50706082D01*
X151666505Y-50706401D01*
X151833599Y-50873495D01*
X151910135Y-50927086D01*
X152027165Y-51009032D01*
X152027167Y-51009033D01*
X152027170Y-51009035D01*
X152241337Y-51108903D01*
X152469592Y-51170063D01*
X152640319Y-51185000D01*
X152704999Y-51190659D01*
X152705000Y-51190659D01*
X152705001Y-51190659D01*
X152769681Y-51185000D01*
X152940408Y-51170063D01*
X153168663Y-51108903D01*
X153382830Y-51009035D01*
X153576401Y-50873495D01*
X153743495Y-50706401D01*
X153873425Y-50520842D01*
X153928002Y-50477217D01*
X153997500Y-50470023D01*
X154059855Y-50501546D01*
X154076575Y-50520842D01*
X154206281Y-50706082D01*
X154206505Y-50706401D01*
X154373599Y-50873495D01*
X154450135Y-50927086D01*
X154567165Y-51009032D01*
X154567167Y-51009033D01*
X154567170Y-51009035D01*
X154781337Y-51108903D01*
X155009592Y-51170063D01*
X155180319Y-51185000D01*
X155244999Y-51190659D01*
X155245000Y-51190659D01*
X155245001Y-51190659D01*
X155309681Y-51185000D01*
X155480408Y-51170063D01*
X155708663Y-51108903D01*
X155922830Y-51009035D01*
X156116401Y-50873495D01*
X156283495Y-50706401D01*
X156413425Y-50520842D01*
X156468002Y-50477217D01*
X156537500Y-50470023D01*
X156599855Y-50501546D01*
X156616575Y-50520842D01*
X156746281Y-50706082D01*
X156746505Y-50706401D01*
X156913599Y-50873495D01*
X156990135Y-50927086D01*
X157107165Y-51009032D01*
X157107167Y-51009033D01*
X157107170Y-51009035D01*
X157321337Y-51108903D01*
X157549592Y-51170063D01*
X157720319Y-51185000D01*
X157784999Y-51190659D01*
X157785000Y-51190659D01*
X157785001Y-51190659D01*
X157849681Y-51185000D01*
X158020408Y-51170063D01*
X158248663Y-51108903D01*
X158462830Y-51009035D01*
X158656401Y-50873495D01*
X158823495Y-50706401D01*
X158953425Y-50520842D01*
X159008002Y-50477217D01*
X159077500Y-50470023D01*
X159139855Y-50501546D01*
X159156575Y-50520842D01*
X159286281Y-50706082D01*
X159286505Y-50706401D01*
X159453599Y-50873495D01*
X159530135Y-50927086D01*
X159647165Y-51009032D01*
X159647167Y-51009033D01*
X159647170Y-51009035D01*
X159861337Y-51108903D01*
X160089592Y-51170063D01*
X160260319Y-51185000D01*
X160324999Y-51190659D01*
X160325000Y-51190659D01*
X160325001Y-51190659D01*
X160389681Y-51185000D01*
X160560408Y-51170063D01*
X160788663Y-51108903D01*
X161002830Y-51009035D01*
X161196401Y-50873495D01*
X161363495Y-50706401D01*
X161493425Y-50520842D01*
X161548002Y-50477217D01*
X161617500Y-50470023D01*
X161679855Y-50501546D01*
X161696575Y-50520842D01*
X161826281Y-50706082D01*
X161826505Y-50706401D01*
X161993599Y-50873495D01*
X162070135Y-50927086D01*
X162187165Y-51009032D01*
X162187167Y-51009033D01*
X162187170Y-51009035D01*
X162401337Y-51108903D01*
X162629592Y-51170063D01*
X162800319Y-51185000D01*
X162864999Y-51190659D01*
X162865000Y-51190659D01*
X162865001Y-51190659D01*
X162929681Y-51185000D01*
X163100408Y-51170063D01*
X163328663Y-51108903D01*
X163542830Y-51009035D01*
X163736401Y-50873495D01*
X163903495Y-50706401D01*
X164033425Y-50520842D01*
X164088002Y-50477217D01*
X164157500Y-50470023D01*
X164219855Y-50501546D01*
X164236575Y-50520842D01*
X164366281Y-50706082D01*
X164366505Y-50706401D01*
X164533599Y-50873495D01*
X164610135Y-50927086D01*
X164727165Y-51009032D01*
X164727167Y-51009033D01*
X164727170Y-51009035D01*
X164941337Y-51108903D01*
X165169592Y-51170063D01*
X165340319Y-51185000D01*
X165404999Y-51190659D01*
X165405000Y-51190659D01*
X165405001Y-51190659D01*
X165469681Y-51185000D01*
X165640408Y-51170063D01*
X165868663Y-51108903D01*
X166082830Y-51009035D01*
X166276401Y-50873495D01*
X166443495Y-50706401D01*
X166573425Y-50520842D01*
X166628002Y-50477217D01*
X166697500Y-50470023D01*
X166759855Y-50501546D01*
X166776575Y-50520842D01*
X166906281Y-50706082D01*
X166906505Y-50706401D01*
X167073599Y-50873495D01*
X167150135Y-50927086D01*
X167267165Y-51009032D01*
X167267167Y-51009033D01*
X167267170Y-51009035D01*
X167481337Y-51108903D01*
X167709592Y-51170063D01*
X167880319Y-51185000D01*
X167944999Y-51190659D01*
X167945000Y-51190659D01*
X167945001Y-51190659D01*
X168009681Y-51185000D01*
X168180408Y-51170063D01*
X168408663Y-51108903D01*
X168622830Y-51009035D01*
X168816401Y-50873495D01*
X168983495Y-50706401D01*
X169113425Y-50520842D01*
X169168002Y-50477217D01*
X169237500Y-50470023D01*
X169299855Y-50501546D01*
X169316575Y-50520842D01*
X169446281Y-50706082D01*
X169446505Y-50706401D01*
X169613599Y-50873495D01*
X169690135Y-50927086D01*
X169807165Y-51009032D01*
X169807167Y-51009033D01*
X169807170Y-51009035D01*
X170021337Y-51108903D01*
X170249592Y-51170063D01*
X170420319Y-51185000D01*
X170484999Y-51190659D01*
X170485000Y-51190659D01*
X170485001Y-51190659D01*
X170549681Y-51185000D01*
X170720408Y-51170063D01*
X170948663Y-51108903D01*
X171162830Y-51009035D01*
X171356401Y-50873495D01*
X171523495Y-50706401D01*
X171653425Y-50520842D01*
X171708002Y-50477217D01*
X171777500Y-50470023D01*
X171839855Y-50501546D01*
X171856575Y-50520842D01*
X171986281Y-50706082D01*
X171986505Y-50706401D01*
X172153599Y-50873495D01*
X172230135Y-50927086D01*
X172347165Y-51009032D01*
X172347167Y-51009033D01*
X172347170Y-51009035D01*
X172561337Y-51108903D01*
X172789592Y-51170063D01*
X172960319Y-51185000D01*
X173024999Y-51190659D01*
X173025000Y-51190659D01*
X173025001Y-51190659D01*
X173089681Y-51185000D01*
X173260408Y-51170063D01*
X173488663Y-51108903D01*
X173702830Y-51009035D01*
X173896401Y-50873495D01*
X174063495Y-50706401D01*
X174193730Y-50520405D01*
X174248307Y-50476781D01*
X174317805Y-50469587D01*
X174380160Y-50501110D01*
X174396879Y-50520405D01*
X174526890Y-50706078D01*
X174693917Y-50873105D01*
X174887421Y-51008600D01*
X175101507Y-51108429D01*
X175101516Y-51108433D01*
X175315000Y-51165634D01*
X175315000Y-50270501D01*
X175422685Y-50319680D01*
X175529237Y-50335000D01*
X175600763Y-50335000D01*
X175707315Y-50319680D01*
X175815000Y-50270501D01*
X175815000Y-51165633D01*
X176028483Y-51108433D01*
X176028492Y-51108429D01*
X176242578Y-51008600D01*
X176436082Y-50873105D01*
X176603105Y-50706082D01*
X176738600Y-50512578D01*
X176838429Y-50298492D01*
X176838432Y-50298486D01*
X176895636Y-50085000D01*
X175998686Y-50085000D01*
X176024493Y-50044844D01*
X176065000Y-49906889D01*
X176065000Y-49763111D01*
X176024493Y-49625156D01*
X175998686Y-49585000D01*
X176895636Y-49585000D01*
X176895635Y-49584999D01*
X176838432Y-49371513D01*
X176838429Y-49371507D01*
X176738600Y-49157422D01*
X176738599Y-49157420D01*
X176603113Y-48963926D01*
X176603108Y-48963920D01*
X176436078Y-48796890D01*
X176250405Y-48666879D01*
X176206780Y-48612302D01*
X176199588Y-48542804D01*
X176231110Y-48480449D01*
X176250406Y-48463730D01*
X176250842Y-48463425D01*
X176436401Y-48333495D01*
X176603495Y-48166401D01*
X176739035Y-47972830D01*
X176838903Y-47758663D01*
X176900063Y-47530408D01*
X176920659Y-47295000D01*
X176900063Y-47059592D01*
X176838903Y-46831337D01*
X176739035Y-46617171D01*
X176733731Y-46609595D01*
X176603494Y-46423597D01*
X176436402Y-46256506D01*
X176436395Y-46256501D01*
X176242834Y-46120967D01*
X176242830Y-46120965D01*
X176130205Y-46068447D01*
X176028663Y-46021097D01*
X176028659Y-46021096D01*
X176028655Y-46021094D01*
X175800413Y-45959938D01*
X175800403Y-45959936D01*
X175565001Y-45939341D01*
X175564999Y-45939341D01*
X175329596Y-45959936D01*
X175329586Y-45959938D01*
X175101344Y-46021094D01*
X175101335Y-46021098D01*
X174887171Y-46120964D01*
X174887169Y-46120965D01*
X174693597Y-46256505D01*
X174526505Y-46423597D01*
X174396575Y-46609158D01*
X174341998Y-46652783D01*
X174272500Y-46659977D01*
X174210145Y-46628454D01*
X174193425Y-46609158D01*
X174063494Y-46423597D01*
X173896402Y-46256506D01*
X173896395Y-46256501D01*
X173702834Y-46120967D01*
X173702830Y-46120965D01*
X173590205Y-46068447D01*
X173488663Y-46021097D01*
X173488659Y-46021096D01*
X173488655Y-46021094D01*
X173260413Y-45959938D01*
X173260403Y-45959936D01*
X173025001Y-45939341D01*
X173024999Y-45939341D01*
X172789596Y-45959936D01*
X172789586Y-45959938D01*
X172561344Y-46021094D01*
X172561335Y-46021098D01*
X172347171Y-46120964D01*
X172347169Y-46120965D01*
X172153597Y-46256505D01*
X171986505Y-46423597D01*
X171856575Y-46609158D01*
X171801998Y-46652783D01*
X171732500Y-46659977D01*
X171670145Y-46628454D01*
X171653425Y-46609158D01*
X171523494Y-46423597D01*
X171356402Y-46256506D01*
X171356395Y-46256501D01*
X171162834Y-46120967D01*
X171162830Y-46120965D01*
X171050205Y-46068447D01*
X170948663Y-46021097D01*
X170948659Y-46021096D01*
X170948655Y-46021094D01*
X170720413Y-45959938D01*
X170720403Y-45959936D01*
X170485001Y-45939341D01*
X170484999Y-45939341D01*
X170249596Y-45959936D01*
X170249586Y-45959938D01*
X170021344Y-46021094D01*
X170021335Y-46021098D01*
X169807171Y-46120964D01*
X169807169Y-46120965D01*
X169613597Y-46256505D01*
X169446505Y-46423597D01*
X169316575Y-46609158D01*
X169261998Y-46652783D01*
X169192500Y-46659977D01*
X169130145Y-46628454D01*
X169113425Y-46609158D01*
X168983494Y-46423597D01*
X168816402Y-46256506D01*
X168816395Y-46256501D01*
X168622834Y-46120967D01*
X168622830Y-46120965D01*
X168510205Y-46068447D01*
X168408663Y-46021097D01*
X168408659Y-46021096D01*
X168408655Y-46021094D01*
X168180413Y-45959938D01*
X168180403Y-45959936D01*
X167945001Y-45939341D01*
X167944999Y-45939341D01*
X167709596Y-45959936D01*
X167709586Y-45959938D01*
X167481344Y-46021094D01*
X167481335Y-46021098D01*
X167267171Y-46120964D01*
X167267169Y-46120965D01*
X167073597Y-46256505D01*
X166906505Y-46423597D01*
X166776575Y-46609158D01*
X166721998Y-46652783D01*
X166652500Y-46659977D01*
X166590145Y-46628454D01*
X166573425Y-46609158D01*
X166443494Y-46423597D01*
X166276402Y-46256506D01*
X166276395Y-46256501D01*
X166082834Y-46120967D01*
X166082830Y-46120965D01*
X165970205Y-46068447D01*
X165868663Y-46021097D01*
X165868659Y-46021096D01*
X165868655Y-46021094D01*
X165640413Y-45959938D01*
X165640403Y-45959936D01*
X165405001Y-45939341D01*
X165404999Y-45939341D01*
X165169596Y-45959936D01*
X165169586Y-45959938D01*
X164941344Y-46021094D01*
X164941335Y-46021098D01*
X164727171Y-46120964D01*
X164727169Y-46120965D01*
X164533597Y-46256505D01*
X164366505Y-46423597D01*
X164236575Y-46609158D01*
X164181998Y-46652783D01*
X164112500Y-46659977D01*
X164050145Y-46628454D01*
X164033425Y-46609158D01*
X163903494Y-46423597D01*
X163736402Y-46256506D01*
X163736395Y-46256501D01*
X163542834Y-46120967D01*
X163542830Y-46120965D01*
X163430205Y-46068447D01*
X163328663Y-46021097D01*
X163328659Y-46021096D01*
X163328655Y-46021094D01*
X163100413Y-45959938D01*
X163100403Y-45959936D01*
X162865001Y-45939341D01*
X162864999Y-45939341D01*
X162629596Y-45959936D01*
X162629586Y-45959938D01*
X162401344Y-46021094D01*
X162401335Y-46021098D01*
X162187171Y-46120964D01*
X162187169Y-46120965D01*
X161993597Y-46256505D01*
X161826505Y-46423597D01*
X161696575Y-46609158D01*
X161641998Y-46652783D01*
X161572500Y-46659977D01*
X161510145Y-46628454D01*
X161493425Y-46609158D01*
X161363494Y-46423597D01*
X161196402Y-46256506D01*
X161196395Y-46256501D01*
X161002834Y-46120967D01*
X161002830Y-46120965D01*
X160890205Y-46068447D01*
X160788663Y-46021097D01*
X160788659Y-46021096D01*
X160788655Y-46021094D01*
X160560413Y-45959938D01*
X160560403Y-45959936D01*
X160325001Y-45939341D01*
X160324999Y-45939341D01*
X160089596Y-45959936D01*
X160089586Y-45959938D01*
X159861344Y-46021094D01*
X159861335Y-46021098D01*
X159647171Y-46120964D01*
X159647169Y-46120965D01*
X159453597Y-46256505D01*
X159286505Y-46423597D01*
X159156575Y-46609158D01*
X159101998Y-46652783D01*
X159032500Y-46659977D01*
X158970145Y-46628454D01*
X158953425Y-46609158D01*
X158823494Y-46423597D01*
X158656402Y-46256506D01*
X158656395Y-46256501D01*
X158462834Y-46120967D01*
X158462830Y-46120965D01*
X158350205Y-46068447D01*
X158248663Y-46021097D01*
X158248659Y-46021096D01*
X158248655Y-46021094D01*
X158020413Y-45959938D01*
X158020403Y-45959936D01*
X157785001Y-45939341D01*
X157784999Y-45939341D01*
X157549596Y-45959936D01*
X157549586Y-45959938D01*
X157321344Y-46021094D01*
X157321335Y-46021098D01*
X157107171Y-46120964D01*
X157107169Y-46120965D01*
X156913597Y-46256505D01*
X156746505Y-46423597D01*
X156616575Y-46609158D01*
X156561998Y-46652783D01*
X156492500Y-46659977D01*
X156430145Y-46628454D01*
X156413425Y-46609158D01*
X156283494Y-46423597D01*
X156116402Y-46256506D01*
X156116395Y-46256501D01*
X155922834Y-46120967D01*
X155922830Y-46120965D01*
X155810205Y-46068447D01*
X155708663Y-46021097D01*
X155708659Y-46021096D01*
X155708655Y-46021094D01*
X155480413Y-45959938D01*
X155480403Y-45959936D01*
X155245001Y-45939341D01*
X155244999Y-45939341D01*
X155009596Y-45959936D01*
X155009586Y-45959938D01*
X154781344Y-46021094D01*
X154781335Y-46021098D01*
X154567171Y-46120964D01*
X154567169Y-46120965D01*
X154373597Y-46256505D01*
X154206505Y-46423597D01*
X154076575Y-46609158D01*
X154021998Y-46652783D01*
X153952500Y-46659977D01*
X153890145Y-46628454D01*
X153873425Y-46609158D01*
X153743494Y-46423597D01*
X153576402Y-46256506D01*
X153576395Y-46256501D01*
X153382834Y-46120967D01*
X153382830Y-46120965D01*
X153270205Y-46068447D01*
X153168663Y-46021097D01*
X153168659Y-46021096D01*
X153168655Y-46021094D01*
X152940413Y-45959938D01*
X152940403Y-45959936D01*
X152705001Y-45939341D01*
X152704999Y-45939341D01*
X152469596Y-45959936D01*
X152469586Y-45959938D01*
X152241344Y-46021094D01*
X152241335Y-46021098D01*
X152027171Y-46120964D01*
X152027169Y-46120965D01*
X151833597Y-46256505D01*
X151666505Y-46423597D01*
X151536575Y-46609158D01*
X151481998Y-46652783D01*
X151412500Y-46659977D01*
X151350145Y-46628454D01*
X151333425Y-46609158D01*
X151203494Y-46423597D01*
X151036402Y-46256506D01*
X151036395Y-46256501D01*
X150842834Y-46120967D01*
X150842830Y-46120965D01*
X150730205Y-46068447D01*
X150628663Y-46021097D01*
X150628659Y-46021096D01*
X150628655Y-46021094D01*
X150400413Y-45959938D01*
X150400403Y-45959936D01*
X150165001Y-45939341D01*
X150164999Y-45939341D01*
X149929596Y-45959936D01*
X149929586Y-45959938D01*
X149701344Y-46021094D01*
X149701335Y-46021098D01*
X149487171Y-46120964D01*
X149487169Y-46120965D01*
X149293597Y-46256505D01*
X149126505Y-46423597D01*
X148996575Y-46609158D01*
X148941998Y-46652783D01*
X148872500Y-46659977D01*
X148810145Y-46628454D01*
X148793425Y-46609158D01*
X148663494Y-46423597D01*
X148496402Y-46256506D01*
X148496395Y-46256501D01*
X148302834Y-46120967D01*
X148302830Y-46120965D01*
X148190205Y-46068447D01*
X148088663Y-46021097D01*
X148088659Y-46021096D01*
X148088655Y-46021094D01*
X147860413Y-45959938D01*
X147860403Y-45959936D01*
X147625001Y-45939341D01*
X147624999Y-45939341D01*
X147389596Y-45959936D01*
X147389586Y-45959938D01*
X147161344Y-46021094D01*
X147161335Y-46021098D01*
X146947171Y-46120964D01*
X146947169Y-46120965D01*
X146753597Y-46256505D01*
X146586505Y-46423597D01*
X146456575Y-46609158D01*
X146401998Y-46652783D01*
X146332500Y-46659977D01*
X146270145Y-46628454D01*
X146253425Y-46609158D01*
X146123494Y-46423597D01*
X145956402Y-46256506D01*
X145956395Y-46256501D01*
X145762834Y-46120967D01*
X145762830Y-46120965D01*
X145650205Y-46068447D01*
X145548663Y-46021097D01*
X145548659Y-46021096D01*
X145548655Y-46021094D01*
X145320413Y-45959938D01*
X145320403Y-45959936D01*
X145085001Y-45939341D01*
X145084999Y-45939341D01*
X144849596Y-45959936D01*
X144849586Y-45959938D01*
X144621344Y-46021094D01*
X144621335Y-46021098D01*
X144407171Y-46120964D01*
X144407169Y-46120965D01*
X144213597Y-46256505D01*
X144046505Y-46423597D01*
X143916575Y-46609158D01*
X143861998Y-46652783D01*
X143792500Y-46659977D01*
X143730145Y-46628454D01*
X143713425Y-46609158D01*
X143583494Y-46423597D01*
X143416402Y-46256506D01*
X143416395Y-46256501D01*
X143222834Y-46120967D01*
X143222830Y-46120965D01*
X143110205Y-46068447D01*
X143008663Y-46021097D01*
X143008659Y-46021096D01*
X143008655Y-46021094D01*
X142780413Y-45959938D01*
X142780403Y-45959936D01*
X142545001Y-45939341D01*
X142544999Y-45939341D01*
X142309596Y-45959936D01*
X142309586Y-45959938D01*
X142081344Y-46021094D01*
X142081335Y-46021098D01*
X141867171Y-46120964D01*
X141867169Y-46120965D01*
X141673597Y-46256505D01*
X141506505Y-46423597D01*
X141376575Y-46609158D01*
X141321998Y-46652783D01*
X141252500Y-46659977D01*
X141190145Y-46628454D01*
X141173425Y-46609158D01*
X141043494Y-46423597D01*
X140876402Y-46256506D01*
X140876395Y-46256501D01*
X140682834Y-46120967D01*
X140682830Y-46120965D01*
X140570205Y-46068447D01*
X140468663Y-46021097D01*
X140468659Y-46021096D01*
X140468655Y-46021094D01*
X140240413Y-45959938D01*
X140240403Y-45959936D01*
X140005001Y-45939341D01*
X140004999Y-45939341D01*
X139769596Y-45959936D01*
X139769586Y-45959938D01*
X139541344Y-46021094D01*
X139541335Y-46021098D01*
X139327171Y-46120964D01*
X139327169Y-46120965D01*
X139133597Y-46256505D01*
X138966505Y-46423597D01*
X138836575Y-46609158D01*
X138781998Y-46652783D01*
X138712500Y-46659977D01*
X138650145Y-46628454D01*
X138633425Y-46609158D01*
X138503494Y-46423597D01*
X138336402Y-46256506D01*
X138336395Y-46256501D01*
X138142834Y-46120967D01*
X138142830Y-46120965D01*
X138030205Y-46068447D01*
X137928663Y-46021097D01*
X137928659Y-46021096D01*
X137928655Y-46021094D01*
X137700413Y-45959938D01*
X137700403Y-45959936D01*
X137465001Y-45939341D01*
X137464999Y-45939341D01*
X137229596Y-45959936D01*
X137229586Y-45959938D01*
X137001344Y-46021094D01*
X137001335Y-46021098D01*
X136787171Y-46120964D01*
X136787169Y-46120965D01*
X136593597Y-46256505D01*
X136426505Y-46423597D01*
X136296575Y-46609158D01*
X136241998Y-46652783D01*
X136172500Y-46659977D01*
X136110145Y-46628454D01*
X136093425Y-46609158D01*
X135963494Y-46423597D01*
X135796402Y-46256506D01*
X135796395Y-46256501D01*
X135602834Y-46120967D01*
X135602830Y-46120965D01*
X135490205Y-46068447D01*
X135388663Y-46021097D01*
X135388659Y-46021096D01*
X135388655Y-46021094D01*
X135160413Y-45959938D01*
X135160403Y-45959936D01*
X134925001Y-45939341D01*
X134924999Y-45939341D01*
X134689596Y-45959936D01*
X134689586Y-45959938D01*
X134461344Y-46021094D01*
X134461335Y-46021098D01*
X134247171Y-46120964D01*
X134247169Y-46120965D01*
X134053597Y-46256505D01*
X133886505Y-46423597D01*
X133756575Y-46609158D01*
X133701998Y-46652783D01*
X133632500Y-46659977D01*
X133570145Y-46628454D01*
X133553425Y-46609158D01*
X133423494Y-46423597D01*
X133256402Y-46256506D01*
X133256395Y-46256501D01*
X133062834Y-46120967D01*
X133062830Y-46120965D01*
X132950205Y-46068447D01*
X132848663Y-46021097D01*
X132848659Y-46021096D01*
X132848655Y-46021094D01*
X132620413Y-45959938D01*
X132620403Y-45959936D01*
X132385001Y-45939341D01*
X132384999Y-45939341D01*
X132149596Y-45959936D01*
X132149586Y-45959938D01*
X131921344Y-46021094D01*
X131921335Y-46021098D01*
X131707171Y-46120964D01*
X131707169Y-46120965D01*
X131513597Y-46256505D01*
X131346505Y-46423597D01*
X131216575Y-46609158D01*
X131161998Y-46652783D01*
X131092500Y-46659977D01*
X131030145Y-46628454D01*
X131013425Y-46609158D01*
X130883494Y-46423597D01*
X130716402Y-46256506D01*
X130716395Y-46256501D01*
X130522834Y-46120967D01*
X130522830Y-46120965D01*
X130410205Y-46068447D01*
X130308663Y-46021097D01*
X130308659Y-46021096D01*
X130308655Y-46021094D01*
X130080413Y-45959938D01*
X130080403Y-45959936D01*
X129845001Y-45939341D01*
X129844999Y-45939341D01*
X129609596Y-45959936D01*
X129609586Y-45959938D01*
X129381344Y-46021094D01*
X129381335Y-46021098D01*
X129167171Y-46120964D01*
X129167169Y-46120965D01*
X128973597Y-46256505D01*
X128806505Y-46423597D01*
X128676575Y-46609158D01*
X128621998Y-46652783D01*
X128552500Y-46659977D01*
X128490145Y-46628454D01*
X128473425Y-46609158D01*
X128343494Y-46423597D01*
X128176402Y-46256506D01*
X128176395Y-46256501D01*
X127982834Y-46120967D01*
X127982830Y-46120965D01*
X127870205Y-46068447D01*
X127768663Y-46021097D01*
X127768659Y-46021096D01*
X127768655Y-46021094D01*
X127540413Y-45959938D01*
X127540403Y-45959936D01*
X127305001Y-45939341D01*
X127304999Y-45939341D01*
X127069596Y-45959936D01*
X127069586Y-45959938D01*
X126841344Y-46021094D01*
X126841335Y-46021098D01*
X126627171Y-46120964D01*
X126627169Y-46120965D01*
X126433597Y-46256505D01*
X126266505Y-46423597D01*
X126136575Y-46609158D01*
X126081998Y-46652783D01*
X126012500Y-46659977D01*
X125950145Y-46628454D01*
X125933425Y-46609158D01*
X125803494Y-46423597D01*
X125636402Y-46256506D01*
X125636395Y-46256501D01*
X125442834Y-46120967D01*
X125442830Y-46120965D01*
X125330205Y-46068447D01*
X125228663Y-46021097D01*
X125228659Y-46021096D01*
X125228655Y-46021094D01*
X125000413Y-45959938D01*
X125000403Y-45959936D01*
X124765001Y-45939341D01*
X124764999Y-45939341D01*
X124529596Y-45959936D01*
X124529586Y-45959938D01*
X124301344Y-46021094D01*
X124301335Y-46021098D01*
X124087171Y-46120964D01*
X124087169Y-46120965D01*
X123893597Y-46256505D01*
X123726505Y-46423597D01*
X123596575Y-46609158D01*
X123541998Y-46652783D01*
X123472500Y-46659977D01*
X123410145Y-46628454D01*
X123393425Y-46609158D01*
X123263494Y-46423597D01*
X123096402Y-46256506D01*
X123096395Y-46256501D01*
X122902834Y-46120967D01*
X122902830Y-46120965D01*
X122790205Y-46068447D01*
X122688663Y-46021097D01*
X122688659Y-46021096D01*
X122688655Y-46021094D01*
X122460413Y-45959938D01*
X122460403Y-45959936D01*
X122225001Y-45939341D01*
X122224999Y-45939341D01*
X121989596Y-45959936D01*
X121989586Y-45959938D01*
X121761344Y-46021094D01*
X121761335Y-46021098D01*
X121547171Y-46120964D01*
X121547169Y-46120965D01*
X121353597Y-46256505D01*
X121186508Y-46423594D01*
X121056269Y-46609595D01*
X121001692Y-46653219D01*
X120932193Y-46660412D01*
X120869839Y-46628890D01*
X120853119Y-46609594D01*
X120723113Y-46423926D01*
X120723108Y-46423920D01*
X120556082Y-46256894D01*
X120362578Y-46121399D01*
X120148492Y-46021570D01*
X120148486Y-46021567D01*
X119935000Y-45964364D01*
X119935000Y-46859498D01*
X119827315Y-46810320D01*
X119720763Y-46795000D01*
X119649237Y-46795000D01*
X119542685Y-46810320D01*
X119435000Y-46859498D01*
X119435000Y-45964364D01*
X119434999Y-45964364D01*
X119221513Y-46021567D01*
X119221507Y-46021570D01*
X119007422Y-46121399D01*
X119007420Y-46121400D01*
X118813926Y-46256886D01*
X118813920Y-46256891D01*
X118646891Y-46423920D01*
X118646886Y-46423926D01*
X118511400Y-46617420D01*
X118511399Y-46617422D01*
X118411570Y-46831507D01*
X118411567Y-46831513D01*
X118354364Y-47044999D01*
X118354364Y-47045000D01*
X119251314Y-47045000D01*
X119225507Y-47085156D01*
X119185000Y-47223111D01*
X119185000Y-47366889D01*
X119225507Y-47504844D01*
X119251314Y-47545000D01*
X118354364Y-47545000D01*
X118411567Y-47758486D01*
X118411570Y-47758492D01*
X118511399Y-47972578D01*
X118646894Y-48166082D01*
X118769334Y-48288522D01*
X118802819Y-48349845D01*
X118797835Y-48419537D01*
X118755963Y-48475470D01*
X118724987Y-48492385D01*
X118592911Y-48541646D01*
X118592906Y-48541649D01*
X118477812Y-48627809D01*
X118477809Y-48627812D01*
X118391649Y-48742906D01*
X118391645Y-48742913D01*
X118341403Y-48877620D01*
X118341401Y-48877627D01*
X118335000Y-48937155D01*
X118335000Y-49585000D01*
X119251314Y-49585000D01*
X119225507Y-49625156D01*
X119185000Y-49763111D01*
X119185000Y-49906889D01*
X119225507Y-50044844D01*
X119251314Y-50085000D01*
X118335000Y-50085000D01*
X118335000Y-50732844D01*
X105716770Y-50732844D01*
X105716770Y-45515770D01*
X105736455Y-45448731D01*
X105789259Y-45402976D01*
X105840770Y-45391770D01*
X173658230Y-45391770D01*
X173660000Y-45391770D01*
X174345796Y-45410348D01*
G37*
%TD.AperFunction*%
%TD*%
M02*
