M48
; DRILL file {KiCad 7.0.9} date Wed Mar 27 18:08:00 2024
; FORMAT={-:-/ absolute / inch / decimal}
; #@! TF.CreationDate,2024-03-27T18:08:00+01:00
; #@! TF.GenerationSoftware,Kicad,Pcbnew,7.0.9
; #@! TF.FileFunction,Plated,1,2,PTH
FMAT,2
INCH
; #@! TA.AperFunction,Plated,PTH,ViaDrill
T1C0.0157
; #@! TA.AperFunction,Plated,PTH,ComponentDrill
T2C0.0335
; #@! TA.AperFunction,Plated,PTH,ComponentDrill
T3C0.0394
; #@! TA.AperFunction,Plated,PTH,ComponentDrill
T4C0.0472
%
G90
G05
T1
X4.567Y-3.457
X4.727Y-2.307
X4.867Y-3.817
X4.877Y-3.597
X4.997Y-3.687
X5.007Y-2.677
X5.012Y-3.462
X5.157Y-2.617
X5.247Y-3.207
X5.247Y-3.367
X5.377Y-2.817
X5.402Y-3.432
X5.487Y-3.117
X5.537Y-3.337
X5.577Y-2.597
X5.577Y-2.927
X6.312Y-3.662
X6.407Y-3.537
X6.447Y-3.467
X6.927Y-2.817
X7.102Y-2.902
X7.137Y-2.6161
T2
X4.037Y-3.367
X4.137Y-3.367
X4.537Y-3.367
X4.637Y-3.367
X4.737Y-3.367
T3
X4.712Y-1.862
X4.712Y-1.962
X4.712Y-3.762
X4.712Y-3.862
X4.812Y-1.862
X4.812Y-1.962
X4.812Y-3.762
X4.812Y-3.862
X4.912Y-1.862
X4.912Y-1.962
X4.912Y-3.762
X4.912Y-3.862
X5.012Y-1.862
X5.012Y-1.962
X5.012Y-3.762
X5.012Y-3.862
X5.112Y-1.862
X5.112Y-1.962
X5.112Y-3.762
X5.112Y-3.862
X5.212Y-1.862
X5.212Y-1.962
X5.212Y-3.762
X5.212Y-3.862
X5.312Y-1.862
X5.312Y-1.962
X5.312Y-3.762
X5.312Y-3.862
X5.412Y-1.862
X5.412Y-1.962
X5.412Y-3.762
X5.412Y-3.862
X5.512Y-1.862
X5.512Y-1.962
X5.512Y-3.762
X5.512Y-3.862
X5.612Y-1.862
X5.612Y-1.962
X5.612Y-3.762
X5.612Y-3.862
X5.712Y-1.862
X5.712Y-1.962
X5.712Y-3.762
X5.712Y-3.862
X5.812Y-1.862
X5.812Y-1.962
X5.812Y-3.762
X5.812Y-3.862
X5.912Y-1.862
X5.912Y-1.962
X5.912Y-3.762
X5.912Y-3.862
X6.012Y-1.862
X6.012Y-1.962
X6.012Y-3.762
X6.012Y-3.862
X6.112Y-1.862
X6.112Y-1.962
X6.112Y-3.762
X6.112Y-3.862
X6.212Y-1.862
X6.212Y-1.962
X6.212Y-3.762
X6.212Y-3.862
X6.312Y-1.862
X6.312Y-1.962
X6.312Y-3.762
X6.312Y-3.862
X6.412Y-1.862
X6.412Y-1.962
X6.412Y-3.762
X6.412Y-3.862
X6.512Y-1.862
X6.512Y-1.962
X6.512Y-3.762
X6.512Y-3.862
X6.612Y-1.862
X6.612Y-1.962
X6.612Y-3.762
X6.612Y-3.862
X6.712Y-1.862
X6.712Y-1.962
X6.712Y-3.762
X6.712Y-3.862
X6.812Y-1.862
X6.812Y-1.962
X6.812Y-3.762
X6.812Y-3.862
X6.912Y-1.862
X6.912Y-1.962
X6.912Y-3.762
X6.912Y-3.862
T4
X4.1592Y-3.707
X4.257Y-2.207
X4.297Y-3.707
X4.3948Y-2.207
X4.5326Y-2.207
T0
M30
