%TF.GenerationSoftware,KiCad,Pcbnew,7.0.9*%
%TF.CreationDate,2024-03-18T18:38:54+01:00*%
%TF.ProjectId,esp32c3,65737033-3263-4332-9e6b-696361645f70,rev?*%
%TF.SameCoordinates,Original*%
%TF.FileFunction,Copper,L2,Bot*%
%TF.FilePolarity,Positive*%
%FSLAX46Y46*%
G04 Gerber Fmt 4.6, Leading zero omitted, Abs format (unit mm)*
G04 Created by KiCad (PCBNEW 7.0.9) date 2024-03-18 18:38:54*
%MOMM*%
%LPD*%
G01*
G04 APERTURE LIST*
%TA.AperFunction,ComponentPad*%
%ADD10C,1.524000*%
%TD*%
%TA.AperFunction,ComponentPad*%
%ADD11C,2.600000*%
%TD*%
%TA.AperFunction,ComponentPad*%
%ADD12R,2.600000X2.600000*%
%TD*%
%TA.AperFunction,ComponentPad*%
%ADD13O,2.070000X4.140000*%
%TD*%
%TA.AperFunction,ViaPad*%
%ADD14C,0.800000*%
%TD*%
%TA.AperFunction,Conductor*%
%ADD15C,0.500000*%
%TD*%
%TA.AperFunction,Conductor*%
%ADD16C,0.250000*%
%TD*%
G04 APERTURE END LIST*
D10*
%TO.P,U1,1,VCC*%
%TO.N,unconnected-(U1-VCC-Pad1)*%
X165862000Y-38354000D03*
%TO.P,U1,2,GND*%
%TO.N,unconnected-(U1-GND-Pad2)*%
X163322000Y-38354000D03*
%TO.P,U1,3,SCL*%
%TO.N,unconnected-(U1-SCL-Pad3)*%
X160782000Y-38354000D03*
%TO.P,U1,4,SDA*%
%TO.N,unconnected-(U1-SDA-Pad4)*%
X158242000Y-38354000D03*
%TO.P,U1,5,CSB*%
%TO.N,unconnected-(U1-CSB-Pad5)*%
X155702000Y-38354000D03*
%TO.P,U1,6,SDO*%
%TO.N,unconnected-(U1-SDO-Pad6)*%
X153162000Y-38354000D03*
%TD*%
D11*
%TO.P,J2,4,Pin_4*%
%TO.N,Net-(J2-Pin_4)*%
X150354000Y-58928000D03*
%TO.P,J2,3,Pin_3*%
%TO.N,Net-(J2-Pin_3)*%
X155354000Y-58928000D03*
%TO.P,J2,2,Pin_2*%
%TO.N,GNDD*%
X160354000Y-58928000D03*
D12*
%TO.P,J2,1,Pin_1*%
%TO.N,+3V3*%
X165354000Y-58928000D03*
%TD*%
D13*
%TO.P,BT1,+*%
%TO.N,+5V*%
X189716000Y-75692000D03*
%TO.P,BT1,-*%
%TO.N,GNDD*%
X116816000Y-75692000D03*
%TD*%
D14*
%TO.N,GNDD*%
X156210000Y-88138000D03*
X145796000Y-80772000D03*
X169926000Y-66294000D03*
X154940000Y-75946000D03*
%TO.N,Net-(J2-Pin_3)*%
X134112000Y-85344000D03*
X155194000Y-62484000D03*
%TO.N,Net-(J2-Pin_4)*%
X152654000Y-62484000D03*
X133096000Y-82296000D03*
%TO.N,Net-(U2-PA02_A0_D0)*%
X150876000Y-90424000D03*
X139954000Y-90424000D03*
%TO.N,Net-(U2-PA4_A1_D1)*%
X165100000Y-65278000D03*
X132334000Y-75946000D03*
%TO.N,Net-(U2-PA5_A9_D9_MISO)*%
X163322000Y-83566000D03*
X165862000Y-83566000D03*
%TO.N,+5V*%
X145288000Y-83566000D03*
%TO.N,GNDD*%
X142748000Y-80518000D03*
X146431000Y-89535000D03*
%TD*%
D15*
%TO.N,GNDD*%
X155702000Y-71882000D02*
X161290000Y-66294000D01*
X161290000Y-66294000D02*
X169926000Y-66294000D01*
X155702000Y-75184000D02*
X155702000Y-71882000D01*
X154940000Y-75946000D02*
X155702000Y-75184000D01*
D16*
%TO.N,Net-(J2-Pin_3)*%
X151384000Y-66294000D02*
X135636000Y-66294000D01*
X134112000Y-67818000D02*
X134112000Y-85344000D01*
X155194000Y-62484000D02*
X151384000Y-66294000D01*
X135636000Y-66294000D02*
X134112000Y-67818000D01*
%TO.N,Net-(J2-Pin_4)*%
X152654000Y-62484000D02*
X150368000Y-64770000D01*
X135382000Y-64770000D02*
X133096000Y-67056000D01*
X133096000Y-67056000D02*
X133096000Y-82296000D01*
X150368000Y-64770000D02*
X135382000Y-64770000D01*
%TO.N,Net-(U2-PA02_A0_D0)*%
X139954000Y-90424000D02*
X150876000Y-90424000D01*
%TO.N,Net-(U2-PA4_A1_D1)*%
X132334000Y-67181604D02*
X138047604Y-61468000D01*
X138047604Y-61468000D02*
X161290000Y-61468000D01*
X132334000Y-75946000D02*
X132334000Y-67181604D01*
X161290000Y-61468000D02*
X165100000Y-65278000D01*
%TO.N,Net-(U2-PA5_A9_D9_MISO)*%
X163322000Y-83566000D02*
X165862000Y-83566000D01*
D15*
%TO.N,+5V*%
X156464000Y-80264000D02*
X185144000Y-80264000D01*
X145288000Y-83566000D02*
X153162000Y-83566000D01*
X153162000Y-83566000D02*
X156464000Y-80264000D01*
X185144000Y-80264000D02*
X189716000Y-75692000D01*
%TO.N,GNDD*%
X134112000Y-87376000D02*
X144272000Y-87376000D01*
X126492000Y-81534000D02*
X128270000Y-81534000D01*
X128270000Y-81534000D02*
X134112000Y-87376000D01*
X144399000Y-87503000D02*
X146431000Y-89535000D01*
X116816000Y-75692000D02*
X120650000Y-75692000D01*
X142748000Y-80772000D02*
X142748000Y-80518000D01*
X120650000Y-75692000D02*
X126492000Y-81534000D01*
X142748000Y-85852000D02*
X144399000Y-87503000D01*
X144272000Y-87376000D02*
X144399000Y-87503000D01*
X142748000Y-80772000D02*
X142748000Y-85852000D01*
%TD*%
%TA.AperFunction,Conductor*%
%TO.N,GNDD*%
G36*
X175456539Y-53360185D02*
G01*
X175502294Y-53412989D01*
X175513500Y-53464500D01*
X175513500Y-64745467D01*
X175513416Y-64745889D01*
X175513459Y-64770001D01*
X175513500Y-64770099D01*
X175513616Y-64770382D01*
X175513618Y-64770384D01*
X175513808Y-64770462D01*
X175514000Y-64770541D01*
X175514002Y-64770539D01*
X175538616Y-64770524D01*
X175538616Y-64770528D01*
X175538760Y-64770500D01*
X195201500Y-64770500D01*
X195268539Y-64790185D01*
X195314294Y-64842989D01*
X195325500Y-64894500D01*
X195325500Y-86489500D01*
X195305815Y-86556539D01*
X195253011Y-86602294D01*
X195201500Y-86613500D01*
X175538760Y-86613500D01*
X175538554Y-86613459D01*
X175514000Y-86613459D01*
X175513901Y-86613500D01*
X175513617Y-86613616D01*
X175513615Y-86613618D01*
X175513459Y-86613999D01*
X175513476Y-86638616D01*
X175513471Y-86638616D01*
X175513500Y-86638759D01*
X175513500Y-96395500D01*
X175493815Y-96462539D01*
X175441011Y-96508294D01*
X175389500Y-96519500D01*
X129918500Y-96519500D01*
X129851461Y-96499815D01*
X129805706Y-96447011D01*
X129794500Y-96395500D01*
X129794500Y-93285763D01*
X131241787Y-93285763D01*
X131271413Y-93555013D01*
X131271415Y-93555024D01*
X131339926Y-93817082D01*
X131339928Y-93817088D01*
X131445870Y-94066390D01*
X131517998Y-94184575D01*
X131586979Y-94297605D01*
X131586986Y-94297615D01*
X131760253Y-94505819D01*
X131760259Y-94505824D01*
X131961998Y-94686582D01*
X132187910Y-94836044D01*
X132433176Y-94951020D01*
X132433183Y-94951022D01*
X132433185Y-94951023D01*
X132692557Y-95029057D01*
X132692564Y-95029058D01*
X132692569Y-95029060D01*
X132960561Y-95068500D01*
X132960566Y-95068500D01*
X133163636Y-95068500D01*
X133215133Y-95064730D01*
X133366156Y-95053677D01*
X133478758Y-95028593D01*
X133630546Y-94994782D01*
X133630548Y-94994781D01*
X133630553Y-94994780D01*
X133883558Y-94898014D01*
X134119777Y-94765441D01*
X134334177Y-94599888D01*
X134522186Y-94404881D01*
X134679799Y-94184579D01*
X134753787Y-94040669D01*
X134803649Y-93943690D01*
X134803651Y-93943684D01*
X134803656Y-93943675D01*
X134891118Y-93687305D01*
X134940319Y-93420933D01*
X134945259Y-93285763D01*
X170357787Y-93285763D01*
X170387413Y-93555013D01*
X170387415Y-93555024D01*
X170455926Y-93817082D01*
X170455928Y-93817088D01*
X170561870Y-94066390D01*
X170633998Y-94184575D01*
X170702979Y-94297605D01*
X170702986Y-94297615D01*
X170876253Y-94505819D01*
X170876259Y-94505824D01*
X171077998Y-94686582D01*
X171303910Y-94836044D01*
X171549176Y-94951020D01*
X171549183Y-94951022D01*
X171549185Y-94951023D01*
X171808557Y-95029057D01*
X171808564Y-95029058D01*
X171808569Y-95029060D01*
X172076561Y-95068500D01*
X172076566Y-95068500D01*
X172279636Y-95068500D01*
X172331133Y-95064730D01*
X172482156Y-95053677D01*
X172594758Y-95028593D01*
X172746546Y-94994782D01*
X172746548Y-94994781D01*
X172746553Y-94994780D01*
X172999558Y-94898014D01*
X173235777Y-94765441D01*
X173450177Y-94599888D01*
X173638186Y-94404881D01*
X173795799Y-94184579D01*
X173869787Y-94040669D01*
X173919649Y-93943690D01*
X173919651Y-93943684D01*
X173919656Y-93943675D01*
X174007118Y-93687305D01*
X174056319Y-93420933D01*
X174066212Y-93150235D01*
X174036586Y-92880982D01*
X173968072Y-92618912D01*
X173862130Y-92369610D01*
X173721018Y-92138390D01*
X173631747Y-92031119D01*
X173547746Y-91930180D01*
X173547740Y-91930175D01*
X173346002Y-91749418D01*
X173120092Y-91599957D01*
X173120090Y-91599956D01*
X172874824Y-91484980D01*
X172874819Y-91484978D01*
X172874814Y-91484976D01*
X172615442Y-91406942D01*
X172615428Y-91406939D01*
X172499791Y-91389921D01*
X172347439Y-91367500D01*
X172144369Y-91367500D01*
X172144364Y-91367500D01*
X171941844Y-91382323D01*
X171941831Y-91382325D01*
X171677453Y-91441217D01*
X171677446Y-91441220D01*
X171424439Y-91537987D01*
X171188226Y-91670557D01*
X170973822Y-91836112D01*
X170785822Y-92031109D01*
X170785816Y-92031116D01*
X170628202Y-92251419D01*
X170628199Y-92251424D01*
X170504350Y-92492309D01*
X170504343Y-92492327D01*
X170416884Y-92748685D01*
X170416881Y-92748699D01*
X170367681Y-93015068D01*
X170367680Y-93015075D01*
X170357787Y-93285763D01*
X134945259Y-93285763D01*
X134950212Y-93150235D01*
X134920586Y-92880982D01*
X134852072Y-92618912D01*
X134746130Y-92369610D01*
X134605018Y-92138390D01*
X134515747Y-92031119D01*
X134431746Y-91930180D01*
X134431740Y-91930175D01*
X134230002Y-91749418D01*
X134004092Y-91599957D01*
X134004090Y-91599956D01*
X133758824Y-91484980D01*
X133758819Y-91484978D01*
X133758814Y-91484976D01*
X133499442Y-91406942D01*
X133499428Y-91406939D01*
X133383791Y-91389921D01*
X133231439Y-91367500D01*
X133028369Y-91367500D01*
X133028364Y-91367500D01*
X132825844Y-91382323D01*
X132825831Y-91382325D01*
X132561453Y-91441217D01*
X132561446Y-91441220D01*
X132308439Y-91537987D01*
X132072226Y-91670557D01*
X131857822Y-91836112D01*
X131669822Y-92031109D01*
X131669816Y-92031116D01*
X131512202Y-92251419D01*
X131512199Y-92251424D01*
X131388350Y-92492309D01*
X131388343Y-92492327D01*
X131300884Y-92748685D01*
X131300881Y-92748699D01*
X131251681Y-93015068D01*
X131251680Y-93015075D01*
X131241787Y-93285763D01*
X129794500Y-93285763D01*
X129794500Y-90424000D01*
X139048540Y-90424000D01*
X139068326Y-90612256D01*
X139068327Y-90612259D01*
X139126818Y-90792277D01*
X139126821Y-90792284D01*
X139221467Y-90956216D01*
X139323185Y-91069185D01*
X139348129Y-91096888D01*
X139501265Y-91208148D01*
X139501270Y-91208151D01*
X139674192Y-91285142D01*
X139674197Y-91285144D01*
X139859354Y-91324500D01*
X139859355Y-91324500D01*
X140048644Y-91324500D01*
X140048646Y-91324500D01*
X140233803Y-91285144D01*
X140406730Y-91208151D01*
X140559871Y-91096888D01*
X140562788Y-91093647D01*
X140565600Y-91090526D01*
X140625087Y-91053879D01*
X140657748Y-91049500D01*
X150172252Y-91049500D01*
X150239291Y-91069185D01*
X150264400Y-91090526D01*
X150270126Y-91096885D01*
X150270130Y-91096889D01*
X150423265Y-91208148D01*
X150423270Y-91208151D01*
X150596192Y-91285142D01*
X150596197Y-91285144D01*
X150781354Y-91324500D01*
X150781355Y-91324500D01*
X150970644Y-91324500D01*
X150970646Y-91324500D01*
X151155803Y-91285144D01*
X151328730Y-91208151D01*
X151481871Y-91096888D01*
X151608533Y-90956216D01*
X151703179Y-90792284D01*
X151761674Y-90612256D01*
X151781460Y-90424000D01*
X151761674Y-90235744D01*
X151703179Y-90055716D01*
X151608533Y-89891784D01*
X151481871Y-89751112D01*
X151481870Y-89751111D01*
X151328734Y-89639851D01*
X151328729Y-89639848D01*
X151155807Y-89562857D01*
X151155802Y-89562855D01*
X151010001Y-89531865D01*
X150970646Y-89523500D01*
X150781354Y-89523500D01*
X150748897Y-89530398D01*
X150596197Y-89562855D01*
X150596192Y-89562857D01*
X150423270Y-89639848D01*
X150423265Y-89639851D01*
X150270130Y-89751110D01*
X150270126Y-89751114D01*
X150264400Y-89757474D01*
X150204913Y-89794121D01*
X150172252Y-89798500D01*
X140657748Y-89798500D01*
X140590709Y-89778815D01*
X140565600Y-89757474D01*
X140559873Y-89751114D01*
X140559869Y-89751110D01*
X140406734Y-89639851D01*
X140406729Y-89639848D01*
X140233807Y-89562857D01*
X140233802Y-89562855D01*
X140088001Y-89531865D01*
X140048646Y-89523500D01*
X139859354Y-89523500D01*
X139826897Y-89530398D01*
X139674197Y-89562855D01*
X139674192Y-89562857D01*
X139501270Y-89639848D01*
X139501265Y-89639851D01*
X139348129Y-89751111D01*
X139221466Y-89891785D01*
X139126821Y-90055715D01*
X139126818Y-90055722D01*
X139068327Y-90235740D01*
X139068326Y-90235744D01*
X139048540Y-90424000D01*
X129794500Y-90424000D01*
X129794500Y-86638759D01*
X129794528Y-86638616D01*
X129794524Y-86638616D01*
X129794539Y-86614002D01*
X129794541Y-86614000D01*
X129794462Y-86613808D01*
X129794384Y-86613618D01*
X129794382Y-86613616D01*
X129794099Y-86613500D01*
X129794000Y-86613459D01*
X129769446Y-86613459D01*
X129769240Y-86613500D01*
X111630500Y-86613500D01*
X111563461Y-86593815D01*
X111517706Y-86541011D01*
X111506500Y-86489500D01*
X111506500Y-76788862D01*
X115281000Y-76788862D01*
X115295948Y-76974031D01*
X115355259Y-77214664D01*
X115452402Y-77442667D01*
X115584866Y-77652143D01*
X115749206Y-77837645D01*
X115941183Y-77994389D01*
X115941188Y-77994393D01*
X116155814Y-78118307D01*
X116387549Y-78206192D01*
X116387548Y-78206192D01*
X116566000Y-78242622D01*
X116566000Y-76850049D01*
X116569525Y-76851900D01*
X116732219Y-76892000D01*
X116899781Y-76892000D01*
X117062475Y-76851900D01*
X117066000Y-76850049D01*
X117066000Y-78242919D01*
X117124030Y-78235873D01*
X117124036Y-78235871D01*
X117362083Y-78166920D01*
X117362091Y-78166917D01*
X117585997Y-78060674D01*
X117585999Y-78060672D01*
X117789962Y-77919886D01*
X117789963Y-77919885D01*
X117968700Y-77748207D01*
X118117584Y-77550079D01*
X118117590Y-77550068D01*
X118232762Y-77330628D01*
X118232763Y-77330624D01*
X118311245Y-77095545D01*
X118311245Y-77095544D01*
X118350999Y-76850920D01*
X118351000Y-76850919D01*
X118351000Y-75942000D01*
X117506000Y-75942000D01*
X117506000Y-75759763D01*
X123751787Y-75759763D01*
X123781413Y-76029013D01*
X123781415Y-76029024D01*
X123849926Y-76291082D01*
X123849928Y-76291088D01*
X123955870Y-76540390D01*
X124003777Y-76618888D01*
X124096979Y-76771605D01*
X124096986Y-76771615D01*
X124270253Y-76979819D01*
X124270259Y-76979824D01*
X124471998Y-77160582D01*
X124697910Y-77310044D01*
X124943176Y-77425020D01*
X124943183Y-77425022D01*
X124943185Y-77425023D01*
X125202557Y-77503057D01*
X125202564Y-77503058D01*
X125202569Y-77503060D01*
X125470561Y-77542500D01*
X125470566Y-77542500D01*
X125673636Y-77542500D01*
X125725133Y-77538730D01*
X125876156Y-77527677D01*
X125988758Y-77502593D01*
X126140546Y-77468782D01*
X126140548Y-77468781D01*
X126140553Y-77468780D01*
X126393558Y-77372014D01*
X126629777Y-77239441D01*
X126844177Y-77073888D01*
X127032186Y-76878881D01*
X127189799Y-76658579D01*
X127282531Y-76478214D01*
X127313649Y-76417690D01*
X127313651Y-76417684D01*
X127313656Y-76417675D01*
X127401118Y-76161305D01*
X127440887Y-75946000D01*
X131428540Y-75946000D01*
X131448326Y-76134256D01*
X131448327Y-76134259D01*
X131506818Y-76314277D01*
X131506821Y-76314284D01*
X131601467Y-76478216D01*
X131657448Y-76540389D01*
X131728129Y-76618888D01*
X131881265Y-76730148D01*
X131881270Y-76730151D01*
X132054192Y-76807142D01*
X132054197Y-76807144D01*
X132239354Y-76846500D01*
X132239355Y-76846500D01*
X132346500Y-76846500D01*
X132413539Y-76866185D01*
X132459294Y-76918989D01*
X132470500Y-76970500D01*
X132470500Y-81597312D01*
X132450815Y-81664351D01*
X132438650Y-81680284D01*
X132363466Y-81763784D01*
X132268821Y-81927715D01*
X132268818Y-81927722D01*
X132210327Y-82107740D01*
X132210326Y-82107744D01*
X132190540Y-82296000D01*
X132210326Y-82484256D01*
X132210327Y-82484259D01*
X132268818Y-82664277D01*
X132268821Y-82664284D01*
X132363467Y-82828216D01*
X132464568Y-82940500D01*
X132490129Y-82968888D01*
X132643265Y-83080148D01*
X132643270Y-83080151D01*
X132816192Y-83157142D01*
X132816197Y-83157144D01*
X133001354Y-83196500D01*
X133001355Y-83196500D01*
X133190644Y-83196500D01*
X133190646Y-83196500D01*
X133336720Y-83165451D01*
X133406386Y-83170767D01*
X133462120Y-83212904D01*
X133486225Y-83278484D01*
X133486500Y-83286741D01*
X133486500Y-84645312D01*
X133466815Y-84712351D01*
X133454650Y-84728284D01*
X133379466Y-84811784D01*
X133284821Y-84975715D01*
X133284818Y-84975722D01*
X133226327Y-85155740D01*
X133226326Y-85155744D01*
X133206540Y-85344000D01*
X133226326Y-85532256D01*
X133226327Y-85532259D01*
X133284818Y-85712277D01*
X133284821Y-85712284D01*
X133379467Y-85876216D01*
X133506129Y-86016888D01*
X133659265Y-86128148D01*
X133659270Y-86128151D01*
X133832192Y-86205142D01*
X133832197Y-86205144D01*
X134017354Y-86244500D01*
X134017355Y-86244500D01*
X134206644Y-86244500D01*
X134206646Y-86244500D01*
X134391803Y-86205144D01*
X134564730Y-86128151D01*
X134717871Y-86016888D01*
X134844533Y-85876216D01*
X134939179Y-85712284D01*
X134997674Y-85532256D01*
X135017460Y-85344000D01*
X134997674Y-85155744D01*
X134939179Y-84975716D01*
X134844533Y-84811784D01*
X134769350Y-84728284D01*
X134739120Y-84665292D01*
X134737500Y-84645312D01*
X134737500Y-83566000D01*
X144382540Y-83566000D01*
X144402326Y-83754256D01*
X144402327Y-83754259D01*
X144460818Y-83934277D01*
X144460821Y-83934284D01*
X144555467Y-84098216D01*
X144646244Y-84199034D01*
X144682129Y-84238888D01*
X144835265Y-84350148D01*
X144835270Y-84350151D01*
X145008192Y-84427142D01*
X145008197Y-84427144D01*
X145193354Y-84466500D01*
X145193355Y-84466500D01*
X145382644Y-84466500D01*
X145382646Y-84466500D01*
X145567803Y-84427144D01*
X145740730Y-84350151D01*
X145742776Y-84348664D01*
X145754452Y-84340182D01*
X145820258Y-84316702D01*
X145827337Y-84316500D01*
X153098295Y-84316500D01*
X153116265Y-84317809D01*
X153140023Y-84321289D01*
X153192068Y-84316735D01*
X153197470Y-84316500D01*
X153205704Y-84316500D01*
X153205709Y-84316500D01*
X153217327Y-84315141D01*
X153238276Y-84312693D01*
X153251028Y-84311577D01*
X153314797Y-84305999D01*
X153314805Y-84305996D01*
X153321866Y-84304539D01*
X153321878Y-84304598D01*
X153329243Y-84302965D01*
X153329229Y-84302906D01*
X153336246Y-84301241D01*
X153336255Y-84301241D01*
X153408423Y-84274974D01*
X153481334Y-84250814D01*
X153481343Y-84250807D01*
X153487882Y-84247760D01*
X153487908Y-84247816D01*
X153494690Y-84244532D01*
X153494663Y-84244478D01*
X153501106Y-84241240D01*
X153501117Y-84241237D01*
X153565283Y-84199034D01*
X153630656Y-84158712D01*
X153630662Y-84158705D01*
X153636325Y-84154229D01*
X153636362Y-84154277D01*
X153642204Y-84149518D01*
X153642164Y-84149471D01*
X153647691Y-84144832D01*
X153647696Y-84144830D01*
X153700386Y-84088981D01*
X154223367Y-83566000D01*
X162416540Y-83566000D01*
X162436326Y-83754256D01*
X162436327Y-83754259D01*
X162494818Y-83934277D01*
X162494821Y-83934284D01*
X162589467Y-84098216D01*
X162680244Y-84199034D01*
X162716129Y-84238888D01*
X162869265Y-84350148D01*
X162869270Y-84350151D01*
X163042192Y-84427142D01*
X163042197Y-84427144D01*
X163227354Y-84466500D01*
X163227355Y-84466500D01*
X163416644Y-84466500D01*
X163416646Y-84466500D01*
X163601803Y-84427144D01*
X163774730Y-84350151D01*
X163927871Y-84238888D01*
X163930788Y-84235647D01*
X163933600Y-84232526D01*
X163993087Y-84195879D01*
X164025748Y-84191500D01*
X165158252Y-84191500D01*
X165225291Y-84211185D01*
X165250400Y-84232526D01*
X165256126Y-84238885D01*
X165256130Y-84238889D01*
X165409265Y-84350148D01*
X165409270Y-84350151D01*
X165582192Y-84427142D01*
X165582197Y-84427144D01*
X165767354Y-84466500D01*
X165767355Y-84466500D01*
X165956644Y-84466500D01*
X165956646Y-84466500D01*
X166141803Y-84427144D01*
X166314730Y-84350151D01*
X166467871Y-84238888D01*
X166594533Y-84098216D01*
X166689179Y-83934284D01*
X166747674Y-83754256D01*
X166767460Y-83566000D01*
X166747674Y-83377744D01*
X166689179Y-83197716D01*
X166594533Y-83033784D01*
X166467871Y-82893112D01*
X166467870Y-82893111D01*
X166314734Y-82781851D01*
X166314729Y-82781848D01*
X166141807Y-82704857D01*
X166141802Y-82704855D01*
X165996001Y-82673865D01*
X165956646Y-82665500D01*
X165767354Y-82665500D01*
X165734897Y-82672398D01*
X165582197Y-82704855D01*
X165582192Y-82704857D01*
X165409270Y-82781848D01*
X165409265Y-82781851D01*
X165256130Y-82893110D01*
X165256126Y-82893114D01*
X165250400Y-82899474D01*
X165190913Y-82936121D01*
X165158252Y-82940500D01*
X164025748Y-82940500D01*
X163958709Y-82920815D01*
X163933600Y-82899474D01*
X163927873Y-82893114D01*
X163927869Y-82893110D01*
X163774734Y-82781851D01*
X163774729Y-82781848D01*
X163601807Y-82704857D01*
X163601802Y-82704855D01*
X163456001Y-82673865D01*
X163416646Y-82665500D01*
X163227354Y-82665500D01*
X163194897Y-82672398D01*
X163042197Y-82704855D01*
X163042192Y-82704857D01*
X162869270Y-82781848D01*
X162869265Y-82781851D01*
X162716129Y-82893111D01*
X162589466Y-83033785D01*
X162494821Y-83197715D01*
X162494818Y-83197722D01*
X162436327Y-83377740D01*
X162436326Y-83377744D01*
X162416540Y-83566000D01*
X154223367Y-83566000D01*
X156738548Y-81050819D01*
X156799871Y-81017334D01*
X156826229Y-81014500D01*
X185080295Y-81014500D01*
X185098265Y-81015809D01*
X185122023Y-81019289D01*
X185174068Y-81014735D01*
X185179470Y-81014500D01*
X185187704Y-81014500D01*
X185187709Y-81014500D01*
X185199327Y-81013141D01*
X185220276Y-81010693D01*
X185233028Y-81009577D01*
X185296797Y-81003999D01*
X185296805Y-81003996D01*
X185303866Y-81002539D01*
X185303878Y-81002598D01*
X185311243Y-81000965D01*
X185311229Y-81000906D01*
X185318246Y-80999241D01*
X185318255Y-80999241D01*
X185390423Y-80972974D01*
X185463334Y-80948814D01*
X185463343Y-80948807D01*
X185469882Y-80945760D01*
X185469908Y-80945816D01*
X185476690Y-80942532D01*
X185476663Y-80942478D01*
X185483106Y-80939240D01*
X185483117Y-80939237D01*
X185547283Y-80897034D01*
X185612656Y-80856712D01*
X185612662Y-80856705D01*
X185618325Y-80852229D01*
X185618362Y-80852277D01*
X185624204Y-80847518D01*
X185624164Y-80847471D01*
X185629691Y-80842832D01*
X185629696Y-80842830D01*
X185682386Y-80786981D01*
X188559958Y-77909407D01*
X188621279Y-77875924D01*
X188690970Y-77880908D01*
X188726055Y-77901035D01*
X188840392Y-77994389D01*
X188840904Y-77994807D01*
X189055599Y-78118760D01*
X189055601Y-78118761D01*
X189287407Y-78206673D01*
X189530314Y-78256263D01*
X189604628Y-78259257D01*
X189778022Y-78266246D01*
X189778023Y-78266246D01*
X189778024Y-78266245D01*
X189778029Y-78266246D01*
X190024139Y-78236363D01*
X190262267Y-78167388D01*
X190486247Y-78061108D01*
X190690279Y-77920275D01*
X190869077Y-77748537D01*
X191018011Y-77550342D01*
X191133224Y-77330823D01*
X191211731Y-77095665D01*
X191231499Y-76974031D01*
X191251500Y-76850960D01*
X191251500Y-74595125D01*
X191236546Y-74409887D01*
X191206616Y-74288455D01*
X191177216Y-74169175D01*
X191080041Y-73941096D01*
X190947538Y-73731560D01*
X190947534Y-73731555D01*
X190783140Y-73545992D01*
X190591101Y-73389196D01*
X190591096Y-73389193D01*
X190376400Y-73265239D01*
X190144597Y-73177328D01*
X190144594Y-73177327D01*
X190144593Y-73177327D01*
X190100050Y-73168233D01*
X189901690Y-73127737D01*
X189901682Y-73127736D01*
X189653977Y-73117753D01*
X189653976Y-73117753D01*
X189407868Y-73147635D01*
X189407861Y-73147637D01*
X189169738Y-73216610D01*
X189169735Y-73216611D01*
X188945749Y-73322893D01*
X188741719Y-73463726D01*
X188741715Y-73463729D01*
X188562924Y-73635460D01*
X188413992Y-73833652D01*
X188413986Y-73833663D01*
X188298778Y-74053171D01*
X188220267Y-74288340D01*
X188180500Y-74533039D01*
X188180500Y-76114770D01*
X188160815Y-76181809D01*
X188144181Y-76202451D01*
X184869451Y-79477181D01*
X184808128Y-79510666D01*
X184781770Y-79513500D01*
X156527705Y-79513500D01*
X156509735Y-79512191D01*
X156485972Y-79508710D01*
X156440890Y-79512655D01*
X156433933Y-79513264D01*
X156428532Y-79513500D01*
X156420287Y-79513500D01*
X156394222Y-79516546D01*
X156387705Y-79517308D01*
X156382403Y-79517771D01*
X156311201Y-79524001D01*
X156304134Y-79525461D01*
X156304122Y-79525404D01*
X156296753Y-79527038D01*
X156296767Y-79527095D01*
X156289739Y-79528760D01*
X156217568Y-79555028D01*
X156144665Y-79579186D01*
X156144663Y-79579186D01*
X156144660Y-79579188D01*
X156138123Y-79582236D01*
X156138098Y-79582184D01*
X156131310Y-79585470D01*
X156131336Y-79585521D01*
X156124885Y-79588761D01*
X156060723Y-79630961D01*
X155995346Y-79671285D01*
X155989682Y-79675765D01*
X155989646Y-79675719D01*
X155983798Y-79680484D01*
X155983835Y-79680528D01*
X155978310Y-79685164D01*
X155925614Y-79741017D01*
X152887451Y-82779181D01*
X152826128Y-82812666D01*
X152799770Y-82815500D01*
X145827337Y-82815500D01*
X145760298Y-82795815D01*
X145754452Y-82791818D01*
X145740734Y-82781851D01*
X145740729Y-82781848D01*
X145567807Y-82704857D01*
X145567802Y-82704855D01*
X145422001Y-82673865D01*
X145382646Y-82665500D01*
X145193354Y-82665500D01*
X145160897Y-82672398D01*
X145008197Y-82704855D01*
X145008192Y-82704857D01*
X144835270Y-82781848D01*
X144835265Y-82781851D01*
X144682129Y-82893111D01*
X144555466Y-83033785D01*
X144460821Y-83197715D01*
X144460818Y-83197722D01*
X144402327Y-83377740D01*
X144402326Y-83377744D01*
X144382540Y-83566000D01*
X134737500Y-83566000D01*
X134737500Y-75759763D01*
X179366787Y-75759763D01*
X179396413Y-76029013D01*
X179396415Y-76029024D01*
X179464926Y-76291082D01*
X179464928Y-76291088D01*
X179570870Y-76540390D01*
X179618777Y-76618888D01*
X179711979Y-76771605D01*
X179711986Y-76771615D01*
X179885253Y-76979819D01*
X179885259Y-76979824D01*
X180086998Y-77160582D01*
X180312910Y-77310044D01*
X180558176Y-77425020D01*
X180558183Y-77425022D01*
X180558185Y-77425023D01*
X180817557Y-77503057D01*
X180817564Y-77503058D01*
X180817569Y-77503060D01*
X181085561Y-77542500D01*
X181085566Y-77542500D01*
X181288636Y-77542500D01*
X181340133Y-77538730D01*
X181491156Y-77527677D01*
X181603758Y-77502593D01*
X181755546Y-77468782D01*
X181755548Y-77468781D01*
X181755553Y-77468780D01*
X182008558Y-77372014D01*
X182244777Y-77239441D01*
X182459177Y-77073888D01*
X182647186Y-76878881D01*
X182804799Y-76658579D01*
X182897531Y-76478214D01*
X182928649Y-76417690D01*
X182928651Y-76417684D01*
X182928656Y-76417675D01*
X183016118Y-76161305D01*
X183065319Y-75894933D01*
X183075212Y-75624235D01*
X183045586Y-75354982D01*
X182977072Y-75092912D01*
X182871130Y-74843610D01*
X182730018Y-74612390D01*
X182715650Y-74595125D01*
X182556746Y-74404180D01*
X182556740Y-74404175D01*
X182355002Y-74223418D01*
X182129092Y-74073957D01*
X182129090Y-74073956D01*
X181883824Y-73958980D01*
X181883819Y-73958978D01*
X181883814Y-73958976D01*
X181624442Y-73880942D01*
X181624428Y-73880939D01*
X181508791Y-73863921D01*
X181356439Y-73841500D01*
X181153369Y-73841500D01*
X181153364Y-73841500D01*
X180950844Y-73856323D01*
X180950831Y-73856325D01*
X180686453Y-73915217D01*
X180686446Y-73915220D01*
X180433439Y-74011987D01*
X180197226Y-74144557D01*
X180197224Y-74144558D01*
X180197223Y-74144559D01*
X180165137Y-74169335D01*
X179982822Y-74310112D01*
X179794822Y-74505109D01*
X179794816Y-74505116D01*
X179637202Y-74725419D01*
X179637199Y-74725424D01*
X179513350Y-74966309D01*
X179513343Y-74966327D01*
X179425884Y-75222685D01*
X179425881Y-75222699D01*
X179376681Y-75489068D01*
X179376680Y-75489075D01*
X179366787Y-75759763D01*
X134737500Y-75759763D01*
X134737500Y-68128452D01*
X134757185Y-68061413D01*
X134773819Y-68040771D01*
X135858772Y-66955819D01*
X135920095Y-66922334D01*
X135946453Y-66919500D01*
X151301257Y-66919500D01*
X151316877Y-66921224D01*
X151316904Y-66920939D01*
X151324660Y-66921671D01*
X151324667Y-66921673D01*
X151393814Y-66919500D01*
X151423350Y-66919500D01*
X151430228Y-66918630D01*
X151436041Y-66918172D01*
X151482627Y-66916709D01*
X151501869Y-66911117D01*
X151520912Y-66907174D01*
X151540792Y-66904664D01*
X151584122Y-66887507D01*
X151589646Y-66885617D01*
X151593396Y-66884527D01*
X151634390Y-66872618D01*
X151651629Y-66862422D01*
X151669103Y-66853862D01*
X151687727Y-66846488D01*
X151687727Y-66846487D01*
X151687732Y-66846486D01*
X151725449Y-66819082D01*
X151730305Y-66815892D01*
X151770420Y-66792170D01*
X151784589Y-66777999D01*
X151799379Y-66765368D01*
X151815587Y-66753594D01*
X151845299Y-66717676D01*
X151849212Y-66713376D01*
X155141771Y-63420819D01*
X155203094Y-63387334D01*
X155229452Y-63384500D01*
X155288644Y-63384500D01*
X155288646Y-63384500D01*
X155473803Y-63345144D01*
X155646730Y-63268151D01*
X155799871Y-63156888D01*
X155926533Y-63016216D01*
X156021179Y-62852284D01*
X156079674Y-62672256D01*
X156099460Y-62484000D01*
X156079674Y-62295744D01*
X156066700Y-62255817D01*
X156064706Y-62185978D01*
X156100786Y-62126145D01*
X156163487Y-62095316D01*
X156184632Y-62093500D01*
X160979548Y-62093500D01*
X161046587Y-62113185D01*
X161067229Y-62129819D01*
X164161038Y-65223628D01*
X164194523Y-65284951D01*
X164196678Y-65298347D01*
X164200368Y-65333453D01*
X164214326Y-65466256D01*
X164214327Y-65466259D01*
X164272818Y-65646277D01*
X164272821Y-65646284D01*
X164367467Y-65810216D01*
X164494129Y-65950888D01*
X164647265Y-66062148D01*
X164647270Y-66062151D01*
X164820192Y-66139142D01*
X164820197Y-66139144D01*
X165005354Y-66178500D01*
X165005355Y-66178500D01*
X165194644Y-66178500D01*
X165194646Y-66178500D01*
X165379803Y-66139144D01*
X165552730Y-66062151D01*
X165705871Y-65950888D01*
X165832533Y-65810216D01*
X165927179Y-65646284D01*
X165985674Y-65466256D01*
X166005460Y-65278000D01*
X165985674Y-65089744D01*
X165927179Y-64909716D01*
X165832533Y-64745784D01*
X165705871Y-64605112D01*
X165705870Y-64605111D01*
X165552734Y-64493851D01*
X165552729Y-64493848D01*
X165379807Y-64416857D01*
X165379802Y-64416855D01*
X165234001Y-64385865D01*
X165194646Y-64377500D01*
X165194645Y-64377500D01*
X165135452Y-64377500D01*
X165068413Y-64357815D01*
X165047771Y-64341181D01*
X161790803Y-61084212D01*
X161780980Y-61071950D01*
X161780759Y-61072134D01*
X161775786Y-61066123D01*
X161757159Y-61048631D01*
X161725364Y-61018773D01*
X161714919Y-61008328D01*
X161704475Y-60997883D01*
X161698986Y-60993625D01*
X161694561Y-60989847D01*
X161660582Y-60957938D01*
X161660580Y-60957936D01*
X161660577Y-60957935D01*
X161643029Y-60948288D01*
X161626763Y-60937604D01*
X161610933Y-60925325D01*
X161568168Y-60906818D01*
X161562922Y-60904248D01*
X161522093Y-60881803D01*
X161522092Y-60881802D01*
X161502693Y-60876822D01*
X161484281Y-60870518D01*
X161465898Y-60862562D01*
X161465892Y-60862560D01*
X161419874Y-60855272D01*
X161414152Y-60854087D01*
X161369021Y-60842500D01*
X161369019Y-60842500D01*
X161348984Y-60842500D01*
X161329586Y-60840973D01*
X161322162Y-60839797D01*
X161309805Y-60837840D01*
X161309804Y-60837840D01*
X161263416Y-60842225D01*
X161257578Y-60842500D01*
X161070355Y-60842500D01*
X161003316Y-60822815D01*
X160957561Y-60770011D01*
X160947617Y-60700853D01*
X160976642Y-60637297D01*
X161016554Y-60606780D01*
X161256521Y-60491218D01*
X161439150Y-60366702D01*
X161348318Y-60275870D01*
X163553500Y-60275870D01*
X163553501Y-60275876D01*
X163559908Y-60335483D01*
X163610202Y-60470328D01*
X163610206Y-60470335D01*
X163696452Y-60585544D01*
X163696455Y-60585547D01*
X163811664Y-60671793D01*
X163811671Y-60671797D01*
X163946517Y-60722091D01*
X163946516Y-60722091D01*
X163953444Y-60722835D01*
X164006127Y-60728500D01*
X166701872Y-60728499D01*
X166761483Y-60722091D01*
X166896331Y-60671796D01*
X167011546Y-60585546D01*
X167097796Y-60470331D01*
X167148091Y-60335483D01*
X167154500Y-60275873D01*
X167154499Y-57580128D01*
X167148091Y-57520517D01*
X167146542Y-57516365D01*
X167097797Y-57385671D01*
X167097793Y-57385664D01*
X167011547Y-57270455D01*
X167011544Y-57270452D01*
X166896335Y-57184206D01*
X166896328Y-57184202D01*
X166761482Y-57133908D01*
X166761483Y-57133908D01*
X166701883Y-57127501D01*
X166701881Y-57127500D01*
X166701873Y-57127500D01*
X166701864Y-57127500D01*
X164006129Y-57127500D01*
X164006123Y-57127501D01*
X163946516Y-57133908D01*
X163811671Y-57184202D01*
X163811664Y-57184206D01*
X163696455Y-57270452D01*
X163696452Y-57270455D01*
X163610206Y-57385664D01*
X163610202Y-57385671D01*
X163559908Y-57520517D01*
X163553501Y-57580116D01*
X163553501Y-57580123D01*
X163553500Y-57580135D01*
X163553500Y-60275870D01*
X161348318Y-60275870D01*
X160601534Y-59529086D01*
X160669629Y-59502126D01*
X160802492Y-59405595D01*
X160907175Y-59279055D01*
X160955631Y-59176079D01*
X161791703Y-60012151D01*
X161791704Y-60012150D01*
X161845393Y-59944828D01*
X161845400Y-59944817D01*
X161980290Y-59711181D01*
X162078851Y-59460052D01*
X162078857Y-59460033D01*
X162138886Y-59197028D01*
X162138886Y-59197026D01*
X162159047Y-58928004D01*
X162159047Y-58927995D01*
X162138886Y-58658973D01*
X162138886Y-58658971D01*
X162078857Y-58395966D01*
X162078851Y-58395947D01*
X161980290Y-58144818D01*
X161980291Y-58144818D01*
X161845397Y-57911177D01*
X161791704Y-57843847D01*
X160956546Y-58679004D01*
X160946812Y-58649044D01*
X160858814Y-58510381D01*
X160739097Y-58397960D01*
X160604489Y-58323958D01*
X161439150Y-57489296D01*
X161256517Y-57364779D01*
X161256516Y-57364778D01*
X161013460Y-57247730D01*
X161013462Y-57247730D01*
X160755662Y-57168209D01*
X160755656Y-57168207D01*
X160488898Y-57128000D01*
X160219101Y-57128000D01*
X159952343Y-57168207D01*
X159952337Y-57168209D01*
X159694538Y-57247730D01*
X159451485Y-57364778D01*
X159451476Y-57364783D01*
X159268848Y-57489296D01*
X160106465Y-58326913D01*
X160038371Y-58353874D01*
X159905508Y-58450405D01*
X159800825Y-58576945D01*
X159752368Y-58679920D01*
X158916295Y-57843848D01*
X158862600Y-57911180D01*
X158727709Y-58144818D01*
X158629148Y-58395947D01*
X158629142Y-58395966D01*
X158569113Y-58658971D01*
X158569113Y-58658973D01*
X158548953Y-58927995D01*
X158548953Y-58928004D01*
X158569113Y-59197026D01*
X158569113Y-59197028D01*
X158629142Y-59460033D01*
X158629148Y-59460052D01*
X158727709Y-59711181D01*
X158727708Y-59711181D01*
X158862602Y-59944822D01*
X158916294Y-60012151D01*
X158916295Y-60012151D01*
X159751452Y-59176993D01*
X159761188Y-59206956D01*
X159849186Y-59345619D01*
X159968903Y-59458040D01*
X160103510Y-59532041D01*
X159268848Y-60366702D01*
X159451483Y-60491220D01*
X159451484Y-60491221D01*
X159691446Y-60606780D01*
X159743306Y-60653602D01*
X159761619Y-60721029D01*
X159740571Y-60787653D01*
X159686845Y-60832322D01*
X159637645Y-60842500D01*
X156071508Y-60842500D01*
X156004469Y-60822815D01*
X155958714Y-60770011D01*
X155948770Y-60700853D01*
X155977795Y-60637297D01*
X156017707Y-60606780D01*
X156256767Y-60491655D01*
X156256767Y-60491654D01*
X156256775Y-60491651D01*
X156479741Y-60339635D01*
X156677561Y-60156085D01*
X156845815Y-59945102D01*
X156980743Y-59711398D01*
X157079334Y-59460195D01*
X157139383Y-59197103D01*
X157159549Y-58928000D01*
X157156466Y-58886862D01*
X157139389Y-58658973D01*
X157139383Y-58658897D01*
X157079334Y-58395805D01*
X156980743Y-58144602D01*
X156845815Y-57910898D01*
X156677561Y-57699915D01*
X156677560Y-57699914D01*
X156677557Y-57699910D01*
X156479741Y-57516365D01*
X156440038Y-57489296D01*
X156256775Y-57364349D01*
X156256769Y-57364346D01*
X156256768Y-57364345D01*
X156256767Y-57364344D01*
X156013643Y-57247263D01*
X156013645Y-57247263D01*
X155755773Y-57167720D01*
X155755767Y-57167718D01*
X155488936Y-57127500D01*
X155488929Y-57127500D01*
X155219071Y-57127500D01*
X155219063Y-57127500D01*
X154952232Y-57167718D01*
X154952226Y-57167720D01*
X154694358Y-57247262D01*
X154451230Y-57364346D01*
X154228258Y-57516365D01*
X154030442Y-57699910D01*
X153862185Y-57910898D01*
X153727258Y-58144599D01*
X153727256Y-58144603D01*
X153628666Y-58395804D01*
X153628664Y-58395811D01*
X153568616Y-58658898D01*
X153548451Y-58927995D01*
X153548451Y-58928004D01*
X153568616Y-59197101D01*
X153628664Y-59460188D01*
X153628666Y-59460195D01*
X153674901Y-59578000D01*
X153727257Y-59711398D01*
X153862185Y-59945102D01*
X153915655Y-60012151D01*
X154030442Y-60156089D01*
X154217183Y-60329358D01*
X154228259Y-60339635D01*
X154451226Y-60491651D01*
X154690294Y-60606780D01*
X154742153Y-60653602D01*
X154760466Y-60721029D01*
X154739418Y-60787653D01*
X154685692Y-60832322D01*
X154636492Y-60842500D01*
X151071508Y-60842500D01*
X151004469Y-60822815D01*
X150958714Y-60770011D01*
X150948770Y-60700853D01*
X150977795Y-60637297D01*
X151017707Y-60606780D01*
X151256767Y-60491655D01*
X151256767Y-60491654D01*
X151256775Y-60491651D01*
X151479741Y-60339635D01*
X151677561Y-60156085D01*
X151845815Y-59945102D01*
X151980743Y-59711398D01*
X152079334Y-59460195D01*
X152139383Y-59197103D01*
X152159549Y-58928000D01*
X152156466Y-58886862D01*
X152139389Y-58658973D01*
X152139383Y-58658897D01*
X152079334Y-58395805D01*
X151980743Y-58144602D01*
X151845815Y-57910898D01*
X151677561Y-57699915D01*
X151677560Y-57699914D01*
X151677557Y-57699910D01*
X151479741Y-57516365D01*
X151440038Y-57489296D01*
X151256775Y-57364349D01*
X151256769Y-57364346D01*
X151256768Y-57364345D01*
X151256767Y-57364344D01*
X151013643Y-57247263D01*
X151013645Y-57247263D01*
X150755773Y-57167720D01*
X150755767Y-57167718D01*
X150488936Y-57127500D01*
X150488929Y-57127500D01*
X150219071Y-57127500D01*
X150219063Y-57127500D01*
X149952232Y-57167718D01*
X149952226Y-57167720D01*
X149694358Y-57247262D01*
X149451230Y-57364346D01*
X149228258Y-57516365D01*
X149030442Y-57699910D01*
X148862185Y-57910898D01*
X148727258Y-58144599D01*
X148727256Y-58144603D01*
X148628666Y-58395804D01*
X148628664Y-58395811D01*
X148568616Y-58658898D01*
X148548451Y-58927995D01*
X148548451Y-58928004D01*
X148568616Y-59197101D01*
X148628664Y-59460188D01*
X148628666Y-59460195D01*
X148674901Y-59578000D01*
X148727257Y-59711398D01*
X148862185Y-59945102D01*
X148915655Y-60012151D01*
X149030442Y-60156089D01*
X149217183Y-60329358D01*
X149228259Y-60339635D01*
X149451226Y-60491651D01*
X149690294Y-60606780D01*
X149742153Y-60653602D01*
X149760466Y-60721029D01*
X149739418Y-60787653D01*
X149685692Y-60832322D01*
X149636492Y-60842500D01*
X138130341Y-60842500D01*
X138114724Y-60840776D01*
X138114697Y-60841062D01*
X138106935Y-60840327D01*
X138037807Y-60842500D01*
X138008254Y-60842500D01*
X138007533Y-60842590D01*
X138001361Y-60843369D01*
X137995549Y-60843826D01*
X137948977Y-60845290D01*
X137948976Y-60845290D01*
X137929733Y-60850881D01*
X137910683Y-60854825D01*
X137890815Y-60857334D01*
X137890813Y-60857335D01*
X137847488Y-60874488D01*
X137841961Y-60876380D01*
X137797214Y-60889381D01*
X137797213Y-60889382D01*
X137779971Y-60899579D01*
X137762503Y-60908137D01*
X137743873Y-60915513D01*
X137743871Y-60915514D01*
X137706180Y-60942898D01*
X137701298Y-60946105D01*
X137661183Y-60969830D01*
X137647012Y-60984000D01*
X137632227Y-60996628D01*
X137616016Y-61008407D01*
X137586313Y-61044310D01*
X137582381Y-61048631D01*
X131950208Y-66680803D01*
X131937951Y-66690624D01*
X131938134Y-66690845D01*
X131932123Y-66695817D01*
X131884772Y-66746240D01*
X131863889Y-66767123D01*
X131863877Y-66767136D01*
X131859621Y-66772621D01*
X131855837Y-66777051D01*
X131823937Y-66811022D01*
X131823936Y-66811024D01*
X131814284Y-66828580D01*
X131803610Y-66844830D01*
X131791329Y-66860665D01*
X131791324Y-66860672D01*
X131772815Y-66903442D01*
X131770245Y-66908688D01*
X131747803Y-66949510D01*
X131742822Y-66968911D01*
X131736521Y-66987314D01*
X131728562Y-67005706D01*
X131728561Y-67005709D01*
X131721271Y-67051731D01*
X131720087Y-67057450D01*
X131708501Y-67102576D01*
X131708500Y-67102586D01*
X131708500Y-67122620D01*
X131706973Y-67142019D01*
X131703840Y-67161798D01*
X131703840Y-67161799D01*
X131708225Y-67208187D01*
X131708500Y-67214025D01*
X131708500Y-75247312D01*
X131688815Y-75314351D01*
X131676650Y-75330284D01*
X131601466Y-75413784D01*
X131506821Y-75577715D01*
X131506818Y-75577722D01*
X131448327Y-75757740D01*
X131448326Y-75757744D01*
X131428540Y-75946000D01*
X127440887Y-75946000D01*
X127450319Y-75894933D01*
X127460212Y-75624235D01*
X127430586Y-75354982D01*
X127362072Y-75092912D01*
X127256130Y-74843610D01*
X127115018Y-74612390D01*
X127100650Y-74595125D01*
X126941746Y-74404180D01*
X126941740Y-74404175D01*
X126740002Y-74223418D01*
X126514092Y-74073957D01*
X126514090Y-74073956D01*
X126268824Y-73958980D01*
X126268819Y-73958978D01*
X126268814Y-73958976D01*
X126009442Y-73880942D01*
X126009428Y-73880939D01*
X125893791Y-73863921D01*
X125741439Y-73841500D01*
X125538369Y-73841500D01*
X125538364Y-73841500D01*
X125335844Y-73856323D01*
X125335831Y-73856325D01*
X125071453Y-73915217D01*
X125071446Y-73915220D01*
X124818439Y-74011987D01*
X124582226Y-74144557D01*
X124582224Y-74144558D01*
X124582223Y-74144559D01*
X124550137Y-74169335D01*
X124367822Y-74310112D01*
X124179822Y-74505109D01*
X124179816Y-74505116D01*
X124022202Y-74725419D01*
X124022199Y-74725424D01*
X123898350Y-74966309D01*
X123898343Y-74966327D01*
X123810884Y-75222685D01*
X123810881Y-75222699D01*
X123761681Y-75489068D01*
X123761680Y-75489075D01*
X123751787Y-75759763D01*
X117506000Y-75759763D01*
X117506000Y-75442000D01*
X118351000Y-75442000D01*
X118351000Y-74595138D01*
X118336051Y-74409968D01*
X118276740Y-74169335D01*
X118179597Y-73941332D01*
X118047133Y-73731856D01*
X117882793Y-73546354D01*
X117690816Y-73389610D01*
X117690811Y-73389606D01*
X117476185Y-73265692D01*
X117244462Y-73177811D01*
X117244450Y-73177807D01*
X117066000Y-73141376D01*
X117066000Y-74533950D01*
X117062475Y-74532100D01*
X116899781Y-74492000D01*
X116732219Y-74492000D01*
X116569525Y-74532100D01*
X116566000Y-74533950D01*
X116566000Y-73141080D01*
X116507962Y-73148128D01*
X116507955Y-73148129D01*
X116269916Y-73217079D01*
X116269908Y-73217082D01*
X116046002Y-73323325D01*
X116046000Y-73323327D01*
X115842037Y-73464113D01*
X115842036Y-73464114D01*
X115663299Y-73635792D01*
X115514415Y-73833920D01*
X115514409Y-73833931D01*
X115399237Y-74053371D01*
X115399236Y-74053375D01*
X115320754Y-74288454D01*
X115320754Y-74288455D01*
X115281000Y-74533079D01*
X115281000Y-75442000D01*
X116126000Y-75442000D01*
X116126000Y-75942000D01*
X115281000Y-75942000D01*
X115281000Y-76788862D01*
X111506500Y-76788862D01*
X111506500Y-64894500D01*
X111526185Y-64827461D01*
X111578989Y-64781706D01*
X111630500Y-64770500D01*
X129515240Y-64770500D01*
X129515383Y-64770528D01*
X129515384Y-64770524D01*
X129539997Y-64770539D01*
X129540000Y-64770541D01*
X129540383Y-64770383D01*
X129540500Y-64770099D01*
X129540541Y-64770000D01*
X129540540Y-64769997D01*
X129540583Y-64745889D01*
X129540500Y-64745467D01*
X129540500Y-56709763D01*
X131241787Y-56709763D01*
X131271413Y-56979013D01*
X131271415Y-56979024D01*
X131325057Y-57184206D01*
X131339928Y-57241088D01*
X131445870Y-57490390D01*
X131500637Y-57580129D01*
X131586979Y-57721605D01*
X131586986Y-57721615D01*
X131760253Y-57929819D01*
X131760259Y-57929824D01*
X131961998Y-58110582D01*
X132187910Y-58260044D01*
X132433176Y-58375020D01*
X132433183Y-58375022D01*
X132433185Y-58375023D01*
X132692557Y-58453057D01*
X132692564Y-58453058D01*
X132692569Y-58453060D01*
X132960561Y-58492500D01*
X132960566Y-58492500D01*
X133163636Y-58492500D01*
X133215133Y-58488730D01*
X133366156Y-58477677D01*
X133488584Y-58450405D01*
X133630546Y-58418782D01*
X133630548Y-58418781D01*
X133630553Y-58418780D01*
X133883558Y-58322014D01*
X134119777Y-58189441D01*
X134334177Y-58023888D01*
X134522186Y-57828881D01*
X134679799Y-57608579D01*
X134794405Y-57385669D01*
X134803649Y-57367690D01*
X134803651Y-57367684D01*
X134803656Y-57367675D01*
X134891118Y-57111305D01*
X134940319Y-56844933D01*
X134945259Y-56709763D01*
X170357787Y-56709763D01*
X170387413Y-56979013D01*
X170387415Y-56979024D01*
X170441057Y-57184206D01*
X170455928Y-57241088D01*
X170561870Y-57490390D01*
X170616637Y-57580129D01*
X170702979Y-57721605D01*
X170702986Y-57721615D01*
X170876253Y-57929819D01*
X170876259Y-57929824D01*
X171077998Y-58110582D01*
X171303910Y-58260044D01*
X171549176Y-58375020D01*
X171549183Y-58375022D01*
X171549185Y-58375023D01*
X171808557Y-58453057D01*
X171808564Y-58453058D01*
X171808569Y-58453060D01*
X172076561Y-58492500D01*
X172076566Y-58492500D01*
X172279636Y-58492500D01*
X172331133Y-58488730D01*
X172482156Y-58477677D01*
X172604584Y-58450405D01*
X172746546Y-58418782D01*
X172746548Y-58418781D01*
X172746553Y-58418780D01*
X172999558Y-58322014D01*
X173235777Y-58189441D01*
X173450177Y-58023888D01*
X173638186Y-57828881D01*
X173795799Y-57608579D01*
X173910405Y-57385669D01*
X173919649Y-57367690D01*
X173919651Y-57367684D01*
X173919656Y-57367675D01*
X174007118Y-57111305D01*
X174056319Y-56844933D01*
X174066212Y-56574235D01*
X174036586Y-56304982D01*
X173968072Y-56042912D01*
X173862130Y-55793610D01*
X173721018Y-55562390D01*
X173631747Y-55455119D01*
X173547746Y-55354180D01*
X173547740Y-55354175D01*
X173346002Y-55173418D01*
X173120092Y-55023957D01*
X173120090Y-55023956D01*
X172874824Y-54908980D01*
X172874819Y-54908978D01*
X172874814Y-54908976D01*
X172615442Y-54830942D01*
X172615428Y-54830939D01*
X172499791Y-54813921D01*
X172347439Y-54791500D01*
X172144369Y-54791500D01*
X172144364Y-54791500D01*
X171941844Y-54806323D01*
X171941831Y-54806325D01*
X171677453Y-54865217D01*
X171677446Y-54865220D01*
X171424439Y-54961987D01*
X171188226Y-55094557D01*
X170973822Y-55260112D01*
X170785822Y-55455109D01*
X170785816Y-55455116D01*
X170628202Y-55675419D01*
X170628199Y-55675424D01*
X170504350Y-55916309D01*
X170504343Y-55916327D01*
X170416884Y-56172685D01*
X170416881Y-56172699D01*
X170367681Y-56439068D01*
X170367680Y-56439075D01*
X170357787Y-56709763D01*
X134945259Y-56709763D01*
X134950212Y-56574235D01*
X134920586Y-56304982D01*
X134852072Y-56042912D01*
X134746130Y-55793610D01*
X134605018Y-55562390D01*
X134515747Y-55455119D01*
X134431746Y-55354180D01*
X134431740Y-55354175D01*
X134230002Y-55173418D01*
X134004092Y-55023957D01*
X134004090Y-55023956D01*
X133758824Y-54908980D01*
X133758819Y-54908978D01*
X133758814Y-54908976D01*
X133499442Y-54830942D01*
X133499428Y-54830939D01*
X133383791Y-54813921D01*
X133231439Y-54791500D01*
X133028369Y-54791500D01*
X133028364Y-54791500D01*
X132825844Y-54806323D01*
X132825831Y-54806325D01*
X132561453Y-54865217D01*
X132561446Y-54865220D01*
X132308439Y-54961987D01*
X132072226Y-55094557D01*
X131857822Y-55260112D01*
X131669822Y-55455109D01*
X131669816Y-55455116D01*
X131512202Y-55675419D01*
X131512199Y-55675424D01*
X131388350Y-55916309D01*
X131388343Y-55916327D01*
X131300884Y-56172685D01*
X131300881Y-56172699D01*
X131251681Y-56439068D01*
X131251680Y-56439075D01*
X131241787Y-56709763D01*
X129540500Y-56709763D01*
X129540500Y-53464500D01*
X129560185Y-53397461D01*
X129612989Y-53351706D01*
X129664500Y-53340500D01*
X175389500Y-53340500D01*
X175456539Y-53360185D01*
G37*
%TD.AperFunction*%
%TD*%
M02*
