%TF.GenerationSoftware,KiCad,Pcbnew,7.0.9*%
%TF.CreationDate,2024-03-18T18:38:54+01:00*%
%TF.ProjectId,esp32c3,65737033-3263-4332-9e6b-696361645f70,rev?*%
%TF.SameCoordinates,Original*%
%TF.FileFunction,Copper,L1,Top*%
%TF.FilePolarity,Positive*%
%FSLAX46Y46*%
G04 Gerber Fmt 4.6, Leading zero omitted, Abs format (unit mm)*
G04 Created by KiCad (PCBNEW 7.0.9) date 2024-03-18 18:38:54*
%MOMM*%
%LPD*%
G01*
G04 APERTURE LIST*
G04 Aperture macros list*
%AMRoundRect*
0 Rectangle with rounded corners*
0 $1 Rounding radius*
0 $2 $3 $4 $5 $6 $7 $8 $9 X,Y pos of 4 corners*
0 Add a 4 corners polygon primitive as box body*
4,1,4,$2,$3,$4,$5,$6,$7,$8,$9,$2,$3,0*
0 Add four circle primitives for the rounded corners*
1,1,$1+$1,$2,$3*
1,1,$1+$1,$4,$5*
1,1,$1+$1,$6,$7*
1,1,$1+$1,$8,$9*
0 Add four rect primitives between the rounded corners*
20,1,$1+$1,$2,$3,$4,$5,0*
20,1,$1+$1,$4,$5,$6,$7,0*
20,1,$1+$1,$6,$7,$8,$9,0*
20,1,$1+$1,$8,$9,$2,$3,0*%
G04 Aperture macros list end*
%TA.AperFunction,ComponentPad*%
%ADD10C,1.524000*%
%TD*%
%TA.AperFunction,ComponentPad*%
%ADD11C,2.600000*%
%TD*%
%TA.AperFunction,ComponentPad*%
%ADD12R,2.600000X2.600000*%
%TD*%
%TA.AperFunction,SMDPad,CuDef*%
%ADD13R,1.100000X2.800000*%
%TD*%
%TA.AperFunction,SMDPad,CuDef*%
%ADD14R,1.100000X2.600000*%
%TD*%
%TA.AperFunction,SMDPad,CuDef*%
%ADD15RoundRect,0.225000X-0.225000X-0.250000X0.225000X-0.250000X0.225000X0.250000X-0.225000X0.250000X0*%
%TD*%
%TA.AperFunction,SMDPad,CuDef*%
%ADD16RoundRect,0.200000X-0.200000X-0.275000X0.200000X-0.275000X0.200000X0.275000X-0.200000X0.275000X0*%
%TD*%
%TA.AperFunction,SMDPad,CuDef*%
%ADD17O,2.748280X1.998980*%
%TD*%
%TA.AperFunction,SMDPad,CuDef*%
%ADD18O,2.032000X1.016000*%
%TD*%
%TA.AperFunction,ComponentPad*%
%ADD19O,2.070000X4.140000*%
%TD*%
%TA.AperFunction,ViaPad*%
%ADD20C,0.800000*%
%TD*%
%TA.AperFunction,Conductor*%
%ADD21C,0.500000*%
%TD*%
%TA.AperFunction,Conductor*%
%ADD22C,0.250000*%
%TD*%
G04 APERTURE END LIST*
D10*
%TO.P,U1,1,VCC*%
%TO.N,unconnected-(U1-VCC-Pad1)*%
X165862000Y-38354000D03*
%TO.P,U1,2,GND*%
%TO.N,unconnected-(U1-GND-Pad2)*%
X163322000Y-38354000D03*
%TO.P,U1,3,SCL*%
%TO.N,unconnected-(U1-SCL-Pad3)*%
X160782000Y-38354000D03*
%TO.P,U1,4,SDA*%
%TO.N,unconnected-(U1-SDA-Pad4)*%
X158242000Y-38354000D03*
%TO.P,U1,5,CSB*%
%TO.N,unconnected-(U1-CSB-Pad5)*%
X155702000Y-38354000D03*
%TO.P,U1,6,SDO*%
%TO.N,unconnected-(U1-SDO-Pad6)*%
X153162000Y-38354000D03*
%TD*%
D11*
%TO.P,J2,4,Pin_4*%
%TO.N,Net-(J2-Pin_4)*%
X150354000Y-58928000D03*
%TO.P,J2,3,Pin_3*%
%TO.N,Net-(J2-Pin_3)*%
X155354000Y-58928000D03*
%TO.P,J2,2,Pin_2*%
%TO.N,GNDD*%
X160354000Y-58928000D03*
D12*
%TO.P,J2,1,Pin_1*%
%TO.N,+3V3*%
X165354000Y-58928000D03*
%TD*%
D13*
%TO.P,U3,1,GND*%
%TO.N,GNDD*%
X173482000Y-73152000D03*
D14*
%TO.P,U3,2,GND*%
X171482000Y-73052000D03*
%TO.P,U3,3,3.3V*%
%TO.N,+3V3*%
X169482000Y-73052000D03*
%TO.P,U3,4,RESET*%
%TO.N,Net-(U2-PA4_A1_D1)*%
X167482000Y-73052000D03*
%TO.P,U3,5,DI00*%
%TO.N,unconnected-(U3-DI00-Pad5)*%
X165482000Y-73052000D03*
%TO.P,U3,6,DI01*%
%TO.N,unconnected-(U3-DI01-Pad6)*%
X163482000Y-73052000D03*
%TO.P,U3,7,DI02*%
%TO.N,unconnected-(U3-DI02-Pad7)*%
X161482000Y-73052000D03*
%TO.P,U3,8,DI03*%
%TO.N,unconnected-(U3-DI03-Pad8)*%
X159482000Y-73052000D03*
%TO.P,U3,9,GND*%
%TO.N,GNDD*%
X159482000Y-88452000D03*
%TO.P,U3,10,DI04*%
%TO.N,unconnected-(U3-DI04-Pad10)*%
X161482000Y-88452000D03*
%TO.P,U3,11,DI05*%
%TO.N,unconnected-(U3-DI05-Pad11)*%
X163482000Y-88452000D03*
%TO.P,U3,12,SCK*%
%TO.N,Net-(U2-PA7_A8_D8_SCK)*%
X165482000Y-88452000D03*
%TO.P,U3,13,MISO*%
%TO.N,Net-(U2-PA6_A10_D10_MOSI)*%
X167482000Y-88452000D03*
%TO.P,U3,14,MOSI*%
%TO.N,Net-(U2-PA5_A9_D9_MISO)*%
X169482000Y-88452000D03*
%TO.P,U3,15,NSS*%
%TO.N,Net-(U2-PA02_A0_D0)*%
X171482000Y-88452000D03*
%TO.P,U3,16,GND*%
%TO.N,GNDD*%
X173482000Y-88452000D03*
%TD*%
D15*
%TO.P,C2,1*%
%TO.N,+3V3*%
X170662000Y-69820000D03*
%TO.P,C2,2*%
%TO.N,GNDD*%
X172212000Y-69820000D03*
%TD*%
D16*
%TO.P,R1,1*%
%TO.N,+5V*%
X143256000Y-93980000D03*
%TO.P,R1,2*%
%TO.N,Net-(U2-PA10_A2_D2)*%
X144906000Y-93980000D03*
%TD*%
%TO.P,R2,1*%
%TO.N,Net-(U2-PA10_A2_D2)*%
X147320000Y-93980000D03*
%TO.P,R2,2*%
%TO.N,GNDD*%
X148970000Y-93980000D03*
%TD*%
D17*
%TO.P,U2,1,PA02_A0_D0*%
%TO.N,Net-(U2-PA02_A0_D0)*%
X136743440Y-73406000D03*
%TO.P,U2,2,PA4_A1_D1*%
%TO.N,Net-(U2-PA4_A1_D1)*%
X136743440Y-75946000D03*
%TO.P,U2,3,PA10_A2_D2*%
%TO.N,Net-(U2-PA10_A2_D2)*%
X136743440Y-78486000D03*
%TO.P,U2,4,PA11_A3_D3*%
%TO.N,unconnected-(U2-PA11_A3_D3-Pad4)*%
X136743440Y-81026000D03*
%TO.P,U2,5,PA8_A4_D4_SDA*%
%TO.N,Net-(J2-Pin_4)*%
X136743440Y-83566000D03*
%TO.P,U2,6,PA9_A5_D5_SCL*%
%TO.N,Net-(J2-Pin_3)*%
X136743440Y-86106000D03*
%TO.P,U2,7,PB08_A6_D6_TX*%
%TO.N,unconnected-(U2-PB08_A6_D6_TX-Pad7)*%
X136743440Y-88646000D03*
%TO.P,U2,8,PB09_A7_D7_RX*%
%TO.N,unconnected-(U2-PB09_A7_D7_RX-Pad8)*%
X152908000Y-88646000D03*
%TO.P,U2,9,PA7_A8_D8_SCK*%
%TO.N,Net-(U2-PA7_A8_D8_SCK)*%
X152908000Y-86106000D03*
%TO.P,U2,10,PA5_A9_D9_MISO*%
%TO.N,Net-(U2-PA5_A9_D9_MISO)*%
X152908000Y-83566000D03*
%TO.P,U2,11,PA6_A10_D10_MOSI*%
%TO.N,Net-(U2-PA6_A10_D10_MOSI)*%
X152908000Y-81026000D03*
%TO.P,U2,12,3V3*%
%TO.N,+3V3*%
X152908000Y-78486000D03*
%TO.P,U2,13,GND*%
%TO.N,GNDD*%
X152908000Y-75946000D03*
%TO.P,U2,14,5V*%
%TO.N,unconnected-(U2-5V-Pad14)*%
X152908000Y-73406000D03*
D18*
%TO.P,U2,15,5V*%
%TO.N,+5V*%
X140228320Y-80601820D03*
%TO.P,U2,16,GND*%
%TO.N,GNDD*%
X140228320Y-78823820D03*
%TD*%
D15*
%TO.P,C1,1*%
%TO.N,+3V3*%
X170675000Y-67818000D03*
%TO.P,C1,2*%
%TO.N,GNDD*%
X172225000Y-67818000D03*
%TD*%
D19*
%TO.P,BT1,+*%
%TO.N,+5V*%
X189716000Y-75692000D03*
%TO.P,BT1,-*%
%TO.N,GNDD*%
X116816000Y-75692000D03*
%TD*%
D20*
%TO.N,GNDD*%
X156210000Y-88138000D03*
X145796000Y-80772000D03*
X169926000Y-66294000D03*
X154940000Y-75946000D03*
%TO.N,Net-(J2-Pin_3)*%
X134112000Y-85344000D03*
X155194000Y-62484000D03*
%TO.N,Net-(J2-Pin_4)*%
X152654000Y-62484000D03*
X133096000Y-82296000D03*
%TO.N,Net-(U2-PA02_A0_D0)*%
X150876000Y-90424000D03*
X139954000Y-90424000D03*
%TO.N,Net-(U2-PA4_A1_D1)*%
X165100000Y-65278000D03*
X132334000Y-75946000D03*
%TO.N,Net-(U2-PA5_A9_D9_MISO)*%
X163322000Y-83566000D03*
X165862000Y-83566000D03*
%TO.N,+5V*%
X145288000Y-83566000D03*
%TO.N,GNDD*%
X142748000Y-80518000D03*
X146431000Y-89535000D03*
%TD*%
D21*
%TO.N,GNDD*%
X148970000Y-92074000D02*
X148970000Y-93980000D01*
X146431000Y-89535000D02*
X148970000Y-92074000D01*
X171582000Y-73152000D02*
X171482000Y-73052000D01*
D22*
%TO.N,Net-(U2-PA4_A1_D1)*%
X133096000Y-76708000D02*
X132334000Y-75946000D01*
X135981440Y-76708000D02*
X133096000Y-76708000D01*
X136743440Y-75946000D02*
X135981440Y-76708000D01*
%TO.N,Net-(J2-Pin_4)*%
X152654000Y-61228000D02*
X150354000Y-58928000D01*
%TO.N,Net-(J2-Pin_3)*%
X155354000Y-62324000D02*
X155354000Y-58928000D01*
X155194000Y-62484000D02*
X155354000Y-62324000D01*
D21*
%TO.N,+3V3*%
X165354000Y-60198000D02*
X165354000Y-58928000D01*
X161290000Y-64262000D02*
X165354000Y-60198000D01*
%TO.N,GNDD*%
X163402000Y-55880000D02*
X160354000Y-58928000D01*
X166878000Y-55880000D02*
X163402000Y-55880000D01*
%TO.N,Net-(U2-PA10_A2_D2)*%
X147066000Y-85344000D02*
X147066000Y-80010000D01*
X137363620Y-77865820D02*
X136743440Y-78486000D01*
X145200000Y-87210000D02*
X147066000Y-85344000D01*
X139446000Y-76962000D02*
X138542180Y-77865820D01*
X147066000Y-80010000D02*
X144018000Y-76962000D01*
X144018000Y-76962000D02*
X139446000Y-76962000D01*
X145200000Y-91352000D02*
X145200000Y-87210000D01*
X145200000Y-91352000D02*
X144906000Y-91646000D01*
X144906000Y-91646000D02*
X144906000Y-93980000D01*
X138542180Y-77865820D02*
X137363620Y-77865820D01*
X145200000Y-91352000D02*
X147320000Y-93472000D01*
X147320000Y-93472000D02*
X147320000Y-93980000D01*
%TO.N,GNDD*%
X168148000Y-60960000D02*
X168148000Y-57150000D01*
X172720000Y-66294000D02*
X173482000Y-67056000D01*
X173482000Y-69088000D02*
X173482000Y-67056000D01*
X154686000Y-75946000D02*
X154940000Y-75946000D01*
D22*
X173482000Y-69075000D02*
X173482000Y-69088000D01*
D21*
X171704000Y-64516000D02*
X168148000Y-60960000D01*
X169926000Y-66294000D02*
X170942000Y-66294000D01*
X170942000Y-66294000D02*
X171704000Y-65532000D01*
X168148000Y-57150000D02*
X166878000Y-55880000D01*
X171704000Y-65532000D02*
X171704000Y-64516000D01*
X173482000Y-71120000D02*
X173482000Y-69088000D01*
X172225000Y-67818000D02*
X173482000Y-69075000D01*
D22*
X172212000Y-69820000D02*
X172212000Y-69850000D01*
D21*
X172212000Y-69850000D02*
X173482000Y-71120000D01*
X170942000Y-66294000D02*
X172720000Y-66294000D01*
X152908000Y-75946000D02*
X154686000Y-75946000D01*
X173482000Y-73152000D02*
X173482000Y-71120000D01*
%TO.N,+3V3*%
X161290000Y-64262000D02*
X156972000Y-68580000D01*
X170528000Y-69820000D02*
X169482000Y-70866000D01*
X155702000Y-78486000D02*
X156972000Y-77216000D01*
X169482000Y-69088000D02*
X169482000Y-67374000D01*
X169482000Y-70866000D02*
X169482000Y-69088000D01*
X156972000Y-77216000D02*
X156972000Y-69342000D01*
X156972000Y-69342000D02*
X156972000Y-68580000D01*
X169482000Y-67374000D02*
X166370000Y-64262000D01*
D22*
X169482000Y-69011000D02*
X169482000Y-69088000D01*
X170662000Y-69820000D02*
X170528000Y-69820000D01*
D21*
X170675000Y-67818000D02*
X169482000Y-69011000D01*
X166370000Y-64262000D02*
X161290000Y-64262000D01*
X169482000Y-73052000D02*
X169482000Y-70866000D01*
X152908000Y-78486000D02*
X155702000Y-78486000D01*
D22*
%TO.N,Net-(J2-Pin_3)*%
X136743440Y-86106000D02*
X134874000Y-86106000D01*
X134874000Y-86106000D02*
X134112000Y-85344000D01*
%TO.N,Net-(J2-Pin_4)*%
X152654000Y-62484000D02*
X152654000Y-61228000D01*
X134366000Y-83566000D02*
X133096000Y-82296000D01*
X136743440Y-83566000D02*
X134366000Y-83566000D01*
%TO.N,Net-(U2-PA02_A0_D0)*%
X133350000Y-73406000D02*
X131318000Y-75438000D01*
X170260000Y-90424000D02*
X171482000Y-89202000D01*
X135128000Y-90424000D02*
X139954000Y-90424000D01*
X131318000Y-75438000D02*
X131318000Y-86614000D01*
X136743440Y-73406000D02*
X133350000Y-73406000D01*
X131318000Y-86614000D02*
X135128000Y-90424000D01*
X150876000Y-90424000D02*
X170260000Y-90424000D01*
X171482000Y-89202000D02*
X171482000Y-88452000D01*
%TO.N,Net-(U2-PA4_A1_D1)*%
X167482000Y-67660000D02*
X167482000Y-73052000D01*
X165100000Y-65278000D02*
X167482000Y-67660000D01*
%TO.N,Net-(U2-PA7_A8_D8_SCK)*%
X165482000Y-86488000D02*
X165482000Y-88452000D01*
X152908000Y-86106000D02*
X165100000Y-86106000D01*
X165100000Y-86106000D02*
X165482000Y-86488000D01*
%TO.N,Net-(U2-PA5_A9_D9_MISO)*%
X152908000Y-83566000D02*
X163322000Y-83566000D01*
X165862000Y-83566000D02*
X166624000Y-83566000D01*
X166624000Y-83566000D02*
X169482000Y-86424000D01*
X169482000Y-86424000D02*
X169482000Y-88452000D01*
%TO.N,Net-(U2-PA6_A10_D10_MOSI)*%
X167482000Y-86444000D02*
X167482000Y-88452000D01*
X162064000Y-81026000D02*
X167482000Y-86444000D01*
X152908000Y-81026000D02*
X162064000Y-81026000D01*
D21*
%TO.N,+5V*%
X143256000Y-83629500D02*
X143192500Y-83566000D01*
X145288000Y-83566000D02*
X143192500Y-83566000D01*
X143192500Y-83566000D02*
X140228320Y-80601820D01*
X143256000Y-93980000D02*
X143256000Y-83629500D01*
%TO.N,GNDD*%
X142748000Y-80518000D02*
X141053820Y-78823820D01*
X141053820Y-78823820D02*
X140228320Y-78823820D01*
X140143503Y-78823820D02*
X140228320Y-78823820D01*
%TD*%
%TA.AperFunction,Conductor*%
%TO.N,GNDD*%
G36*
X143722809Y-77732185D02*
G01*
X143743451Y-77748819D01*
X146279181Y-80284549D01*
X146312666Y-80345872D01*
X146315500Y-80372230D01*
X146315500Y-83081908D01*
X146295815Y-83148947D01*
X146243011Y-83194702D01*
X146173853Y-83204646D01*
X146110297Y-83175621D01*
X146084113Y-83143908D01*
X146083808Y-83143379D01*
X146020533Y-83033784D01*
X145893871Y-82893112D01*
X145893870Y-82893111D01*
X145740734Y-82781851D01*
X145740729Y-82781848D01*
X145567807Y-82704857D01*
X145567802Y-82704855D01*
X145422001Y-82673865D01*
X145382646Y-82665500D01*
X145193354Y-82665500D01*
X145160897Y-82672398D01*
X145008197Y-82704855D01*
X145008192Y-82704857D01*
X144835270Y-82781848D01*
X144835265Y-82781851D01*
X144821548Y-82791818D01*
X144755742Y-82815298D01*
X144748663Y-82815500D01*
X143554729Y-82815500D01*
X143487690Y-82795815D01*
X143467048Y-82779181D01*
X141726262Y-81038394D01*
X141692777Y-80977071D01*
X141695283Y-80914717D01*
X141730228Y-80799521D01*
X141749700Y-80601820D01*
X141730228Y-80404119D01*
X141672561Y-80214016D01*
X141672559Y-80214013D01*
X141672559Y-80214011D01*
X141578918Y-80038821D01*
X141578914Y-80038814D01*
X141452888Y-79885251D01*
X141359181Y-79808348D01*
X141319847Y-79750602D01*
X141317976Y-79680758D01*
X141354164Y-79620990D01*
X141359182Y-79616641D01*
X141452532Y-79540031D01*
X141578494Y-79386545D01*
X141578499Y-79386538D01*
X141672094Y-79211435D01*
X141713839Y-79073820D01*
X140102320Y-79073820D01*
X140035281Y-79054135D01*
X139989526Y-79001331D01*
X139978320Y-78949820D01*
X139978320Y-78697820D01*
X139998005Y-78630781D01*
X140050809Y-78585026D01*
X140102320Y-78573820D01*
X141713839Y-78573820D01*
X141713839Y-78573819D01*
X141672094Y-78436204D01*
X141578499Y-78261101D01*
X141578494Y-78261094D01*
X141452532Y-78107607D01*
X141299045Y-77981645D01*
X141299038Y-77981639D01*
X141232095Y-77945858D01*
X141182250Y-77896896D01*
X141166790Y-77828758D01*
X141190622Y-77763078D01*
X141246179Y-77720710D01*
X141290548Y-77712500D01*
X143655770Y-77712500D01*
X143722809Y-77732185D01*
G37*
%TD.AperFunction*%
%TA.AperFunction,Conductor*%
G36*
X158444114Y-86751185D02*
G01*
X158489869Y-86803989D01*
X158499813Y-86873147D01*
X158490499Y-86901136D01*
X158491746Y-86901601D01*
X158438403Y-87044620D01*
X158438401Y-87044627D01*
X158432000Y-87104155D01*
X158432000Y-88202000D01*
X159608000Y-88202000D01*
X159675039Y-88221685D01*
X159720794Y-88274489D01*
X159732000Y-88326000D01*
X159732000Y-88578000D01*
X159712315Y-88645039D01*
X159659511Y-88690794D01*
X159608000Y-88702000D01*
X158432000Y-88702000D01*
X158432000Y-89674500D01*
X158412315Y-89741539D01*
X158359511Y-89787294D01*
X158308000Y-89798500D01*
X154540059Y-89798500D01*
X154473020Y-89778815D01*
X154427265Y-89726011D01*
X154417321Y-89656853D01*
X154442205Y-89598338D01*
X154469822Y-89562856D01*
X154542695Y-89469229D01*
X154661009Y-89250604D01*
X154741724Y-89015488D01*
X154782640Y-88770293D01*
X154782640Y-88521707D01*
X154741724Y-88276512D01*
X154661009Y-88041396D01*
X154542695Y-87822771D01*
X154390011Y-87626603D01*
X154216885Y-87467228D01*
X154180895Y-87407342D01*
X154182996Y-87337504D01*
X154216884Y-87284771D01*
X154390011Y-87125397D01*
X154542695Y-86929229D01*
X154614534Y-86796481D01*
X154663754Y-86746892D01*
X154723589Y-86731500D01*
X158377075Y-86731500D01*
X158444114Y-86751185D01*
G37*
%TD.AperFunction*%
%TA.AperFunction,Conductor*%
G36*
X175456539Y-53360185D02*
G01*
X175502294Y-53412989D01*
X175513500Y-53464500D01*
X175513500Y-64745467D01*
X175513416Y-64745889D01*
X175513459Y-64770001D01*
X175513500Y-64770099D01*
X175513616Y-64770382D01*
X175513618Y-64770384D01*
X175513808Y-64770462D01*
X175514000Y-64770541D01*
X175514002Y-64770539D01*
X175538616Y-64770524D01*
X175538616Y-64770528D01*
X175538760Y-64770500D01*
X195201500Y-64770500D01*
X195268539Y-64790185D01*
X195314294Y-64842989D01*
X195325500Y-64894500D01*
X195325500Y-86489500D01*
X195305815Y-86556539D01*
X195253011Y-86602294D01*
X195201500Y-86613500D01*
X175538760Y-86613500D01*
X175538554Y-86613459D01*
X175514000Y-86613459D01*
X175513901Y-86613500D01*
X175513617Y-86613616D01*
X175513615Y-86613618D01*
X175513459Y-86613999D01*
X175513476Y-86638616D01*
X175513471Y-86638616D01*
X175513500Y-86638759D01*
X175513500Y-96395500D01*
X175493815Y-96462539D01*
X175441011Y-96508294D01*
X175389500Y-96519500D01*
X129918500Y-96519500D01*
X129851461Y-96499815D01*
X129805706Y-96447011D01*
X129794500Y-96395500D01*
X129794500Y-93285763D01*
X131241787Y-93285763D01*
X131271413Y-93555013D01*
X131271415Y-93555024D01*
X131317160Y-93730000D01*
X131339928Y-93817088D01*
X131445870Y-94066390D01*
X131517998Y-94184575D01*
X131586979Y-94297605D01*
X131586986Y-94297615D01*
X131760253Y-94505819D01*
X131760259Y-94505824D01*
X131865240Y-94599887D01*
X131961998Y-94686582D01*
X132187910Y-94836044D01*
X132433176Y-94951020D01*
X132433183Y-94951022D01*
X132433185Y-94951023D01*
X132692557Y-95029057D01*
X132692564Y-95029058D01*
X132692569Y-95029060D01*
X132960561Y-95068500D01*
X132960566Y-95068500D01*
X133163636Y-95068500D01*
X133215133Y-95064730D01*
X133366156Y-95053677D01*
X133478758Y-95028593D01*
X133630546Y-94994782D01*
X133630548Y-94994781D01*
X133630553Y-94994780D01*
X133883558Y-94898014D01*
X134119777Y-94765441D01*
X134334177Y-94599888D01*
X134522186Y-94404881D01*
X134679799Y-94184579D01*
X134753787Y-94040669D01*
X134803649Y-93943690D01*
X134803651Y-93943684D01*
X134803656Y-93943675D01*
X134891118Y-93687305D01*
X134940319Y-93420933D01*
X134950212Y-93150235D01*
X134920586Y-92880982D01*
X134852072Y-92618912D01*
X134746130Y-92369610D01*
X134605018Y-92138390D01*
X134515747Y-92031119D01*
X134431746Y-91930180D01*
X134431740Y-91930175D01*
X134230002Y-91749418D01*
X134004092Y-91599957D01*
X133938746Y-91569324D01*
X133758824Y-91484980D01*
X133758819Y-91484978D01*
X133758814Y-91484976D01*
X133499442Y-91406942D01*
X133499428Y-91406939D01*
X133383791Y-91389921D01*
X133231439Y-91367500D01*
X133028369Y-91367500D01*
X133028364Y-91367500D01*
X132825844Y-91382323D01*
X132825831Y-91382325D01*
X132561453Y-91441217D01*
X132561446Y-91441220D01*
X132308439Y-91537987D01*
X132072226Y-91670557D01*
X131857822Y-91836112D01*
X131669822Y-92031109D01*
X131669816Y-92031116D01*
X131512202Y-92251419D01*
X131512199Y-92251424D01*
X131388350Y-92492309D01*
X131388343Y-92492327D01*
X131300884Y-92748685D01*
X131300882Y-92748695D01*
X131253541Y-93005000D01*
X131251681Y-93015068D01*
X131251680Y-93015075D01*
X131241787Y-93285763D01*
X129794500Y-93285763D01*
X129794500Y-86638759D01*
X129794528Y-86638616D01*
X129794524Y-86638616D01*
X129794539Y-86614002D01*
X129794541Y-86614000D01*
X129794462Y-86613808D01*
X129794384Y-86613618D01*
X129794382Y-86613616D01*
X129794099Y-86613500D01*
X129794000Y-86613459D01*
X129769446Y-86613459D01*
X129769240Y-86613500D01*
X111630500Y-86613500D01*
X111563461Y-86593815D01*
X111517706Y-86541011D01*
X111506500Y-86489500D01*
X111506500Y-76788862D01*
X115281000Y-76788862D01*
X115295948Y-76974031D01*
X115355259Y-77214664D01*
X115452402Y-77442667D01*
X115584866Y-77652143D01*
X115749206Y-77837645D01*
X115941183Y-77994389D01*
X115941188Y-77994393D01*
X116155814Y-78118307D01*
X116387549Y-78206192D01*
X116387548Y-78206192D01*
X116566000Y-78242622D01*
X116566000Y-76850049D01*
X116569525Y-76851900D01*
X116732219Y-76892000D01*
X116899781Y-76892000D01*
X117062475Y-76851900D01*
X117066000Y-76850049D01*
X117066000Y-78242919D01*
X117124030Y-78235873D01*
X117124036Y-78235871D01*
X117362083Y-78166920D01*
X117362091Y-78166917D01*
X117585997Y-78060674D01*
X117585999Y-78060672D01*
X117789962Y-77919886D01*
X117789963Y-77919885D01*
X117968700Y-77748207D01*
X118117584Y-77550079D01*
X118117590Y-77550068D01*
X118232762Y-77330628D01*
X118232763Y-77330624D01*
X118311245Y-77095545D01*
X118311245Y-77095544D01*
X118350999Y-76850920D01*
X118351000Y-76850919D01*
X118351000Y-75942000D01*
X117506000Y-75942000D01*
X117506000Y-75759763D01*
X123751787Y-75759763D01*
X123781413Y-76029013D01*
X123781415Y-76029024D01*
X123849926Y-76291082D01*
X123849928Y-76291088D01*
X123955870Y-76540390D01*
X124027998Y-76658575D01*
X124096979Y-76771605D01*
X124096986Y-76771615D01*
X124270253Y-76979819D01*
X124270259Y-76979824D01*
X124471998Y-77160582D01*
X124697910Y-77310044D01*
X124943176Y-77425020D01*
X124943183Y-77425022D01*
X124943185Y-77425023D01*
X125202557Y-77503057D01*
X125202564Y-77503058D01*
X125202569Y-77503060D01*
X125470561Y-77542500D01*
X125470566Y-77542500D01*
X125673636Y-77542500D01*
X125725133Y-77538730D01*
X125876156Y-77527677D01*
X125988758Y-77502593D01*
X126140546Y-77468782D01*
X126140548Y-77468781D01*
X126140553Y-77468780D01*
X126393558Y-77372014D01*
X126629777Y-77239441D01*
X126844177Y-77073888D01*
X127032186Y-76878881D01*
X127189799Y-76658579D01*
X127283484Y-76476361D01*
X127313649Y-76417690D01*
X127313651Y-76417684D01*
X127313656Y-76417675D01*
X127401118Y-76161305D01*
X127450319Y-75894933D01*
X127460212Y-75624235D01*
X127437541Y-75418195D01*
X130687840Y-75418195D01*
X130692225Y-75464583D01*
X130692500Y-75470421D01*
X130692500Y-86531255D01*
X130690775Y-86546872D01*
X130691061Y-86546899D01*
X130690326Y-86554665D01*
X130692500Y-86623814D01*
X130692500Y-86653343D01*
X130692501Y-86653360D01*
X130693368Y-86660231D01*
X130693826Y-86666050D01*
X130695290Y-86712624D01*
X130695291Y-86712627D01*
X130700880Y-86731867D01*
X130704824Y-86750911D01*
X130707336Y-86770792D01*
X130724174Y-86813321D01*
X130724490Y-86814119D01*
X130726382Y-86819647D01*
X130739381Y-86864388D01*
X130749580Y-86881634D01*
X130758136Y-86899100D01*
X130762415Y-86909906D01*
X130765514Y-86917732D01*
X130792898Y-86955423D01*
X130796106Y-86960307D01*
X130819827Y-87000416D01*
X130819833Y-87000424D01*
X130833990Y-87014580D01*
X130846628Y-87029376D01*
X130858405Y-87045586D01*
X130858406Y-87045587D01*
X130894309Y-87075288D01*
X130898620Y-87079210D01*
X132819963Y-89000553D01*
X134627194Y-90807784D01*
X134637019Y-90820048D01*
X134637240Y-90819866D01*
X134642210Y-90825873D01*
X134642213Y-90825876D01*
X134642214Y-90825877D01*
X134692651Y-90873241D01*
X134713530Y-90894120D01*
X134719004Y-90898366D01*
X134723442Y-90902156D01*
X134757418Y-90934062D01*
X134757422Y-90934064D01*
X134774973Y-90943713D01*
X134791231Y-90954392D01*
X134807064Y-90966674D01*
X134829015Y-90976172D01*
X134849837Y-90985183D01*
X134855081Y-90987752D01*
X134895908Y-91010197D01*
X134915312Y-91015179D01*
X134933710Y-91021478D01*
X134952105Y-91029438D01*
X134998129Y-91036726D01*
X135003832Y-91037907D01*
X135048981Y-91049500D01*
X135069016Y-91049500D01*
X135088413Y-91051026D01*
X135108196Y-91054160D01*
X135154584Y-91049775D01*
X135160422Y-91049500D01*
X139250252Y-91049500D01*
X139317291Y-91069185D01*
X139342400Y-91090526D01*
X139348126Y-91096885D01*
X139348130Y-91096889D01*
X139501265Y-91208148D01*
X139501270Y-91208151D01*
X139674192Y-91285142D01*
X139674197Y-91285144D01*
X139859354Y-91324500D01*
X139859355Y-91324500D01*
X140048644Y-91324500D01*
X140048646Y-91324500D01*
X140233803Y-91285144D01*
X140406730Y-91208151D01*
X140559871Y-91096888D01*
X140686533Y-90956216D01*
X140781179Y-90792284D01*
X140839674Y-90612256D01*
X140859460Y-90424000D01*
X140839674Y-90235744D01*
X140781179Y-90055716D01*
X140686533Y-89891784D01*
X140559871Y-89751112D01*
X140559870Y-89751111D01*
X140406734Y-89639851D01*
X140406729Y-89639848D01*
X140233807Y-89562857D01*
X140233802Y-89562855D01*
X140088001Y-89531865D01*
X140048646Y-89523500D01*
X139859354Y-89523500D01*
X139826897Y-89530398D01*
X139674197Y-89562855D01*
X139674192Y-89562857D01*
X139501270Y-89639848D01*
X139501265Y-89639851D01*
X139348130Y-89751110D01*
X139348126Y-89751114D01*
X139342400Y-89757474D01*
X139282913Y-89794121D01*
X139250252Y-89798500D01*
X138375499Y-89798500D01*
X138308460Y-89778815D01*
X138262705Y-89726011D01*
X138252761Y-89656853D01*
X138277645Y-89598338D01*
X138305262Y-89562856D01*
X138378135Y-89469229D01*
X138496449Y-89250604D01*
X138577164Y-89015488D01*
X138618080Y-88770293D01*
X138618080Y-88521707D01*
X138577164Y-88276512D01*
X138496449Y-88041396D01*
X138378135Y-87822771D01*
X138225451Y-87626603D01*
X138052325Y-87467228D01*
X138016335Y-87407342D01*
X138018436Y-87337504D01*
X138052324Y-87284771D01*
X138225451Y-87125397D01*
X138378135Y-86929229D01*
X138496449Y-86710604D01*
X138577164Y-86475488D01*
X138618080Y-86230293D01*
X138618080Y-85981707D01*
X138577164Y-85736512D01*
X138568931Y-85712531D01*
X138496450Y-85501399D01*
X138496448Y-85501394D01*
X138378135Y-85282771D01*
X138378131Y-85282766D01*
X138225456Y-85086609D01*
X138225453Y-85086605D01*
X138225451Y-85086603D01*
X138052325Y-84927228D01*
X138016335Y-84867342D01*
X138018436Y-84797504D01*
X138052324Y-84744771D01*
X138225451Y-84585397D01*
X138378135Y-84389229D01*
X138496449Y-84170604D01*
X138577164Y-83935488D01*
X138618080Y-83690293D01*
X138618080Y-83441707D01*
X138577164Y-83196512D01*
X138577163Y-83196506D01*
X138577161Y-83196500D01*
X138496450Y-82961399D01*
X138496448Y-82961394D01*
X138378135Y-82742771D01*
X138378131Y-82742766D01*
X138348624Y-82704856D01*
X138340397Y-82694285D01*
X138225456Y-82546609D01*
X138225453Y-82546605D01*
X138225451Y-82546603D01*
X138052325Y-82387228D01*
X138016335Y-82327342D01*
X138018436Y-82257504D01*
X138052324Y-82204771D01*
X138225451Y-82045397D01*
X138378135Y-81849229D01*
X138496449Y-81630604D01*
X138577164Y-81395488D01*
X138618050Y-81150467D01*
X138648500Y-81087584D01*
X138708115Y-81051145D01*
X138777967Y-81052720D01*
X138835879Y-81091810D01*
X138849717Y-81112426D01*
X138877721Y-81164818D01*
X138877725Y-81164825D01*
X139003751Y-81318388D01*
X139157314Y-81444414D01*
X139157321Y-81444418D01*
X139332511Y-81538059D01*
X139332513Y-81538059D01*
X139332516Y-81538061D01*
X139522619Y-81595728D01*
X139522618Y-81595728D01*
X139559657Y-81599376D01*
X139670773Y-81610320D01*
X140124090Y-81610320D01*
X140191129Y-81630005D01*
X140211771Y-81646639D01*
X142469181Y-83904048D01*
X142502666Y-83965371D01*
X142505500Y-83991729D01*
X142505500Y-93227023D01*
X142487617Y-93291173D01*
X142412522Y-93415393D01*
X142361913Y-93577807D01*
X142355500Y-93648386D01*
X142355500Y-94311613D01*
X142361913Y-94382192D01*
X142361913Y-94382194D01*
X142361914Y-94382196D01*
X142412522Y-94544606D01*
X142494058Y-94679483D01*
X142500530Y-94690188D01*
X142620811Y-94810469D01*
X142620813Y-94810470D01*
X142620815Y-94810472D01*
X142766394Y-94898478D01*
X142928804Y-94949086D01*
X142999384Y-94955500D01*
X142999387Y-94955500D01*
X143512613Y-94955500D01*
X143512616Y-94955500D01*
X143583196Y-94949086D01*
X143745606Y-94898478D01*
X143891185Y-94810472D01*
X143936216Y-94765441D01*
X143993319Y-94708339D01*
X144054642Y-94674854D01*
X144124334Y-94679838D01*
X144168681Y-94708339D01*
X144270811Y-94810469D01*
X144270813Y-94810470D01*
X144270815Y-94810472D01*
X144416394Y-94898478D01*
X144578804Y-94949086D01*
X144649384Y-94955500D01*
X144649387Y-94955500D01*
X145162613Y-94955500D01*
X145162616Y-94955500D01*
X145233196Y-94949086D01*
X145395606Y-94898478D01*
X145541185Y-94810472D01*
X145661472Y-94690185D01*
X145749478Y-94544606D01*
X145800086Y-94382196D01*
X145806500Y-94311616D01*
X145806500Y-93648384D01*
X145800086Y-93577804D01*
X145749478Y-93415394D01*
X145674382Y-93291171D01*
X145656500Y-93227023D01*
X145656500Y-93169230D01*
X145676185Y-93102191D01*
X145728989Y-93056436D01*
X145798147Y-93046492D01*
X145861703Y-93075517D01*
X145868181Y-93081549D01*
X146383181Y-93596549D01*
X146416666Y-93657872D01*
X146419500Y-93684230D01*
X146419500Y-94311613D01*
X146425913Y-94382192D01*
X146425913Y-94382194D01*
X146425914Y-94382196D01*
X146476522Y-94544606D01*
X146558058Y-94679483D01*
X146564530Y-94690188D01*
X146684811Y-94810469D01*
X146684813Y-94810470D01*
X146684815Y-94810472D01*
X146830394Y-94898478D01*
X146992804Y-94949086D01*
X147063384Y-94955500D01*
X147063387Y-94955500D01*
X147576613Y-94955500D01*
X147576616Y-94955500D01*
X147647196Y-94949086D01*
X147809606Y-94898478D01*
X147955185Y-94810472D01*
X148057673Y-94707983D01*
X148118994Y-94674499D01*
X148188685Y-94679483D01*
X148233034Y-94707984D01*
X148335122Y-94810072D01*
X148480604Y-94898019D01*
X148480603Y-94898019D01*
X148642894Y-94948590D01*
X148642893Y-94948590D01*
X148713408Y-94954998D01*
X148713426Y-94954999D01*
X148719999Y-94954998D01*
X148720000Y-94954998D01*
X148720000Y-94230000D01*
X149220000Y-94230000D01*
X149220000Y-94954999D01*
X149226581Y-94954999D01*
X149297102Y-94948591D01*
X149297107Y-94948590D01*
X149459396Y-94898018D01*
X149604877Y-94810072D01*
X149725072Y-94689877D01*
X149813019Y-94544395D01*
X149863590Y-94382106D01*
X149870000Y-94311572D01*
X149870000Y-94230000D01*
X149220000Y-94230000D01*
X148720000Y-94230000D01*
X148720000Y-93005000D01*
X149220000Y-93005000D01*
X149220000Y-93730000D01*
X149869999Y-93730000D01*
X149869999Y-93648417D01*
X149863591Y-93577897D01*
X149863590Y-93577892D01*
X149813018Y-93415603D01*
X149734527Y-93285763D01*
X170357787Y-93285763D01*
X170387413Y-93555013D01*
X170387415Y-93555024D01*
X170433160Y-93730000D01*
X170455928Y-93817088D01*
X170561870Y-94066390D01*
X170633998Y-94184575D01*
X170702979Y-94297605D01*
X170702986Y-94297615D01*
X170876253Y-94505819D01*
X170876259Y-94505824D01*
X170981240Y-94599887D01*
X171077998Y-94686582D01*
X171303910Y-94836044D01*
X171549176Y-94951020D01*
X171549183Y-94951022D01*
X171549185Y-94951023D01*
X171808557Y-95029057D01*
X171808564Y-95029058D01*
X171808569Y-95029060D01*
X172076561Y-95068500D01*
X172076566Y-95068500D01*
X172279636Y-95068500D01*
X172331133Y-95064730D01*
X172482156Y-95053677D01*
X172594758Y-95028593D01*
X172746546Y-94994782D01*
X172746548Y-94994781D01*
X172746553Y-94994780D01*
X172999558Y-94898014D01*
X173235777Y-94765441D01*
X173450177Y-94599888D01*
X173638186Y-94404881D01*
X173795799Y-94184579D01*
X173869787Y-94040669D01*
X173919649Y-93943690D01*
X173919651Y-93943684D01*
X173919656Y-93943675D01*
X174007118Y-93687305D01*
X174056319Y-93420933D01*
X174066212Y-93150235D01*
X174036586Y-92880982D01*
X173968072Y-92618912D01*
X173862130Y-92369610D01*
X173721018Y-92138390D01*
X173631747Y-92031119D01*
X173547746Y-91930180D01*
X173547740Y-91930175D01*
X173346002Y-91749418D01*
X173120092Y-91599957D01*
X173054746Y-91569324D01*
X172874824Y-91484980D01*
X172874819Y-91484978D01*
X172874814Y-91484976D01*
X172615442Y-91406942D01*
X172615428Y-91406939D01*
X172499791Y-91389921D01*
X172347439Y-91367500D01*
X172144369Y-91367500D01*
X172144364Y-91367500D01*
X171941844Y-91382323D01*
X171941831Y-91382325D01*
X171677453Y-91441217D01*
X171677446Y-91441220D01*
X171424439Y-91537987D01*
X171188226Y-91670557D01*
X170973822Y-91836112D01*
X170785822Y-92031109D01*
X170785816Y-92031116D01*
X170628202Y-92251419D01*
X170628199Y-92251424D01*
X170504350Y-92492309D01*
X170504343Y-92492327D01*
X170416884Y-92748685D01*
X170416882Y-92748695D01*
X170369541Y-93005000D01*
X170367681Y-93015068D01*
X170367680Y-93015075D01*
X170357787Y-93285763D01*
X149734527Y-93285763D01*
X149725072Y-93270122D01*
X149604877Y-93149927D01*
X149459395Y-93061980D01*
X149459396Y-93061980D01*
X149297105Y-93011409D01*
X149297106Y-93011409D01*
X149226572Y-93005000D01*
X149220000Y-93005000D01*
X148720000Y-93005000D01*
X148719999Y-93004999D01*
X148713436Y-93005000D01*
X148713417Y-93005001D01*
X148642897Y-93011408D01*
X148642892Y-93011409D01*
X148480603Y-93061981D01*
X148335124Y-93149926D01*
X148233034Y-93252016D01*
X148171711Y-93285500D01*
X148102019Y-93280516D01*
X148057672Y-93252015D01*
X148048634Y-93242977D01*
X148018609Y-93194298D01*
X148004816Y-93152672D01*
X148004815Y-93152671D01*
X148004814Y-93152666D01*
X148004810Y-93152660D01*
X148001760Y-93146118D01*
X148001815Y-93146091D01*
X147998533Y-93139313D01*
X147998480Y-93139340D01*
X147995235Y-93132880D01*
X147953028Y-93068708D01*
X147912710Y-93003342D01*
X147908234Y-92997682D01*
X147908281Y-92997644D01*
X147903519Y-92991799D01*
X147903474Y-92991838D01*
X147898834Y-92986308D01*
X147842964Y-92933596D01*
X145986819Y-91077451D01*
X145953334Y-91016128D01*
X145950500Y-90989770D01*
X145950500Y-90424000D01*
X149970540Y-90424000D01*
X149990326Y-90612256D01*
X149990327Y-90612259D01*
X150048818Y-90792277D01*
X150048821Y-90792284D01*
X150143467Y-90956216D01*
X150245185Y-91069185D01*
X150270129Y-91096888D01*
X150423265Y-91208148D01*
X150423270Y-91208151D01*
X150596192Y-91285142D01*
X150596197Y-91285144D01*
X150781354Y-91324500D01*
X150781355Y-91324500D01*
X150970644Y-91324500D01*
X150970646Y-91324500D01*
X151155803Y-91285144D01*
X151328730Y-91208151D01*
X151481871Y-91096888D01*
X151484788Y-91093647D01*
X151487600Y-91090526D01*
X151547087Y-91053879D01*
X151579748Y-91049500D01*
X170177257Y-91049500D01*
X170192877Y-91051224D01*
X170192904Y-91050939D01*
X170200660Y-91051671D01*
X170200667Y-91051673D01*
X170269814Y-91049500D01*
X170299350Y-91049500D01*
X170306228Y-91048630D01*
X170312041Y-91048172D01*
X170358627Y-91046709D01*
X170377869Y-91041117D01*
X170396912Y-91037174D01*
X170416792Y-91034664D01*
X170460122Y-91017507D01*
X170465646Y-91015617D01*
X170469396Y-91014527D01*
X170510390Y-91002618D01*
X170527629Y-90992422D01*
X170545103Y-90983862D01*
X170563727Y-90976488D01*
X170563727Y-90976487D01*
X170563732Y-90976486D01*
X170601449Y-90949082D01*
X170606305Y-90945892D01*
X170646420Y-90922170D01*
X170660589Y-90907999D01*
X170675379Y-90895368D01*
X170691587Y-90883594D01*
X170721299Y-90847676D01*
X170725212Y-90843376D01*
X171279771Y-90288818D01*
X171341094Y-90255333D01*
X171367452Y-90252499D01*
X172079871Y-90252499D01*
X172079872Y-90252499D01*
X172139483Y-90246091D01*
X172274331Y-90195796D01*
X172389546Y-90109546D01*
X172389548Y-90109542D01*
X172394676Y-90104416D01*
X172455999Y-90070931D01*
X172525691Y-90075915D01*
X172570038Y-90104416D01*
X172574812Y-90109190D01*
X172689906Y-90195350D01*
X172689913Y-90195354D01*
X172824620Y-90245596D01*
X172824627Y-90245598D01*
X172884155Y-90251999D01*
X172884172Y-90252000D01*
X173232000Y-90252000D01*
X173232000Y-88702000D01*
X173732000Y-88702000D01*
X173732000Y-90252000D01*
X174079828Y-90252000D01*
X174079844Y-90251999D01*
X174139372Y-90245598D01*
X174139379Y-90245596D01*
X174274086Y-90195354D01*
X174274093Y-90195350D01*
X174389187Y-90109190D01*
X174389190Y-90109187D01*
X174475350Y-89994093D01*
X174475354Y-89994086D01*
X174525596Y-89859379D01*
X174525598Y-89859372D01*
X174531999Y-89799844D01*
X174532000Y-89799827D01*
X174532000Y-88702000D01*
X173732000Y-88702000D01*
X173232000Y-88702000D01*
X173232000Y-86652000D01*
X173732000Y-86652000D01*
X173732000Y-88202000D01*
X174532000Y-88202000D01*
X174532000Y-87104172D01*
X174531999Y-87104155D01*
X174525598Y-87044627D01*
X174525596Y-87044620D01*
X174475354Y-86909913D01*
X174475350Y-86909906D01*
X174389190Y-86794812D01*
X174389187Y-86794809D01*
X174274093Y-86708649D01*
X174274086Y-86708645D01*
X174139379Y-86658403D01*
X174139372Y-86658401D01*
X174079844Y-86652000D01*
X173732000Y-86652000D01*
X173232000Y-86652000D01*
X172884155Y-86652000D01*
X172824627Y-86658401D01*
X172824620Y-86658403D01*
X172689913Y-86708645D01*
X172689906Y-86708649D01*
X172574812Y-86794809D01*
X172570038Y-86799584D01*
X172508715Y-86833069D01*
X172439023Y-86828085D01*
X172394676Y-86799584D01*
X172389544Y-86794452D01*
X172274335Y-86708206D01*
X172274328Y-86708202D01*
X172139482Y-86657908D01*
X172139483Y-86657908D01*
X172079883Y-86651501D01*
X172079881Y-86651500D01*
X172079873Y-86651500D01*
X172079864Y-86651500D01*
X170884129Y-86651500D01*
X170884123Y-86651501D01*
X170824516Y-86657908D01*
X170689671Y-86708202D01*
X170689664Y-86708206D01*
X170574455Y-86794452D01*
X170569681Y-86799227D01*
X170508358Y-86832712D01*
X170438666Y-86827728D01*
X170394319Y-86799227D01*
X170389544Y-86794452D01*
X170274335Y-86708206D01*
X170274330Y-86708203D01*
X170188166Y-86676066D01*
X170132233Y-86634194D01*
X170107816Y-86568730D01*
X170107500Y-86559884D01*
X170107500Y-86506737D01*
X170109224Y-86491123D01*
X170108938Y-86491096D01*
X170109672Y-86483333D01*
X170108582Y-86448656D01*
X170107500Y-86414202D01*
X170107500Y-86384650D01*
X170106629Y-86377759D01*
X170106172Y-86371945D01*
X170104709Y-86325374D01*
X170104709Y-86325372D01*
X170099120Y-86306137D01*
X170095174Y-86287084D01*
X170094932Y-86285165D01*
X170092664Y-86267208D01*
X170075501Y-86223859D01*
X170073614Y-86218346D01*
X170069778Y-86205144D01*
X170060617Y-86173610D01*
X170050421Y-86156369D01*
X170041860Y-86138893D01*
X170034486Y-86120269D01*
X170034486Y-86120267D01*
X170011362Y-86088441D01*
X170007083Y-86082550D01*
X170003900Y-86077705D01*
X169980170Y-86037579D01*
X169980165Y-86037573D01*
X169966005Y-86023413D01*
X169953370Y-86008620D01*
X169941593Y-85992412D01*
X169905693Y-85962713D01*
X169901381Y-85958790D01*
X167124803Y-83182212D01*
X167114980Y-83169950D01*
X167114759Y-83170134D01*
X167109786Y-83164123D01*
X167087846Y-83143520D01*
X167059364Y-83116773D01*
X167048919Y-83106328D01*
X167038475Y-83095883D01*
X167032986Y-83091625D01*
X167028561Y-83087847D01*
X166994582Y-83055938D01*
X166994580Y-83055936D01*
X166994577Y-83055935D01*
X166977029Y-83046288D01*
X166960763Y-83035604D01*
X166958417Y-83033784D01*
X166944936Y-83023327D01*
X166944935Y-83023326D01*
X166944933Y-83023325D01*
X166902168Y-83004818D01*
X166896922Y-83002248D01*
X166856093Y-82979803D01*
X166856092Y-82979802D01*
X166836693Y-82974822D01*
X166818281Y-82968518D01*
X166799898Y-82960562D01*
X166799892Y-82960560D01*
X166753874Y-82953272D01*
X166748152Y-82952087D01*
X166703021Y-82940500D01*
X166703019Y-82940500D01*
X166682984Y-82940500D01*
X166663586Y-82938973D01*
X166656162Y-82937797D01*
X166643805Y-82935840D01*
X166643804Y-82935840D01*
X166597416Y-82940225D01*
X166591578Y-82940500D01*
X166565748Y-82940500D01*
X166498709Y-82920815D01*
X166473600Y-82899474D01*
X166467873Y-82893114D01*
X166467869Y-82893110D01*
X166314734Y-82781851D01*
X166314729Y-82781848D01*
X166141807Y-82704857D01*
X166141802Y-82704855D01*
X165996001Y-82673865D01*
X165956646Y-82665500D01*
X165767354Y-82665500D01*
X165734897Y-82672398D01*
X165582197Y-82704855D01*
X165582192Y-82704857D01*
X165409270Y-82781848D01*
X165409265Y-82781851D01*
X165256129Y-82893111D01*
X165256128Y-82893112D01*
X165134889Y-83027761D01*
X165075403Y-83064409D01*
X165005546Y-83063078D01*
X164955059Y-83032469D01*
X163771823Y-81849233D01*
X162564803Y-80642212D01*
X162554980Y-80629950D01*
X162554759Y-80630134D01*
X162549786Y-80624123D01*
X162526036Y-80601820D01*
X162499364Y-80576773D01*
X162488919Y-80566328D01*
X162478475Y-80555883D01*
X162472986Y-80551625D01*
X162468561Y-80547847D01*
X162434582Y-80515938D01*
X162434580Y-80515936D01*
X162434577Y-80515935D01*
X162417029Y-80506288D01*
X162400763Y-80495604D01*
X162384933Y-80483325D01*
X162342168Y-80464818D01*
X162336922Y-80462248D01*
X162296093Y-80439803D01*
X162296092Y-80439802D01*
X162276693Y-80434822D01*
X162258281Y-80428518D01*
X162239898Y-80420562D01*
X162239892Y-80420560D01*
X162193874Y-80413272D01*
X162188152Y-80412087D01*
X162143021Y-80400500D01*
X162143019Y-80400500D01*
X162122984Y-80400500D01*
X162103586Y-80398973D01*
X162096162Y-80397797D01*
X162083805Y-80395840D01*
X162083804Y-80395840D01*
X162037416Y-80400225D01*
X162031578Y-80400500D01*
X154723589Y-80400500D01*
X154656550Y-80380815D01*
X154614534Y-80335518D01*
X154548780Y-80214016D01*
X154542695Y-80202771D01*
X154428252Y-80055735D01*
X154390016Y-80006609D01*
X154390013Y-80006605D01*
X154390011Y-80006603D01*
X154216885Y-79847228D01*
X154180895Y-79787342D01*
X154182996Y-79717504D01*
X154216884Y-79664771D01*
X154390011Y-79505397D01*
X154542695Y-79309229D01*
X154542698Y-79309222D01*
X154542701Y-79309219D01*
X154546887Y-79301484D01*
X154596105Y-79251892D01*
X154655942Y-79236500D01*
X155638295Y-79236500D01*
X155656265Y-79237809D01*
X155680023Y-79241289D01*
X155732068Y-79236735D01*
X155737470Y-79236500D01*
X155745704Y-79236500D01*
X155745709Y-79236500D01*
X155757327Y-79235141D01*
X155778276Y-79232693D01*
X155791028Y-79231577D01*
X155854797Y-79225999D01*
X155854805Y-79225996D01*
X155861866Y-79224539D01*
X155861878Y-79224598D01*
X155869243Y-79222965D01*
X155869229Y-79222906D01*
X155876246Y-79221241D01*
X155876255Y-79221241D01*
X155948423Y-79194974D01*
X156021334Y-79170814D01*
X156021343Y-79170807D01*
X156027882Y-79167760D01*
X156027908Y-79167816D01*
X156034690Y-79164532D01*
X156034663Y-79164478D01*
X156041106Y-79161240D01*
X156041117Y-79161237D01*
X156105283Y-79119034D01*
X156170656Y-79078712D01*
X156170662Y-79078705D01*
X156176325Y-79074229D01*
X156176362Y-79074277D01*
X156182204Y-79069518D01*
X156182164Y-79069471D01*
X156187686Y-79064836D01*
X156187696Y-79064830D01*
X156209398Y-79041825D01*
X156240386Y-79008982D01*
X157254563Y-77994803D01*
X157457638Y-77791727D01*
X157471267Y-77779950D01*
X157490530Y-77765610D01*
X157490532Y-77765606D01*
X157490534Y-77765606D01*
X157515795Y-77735500D01*
X157524113Y-77725585D01*
X157527767Y-77721599D01*
X157533589Y-77715778D01*
X157553928Y-77690054D01*
X157559162Y-77683815D01*
X157603302Y-77631214D01*
X157603304Y-77631209D01*
X157607272Y-77625179D01*
X157607323Y-77625212D01*
X157611369Y-77618860D01*
X157611317Y-77618828D01*
X157615109Y-77612679D01*
X157615111Y-77612677D01*
X157647569Y-77543069D01*
X157682040Y-77474433D01*
X157682043Y-77474417D01*
X157684510Y-77467644D01*
X157684568Y-77467665D01*
X157687043Y-77460546D01*
X157686985Y-77460527D01*
X157689256Y-77453672D01*
X157691480Y-77442904D01*
X157704784Y-77378467D01*
X157722500Y-77303721D01*
X157722500Y-77303720D01*
X157723339Y-77296548D01*
X157723397Y-77296554D01*
X157724164Y-77289056D01*
X157724104Y-77289051D01*
X157724733Y-77281860D01*
X157723294Y-77232413D01*
X157722500Y-77205102D01*
X157722500Y-75759763D01*
X179366787Y-75759763D01*
X179396413Y-76029013D01*
X179396415Y-76029024D01*
X179464926Y-76291082D01*
X179464928Y-76291088D01*
X179570870Y-76540390D01*
X179642998Y-76658575D01*
X179711979Y-76771605D01*
X179711986Y-76771615D01*
X179885253Y-76979819D01*
X179885259Y-76979824D01*
X180086998Y-77160582D01*
X180312910Y-77310044D01*
X180558176Y-77425020D01*
X180558183Y-77425022D01*
X180558185Y-77425023D01*
X180817557Y-77503057D01*
X180817564Y-77503058D01*
X180817569Y-77503060D01*
X181085561Y-77542500D01*
X181085566Y-77542500D01*
X181288636Y-77542500D01*
X181340133Y-77538730D01*
X181491156Y-77527677D01*
X181603758Y-77502593D01*
X181755546Y-77468782D01*
X181755548Y-77468781D01*
X181755553Y-77468780D01*
X182008558Y-77372014D01*
X182244777Y-77239441D01*
X182459177Y-77073888D01*
X182647186Y-76878881D01*
X182711580Y-76788875D01*
X188180500Y-76788875D01*
X188195453Y-76974112D01*
X188254744Y-77214664D01*
X188254784Y-77214825D01*
X188351959Y-77442904D01*
X188484462Y-77652440D01*
X188484465Y-77652444D01*
X188648859Y-77838007D01*
X188840898Y-77994803D01*
X188840903Y-77994806D01*
X189055599Y-78118760D01*
X189055601Y-78118761D01*
X189287407Y-78206673D01*
X189530314Y-78256263D01*
X189604628Y-78259257D01*
X189778022Y-78266246D01*
X189778023Y-78266246D01*
X189778024Y-78266245D01*
X189778029Y-78266246D01*
X190024139Y-78236363D01*
X190262267Y-78167388D01*
X190486247Y-78061108D01*
X190690279Y-77920275D01*
X190869077Y-77748537D01*
X191018011Y-77550342D01*
X191133224Y-77330823D01*
X191211731Y-77095665D01*
X191231485Y-76974113D01*
X191251500Y-76850960D01*
X191251500Y-74595125D01*
X191236546Y-74409887D01*
X191235138Y-74404175D01*
X191177216Y-74169175D01*
X191080041Y-73941096D01*
X190947538Y-73731560D01*
X190947534Y-73731555D01*
X190783140Y-73545992D01*
X190591101Y-73389196D01*
X190591096Y-73389193D01*
X190376400Y-73265239D01*
X190144597Y-73177328D01*
X190144594Y-73177327D01*
X190144593Y-73177327D01*
X190100050Y-73168233D01*
X189901690Y-73127737D01*
X189901682Y-73127736D01*
X189653977Y-73117753D01*
X189653976Y-73117753D01*
X189407868Y-73147635D01*
X189407861Y-73147637D01*
X189169738Y-73216610D01*
X189169735Y-73216611D01*
X188945749Y-73322893D01*
X188741719Y-73463726D01*
X188741715Y-73463729D01*
X188562924Y-73635460D01*
X188413992Y-73833652D01*
X188413986Y-73833663D01*
X188298778Y-74053171D01*
X188220267Y-74288340D01*
X188180500Y-74533039D01*
X188180500Y-76788875D01*
X182711580Y-76788875D01*
X182804799Y-76658579D01*
X182898484Y-76476361D01*
X182928649Y-76417690D01*
X182928651Y-76417684D01*
X182928656Y-76417675D01*
X183016118Y-76161305D01*
X183065319Y-75894933D01*
X183075212Y-75624235D01*
X183045586Y-75354982D01*
X182977072Y-75092912D01*
X182871130Y-74843610D01*
X182730018Y-74612390D01*
X182707316Y-74585110D01*
X182556746Y-74404180D01*
X182556740Y-74404175D01*
X182355002Y-74223418D01*
X182129092Y-74073957D01*
X182129090Y-74073956D01*
X181883824Y-73958980D01*
X181883819Y-73958978D01*
X181883814Y-73958976D01*
X181624442Y-73880942D01*
X181624428Y-73880939D01*
X181508791Y-73863921D01*
X181356439Y-73841500D01*
X181153369Y-73841500D01*
X181153364Y-73841500D01*
X180950844Y-73856323D01*
X180950831Y-73856325D01*
X180686453Y-73915217D01*
X180686446Y-73915220D01*
X180433439Y-74011987D01*
X180197226Y-74144557D01*
X180197224Y-74144558D01*
X180197223Y-74144559D01*
X180165137Y-74169335D01*
X179982822Y-74310112D01*
X179794822Y-74505109D01*
X179794816Y-74505116D01*
X179637202Y-74725419D01*
X179637199Y-74725424D01*
X179513350Y-74966309D01*
X179513343Y-74966327D01*
X179425884Y-75222685D01*
X179425881Y-75222699D01*
X179410102Y-75308127D01*
X179381204Y-75464583D01*
X179376681Y-75489068D01*
X179376680Y-75489075D01*
X179366787Y-75759763D01*
X157722500Y-75759763D01*
X157722500Y-69298291D01*
X157722500Y-68942229D01*
X157742185Y-68875190D01*
X157758819Y-68854548D01*
X161564548Y-65048819D01*
X161625871Y-65015334D01*
X161652229Y-65012500D01*
X164084729Y-65012500D01*
X164151768Y-65032185D01*
X164197523Y-65084989D01*
X164208049Y-65149459D01*
X164194540Y-65278000D01*
X164214326Y-65466256D01*
X164214327Y-65466259D01*
X164272818Y-65646277D01*
X164272821Y-65646284D01*
X164367467Y-65810216D01*
X164494129Y-65950888D01*
X164647265Y-66062148D01*
X164647270Y-66062151D01*
X164820192Y-66139142D01*
X164820197Y-66139144D01*
X165005354Y-66178500D01*
X165064548Y-66178500D01*
X165131587Y-66198185D01*
X165152229Y-66214819D01*
X166820181Y-67882771D01*
X166853666Y-67944094D01*
X166856500Y-67970452D01*
X166856500Y-71159884D01*
X166836815Y-71226923D01*
X166784011Y-71272678D01*
X166775834Y-71276066D01*
X166689669Y-71308203D01*
X166689664Y-71308206D01*
X166574455Y-71394452D01*
X166569681Y-71399227D01*
X166508358Y-71432712D01*
X166438666Y-71427728D01*
X166394319Y-71399227D01*
X166389544Y-71394452D01*
X166274335Y-71308206D01*
X166274328Y-71308202D01*
X166139482Y-71257908D01*
X166139483Y-71257908D01*
X166079883Y-71251501D01*
X166079881Y-71251500D01*
X166079873Y-71251500D01*
X166079864Y-71251500D01*
X164884129Y-71251500D01*
X164884123Y-71251501D01*
X164824516Y-71257908D01*
X164689671Y-71308202D01*
X164689664Y-71308206D01*
X164574455Y-71394452D01*
X164569681Y-71399227D01*
X164508358Y-71432712D01*
X164438666Y-71427728D01*
X164394319Y-71399227D01*
X164389544Y-71394452D01*
X164274335Y-71308206D01*
X164274328Y-71308202D01*
X164139482Y-71257908D01*
X164139483Y-71257908D01*
X164079883Y-71251501D01*
X164079881Y-71251500D01*
X164079873Y-71251500D01*
X164079864Y-71251500D01*
X162884129Y-71251500D01*
X162884123Y-71251501D01*
X162824516Y-71257908D01*
X162689671Y-71308202D01*
X162689664Y-71308206D01*
X162574455Y-71394452D01*
X162569681Y-71399227D01*
X162508358Y-71432712D01*
X162438666Y-71427728D01*
X162394319Y-71399227D01*
X162389544Y-71394452D01*
X162274335Y-71308206D01*
X162274328Y-71308202D01*
X162139482Y-71257908D01*
X162139483Y-71257908D01*
X162079883Y-71251501D01*
X162079881Y-71251500D01*
X162079873Y-71251500D01*
X162079864Y-71251500D01*
X160884129Y-71251500D01*
X160884123Y-71251501D01*
X160824516Y-71257908D01*
X160689671Y-71308202D01*
X160689664Y-71308206D01*
X160574455Y-71394452D01*
X160569681Y-71399227D01*
X160508358Y-71432712D01*
X160438666Y-71427728D01*
X160394319Y-71399227D01*
X160389544Y-71394452D01*
X160274335Y-71308206D01*
X160274328Y-71308202D01*
X160139482Y-71257908D01*
X160139483Y-71257908D01*
X160079883Y-71251501D01*
X160079881Y-71251500D01*
X160079873Y-71251500D01*
X160079864Y-71251500D01*
X158884129Y-71251500D01*
X158884123Y-71251501D01*
X158824516Y-71257908D01*
X158689671Y-71308202D01*
X158689664Y-71308206D01*
X158574455Y-71394452D01*
X158574452Y-71394455D01*
X158488206Y-71509664D01*
X158488202Y-71509671D01*
X158437908Y-71644517D01*
X158431501Y-71704116D01*
X158431500Y-71704135D01*
X158431500Y-74399870D01*
X158431501Y-74399876D01*
X158437908Y-74459483D01*
X158488202Y-74594328D01*
X158488206Y-74594335D01*
X158574452Y-74709544D01*
X158574455Y-74709547D01*
X158689664Y-74795793D01*
X158689671Y-74795797D01*
X158824517Y-74846091D01*
X158824516Y-74846091D01*
X158831444Y-74846835D01*
X158884127Y-74852500D01*
X160079872Y-74852499D01*
X160139483Y-74846091D01*
X160274331Y-74795796D01*
X160389546Y-74709546D01*
X160389548Y-74709542D01*
X160394319Y-74704773D01*
X160455642Y-74671288D01*
X160525334Y-74676272D01*
X160569681Y-74704773D01*
X160574455Y-74709547D01*
X160689664Y-74795793D01*
X160689671Y-74795797D01*
X160824517Y-74846091D01*
X160824516Y-74846091D01*
X160831444Y-74846835D01*
X160884127Y-74852500D01*
X162079872Y-74852499D01*
X162139483Y-74846091D01*
X162274331Y-74795796D01*
X162389546Y-74709546D01*
X162389548Y-74709542D01*
X162394319Y-74704773D01*
X162455642Y-74671288D01*
X162525334Y-74676272D01*
X162569681Y-74704773D01*
X162574455Y-74709547D01*
X162689664Y-74795793D01*
X162689671Y-74795797D01*
X162824517Y-74846091D01*
X162824516Y-74846091D01*
X162831444Y-74846835D01*
X162884127Y-74852500D01*
X164079872Y-74852499D01*
X164139483Y-74846091D01*
X164274331Y-74795796D01*
X164389546Y-74709546D01*
X164389548Y-74709542D01*
X164394319Y-74704773D01*
X164455642Y-74671288D01*
X164525334Y-74676272D01*
X164569681Y-74704773D01*
X164574455Y-74709547D01*
X164689664Y-74795793D01*
X164689671Y-74795797D01*
X164824517Y-74846091D01*
X164824516Y-74846091D01*
X164831444Y-74846835D01*
X164884127Y-74852500D01*
X166079872Y-74852499D01*
X166139483Y-74846091D01*
X166274331Y-74795796D01*
X166389546Y-74709546D01*
X166389548Y-74709542D01*
X166394319Y-74704773D01*
X166455642Y-74671288D01*
X166525334Y-74676272D01*
X166569681Y-74704773D01*
X166574455Y-74709547D01*
X166689664Y-74795793D01*
X166689671Y-74795797D01*
X166824517Y-74846091D01*
X166824516Y-74846091D01*
X166831444Y-74846835D01*
X166884127Y-74852500D01*
X168079872Y-74852499D01*
X168139483Y-74846091D01*
X168274331Y-74795796D01*
X168389546Y-74709546D01*
X168389548Y-74709542D01*
X168394319Y-74704773D01*
X168455642Y-74671288D01*
X168525334Y-74676272D01*
X168569681Y-74704773D01*
X168574455Y-74709547D01*
X168689664Y-74795793D01*
X168689671Y-74795797D01*
X168824517Y-74846091D01*
X168824516Y-74846091D01*
X168831444Y-74846835D01*
X168884127Y-74852500D01*
X170079872Y-74852499D01*
X170139483Y-74846091D01*
X170274331Y-74795796D01*
X170389546Y-74709546D01*
X170389548Y-74709542D01*
X170394676Y-74704416D01*
X170455999Y-74670931D01*
X170525691Y-74675915D01*
X170570038Y-74704416D01*
X170574812Y-74709190D01*
X170689906Y-74795350D01*
X170689913Y-74795354D01*
X170824620Y-74845596D01*
X170824627Y-74845598D01*
X170884155Y-74851999D01*
X170884172Y-74852000D01*
X171232000Y-74852000D01*
X171232000Y-73302000D01*
X171732000Y-73302000D01*
X171732000Y-74852000D01*
X172079828Y-74852000D01*
X172079844Y-74851999D01*
X172139372Y-74845598D01*
X172139379Y-74845596D01*
X172274086Y-74795354D01*
X172274089Y-74795352D01*
X172312929Y-74766277D01*
X172378393Y-74741859D01*
X172446666Y-74756710D01*
X172486507Y-74791231D01*
X172574812Y-74909190D01*
X172689906Y-74995350D01*
X172689913Y-74995354D01*
X172824620Y-75045596D01*
X172824627Y-75045598D01*
X172884155Y-75051999D01*
X172884172Y-75052000D01*
X173232000Y-75052000D01*
X173232000Y-73402000D01*
X173732000Y-73402000D01*
X173732000Y-75052000D01*
X174079828Y-75052000D01*
X174079844Y-75051999D01*
X174139372Y-75045598D01*
X174139379Y-75045596D01*
X174274086Y-74995354D01*
X174274093Y-74995350D01*
X174389187Y-74909190D01*
X174389190Y-74909187D01*
X174475350Y-74794093D01*
X174475354Y-74794086D01*
X174525596Y-74659379D01*
X174525598Y-74659372D01*
X174531999Y-74599844D01*
X174532000Y-74599827D01*
X174532000Y-73402000D01*
X173732000Y-73402000D01*
X173232000Y-73402000D01*
X172516000Y-73402000D01*
X172448961Y-73382315D01*
X172403206Y-73329511D01*
X172398672Y-73308672D01*
X172392000Y-73302000D01*
X171732000Y-73302000D01*
X171232000Y-73302000D01*
X171232000Y-71252000D01*
X171732000Y-71252000D01*
X171732000Y-72802000D01*
X172448000Y-72802000D01*
X172515039Y-72821685D01*
X172560794Y-72874489D01*
X172565327Y-72895327D01*
X172572000Y-72902000D01*
X173232000Y-72902000D01*
X173232000Y-71252000D01*
X173732000Y-71252000D01*
X173732000Y-72902000D01*
X174532000Y-72902000D01*
X174532000Y-71704172D01*
X174531999Y-71704155D01*
X174525598Y-71644627D01*
X174525596Y-71644620D01*
X174475354Y-71509913D01*
X174475350Y-71509906D01*
X174389190Y-71394812D01*
X174389187Y-71394809D01*
X174274093Y-71308649D01*
X174274086Y-71308645D01*
X174139379Y-71258403D01*
X174139372Y-71258401D01*
X174079844Y-71252000D01*
X173732000Y-71252000D01*
X173232000Y-71252000D01*
X172884155Y-71252000D01*
X172824627Y-71258401D01*
X172824620Y-71258403D01*
X172689913Y-71308645D01*
X172689906Y-71308649D01*
X172574812Y-71394809D01*
X172569681Y-71399941D01*
X172508358Y-71433426D01*
X172438666Y-71428442D01*
X172394319Y-71399941D01*
X172389187Y-71394809D01*
X172274093Y-71308649D01*
X172274086Y-71308645D01*
X172139379Y-71258403D01*
X172139372Y-71258401D01*
X172079844Y-71252000D01*
X171732000Y-71252000D01*
X171232000Y-71252000D01*
X170884155Y-71252000D01*
X170824627Y-71258401D01*
X170824620Y-71258403D01*
X170689913Y-71308645D01*
X170689906Y-71308649D01*
X170574812Y-71394809D01*
X170570038Y-71399584D01*
X170508715Y-71433069D01*
X170439023Y-71428085D01*
X170394676Y-71399584D01*
X170389544Y-71394452D01*
X170289857Y-71319826D01*
X170247986Y-71263893D01*
X170243002Y-71194201D01*
X170276485Y-71132880D01*
X170577548Y-70831817D01*
X170638871Y-70798333D01*
X170665229Y-70795499D01*
X170935338Y-70795499D01*
X170935344Y-70795499D01*
X170935352Y-70795498D01*
X170935355Y-70795498D01*
X170989760Y-70789940D01*
X171034708Y-70785349D01*
X171195697Y-70732003D01*
X171340044Y-70642968D01*
X171349668Y-70633343D01*
X171410987Y-70599856D01*
X171480679Y-70604835D01*
X171525034Y-70633339D01*
X171534267Y-70642572D01*
X171534271Y-70642575D01*
X171678507Y-70731542D01*
X171678518Y-70731547D01*
X171839393Y-70784855D01*
X171938683Y-70794999D01*
X171962000Y-70794998D01*
X171962000Y-70070000D01*
X172462000Y-70070000D01*
X172462000Y-70794999D01*
X172485308Y-70794999D01*
X172485322Y-70794998D01*
X172584607Y-70784855D01*
X172745481Y-70731547D01*
X172745492Y-70731542D01*
X172889728Y-70642575D01*
X172889732Y-70642572D01*
X173009572Y-70522732D01*
X173009575Y-70522728D01*
X173098542Y-70378492D01*
X173098547Y-70378481D01*
X173151855Y-70217606D01*
X173161999Y-70118322D01*
X173162000Y-70118309D01*
X173162000Y-70070000D01*
X172462000Y-70070000D01*
X171962000Y-70070000D01*
X171962000Y-69570000D01*
X172462000Y-69570000D01*
X173161999Y-69570000D01*
X173161999Y-69521692D01*
X173161998Y-69521677D01*
X173151855Y-69422392D01*
X173098547Y-69261518D01*
X173098542Y-69261507D01*
X173009575Y-69117271D01*
X173009572Y-69117267D01*
X172889732Y-68997427D01*
X172889728Y-68997424D01*
X172778062Y-68928547D01*
X172731337Y-68876599D01*
X172720116Y-68807637D01*
X172747959Y-68743555D01*
X172778062Y-68717470D01*
X172902733Y-68640571D01*
X173022572Y-68520732D01*
X173022575Y-68520728D01*
X173111542Y-68376492D01*
X173111547Y-68376481D01*
X173164855Y-68215606D01*
X173174999Y-68116322D01*
X173175000Y-68116309D01*
X173175000Y-68068000D01*
X172475000Y-68068000D01*
X172475000Y-68780638D01*
X172462000Y-68824910D01*
X172462000Y-69570000D01*
X171962000Y-69570000D01*
X171962000Y-68857360D01*
X171975000Y-68813087D01*
X171975000Y-66843000D01*
X172475000Y-66843000D01*
X172475000Y-67568000D01*
X173174999Y-67568000D01*
X173174999Y-67519692D01*
X173174998Y-67519677D01*
X173164855Y-67420392D01*
X173111547Y-67259518D01*
X173111542Y-67259507D01*
X173022575Y-67115271D01*
X173022572Y-67115267D01*
X172902732Y-66995427D01*
X172902728Y-66995424D01*
X172758492Y-66906457D01*
X172758481Y-66906452D01*
X172597606Y-66853144D01*
X172498322Y-66843000D01*
X172475000Y-66843000D01*
X171975000Y-66843000D01*
X171975000Y-66842999D01*
X171951693Y-66843000D01*
X171951674Y-66843001D01*
X171852392Y-66853144D01*
X171691518Y-66906452D01*
X171691507Y-66906457D01*
X171547271Y-66995424D01*
X171547265Y-66995428D01*
X171538031Y-67004663D01*
X171476707Y-67038146D01*
X171407015Y-67033159D01*
X171362672Y-67004660D01*
X171353044Y-66995032D01*
X171353040Y-66995029D01*
X171208705Y-66906001D01*
X171208699Y-66905998D01*
X171208697Y-66905997D01*
X171155303Y-66888304D01*
X171047709Y-66852651D01*
X170948346Y-66842500D01*
X170401662Y-66842500D01*
X170401644Y-66842501D01*
X170302292Y-66852650D01*
X170302289Y-66852651D01*
X170165886Y-66897851D01*
X170096057Y-66900253D01*
X170041788Y-66870339D01*
X170004964Y-66835597D01*
X166945729Y-63776361D01*
X166933949Y-63762730D01*
X166926482Y-63752701D01*
X166919612Y-63743472D01*
X166914303Y-63739017D01*
X166879587Y-63709886D01*
X166875612Y-63706244D01*
X166872690Y-63703322D01*
X166869780Y-63700411D01*
X166844040Y-63680059D01*
X166785209Y-63630694D01*
X166779180Y-63626729D01*
X166779212Y-63626680D01*
X166772853Y-63622628D01*
X166772822Y-63622679D01*
X166766680Y-63618891D01*
X166766678Y-63618890D01*
X166766677Y-63618889D01*
X166727474Y-63600608D01*
X166697058Y-63586424D01*
X166662894Y-63569267D01*
X166628433Y-63551960D01*
X166628431Y-63551959D01*
X166628430Y-63551959D01*
X166621645Y-63549489D01*
X166621665Y-63549433D01*
X166614549Y-63546959D01*
X166614531Y-63547015D01*
X166607671Y-63544742D01*
X166579841Y-63538996D01*
X166532434Y-63529207D01*
X166483472Y-63517603D01*
X166457719Y-63511499D01*
X166450547Y-63510661D01*
X166450553Y-63510601D01*
X166443055Y-63509835D01*
X166443050Y-63509895D01*
X166435860Y-63509265D01*
X166359083Y-63511500D01*
X163401230Y-63511500D01*
X163334191Y-63491815D01*
X163288436Y-63439011D01*
X163278492Y-63369853D01*
X163307517Y-63306297D01*
X163313549Y-63299819D01*
X163941112Y-62672256D01*
X165839642Y-60773724D01*
X165853260Y-60761954D01*
X165865246Y-60753031D01*
X165930774Y-60728792D01*
X165939289Y-60728499D01*
X166701871Y-60728499D01*
X166701872Y-60728499D01*
X166761483Y-60722091D01*
X166896331Y-60671796D01*
X167011546Y-60585546D01*
X167097796Y-60470331D01*
X167148091Y-60335483D01*
X167154500Y-60275873D01*
X167154499Y-57580128D01*
X167148091Y-57520517D01*
X167146542Y-57516365D01*
X167097797Y-57385671D01*
X167097793Y-57385664D01*
X167011547Y-57270455D01*
X167011544Y-57270452D01*
X166896335Y-57184206D01*
X166896328Y-57184202D01*
X166761482Y-57133908D01*
X166761483Y-57133908D01*
X166701883Y-57127501D01*
X166701881Y-57127500D01*
X166701873Y-57127500D01*
X166701864Y-57127500D01*
X164006129Y-57127500D01*
X164006123Y-57127501D01*
X163946516Y-57133908D01*
X163811671Y-57184202D01*
X163811664Y-57184206D01*
X163696455Y-57270452D01*
X163696452Y-57270455D01*
X163610206Y-57385664D01*
X163610202Y-57385671D01*
X163559908Y-57520517D01*
X163553501Y-57580116D01*
X163553501Y-57580123D01*
X163553500Y-57580135D01*
X163553500Y-60275870D01*
X163553501Y-60275876D01*
X163559908Y-60335483D01*
X163610202Y-60470328D01*
X163610206Y-60470335D01*
X163696452Y-60585544D01*
X163696453Y-60585544D01*
X163696454Y-60585546D01*
X163701205Y-60589102D01*
X163743078Y-60645032D01*
X163748065Y-60714724D01*
X163714583Y-60776048D01*
X163714579Y-60776052D01*
X160822486Y-63668144D01*
X160809797Y-63678482D01*
X160809835Y-63678528D01*
X160804310Y-63683164D01*
X160751614Y-63739017D01*
X156486358Y-68004272D01*
X156472729Y-68016051D01*
X156453468Y-68030390D01*
X156419898Y-68070397D01*
X156416253Y-68074376D01*
X156410409Y-68080222D01*
X156390059Y-68105959D01*
X156340695Y-68164789D01*
X156336729Y-68170819D01*
X156336682Y-68170788D01*
X156332630Y-68177147D01*
X156332679Y-68177177D01*
X156328889Y-68183321D01*
X156296424Y-68252941D01*
X156261960Y-68321566D01*
X156259488Y-68328357D01*
X156259432Y-68328336D01*
X156256960Y-68335450D01*
X156257015Y-68335469D01*
X156254742Y-68342327D01*
X156247690Y-68376481D01*
X156239207Y-68417565D01*
X156226001Y-68473284D01*
X156221498Y-68492286D01*
X156220661Y-68499454D01*
X156220601Y-68499447D01*
X156219835Y-68506945D01*
X156219895Y-68506951D01*
X156219265Y-68514140D01*
X156221500Y-68590916D01*
X156221500Y-76853770D01*
X156201815Y-76920809D01*
X156185181Y-76941451D01*
X155427451Y-77699181D01*
X155366128Y-77732666D01*
X155339770Y-77735500D01*
X154655942Y-77735500D01*
X154588903Y-77715815D01*
X154546887Y-77670516D01*
X154542701Y-77662780D01*
X154542691Y-77662766D01*
X154390016Y-77466609D01*
X154390013Y-77466606D01*
X154390011Y-77466603D01*
X154386840Y-77463684D01*
X154216516Y-77306888D01*
X154180525Y-77247001D01*
X154182626Y-77177163D01*
X154216516Y-77124429D01*
X154389644Y-76965053D01*
X154389647Y-76965050D01*
X154542269Y-76768962D01*
X154542273Y-76768956D01*
X154660548Y-76550404D01*
X154660551Y-76550395D01*
X154741237Y-76315367D01*
X154761156Y-76196000D01*
X151054844Y-76196000D01*
X151074762Y-76315367D01*
X151155448Y-76550395D01*
X151155451Y-76550404D01*
X151273726Y-76768956D01*
X151273730Y-76768962D01*
X151426352Y-76965050D01*
X151426355Y-76965053D01*
X151599483Y-77124429D01*
X151635473Y-77184316D01*
X151633373Y-77254154D01*
X151599484Y-77306888D01*
X151491833Y-77405989D01*
X151425994Y-77466599D01*
X151425987Y-77466605D01*
X151425983Y-77466609D01*
X151273308Y-77662766D01*
X151273304Y-77662771D01*
X151154991Y-77881394D01*
X151154989Y-77881399D01*
X151074276Y-78116508D01*
X151050149Y-78261094D01*
X151033360Y-78361707D01*
X151033360Y-78610293D01*
X151036779Y-78630781D01*
X151074276Y-78855491D01*
X151154989Y-79090600D01*
X151154991Y-79090605D01*
X151273304Y-79309228D01*
X151273308Y-79309233D01*
X151425983Y-79505390D01*
X151425992Y-79505400D01*
X151599113Y-79664771D01*
X151635104Y-79724658D01*
X151633003Y-79794496D01*
X151599113Y-79847229D01*
X151425992Y-80006599D01*
X151425983Y-80006609D01*
X151273308Y-80202766D01*
X151273304Y-80202771D01*
X151154991Y-80421394D01*
X151154989Y-80421399D01*
X151074276Y-80656508D01*
X151041543Y-80852668D01*
X151033360Y-80901707D01*
X151033360Y-81150293D01*
X151035784Y-81164818D01*
X151074276Y-81395491D01*
X151154989Y-81630600D01*
X151154991Y-81630605D01*
X151273304Y-81849228D01*
X151273308Y-81849233D01*
X151425983Y-82045390D01*
X151425992Y-82045400D01*
X151599113Y-82204771D01*
X151635104Y-82264658D01*
X151633003Y-82334496D01*
X151599113Y-82387229D01*
X151425992Y-82546599D01*
X151425983Y-82546609D01*
X151273308Y-82742766D01*
X151273304Y-82742771D01*
X151154991Y-82961394D01*
X151154989Y-82961399D01*
X151074279Y-83196500D01*
X151074276Y-83196506D01*
X151033360Y-83441708D01*
X151033360Y-83690291D01*
X151074276Y-83935491D01*
X151154989Y-84170600D01*
X151154991Y-84170605D01*
X151273304Y-84389228D01*
X151273308Y-84389233D01*
X151425983Y-84585390D01*
X151425992Y-84585400D01*
X151599113Y-84744771D01*
X151635104Y-84804658D01*
X151633003Y-84874496D01*
X151599113Y-84927229D01*
X151425992Y-85086599D01*
X151425983Y-85086609D01*
X151273308Y-85282766D01*
X151273304Y-85282771D01*
X151154991Y-85501394D01*
X151154989Y-85501399D01*
X151074276Y-85736508D01*
X151041543Y-85932668D01*
X151033360Y-85981707D01*
X151033360Y-86230293D01*
X151042970Y-86287882D01*
X151074276Y-86475491D01*
X151154989Y-86710600D01*
X151154991Y-86710605D01*
X151273304Y-86929228D01*
X151273308Y-86929233D01*
X151425983Y-87125390D01*
X151425992Y-87125400D01*
X151599113Y-87284771D01*
X151635104Y-87344658D01*
X151633003Y-87414496D01*
X151599113Y-87467229D01*
X151425992Y-87626599D01*
X151425983Y-87626609D01*
X151273308Y-87822766D01*
X151273304Y-87822771D01*
X151154991Y-88041394D01*
X151154989Y-88041399D01*
X151074276Y-88276508D01*
X151033360Y-88521708D01*
X151033360Y-88770291D01*
X151074276Y-89015491D01*
X151154989Y-89250600D01*
X151154991Y-89250605D01*
X151218045Y-89367117D01*
X151232640Y-89435446D01*
X151207977Y-89500818D01*
X151151887Y-89542479D01*
X151083210Y-89547426D01*
X150970646Y-89523500D01*
X150781354Y-89523500D01*
X150748897Y-89530398D01*
X150596197Y-89562855D01*
X150596192Y-89562857D01*
X150423270Y-89639848D01*
X150423265Y-89639851D01*
X150270129Y-89751111D01*
X150143466Y-89891785D01*
X150048821Y-90055715D01*
X150048818Y-90055722D01*
X149990327Y-90235740D01*
X149990326Y-90235744D01*
X149970540Y-90424000D01*
X145950500Y-90424000D01*
X145950500Y-87572228D01*
X145970185Y-87505189D01*
X145986814Y-87484552D01*
X147551638Y-85919727D01*
X147565267Y-85907950D01*
X147584530Y-85893610D01*
X147584532Y-85893606D01*
X147584534Y-85893606D01*
X147602663Y-85871999D01*
X147618113Y-85853585D01*
X147621767Y-85849599D01*
X147627591Y-85843776D01*
X147647930Y-85818052D01*
X147697302Y-85759214D01*
X147697306Y-85759205D01*
X147701274Y-85753175D01*
X147701325Y-85753208D01*
X147705369Y-85746860D01*
X147705317Y-85746828D01*
X147709104Y-85740685D01*
X147709111Y-85740677D01*
X147741572Y-85671063D01*
X147776040Y-85602433D01*
X147776041Y-85602427D01*
X147778508Y-85595650D01*
X147778566Y-85595671D01*
X147781043Y-85588544D01*
X147780986Y-85588526D01*
X147783255Y-85581679D01*
X147783256Y-85581674D01*
X147783257Y-85581672D01*
X147798790Y-85506441D01*
X147816500Y-85431721D01*
X147816500Y-85431719D01*
X147817339Y-85424548D01*
X147817398Y-85424554D01*
X147818164Y-85417054D01*
X147818105Y-85417049D01*
X147818734Y-85409859D01*
X147817910Y-85381557D01*
X147816500Y-85333082D01*
X147816500Y-80073705D01*
X147817809Y-80055735D01*
X147820287Y-80038816D01*
X147821289Y-80031977D01*
X147819069Y-80006605D01*
X147816736Y-79979934D01*
X147816500Y-79974528D01*
X147816500Y-79966297D01*
X147816500Y-79966291D01*
X147812693Y-79933724D01*
X147805999Y-79857203D01*
X147805999Y-79857201D01*
X147804539Y-79850129D01*
X147804597Y-79850116D01*
X147802965Y-79842757D01*
X147802906Y-79842772D01*
X147801242Y-79835753D01*
X147801241Y-79835745D01*
X147774974Y-79763576D01*
X147750814Y-79690666D01*
X147750809Y-79690659D01*
X147747760Y-79684118D01*
X147747815Y-79684091D01*
X147744533Y-79677313D01*
X147744480Y-79677340D01*
X147741235Y-79670880D01*
X147699028Y-79606708D01*
X147658710Y-79541342D01*
X147654234Y-79535682D01*
X147654281Y-79535644D01*
X147649519Y-79529799D01*
X147649474Y-79529838D01*
X147644834Y-79524308D01*
X147588964Y-79471596D01*
X144593729Y-76476361D01*
X144581949Y-76462730D01*
X144574482Y-76452701D01*
X144567612Y-76443472D01*
X144562323Y-76439034D01*
X144527587Y-76409886D01*
X144523612Y-76406244D01*
X144520690Y-76403322D01*
X144517780Y-76400411D01*
X144492040Y-76380059D01*
X144433209Y-76330694D01*
X144427180Y-76326729D01*
X144427212Y-76326680D01*
X144420853Y-76322628D01*
X144420822Y-76322679D01*
X144414680Y-76318891D01*
X144414678Y-76318890D01*
X144414677Y-76318889D01*
X144355059Y-76291088D01*
X144345058Y-76286424D01*
X144310894Y-76269267D01*
X144276433Y-76251960D01*
X144276431Y-76251959D01*
X144276430Y-76251959D01*
X144269645Y-76249489D01*
X144269665Y-76249433D01*
X144262549Y-76246959D01*
X144262531Y-76247015D01*
X144255671Y-76244742D01*
X144227841Y-76238996D01*
X144180434Y-76229207D01*
X144131472Y-76217603D01*
X144105719Y-76211499D01*
X144098547Y-76210661D01*
X144098553Y-76210601D01*
X144091055Y-76209835D01*
X144091050Y-76209895D01*
X144083860Y-76209265D01*
X144007083Y-76211500D01*
X139509708Y-76211500D01*
X139491737Y-76210191D01*
X139467979Y-76206711D01*
X139467973Y-76206710D01*
X139423512Y-76210601D01*
X139415931Y-76211264D01*
X139410530Y-76211500D01*
X139402289Y-76211500D01*
X139380579Y-76214037D01*
X139369724Y-76215306D01*
X139354419Y-76216645D01*
X139293199Y-76222001D01*
X139286132Y-76223460D01*
X139286120Y-76223404D01*
X139278763Y-76225035D01*
X139278777Y-76225092D01*
X139271743Y-76226759D01*
X139199575Y-76253025D01*
X139126675Y-76277181D01*
X139120126Y-76280236D01*
X139120101Y-76280183D01*
X139113308Y-76283471D01*
X139113334Y-76283523D01*
X139106880Y-76286764D01*
X139042708Y-76328971D01*
X138977347Y-76369285D01*
X138971683Y-76373765D01*
X138971647Y-76373719D01*
X138965798Y-76378484D01*
X138965835Y-76378528D01*
X138960310Y-76383164D01*
X138960304Y-76383169D01*
X138960304Y-76383170D01*
X138907598Y-76439034D01*
X138718833Y-76627798D01*
X138657510Y-76661283D01*
X138587818Y-76656299D01*
X138531885Y-76614427D01*
X138507468Y-76548963D01*
X138513871Y-76499854D01*
X138521937Y-76476361D01*
X138577164Y-76315488D01*
X138618080Y-76070293D01*
X138618080Y-75821707D01*
X138577164Y-75576512D01*
X138512713Y-75388773D01*
X138496450Y-75341399D01*
X138496448Y-75341394D01*
X138378135Y-75122771D01*
X138378131Y-75122766D01*
X138348624Y-75084856D01*
X138340397Y-75074285D01*
X138225456Y-74926609D01*
X138225453Y-74926605D01*
X138225451Y-74926603D01*
X138052325Y-74767228D01*
X138016335Y-74707342D01*
X138018436Y-74637504D01*
X138052324Y-74584771D01*
X138225451Y-74425397D01*
X138378135Y-74229229D01*
X138496449Y-74010604D01*
X138577164Y-73775488D01*
X138618080Y-73530293D01*
X138618080Y-73530291D01*
X151033360Y-73530291D01*
X151074276Y-73775491D01*
X151154989Y-74010600D01*
X151154991Y-74010605D01*
X151273304Y-74229228D01*
X151273308Y-74229233D01*
X151425983Y-74425390D01*
X151425992Y-74425400D01*
X151599483Y-74585111D01*
X151635474Y-74644998D01*
X151633373Y-74714836D01*
X151599483Y-74767570D01*
X151426355Y-74926945D01*
X151426352Y-74926949D01*
X151273730Y-75123037D01*
X151273726Y-75123043D01*
X151155451Y-75341595D01*
X151155448Y-75341604D01*
X151074762Y-75576632D01*
X151054844Y-75696000D01*
X154761156Y-75696000D01*
X154741237Y-75576632D01*
X154660551Y-75341604D01*
X154660548Y-75341595D01*
X154542273Y-75123043D01*
X154542269Y-75123037D01*
X154389647Y-74926949D01*
X154389644Y-74926946D01*
X154216516Y-74767570D01*
X154180526Y-74707683D01*
X154182626Y-74637845D01*
X154216514Y-74585113D01*
X154390011Y-74425397D01*
X154542695Y-74229229D01*
X154661009Y-74010604D01*
X154741724Y-73775488D01*
X154782640Y-73530293D01*
X154782640Y-73281707D01*
X154741724Y-73036512D01*
X154702410Y-72921995D01*
X154661010Y-72801399D01*
X154661008Y-72801394D01*
X154542695Y-72582771D01*
X154542691Y-72582766D01*
X154390016Y-72386609D01*
X154390007Y-72386599D01*
X154207121Y-72218240D01*
X154207122Y-72218240D01*
X153999012Y-72082276D01*
X153771365Y-71982421D01*
X153530382Y-71921396D01*
X153381577Y-71909066D01*
X153344693Y-71906010D01*
X152471307Y-71906010D01*
X152437754Y-71908790D01*
X152285617Y-71921396D01*
X152044634Y-71982421D01*
X151816987Y-72082276D01*
X151608877Y-72218240D01*
X151425992Y-72386599D01*
X151425983Y-72386609D01*
X151273308Y-72582766D01*
X151273304Y-72582771D01*
X151154991Y-72801394D01*
X151154989Y-72801399D01*
X151074276Y-73036508D01*
X151055732Y-73147637D01*
X151036033Y-73265692D01*
X151033360Y-73281708D01*
X151033360Y-73530291D01*
X138618080Y-73530291D01*
X138618080Y-73281707D01*
X138577164Y-73036512D01*
X138537850Y-72921995D01*
X138496450Y-72801399D01*
X138496448Y-72801394D01*
X138378135Y-72582771D01*
X138378131Y-72582766D01*
X138225456Y-72386609D01*
X138225447Y-72386599D01*
X138042561Y-72218240D01*
X138042562Y-72218240D01*
X137834452Y-72082276D01*
X137606805Y-71982421D01*
X137365822Y-71921396D01*
X137217017Y-71909066D01*
X137180133Y-71906010D01*
X136306747Y-71906010D01*
X136273194Y-71908790D01*
X136121057Y-71921396D01*
X135880074Y-71982421D01*
X135652427Y-72082276D01*
X135444317Y-72218240D01*
X135261432Y-72386599D01*
X135261423Y-72386609D01*
X135108748Y-72582766D01*
X135108744Y-72582771D01*
X135036906Y-72715518D01*
X134987686Y-72765108D01*
X134927851Y-72780500D01*
X133432743Y-72780500D01*
X133417122Y-72778775D01*
X133417096Y-72779061D01*
X133409334Y-72778327D01*
X133409333Y-72778327D01*
X133340186Y-72780500D01*
X133310649Y-72780500D01*
X133303766Y-72781369D01*
X133297949Y-72781826D01*
X133251373Y-72783290D01*
X133232129Y-72788881D01*
X133213079Y-72792825D01*
X133193211Y-72795334D01*
X133149884Y-72812488D01*
X133144358Y-72814379D01*
X133099614Y-72827379D01*
X133099610Y-72827381D01*
X133082366Y-72837579D01*
X133064905Y-72846133D01*
X133046274Y-72853510D01*
X133046262Y-72853517D01*
X133008570Y-72880902D01*
X133003687Y-72884109D01*
X132963580Y-72907829D01*
X132949414Y-72921995D01*
X132934624Y-72934627D01*
X132918414Y-72946404D01*
X132918411Y-72946407D01*
X132888710Y-72982309D01*
X132884777Y-72986631D01*
X130934208Y-74937199D01*
X130921951Y-74947020D01*
X130922134Y-74947241D01*
X130916123Y-74952213D01*
X130868772Y-75002636D01*
X130847889Y-75023519D01*
X130847877Y-75023532D01*
X130843621Y-75029017D01*
X130839837Y-75033447D01*
X130807937Y-75067418D01*
X130807936Y-75067420D01*
X130798284Y-75084976D01*
X130787610Y-75101226D01*
X130775329Y-75117061D01*
X130775324Y-75117068D01*
X130756815Y-75159838D01*
X130754245Y-75165084D01*
X130731803Y-75205906D01*
X130726822Y-75225307D01*
X130720521Y-75243710D01*
X130712562Y-75262102D01*
X130712561Y-75262105D01*
X130705271Y-75308127D01*
X130704087Y-75313846D01*
X130692501Y-75358972D01*
X130692500Y-75358982D01*
X130692500Y-75379016D01*
X130690973Y-75398415D01*
X130687840Y-75418194D01*
X130687840Y-75418195D01*
X127437541Y-75418195D01*
X127430586Y-75354982D01*
X127362072Y-75092912D01*
X127256130Y-74843610D01*
X127115018Y-74612390D01*
X127092316Y-74585110D01*
X126941746Y-74404180D01*
X126941740Y-74404175D01*
X126740002Y-74223418D01*
X126514092Y-74073957D01*
X126514090Y-74073956D01*
X126268824Y-73958980D01*
X126268819Y-73958978D01*
X126268814Y-73958976D01*
X126009442Y-73880942D01*
X126009428Y-73880939D01*
X125893791Y-73863921D01*
X125741439Y-73841500D01*
X125538369Y-73841500D01*
X125538364Y-73841500D01*
X125335844Y-73856323D01*
X125335831Y-73856325D01*
X125071453Y-73915217D01*
X125071446Y-73915220D01*
X124818439Y-74011987D01*
X124582226Y-74144557D01*
X124582224Y-74144558D01*
X124582223Y-74144559D01*
X124550137Y-74169335D01*
X124367822Y-74310112D01*
X124179822Y-74505109D01*
X124179816Y-74505116D01*
X124022202Y-74725419D01*
X124022199Y-74725424D01*
X123898350Y-74966309D01*
X123898343Y-74966327D01*
X123810884Y-75222685D01*
X123810881Y-75222699D01*
X123795102Y-75308127D01*
X123766204Y-75464583D01*
X123761681Y-75489068D01*
X123761680Y-75489075D01*
X123751787Y-75759763D01*
X117506000Y-75759763D01*
X117506000Y-75442000D01*
X118351000Y-75442000D01*
X118351000Y-74595138D01*
X118336051Y-74409968D01*
X118276740Y-74169335D01*
X118179597Y-73941332D01*
X118047133Y-73731856D01*
X117882793Y-73546354D01*
X117690816Y-73389610D01*
X117690811Y-73389606D01*
X117476185Y-73265692D01*
X117244462Y-73177811D01*
X117244450Y-73177807D01*
X117066000Y-73141376D01*
X117066000Y-74533950D01*
X117062475Y-74532100D01*
X116899781Y-74492000D01*
X116732219Y-74492000D01*
X116569525Y-74532100D01*
X116566000Y-74533950D01*
X116566000Y-73141080D01*
X116507962Y-73148128D01*
X116507955Y-73148129D01*
X116269916Y-73217079D01*
X116269908Y-73217082D01*
X116046002Y-73323325D01*
X116046000Y-73323327D01*
X115842037Y-73464113D01*
X115842036Y-73464114D01*
X115663299Y-73635792D01*
X115514415Y-73833920D01*
X115514409Y-73833931D01*
X115399237Y-74053371D01*
X115399236Y-74053375D01*
X115320754Y-74288454D01*
X115320754Y-74288455D01*
X115281000Y-74533079D01*
X115281000Y-75442000D01*
X116126000Y-75442000D01*
X116126000Y-75942000D01*
X115281000Y-75942000D01*
X115281000Y-76788862D01*
X111506500Y-76788862D01*
X111506500Y-64894500D01*
X111526185Y-64827461D01*
X111578989Y-64781706D01*
X111630500Y-64770500D01*
X129515240Y-64770500D01*
X129515383Y-64770528D01*
X129515384Y-64770524D01*
X129539997Y-64770539D01*
X129540000Y-64770541D01*
X129540383Y-64770383D01*
X129540500Y-64770099D01*
X129540541Y-64770000D01*
X129540540Y-64769997D01*
X129540583Y-64745889D01*
X129540500Y-64745467D01*
X129540500Y-58928004D01*
X148548451Y-58928004D01*
X148568616Y-59197101D01*
X148628664Y-59460188D01*
X148628666Y-59460195D01*
X148686742Y-59608170D01*
X148727257Y-59711398D01*
X148862185Y-59945102D01*
X148915655Y-60012151D01*
X149030442Y-60156089D01*
X149217183Y-60329358D01*
X149228259Y-60339635D01*
X149451226Y-60491651D01*
X149694359Y-60608738D01*
X149952228Y-60688280D01*
X149952229Y-60688280D01*
X149952232Y-60688281D01*
X150219063Y-60728499D01*
X150219068Y-60728499D01*
X150219071Y-60728500D01*
X150219072Y-60728500D01*
X150488928Y-60728500D01*
X150488929Y-60728500D01*
X150488936Y-60728499D01*
X150755767Y-60688281D01*
X150755768Y-60688280D01*
X150755772Y-60688280D01*
X151013641Y-60608738D01*
X151026503Y-60602543D01*
X151095442Y-60591188D01*
X151159578Y-60618907D01*
X151167990Y-60626580D01*
X151992181Y-61450771D01*
X152025666Y-61512094D01*
X152028500Y-61538452D01*
X152028500Y-61785312D01*
X152008815Y-61852351D01*
X151996650Y-61868284D01*
X151921466Y-61951784D01*
X151826821Y-62115715D01*
X151826818Y-62115722D01*
X151768327Y-62295740D01*
X151768326Y-62295744D01*
X151748540Y-62484000D01*
X151768326Y-62672256D01*
X151768327Y-62672259D01*
X151826818Y-62852277D01*
X151826821Y-62852284D01*
X151921467Y-63016216D01*
X152048129Y-63156888D01*
X152201265Y-63268148D01*
X152201270Y-63268151D01*
X152374192Y-63345142D01*
X152374197Y-63345144D01*
X152559354Y-63384500D01*
X152559355Y-63384500D01*
X152748644Y-63384500D01*
X152748646Y-63384500D01*
X152933803Y-63345144D01*
X153106730Y-63268151D01*
X153259871Y-63156888D01*
X153386533Y-63016216D01*
X153481179Y-62852284D01*
X153539674Y-62672256D01*
X153559460Y-62484000D01*
X153539674Y-62295744D01*
X153481179Y-62115716D01*
X153386533Y-61951784D01*
X153311350Y-61868284D01*
X153281120Y-61805292D01*
X153279500Y-61785312D01*
X153279500Y-61310737D01*
X153281224Y-61295123D01*
X153280938Y-61295096D01*
X153281672Y-61287333D01*
X153279500Y-61218203D01*
X153279500Y-61188651D01*
X153279500Y-61188650D01*
X153278629Y-61181759D01*
X153278172Y-61175945D01*
X153276709Y-61129372D01*
X153271122Y-61110144D01*
X153267174Y-61091084D01*
X153264664Y-61071208D01*
X153247507Y-61027875D01*
X153245619Y-61022359D01*
X153232619Y-60977612D01*
X153222418Y-60960363D01*
X153213860Y-60942894D01*
X153206486Y-60924268D01*
X153206483Y-60924264D01*
X153206483Y-60924263D01*
X153179098Y-60886571D01*
X153175890Y-60881687D01*
X153152172Y-60841582D01*
X153152163Y-60841571D01*
X153138005Y-60827413D01*
X153125370Y-60812620D01*
X153113593Y-60796412D01*
X153077693Y-60766713D01*
X153073381Y-60762790D01*
X152049776Y-59739185D01*
X152016291Y-59677862D01*
X152021275Y-59608170D01*
X152021993Y-59606294D01*
X152079334Y-59460195D01*
X152139383Y-59197103D01*
X152159549Y-58928004D01*
X153548451Y-58928004D01*
X153568616Y-59197101D01*
X153628664Y-59460188D01*
X153628666Y-59460195D01*
X153686742Y-59608170D01*
X153727257Y-59711398D01*
X153862185Y-59945102D01*
X153915655Y-60012151D01*
X154030442Y-60156089D01*
X154217183Y-60329358D01*
X154228259Y-60339635D01*
X154451226Y-60491651D01*
X154451231Y-60491653D01*
X154451232Y-60491654D01*
X154451233Y-60491655D01*
X154586311Y-60556705D01*
X154658301Y-60591373D01*
X154710161Y-60638195D01*
X154728500Y-60703093D01*
X154728500Y-61645944D01*
X154708815Y-61712983D01*
X154677386Y-61746261D01*
X154588132Y-61811109D01*
X154588123Y-61811116D01*
X154461466Y-61951785D01*
X154366821Y-62115715D01*
X154366818Y-62115722D01*
X154308327Y-62295740D01*
X154308326Y-62295744D01*
X154288540Y-62484000D01*
X154308326Y-62672256D01*
X154308327Y-62672259D01*
X154366818Y-62852277D01*
X154366821Y-62852284D01*
X154461467Y-63016216D01*
X154588129Y-63156888D01*
X154741265Y-63268148D01*
X154741270Y-63268151D01*
X154914192Y-63345142D01*
X154914197Y-63345144D01*
X155099354Y-63384500D01*
X155099355Y-63384500D01*
X155288644Y-63384500D01*
X155288646Y-63384500D01*
X155473803Y-63345144D01*
X155646730Y-63268151D01*
X155799871Y-63156888D01*
X155926533Y-63016216D01*
X156021179Y-62852284D01*
X156079674Y-62672256D01*
X156099460Y-62484000D01*
X156079674Y-62295744D01*
X156021179Y-62115716D01*
X155996112Y-62072298D01*
X155979500Y-62010300D01*
X155979500Y-60703093D01*
X155999185Y-60636054D01*
X156049697Y-60591373D01*
X156256775Y-60491651D01*
X156479741Y-60339635D01*
X156677561Y-60156085D01*
X156845815Y-59945102D01*
X156980743Y-59711398D01*
X157079334Y-59460195D01*
X157139383Y-59197103D01*
X157159549Y-58928004D01*
X158548953Y-58928004D01*
X158569113Y-59197026D01*
X158569113Y-59197028D01*
X158629142Y-59460033D01*
X158629148Y-59460052D01*
X158727709Y-59711181D01*
X158727708Y-59711181D01*
X158862602Y-59944822D01*
X158916294Y-60012151D01*
X158916295Y-60012151D01*
X159751452Y-59176993D01*
X159761188Y-59206956D01*
X159849186Y-59345619D01*
X159968903Y-59458040D01*
X160103510Y-59532041D01*
X159268848Y-60366702D01*
X159451483Y-60491220D01*
X159451485Y-60491221D01*
X159694539Y-60608269D01*
X159694537Y-60608269D01*
X159952337Y-60687790D01*
X159952343Y-60687792D01*
X160219101Y-60727999D01*
X160219110Y-60728000D01*
X160488890Y-60728000D01*
X160488898Y-60727999D01*
X160755656Y-60687792D01*
X160755662Y-60687790D01*
X161013461Y-60608269D01*
X161256521Y-60491218D01*
X161439150Y-60366702D01*
X160601534Y-59529086D01*
X160669629Y-59502126D01*
X160802492Y-59405595D01*
X160907175Y-59279055D01*
X160955631Y-59176079D01*
X161791703Y-60012151D01*
X161791704Y-60012150D01*
X161845393Y-59944828D01*
X161845400Y-59944817D01*
X161980290Y-59711181D01*
X162078851Y-59460052D01*
X162078857Y-59460033D01*
X162138886Y-59197028D01*
X162138886Y-59197026D01*
X162159047Y-58928004D01*
X162159047Y-58927995D01*
X162138886Y-58658973D01*
X162138886Y-58658971D01*
X162078857Y-58395966D01*
X162078851Y-58395947D01*
X161980290Y-58144818D01*
X161980291Y-58144818D01*
X161845397Y-57911177D01*
X161791704Y-57843847D01*
X160956546Y-58679004D01*
X160946812Y-58649044D01*
X160858814Y-58510381D01*
X160739097Y-58397960D01*
X160604489Y-58323958D01*
X161439150Y-57489296D01*
X161256517Y-57364779D01*
X161256516Y-57364778D01*
X161013460Y-57247730D01*
X161013462Y-57247730D01*
X160755662Y-57168209D01*
X160755656Y-57168207D01*
X160488898Y-57128000D01*
X160219101Y-57128000D01*
X159952343Y-57168207D01*
X159952337Y-57168209D01*
X159694538Y-57247730D01*
X159451485Y-57364778D01*
X159451476Y-57364783D01*
X159268848Y-57489296D01*
X160106465Y-58326913D01*
X160038371Y-58353874D01*
X159905508Y-58450405D01*
X159800825Y-58576945D01*
X159752368Y-58679920D01*
X158916295Y-57843848D01*
X158862600Y-57911180D01*
X158727709Y-58144818D01*
X158629148Y-58395947D01*
X158629142Y-58395966D01*
X158569113Y-58658971D01*
X158569113Y-58658973D01*
X158548953Y-58927995D01*
X158548953Y-58928004D01*
X157159549Y-58928004D01*
X157159549Y-58928000D01*
X157156466Y-58886862D01*
X157139389Y-58658973D01*
X157139383Y-58658897D01*
X157079334Y-58395805D01*
X156980743Y-58144602D01*
X156845815Y-57910898D01*
X156677561Y-57699915D01*
X156677560Y-57699914D01*
X156677557Y-57699910D01*
X156479741Y-57516365D01*
X156440038Y-57489296D01*
X156256775Y-57364349D01*
X156256769Y-57364346D01*
X156256768Y-57364345D01*
X156256767Y-57364344D01*
X156013643Y-57247263D01*
X156013645Y-57247263D01*
X155755773Y-57167720D01*
X155755767Y-57167718D01*
X155488936Y-57127500D01*
X155488929Y-57127500D01*
X155219071Y-57127500D01*
X155219063Y-57127500D01*
X154952232Y-57167718D01*
X154952226Y-57167720D01*
X154694358Y-57247262D01*
X154451230Y-57364346D01*
X154228258Y-57516365D01*
X154030442Y-57699910D01*
X153862185Y-57910898D01*
X153727258Y-58144599D01*
X153727256Y-58144603D01*
X153628666Y-58395804D01*
X153628664Y-58395811D01*
X153568616Y-58658898D01*
X153548451Y-58927995D01*
X153548451Y-58928004D01*
X152159549Y-58928004D01*
X152159549Y-58928000D01*
X152156466Y-58886862D01*
X152139389Y-58658973D01*
X152139383Y-58658897D01*
X152079334Y-58395805D01*
X151980743Y-58144602D01*
X151845815Y-57910898D01*
X151677561Y-57699915D01*
X151677560Y-57699914D01*
X151677557Y-57699910D01*
X151479741Y-57516365D01*
X151440038Y-57489296D01*
X151256775Y-57364349D01*
X151256769Y-57364346D01*
X151256768Y-57364345D01*
X151256767Y-57364344D01*
X151013643Y-57247263D01*
X151013645Y-57247263D01*
X150755773Y-57167720D01*
X150755767Y-57167718D01*
X150488936Y-57127500D01*
X150488929Y-57127500D01*
X150219071Y-57127500D01*
X150219063Y-57127500D01*
X149952232Y-57167718D01*
X149952226Y-57167720D01*
X149694358Y-57247262D01*
X149451230Y-57364346D01*
X149228258Y-57516365D01*
X149030442Y-57699910D01*
X148862185Y-57910898D01*
X148727258Y-58144599D01*
X148727256Y-58144603D01*
X148628666Y-58395804D01*
X148628664Y-58395811D01*
X148568616Y-58658898D01*
X148548451Y-58927995D01*
X148548451Y-58928004D01*
X129540500Y-58928004D01*
X129540500Y-56709763D01*
X131241787Y-56709763D01*
X131271413Y-56979013D01*
X131271415Y-56979024D01*
X131325057Y-57184206D01*
X131339928Y-57241088D01*
X131445870Y-57490390D01*
X131500637Y-57580129D01*
X131586979Y-57721605D01*
X131586986Y-57721615D01*
X131760253Y-57929819D01*
X131760259Y-57929824D01*
X131961998Y-58110582D01*
X132187910Y-58260044D01*
X132433176Y-58375020D01*
X132433183Y-58375022D01*
X132433185Y-58375023D01*
X132692557Y-58453057D01*
X132692564Y-58453058D01*
X132692569Y-58453060D01*
X132960561Y-58492500D01*
X132960566Y-58492500D01*
X133163636Y-58492500D01*
X133215133Y-58488730D01*
X133366156Y-58477677D01*
X133488584Y-58450405D01*
X133630546Y-58418782D01*
X133630548Y-58418781D01*
X133630553Y-58418780D01*
X133883558Y-58322014D01*
X134119777Y-58189441D01*
X134334177Y-58023888D01*
X134522186Y-57828881D01*
X134679799Y-57608579D01*
X134794405Y-57385669D01*
X134803649Y-57367690D01*
X134803651Y-57367684D01*
X134803656Y-57367675D01*
X134891118Y-57111305D01*
X134940319Y-56844933D01*
X134945259Y-56709763D01*
X170357787Y-56709763D01*
X170387413Y-56979013D01*
X170387415Y-56979024D01*
X170441057Y-57184206D01*
X170455928Y-57241088D01*
X170561870Y-57490390D01*
X170616637Y-57580129D01*
X170702979Y-57721605D01*
X170702986Y-57721615D01*
X170876253Y-57929819D01*
X170876259Y-57929824D01*
X171077998Y-58110582D01*
X171303910Y-58260044D01*
X171549176Y-58375020D01*
X171549183Y-58375022D01*
X171549185Y-58375023D01*
X171808557Y-58453057D01*
X171808564Y-58453058D01*
X171808569Y-58453060D01*
X172076561Y-58492500D01*
X172076566Y-58492500D01*
X172279636Y-58492500D01*
X172331133Y-58488730D01*
X172482156Y-58477677D01*
X172604584Y-58450405D01*
X172746546Y-58418782D01*
X172746548Y-58418781D01*
X172746553Y-58418780D01*
X172999558Y-58322014D01*
X173235777Y-58189441D01*
X173450177Y-58023888D01*
X173638186Y-57828881D01*
X173795799Y-57608579D01*
X173910405Y-57385669D01*
X173919649Y-57367690D01*
X173919651Y-57367684D01*
X173919656Y-57367675D01*
X174007118Y-57111305D01*
X174056319Y-56844933D01*
X174066212Y-56574235D01*
X174036586Y-56304982D01*
X173968072Y-56042912D01*
X173862130Y-55793610D01*
X173721018Y-55562390D01*
X173631747Y-55455119D01*
X173547746Y-55354180D01*
X173547740Y-55354175D01*
X173346002Y-55173418D01*
X173120092Y-55023957D01*
X173120090Y-55023956D01*
X172874824Y-54908980D01*
X172874819Y-54908978D01*
X172874814Y-54908976D01*
X172615442Y-54830942D01*
X172615428Y-54830939D01*
X172499791Y-54813921D01*
X172347439Y-54791500D01*
X172144369Y-54791500D01*
X172144364Y-54791500D01*
X171941844Y-54806323D01*
X171941831Y-54806325D01*
X171677453Y-54865217D01*
X171677446Y-54865220D01*
X171424439Y-54961987D01*
X171188226Y-55094557D01*
X170973822Y-55260112D01*
X170785822Y-55455109D01*
X170785816Y-55455116D01*
X170628202Y-55675419D01*
X170628199Y-55675424D01*
X170504350Y-55916309D01*
X170504343Y-55916327D01*
X170416884Y-56172685D01*
X170416881Y-56172699D01*
X170367681Y-56439068D01*
X170367680Y-56439075D01*
X170357787Y-56709763D01*
X134945259Y-56709763D01*
X134950212Y-56574235D01*
X134920586Y-56304982D01*
X134852072Y-56042912D01*
X134746130Y-55793610D01*
X134605018Y-55562390D01*
X134515747Y-55455119D01*
X134431746Y-55354180D01*
X134431740Y-55354175D01*
X134230002Y-55173418D01*
X134004092Y-55023957D01*
X134004090Y-55023956D01*
X133758824Y-54908980D01*
X133758819Y-54908978D01*
X133758814Y-54908976D01*
X133499442Y-54830942D01*
X133499428Y-54830939D01*
X133383791Y-54813921D01*
X133231439Y-54791500D01*
X133028369Y-54791500D01*
X133028364Y-54791500D01*
X132825844Y-54806323D01*
X132825831Y-54806325D01*
X132561453Y-54865217D01*
X132561446Y-54865220D01*
X132308439Y-54961987D01*
X132072226Y-55094557D01*
X131857822Y-55260112D01*
X131669822Y-55455109D01*
X131669816Y-55455116D01*
X131512202Y-55675419D01*
X131512199Y-55675424D01*
X131388350Y-55916309D01*
X131388343Y-55916327D01*
X131300884Y-56172685D01*
X131300881Y-56172699D01*
X131251681Y-56439068D01*
X131251680Y-56439075D01*
X131241787Y-56709763D01*
X129540500Y-56709763D01*
X129540500Y-53464500D01*
X129560185Y-53397461D01*
X129612989Y-53351706D01*
X129664500Y-53340500D01*
X175389500Y-53340500D01*
X175456539Y-53360185D01*
G37*
%TD.AperFunction*%
%TD*%
M02*
