M48
; DRILL file {KiCad 7.0.9} date Mon Mar 18 18:38:59 2024
; FORMAT={-:-/ absolute / inch / decimal}
; #@! TF.CreationDate,2024-03-18T18:38:59+01:00
; #@! TF.GenerationSoftware,Kicad,Pcbnew,7.0.9
; #@! TF.FileFunction,Plated,1,2,PTH
FMAT,2
INCH
; #@! TA.AperFunction,Plated,PTH,ViaDrill
T1C0.0157
; #@! TA.AperFunction,Plated,PTH,ComponentDrill
T2C0.0300
; #@! TA.AperFunction,Plated,PTH,ComponentDrill
T3C0.0512
; #@! TA.AperFunction,Plated,PTH,ComponentDrill
T4C0.0543
%
G90
G05
T1
X5.21Y-2.99
X5.24Y-3.24
X5.28Y-3.36
X5.51Y-3.56
X5.62Y-3.17
X5.72Y-3.29
X5.74Y-3.18
X5.765Y-3.525
X5.94Y-3.56
X6.01Y-2.46
X6.1Y-2.99
X6.11Y-2.46
X6.15Y-3.47
X6.43Y-3.29
X6.5Y-2.57
X6.53Y-3.29
X6.69Y-2.61
T2
X6.03Y-1.51
X6.13Y-1.51
X6.23Y-1.51
X6.33Y-1.51
X6.43Y-1.51
X6.53Y-1.51
T3
X5.9194Y-2.32
X6.1163Y-2.32
X6.3131Y-2.32
X6.51Y-2.32
T4
G00X4.5991Y-3.0001
M15
G01X4.5991Y-2.9599
M16
G05
G00X7.4691Y-3.0001
M15
G01X7.4691Y-2.9599
M16
G05
T0
M30
