%TF.GenerationSoftware,KiCad,Pcbnew,7.0.9*%
%TF.CreationDate,2024-03-18T18:38:54+01:00*%
%TF.ProjectId,esp32c3,65737033-3263-4332-9e6b-696361645f70,rev?*%
%TF.SameCoordinates,Original*%
%TF.FileFunction,Legend,Bot*%
%TF.FilePolarity,Positive*%
%FSLAX46Y46*%
G04 Gerber Fmt 4.6, Leading zero omitted, Abs format (unit mm)*
G04 Created by KiCad (PCBNEW 7.0.9) date 2024-03-18 18:38:54*
%MOMM*%
%LPD*%
G01*
G04 APERTURE LIST*
%ADD10C,0.150000*%
%ADD11C,0.120000*%
%ADD12C,0.127000*%
G04 APERTURE END LIST*
D10*
X158187333Y-52122819D02*
X158187333Y-52837104D01*
X158187333Y-52837104D02*
X158234952Y-52979961D01*
X158234952Y-52979961D02*
X158330190Y-53075200D01*
X158330190Y-53075200D02*
X158473047Y-53122819D01*
X158473047Y-53122819D02*
X158568285Y-53122819D01*
X157758761Y-52218057D02*
X157711142Y-52170438D01*
X157711142Y-52170438D02*
X157615904Y-52122819D01*
X157615904Y-52122819D02*
X157377809Y-52122819D01*
X157377809Y-52122819D02*
X157282571Y-52170438D01*
X157282571Y-52170438D02*
X157234952Y-52218057D01*
X157234952Y-52218057D02*
X157187333Y-52313295D01*
X157187333Y-52313295D02*
X157187333Y-52408533D01*
X157187333Y-52408533D02*
X157234952Y-52551390D01*
X157234952Y-52551390D02*
X157806380Y-53122819D01*
X157806380Y-53122819D02*
X157187333Y-53122819D01*
X194333714Y-65971009D02*
X194190857Y-66018628D01*
X194190857Y-66018628D02*
X194143238Y-66066247D01*
X194143238Y-66066247D02*
X194095619Y-66161485D01*
X194095619Y-66161485D02*
X194095619Y-66304342D01*
X194095619Y-66304342D02*
X194143238Y-66399580D01*
X194143238Y-66399580D02*
X194190857Y-66447200D01*
X194190857Y-66447200D02*
X194286095Y-66494819D01*
X194286095Y-66494819D02*
X194667047Y-66494819D01*
X194667047Y-66494819D02*
X194667047Y-65494819D01*
X194667047Y-65494819D02*
X194333714Y-65494819D01*
X194333714Y-65494819D02*
X194238476Y-65542438D01*
X194238476Y-65542438D02*
X194190857Y-65590057D01*
X194190857Y-65590057D02*
X194143238Y-65685295D01*
X194143238Y-65685295D02*
X194143238Y-65780533D01*
X194143238Y-65780533D02*
X194190857Y-65875771D01*
X194190857Y-65875771D02*
X194238476Y-65923390D01*
X194238476Y-65923390D02*
X194333714Y-65971009D01*
X194333714Y-65971009D02*
X194667047Y-65971009D01*
X193809904Y-65494819D02*
X193238476Y-65494819D01*
X193524190Y-66494819D02*
X193524190Y-65494819D01*
X192381333Y-66494819D02*
X192952761Y-66494819D01*
X192667047Y-66494819D02*
X192667047Y-65494819D01*
X192667047Y-65494819D02*
X192762285Y-65637676D01*
X192762285Y-65637676D02*
X192857523Y-65732914D01*
X192857523Y-65732914D02*
X192952761Y-65780533D01*
D11*
%TO.C,J2*%
X157034000Y-58928000D02*
G75*
G03*
X157034000Y-58928000I-1680000J0D01*
G01*
X162034000Y-58928000D02*
G75*
G03*
X162034000Y-58928000I-1680000J0D01*
G01*
X152034000Y-58928000D02*
G75*
G03*
X152034000Y-58928000I-1680000J0D01*
G01*
X166889427Y-59611042D02*
G75*
G03*
X166889000Y-58244000I-1535420J683041D01*
G01*
X165325195Y-60608252D02*
G75*
G03*
X166038000Y-60462999I28806J1680253D01*
G01*
X164670682Y-60462756D02*
G75*
G03*
X165354000Y-60608000I683318J1534756D01*
G01*
X163818574Y-58244958D02*
G75*
G03*
X163819000Y-59612000I1535426J-683042D01*
G01*
X166037042Y-57392573D02*
G75*
G03*
X164670000Y-57393000I-683041J-1535420D01*
G01*
X147793000Y-53667000D02*
X147793000Y-63588000D01*
X167914000Y-61528000D02*
X147793000Y-61528000D01*
X167914000Y-53667000D02*
X167914000Y-63588000D01*
X168154000Y-63088000D02*
X168154000Y-63828000D01*
X151581000Y-59951000D02*
X151628000Y-59997000D01*
X149079000Y-57859000D02*
X149126000Y-57905000D01*
X167914000Y-53667000D02*
X147793000Y-53667000D01*
X168154000Y-63828000D02*
X167654000Y-63828000D01*
X167914000Y-56627000D02*
X147793000Y-56627000D01*
X167914000Y-63588000D02*
X147793000Y-63588000D01*
X154284000Y-57653000D02*
X154319000Y-57689000D01*
X159284000Y-57653000D02*
X159319000Y-57689000D01*
X159079000Y-57859000D02*
X159126000Y-57905000D01*
X161581000Y-59951000D02*
X161628000Y-59997000D01*
X167914000Y-63028000D02*
X147793000Y-63028000D01*
X154079000Y-57859000D02*
X154126000Y-57905000D01*
X151388000Y-60167000D02*
X151423000Y-60202000D01*
X161388000Y-60167000D02*
X161423000Y-60202000D01*
X156581000Y-59951000D02*
X156628000Y-59997000D01*
X149284000Y-57653000D02*
X149319000Y-57689000D01*
X156388000Y-60167000D02*
X156423000Y-60202000D01*
D12*
%TO.C,BT1*%
X195046000Y-75692000D02*
X193046000Y-75692000D01*
X194046000Y-74692000D02*
X194046000Y-76692000D01*
X191896000Y-86182000D02*
X191896000Y-65202000D01*
X191896000Y-65202000D02*
X114936000Y-65202000D01*
X114936000Y-86182000D02*
X191896000Y-86182000D01*
X114936000Y-65202000D02*
X114936000Y-86182000D01*
X113786000Y-75692000D02*
X111786000Y-75692000D01*
%TD*%
M02*
