%TF.GenerationSoftware,KiCad,Pcbnew,7.0.9*%
%TF.CreationDate,2024-02-26T23:44:44+01:00*%
%TF.ProjectId,esp32c3,65737033-3263-4332-9e6b-696361645f70,rev?*%
%TF.SameCoordinates,Original*%
%TF.FileFunction,Copper,L2,Bot*%
%TF.FilePolarity,Positive*%
%FSLAX46Y46*%
G04 Gerber Fmt 4.6, Leading zero omitted, Abs format (unit mm)*
G04 Created by KiCad (PCBNEW 7.0.9) date 2024-02-26 23:44:44*
%MOMM*%
%LPD*%
G01*
G04 APERTURE LIST*
%TA.AperFunction,ComponentPad*%
%ADD10R,2.600000X2.600000*%
%TD*%
%TA.AperFunction,ComponentPad*%
%ADD11C,2.600000*%
%TD*%
%TA.AperFunction,ComponentPad*%
%ADD12O,2.070000X4.140000*%
%TD*%
%TA.AperFunction,ComponentPad*%
%ADD13C,1.524000*%
%TD*%
%TA.AperFunction,ViaPad*%
%ADD14C,0.800000*%
%TD*%
%TA.AperFunction,Conductor*%
%ADD15C,0.500000*%
%TD*%
%TA.AperFunction,Conductor*%
%ADD16C,0.250000*%
%TD*%
G04 APERTURE END LIST*
D10*
%TO.P,J1,1,Pin_1*%
%TO.N,Net-(J1-Pin_1)*%
X165354000Y-58928000D03*
D11*
%TO.P,J1,2,Pin_2*%
%TO.N,Net-(J1-Pin_2)*%
X160354000Y-58928000D03*
%TO.P,J1,3,Pin_3*%
%TO.N,Net-(J1-Pin_3)*%
X155354000Y-58928000D03*
%TO.P,J1,4,Pin_4*%
%TO.N,Net-(J1-Pin_4)*%
X150354000Y-58928000D03*
%TO.P,J1,5,Pin_5*%
%TO.N,unconnected-(J1-Pin_5-Pad5)*%
X145354000Y-58928000D03*
%TO.P,J1,6,Pin_6*%
%TO.N,Net-(J1-Pin_1)*%
X140354000Y-58928000D03*
%TD*%
D12*
%TO.P,BT1,+*%
%TO.N,Net-(BT1-Pad+)*%
X189716000Y-75692000D03*
%TO.P,BT1,-*%
%TO.N,Net-(BT1-Pad-)*%
X116816000Y-75692000D03*
%TD*%
D13*
%TO.P,U1,1,VCC*%
%TO.N,unconnected-(U1-VCC-Pad1)*%
X159639000Y-48387000D03*
%TO.P,U1,2,GND*%
%TO.N,unconnected-(U1-GND-Pad2)*%
X157099000Y-48387000D03*
%TO.P,U1,3,SCL*%
%TO.N,unconnected-(U1-SCL-Pad3)*%
X154559000Y-48387000D03*
%TO.P,U1,4,SDA*%
%TO.N,unconnected-(U1-SDA-Pad4)*%
X152019000Y-48387000D03*
%TO.P,U1,5,CSB*%
%TO.N,unconnected-(U1-CSB-Pad5)*%
X149479000Y-48387000D03*
%TO.P,U1,6,SDO*%
%TO.N,unconnected-(U1-SDO-Pad6)*%
X146939000Y-48387000D03*
%TD*%
D14*
%TO.N,Net-(J1-Pin_2)*%
X169926000Y-66294000D03*
X154940000Y-75946000D03*
%TO.N,Net-(J1-Pin_3)*%
X134112000Y-85344000D03*
X155194000Y-62484000D03*
%TO.N,Net-(J1-Pin_4)*%
X152654000Y-62484000D03*
X133096000Y-82296000D03*
%TO.N,Net-(U2-PA02_A0_D0)*%
X150876000Y-90424000D03*
X139954000Y-90424000D03*
%TO.N,Net-(U2-PA4_A1_D1)*%
X165100000Y-65278000D03*
X132334000Y-75946000D03*
%TO.N,Net-(U2-PA5_A9_D9_MISO)*%
X163322000Y-83566000D03*
X165862000Y-83566000D03*
%TO.N,Net-(BT1-Pad+)*%
X145288000Y-83566000D03*
%TO.N,Net-(BT1-Pad-)*%
X142748000Y-80518000D03*
X146431000Y-89535000D03*
%TD*%
D15*
%TO.N,Net-(J1-Pin_2)*%
X155702000Y-71882000D02*
X161290000Y-66294000D01*
X161290000Y-66294000D02*
X169926000Y-66294000D01*
X155702000Y-75184000D02*
X155702000Y-71882000D01*
X154940000Y-75946000D02*
X155702000Y-75184000D01*
D16*
%TO.N,Net-(J1-Pin_3)*%
X151384000Y-66294000D02*
X135636000Y-66294000D01*
X134112000Y-67818000D02*
X134112000Y-85344000D01*
X155194000Y-62484000D02*
X151384000Y-66294000D01*
X135636000Y-66294000D02*
X134112000Y-67818000D01*
%TO.N,Net-(J1-Pin_4)*%
X152654000Y-62484000D02*
X150368000Y-64770000D01*
X135382000Y-64770000D02*
X133096000Y-67056000D01*
X133096000Y-67056000D02*
X133096000Y-82296000D01*
X150368000Y-64770000D02*
X135382000Y-64770000D01*
%TO.N,Net-(U2-PA02_A0_D0)*%
X139954000Y-90424000D02*
X150876000Y-90424000D01*
%TO.N,Net-(U2-PA4_A1_D1)*%
X132334000Y-67181604D02*
X138047604Y-61468000D01*
X138047604Y-61468000D02*
X161290000Y-61468000D01*
X132334000Y-75946000D02*
X132334000Y-67181604D01*
X161290000Y-61468000D02*
X165100000Y-65278000D01*
%TO.N,Net-(U2-PA5_A9_D9_MISO)*%
X163322000Y-83566000D02*
X165862000Y-83566000D01*
D15*
%TO.N,Net-(BT1-Pad+)*%
X156464000Y-80264000D02*
X185144000Y-80264000D01*
X145288000Y-83566000D02*
X153162000Y-83566000D01*
X153162000Y-83566000D02*
X156464000Y-80264000D01*
X185144000Y-80264000D02*
X189716000Y-75692000D01*
%TO.N,Net-(BT1-Pad-)*%
X134112000Y-87376000D02*
X144272000Y-87376000D01*
X126492000Y-81534000D02*
X128270000Y-81534000D01*
X128270000Y-81534000D02*
X134112000Y-87376000D01*
X144399000Y-87503000D02*
X146431000Y-89535000D01*
X116816000Y-75692000D02*
X120650000Y-75692000D01*
X142748000Y-80772000D02*
X142748000Y-80518000D01*
X120650000Y-75692000D02*
X126492000Y-81534000D01*
X142748000Y-85852000D02*
X144399000Y-87503000D01*
X144272000Y-87376000D02*
X144399000Y-87503000D01*
X142748000Y-80772000D02*
X142748000Y-85852000D01*
%TD*%
M02*
