%TF.GenerationSoftware,KiCad,Pcbnew,7.0.9*%
%TF.CreationDate,2024-02-26T23:44:44+01:00*%
%TF.ProjectId,esp32c3,65737033-3263-4332-9e6b-696361645f70,rev?*%
%TF.SameCoordinates,Original*%
%TF.FileFunction,Soldermask,Top*%
%TF.FilePolarity,Negative*%
%FSLAX46Y46*%
G04 Gerber Fmt 4.6, Leading zero omitted, Abs format (unit mm)*
G04 Created by KiCad (PCBNEW 7.0.9) date 2024-02-26 23:44:44*
%MOMM*%
%LPD*%
G01*
G04 APERTURE LIST*
G04 Aperture macros list*
%AMRoundRect*
0 Rectangle with rounded corners*
0 $1 Rounding radius*
0 $2 $3 $4 $5 $6 $7 $8 $9 X,Y pos of 4 corners*
0 Add a 4 corners polygon primitive as box body*
4,1,4,$2,$3,$4,$5,$6,$7,$8,$9,$2,$3,0*
0 Add four circle primitives for the rounded corners*
1,1,$1+$1,$2,$3*
1,1,$1+$1,$4,$5*
1,1,$1+$1,$6,$7*
1,1,$1+$1,$8,$9*
0 Add four rect primitives between the rounded corners*
20,1,$1+$1,$2,$3,$4,$5,0*
20,1,$1+$1,$4,$5,$6,$7,0*
20,1,$1+$1,$6,$7,$8,$9,0*
20,1,$1+$1,$8,$9,$2,$3,0*%
G04 Aperture macros list end*
%ADD10C,3.200000*%
%ADD11RoundRect,0.102000X-0.550000X1.400000X-0.550000X-1.400000X0.550000X-1.400000X0.550000X1.400000X0*%
%ADD12RoundRect,0.102000X-0.550000X1.300000X-0.550000X-1.300000X0.550000X-1.300000X0.550000X1.300000X0*%
%ADD13RoundRect,0.102000X0.550000X-1.300000X0.550000X1.300000X-0.550000X1.300000X-0.550000X-1.300000X0*%
%ADD14RoundRect,0.225000X-0.225000X-0.250000X0.225000X-0.250000X0.225000X0.250000X-0.225000X0.250000X0*%
%ADD15RoundRect,0.200000X-0.200000X-0.275000X0.200000X-0.275000X0.200000X0.275000X-0.200000X0.275000X0*%
%ADD16O,2.748280X1.998980*%
%ADD17O,2.032000X1.016000*%
%ADD18R,2.600000X2.600000*%
%ADD19C,2.600000*%
%ADD20O,2.274000X4.344000*%
%ADD21C,1.524000*%
G04 APERTURE END LIST*
D10*
%TO.C,MH3*%
X172212000Y-93218000D03*
%TD*%
D11*
%TO.C,U3*%
X173482000Y-73152000D03*
D12*
X171482000Y-73052000D03*
X169482000Y-73052000D03*
X167482000Y-73052000D03*
X165482000Y-73052000D03*
X163482000Y-73052000D03*
X161482000Y-73052000D03*
X159482000Y-73052000D03*
D13*
X159482000Y-88452000D03*
X161482000Y-88452000D03*
X163482000Y-88452000D03*
X165482000Y-88452000D03*
X167482000Y-88452000D03*
X169482000Y-88452000D03*
X171482000Y-88452000D03*
X173482000Y-88452000D03*
%TD*%
D10*
%TO.C,MH3*%
X172212000Y-56642000D03*
%TD*%
%TO.C,MH3*%
X133096000Y-93218000D03*
%TD*%
D14*
%TO.C,C2*%
X170662000Y-69820000D03*
X172212000Y-69820000D03*
%TD*%
D15*
%TO.C,R1*%
X143256000Y-93980000D03*
X144906000Y-93980000D03*
%TD*%
D10*
%TO.C,MH3*%
X133096000Y-56642000D03*
%TD*%
D15*
%TO.C,R2*%
X147320000Y-93980000D03*
X148970000Y-93980000D03*
%TD*%
D16*
%TO.C,U2*%
X136743440Y-73406000D03*
X136743440Y-75946000D03*
X136743440Y-78486000D03*
X136743440Y-81026000D03*
X136743440Y-83566000D03*
X136743440Y-86106000D03*
X136743440Y-88646000D03*
X152908000Y-88646000D03*
X152908000Y-86106000D03*
X152908000Y-83566000D03*
X152908000Y-81026000D03*
X152908000Y-78486000D03*
X152908000Y-75946000D03*
X152908000Y-73406000D03*
D17*
X140228320Y-80601820D03*
X140228320Y-78823820D03*
%TD*%
D14*
%TO.C,C1*%
X170675000Y-67818000D03*
X172225000Y-67818000D03*
%TD*%
D18*
%TO.C,J1*%
X165354000Y-58928000D03*
D19*
X160354000Y-58928000D03*
X155354000Y-58928000D03*
X150354000Y-58928000D03*
X145354000Y-58928000D03*
X140354000Y-58928000D03*
%TD*%
D10*
%TO.C,BT1*%
X181221000Y-75692000D03*
X125606000Y-75692000D03*
D20*
X189716000Y-75692000D03*
X116816000Y-75692000D03*
%TD*%
D21*
%TO.C,U1*%
X159639000Y-48387000D03*
X157099000Y-48387000D03*
X154559000Y-48387000D03*
X152019000Y-48387000D03*
X149479000Y-48387000D03*
X146939000Y-48387000D03*
%TD*%
M02*
