%TF.GenerationSoftware,KiCad,Pcbnew,7.0.9*%
%TF.CreationDate,2024-02-26T23:44:44+01:00*%
%TF.ProjectId,esp32c3,65737033-3263-4332-9e6b-696361645f70,rev?*%
%TF.SameCoordinates,Original*%
%TF.FileFunction,Copper,L1,Top*%
%TF.FilePolarity,Positive*%
%FSLAX46Y46*%
G04 Gerber Fmt 4.6, Leading zero omitted, Abs format (unit mm)*
G04 Created by KiCad (PCBNEW 7.0.9) date 2024-02-26 23:44:44*
%MOMM*%
%LPD*%
G01*
G04 APERTURE LIST*
G04 Aperture macros list*
%AMRoundRect*
0 Rectangle with rounded corners*
0 $1 Rounding radius*
0 $2 $3 $4 $5 $6 $7 $8 $9 X,Y pos of 4 corners*
0 Add a 4 corners polygon primitive as box body*
4,1,4,$2,$3,$4,$5,$6,$7,$8,$9,$2,$3,0*
0 Add four circle primitives for the rounded corners*
1,1,$1+$1,$2,$3*
1,1,$1+$1,$4,$5*
1,1,$1+$1,$6,$7*
1,1,$1+$1,$8,$9*
0 Add four rect primitives between the rounded corners*
20,1,$1+$1,$2,$3,$4,$5,0*
20,1,$1+$1,$4,$5,$6,$7,0*
20,1,$1+$1,$6,$7,$8,$9,0*
20,1,$1+$1,$8,$9,$2,$3,0*%
G04 Aperture macros list end*
%TA.AperFunction,SMDPad,CuDef*%
%ADD10R,1.100000X2.800000*%
%TD*%
%TA.AperFunction,SMDPad,CuDef*%
%ADD11R,1.100000X2.600000*%
%TD*%
%TA.AperFunction,SMDPad,CuDef*%
%ADD12RoundRect,0.225000X-0.225000X-0.250000X0.225000X-0.250000X0.225000X0.250000X-0.225000X0.250000X0*%
%TD*%
%TA.AperFunction,SMDPad,CuDef*%
%ADD13RoundRect,0.200000X-0.200000X-0.275000X0.200000X-0.275000X0.200000X0.275000X-0.200000X0.275000X0*%
%TD*%
%TA.AperFunction,SMDPad,CuDef*%
%ADD14O,2.748280X1.998980*%
%TD*%
%TA.AperFunction,SMDPad,CuDef*%
%ADD15O,2.032000X1.016000*%
%TD*%
%TA.AperFunction,ComponentPad*%
%ADD16R,2.600000X2.600000*%
%TD*%
%TA.AperFunction,ComponentPad*%
%ADD17C,2.600000*%
%TD*%
%TA.AperFunction,ComponentPad*%
%ADD18O,2.070000X4.140000*%
%TD*%
%TA.AperFunction,ComponentPad*%
%ADD19C,1.524000*%
%TD*%
%TA.AperFunction,ViaPad*%
%ADD20C,0.800000*%
%TD*%
%TA.AperFunction,Conductor*%
%ADD21C,0.500000*%
%TD*%
%TA.AperFunction,Conductor*%
%ADD22C,0.250000*%
%TD*%
G04 APERTURE END LIST*
D10*
%TO.P,U3,1,GND*%
%TO.N,Net-(J1-Pin_2)*%
X173482000Y-73152000D03*
D11*
%TO.P,U3,2,GND*%
X171482000Y-73052000D03*
%TO.P,U3,3,3.3V*%
%TO.N,Net-(J1-Pin_1)*%
X169482000Y-73052000D03*
%TO.P,U3,4,RESET*%
%TO.N,Net-(U2-PA4_A1_D1)*%
X167482000Y-73052000D03*
%TO.P,U3,5,DI00*%
%TO.N,unconnected-(U3-DI00-Pad5)*%
X165482000Y-73052000D03*
%TO.P,U3,6,DI01*%
%TO.N,unconnected-(U3-DI01-Pad6)*%
X163482000Y-73052000D03*
%TO.P,U3,7,DI02*%
%TO.N,unconnected-(U3-DI02-Pad7)*%
X161482000Y-73052000D03*
%TO.P,U3,8,DI03*%
%TO.N,unconnected-(U3-DI03-Pad8)*%
X159482000Y-73052000D03*
%TO.P,U3,9,GND*%
%TO.N,Net-(J1-Pin_2)*%
X159482000Y-88452000D03*
%TO.P,U3,10,DI04*%
%TO.N,unconnected-(U3-DI04-Pad10)*%
X161482000Y-88452000D03*
%TO.P,U3,11,DI05*%
%TO.N,unconnected-(U3-DI05-Pad11)*%
X163482000Y-88452000D03*
%TO.P,U3,12,SCK*%
%TO.N,Net-(U2-PA7_A8_D8_SCK)*%
X165482000Y-88452000D03*
%TO.P,U3,13,MISO*%
%TO.N,Net-(U2-PA6_A10_D10_MOSI)*%
X167482000Y-88452000D03*
%TO.P,U3,14,MOSI*%
%TO.N,Net-(U2-PA5_A9_D9_MISO)*%
X169482000Y-88452000D03*
%TO.P,U3,15,NSS*%
%TO.N,Net-(U2-PA02_A0_D0)*%
X171482000Y-88452000D03*
%TO.P,U3,16,GND*%
%TO.N,Net-(J1-Pin_2)*%
X173482000Y-88452000D03*
%TD*%
D12*
%TO.P,C2,1*%
%TO.N,Net-(J1-Pin_1)*%
X170662000Y-69820000D03*
%TO.P,C2,2*%
%TO.N,Net-(J1-Pin_2)*%
X172212000Y-69820000D03*
%TD*%
D13*
%TO.P,R1,1*%
%TO.N,Net-(BT1-Pad+)*%
X143256000Y-93980000D03*
%TO.P,R1,2*%
%TO.N,Net-(U2-PA10_A2_D2)*%
X144906000Y-93980000D03*
%TD*%
%TO.P,R2,1*%
%TO.N,Net-(U2-PA10_A2_D2)*%
X147320000Y-93980000D03*
%TO.P,R2,2*%
%TO.N,Net-(BT1-Pad-)*%
X148970000Y-93980000D03*
%TD*%
D14*
%TO.P,U2,1,PA02_A0_D0*%
%TO.N,Net-(U2-PA02_A0_D0)*%
X136743440Y-73406000D03*
%TO.P,U2,2,PA4_A1_D1*%
%TO.N,Net-(U2-PA4_A1_D1)*%
X136743440Y-75946000D03*
%TO.P,U2,3,PA10_A2_D2*%
%TO.N,Net-(U2-PA10_A2_D2)*%
X136743440Y-78486000D03*
%TO.P,U2,4,PA11_A3_D3*%
%TO.N,unconnected-(U2-PA11_A3_D3-Pad4)*%
X136743440Y-81026000D03*
%TO.P,U2,5,PA8_A4_D4_SDA*%
%TO.N,Net-(J1-Pin_4)*%
X136743440Y-83566000D03*
%TO.P,U2,6,PA9_A5_D5_SCL*%
%TO.N,Net-(J1-Pin_3)*%
X136743440Y-86106000D03*
%TO.P,U2,7,PB08_A6_D6_TX*%
%TO.N,unconnected-(U2-PB08_A6_D6_TX-Pad7)*%
X136743440Y-88646000D03*
%TO.P,U2,8,PB09_A7_D7_RX*%
%TO.N,unconnected-(U2-PB09_A7_D7_RX-Pad8)*%
X152908000Y-88646000D03*
%TO.P,U2,9,PA7_A8_D8_SCK*%
%TO.N,Net-(U2-PA7_A8_D8_SCK)*%
X152908000Y-86106000D03*
%TO.P,U2,10,PA5_A9_D9_MISO*%
%TO.N,Net-(U2-PA5_A9_D9_MISO)*%
X152908000Y-83566000D03*
%TO.P,U2,11,PA6_A10_D10_MOSI*%
%TO.N,Net-(U2-PA6_A10_D10_MOSI)*%
X152908000Y-81026000D03*
%TO.P,U2,12,3V3*%
%TO.N,Net-(J1-Pin_1)*%
X152908000Y-78486000D03*
%TO.P,U2,13,GND*%
%TO.N,Net-(J1-Pin_2)*%
X152908000Y-75946000D03*
%TO.P,U2,14,5V*%
%TO.N,unconnected-(U2-5V-Pad14)*%
X152908000Y-73406000D03*
D15*
%TO.P,U2,15,5V*%
%TO.N,Net-(BT1-Pad+)*%
X140228320Y-80601820D03*
%TO.P,U2,16,GND*%
%TO.N,Net-(BT1-Pad-)*%
X140228320Y-78823820D03*
%TD*%
D12*
%TO.P,C1,1*%
%TO.N,Net-(J1-Pin_1)*%
X170675000Y-67818000D03*
%TO.P,C1,2*%
%TO.N,Net-(J1-Pin_2)*%
X172225000Y-67818000D03*
%TD*%
D16*
%TO.P,J1,1,Pin_1*%
%TO.N,Net-(J1-Pin_1)*%
X165354000Y-58928000D03*
D17*
%TO.P,J1,2,Pin_2*%
%TO.N,Net-(J1-Pin_2)*%
X160354000Y-58928000D03*
%TO.P,J1,3,Pin_3*%
%TO.N,Net-(J1-Pin_3)*%
X155354000Y-58928000D03*
%TO.P,J1,4,Pin_4*%
%TO.N,Net-(J1-Pin_4)*%
X150354000Y-58928000D03*
%TO.P,J1,5,Pin_5*%
%TO.N,unconnected-(J1-Pin_5-Pad5)*%
X145354000Y-58928000D03*
%TO.P,J1,6,Pin_6*%
%TO.N,Net-(J1-Pin_1)*%
X140354000Y-58928000D03*
%TD*%
D18*
%TO.P,BT1,+*%
%TO.N,Net-(BT1-Pad+)*%
X189716000Y-75692000D03*
%TO.P,BT1,-*%
%TO.N,Net-(BT1-Pad-)*%
X116816000Y-75692000D03*
%TD*%
D19*
%TO.P,U1,1,VCC*%
%TO.N,unconnected-(U1-VCC-Pad1)*%
X159639000Y-48387000D03*
%TO.P,U1,2,GND*%
%TO.N,unconnected-(U1-GND-Pad2)*%
X157099000Y-48387000D03*
%TO.P,U1,3,SCL*%
%TO.N,unconnected-(U1-SCL-Pad3)*%
X154559000Y-48387000D03*
%TO.P,U1,4,SDA*%
%TO.N,unconnected-(U1-SDA-Pad4)*%
X152019000Y-48387000D03*
%TO.P,U1,5,CSB*%
%TO.N,unconnected-(U1-CSB-Pad5)*%
X149479000Y-48387000D03*
%TO.P,U1,6,SDO*%
%TO.N,unconnected-(U1-SDO-Pad6)*%
X146939000Y-48387000D03*
%TD*%
D20*
%TO.N,Net-(J1-Pin_2)*%
X169926000Y-66294000D03*
X154940000Y-75946000D03*
%TO.N,Net-(J1-Pin_3)*%
X134112000Y-85344000D03*
X155194000Y-62484000D03*
%TO.N,Net-(J1-Pin_4)*%
X152654000Y-62484000D03*
X133096000Y-82296000D03*
%TO.N,Net-(U2-PA02_A0_D0)*%
X150876000Y-90424000D03*
X139954000Y-90424000D03*
%TO.N,Net-(U2-PA4_A1_D1)*%
X165100000Y-65278000D03*
X132334000Y-75946000D03*
%TO.N,Net-(U2-PA5_A9_D9_MISO)*%
X163322000Y-83566000D03*
X165862000Y-83566000D03*
%TO.N,Net-(BT1-Pad+)*%
X145288000Y-83566000D03*
%TO.N,Net-(BT1-Pad-)*%
X142748000Y-80518000D03*
X146431000Y-89535000D03*
%TD*%
D21*
%TO.N,Net-(U2-PA10_A2_D2)*%
X147066000Y-85344000D02*
X147066000Y-80010000D01*
X137363620Y-77865820D02*
X136743440Y-78486000D01*
X145200000Y-87210000D02*
X147066000Y-85344000D01*
X139446000Y-76962000D02*
X138542180Y-77865820D01*
X147066000Y-80010000D02*
X144018000Y-76962000D01*
X144018000Y-76962000D02*
X139446000Y-76962000D01*
X145200000Y-91352000D02*
X145200000Y-87210000D01*
X145200000Y-91352000D02*
X144906000Y-91646000D01*
X144906000Y-91646000D02*
X144906000Y-93980000D01*
X138542180Y-77865820D02*
X137363620Y-77865820D01*
X145200000Y-91352000D02*
X147320000Y-93472000D01*
X147320000Y-93472000D02*
X147320000Y-93980000D01*
%TO.N,Net-(J1-Pin_2)*%
X168148000Y-60960000D02*
X168148000Y-57150000D01*
X172720000Y-66294000D02*
X173482000Y-67056000D01*
X173482000Y-69088000D02*
X173482000Y-67056000D01*
X162956000Y-55880000D02*
X160354000Y-58482000D01*
X154686000Y-75946000D02*
X154940000Y-75946000D01*
D22*
X173482000Y-69075000D02*
X173482000Y-69088000D01*
D21*
X171704000Y-64516000D02*
X168148000Y-60960000D01*
X169926000Y-66294000D02*
X170942000Y-66294000D01*
X170942000Y-66294000D02*
X171704000Y-65532000D01*
X168148000Y-57150000D02*
X166878000Y-55880000D01*
X171704000Y-65532000D02*
X171704000Y-64516000D01*
X173482000Y-71120000D02*
X173482000Y-69088000D01*
X172225000Y-67818000D02*
X173482000Y-69075000D01*
X166878000Y-55880000D02*
X162956000Y-55880000D01*
D22*
X172212000Y-69820000D02*
X172212000Y-69850000D01*
D21*
X172212000Y-69850000D02*
X173482000Y-71120000D01*
X170942000Y-66294000D02*
X172720000Y-66294000D01*
X152908000Y-75946000D02*
X154686000Y-75946000D01*
X173482000Y-73152000D02*
X173482000Y-71120000D01*
%TO.N,Net-(J1-Pin_1)*%
X161290000Y-64262000D02*
X156972000Y-68580000D01*
X161290000Y-64262000D02*
X165354000Y-60198000D01*
X170528000Y-69820000D02*
X169482000Y-70866000D01*
X148482000Y-67056000D02*
X140354000Y-58928000D01*
X155448000Y-67056000D02*
X148482000Y-67056000D01*
X155702000Y-78486000D02*
X156972000Y-77216000D01*
X169482000Y-69088000D02*
X169482000Y-67374000D01*
X169482000Y-70866000D02*
X169482000Y-69088000D01*
X156972000Y-77216000D02*
X156972000Y-69342000D01*
X156972000Y-69342000D02*
X156972000Y-68580000D01*
X165354000Y-60198000D02*
X165354000Y-58928000D01*
X169482000Y-67374000D02*
X166370000Y-64262000D01*
D22*
X169482000Y-69011000D02*
X169482000Y-69088000D01*
X170662000Y-69820000D02*
X170528000Y-69820000D01*
D21*
X170675000Y-67818000D02*
X169482000Y-69011000D01*
X166370000Y-64262000D02*
X161290000Y-64262000D01*
X169482000Y-73052000D02*
X169482000Y-70866000D01*
X152908000Y-78486000D02*
X155702000Y-78486000D01*
X156972000Y-68580000D02*
X155448000Y-67056000D01*
D22*
%TO.N,Net-(J1-Pin_3)*%
X136743440Y-86106000D02*
X134874000Y-86106000D01*
X155354000Y-62324000D02*
X155354000Y-58928000D01*
X155194000Y-62484000D02*
X155354000Y-62324000D01*
X134874000Y-86106000D02*
X134112000Y-85344000D01*
%TO.N,Net-(J1-Pin_4)*%
X152654000Y-62484000D02*
X152654000Y-61228000D01*
X134366000Y-83566000D02*
X133096000Y-82296000D01*
X136743440Y-83566000D02*
X134366000Y-83566000D01*
X152654000Y-61228000D02*
X150354000Y-58928000D01*
%TO.N,Net-(U2-PA02_A0_D0)*%
X133350000Y-73406000D02*
X131318000Y-75438000D01*
X170260000Y-90424000D02*
X171482000Y-89202000D01*
X135128000Y-90424000D02*
X139954000Y-90424000D01*
X131318000Y-75438000D02*
X131318000Y-86614000D01*
X136743440Y-73406000D02*
X133350000Y-73406000D01*
X131318000Y-86614000D02*
X135128000Y-90424000D01*
X150876000Y-90424000D02*
X170260000Y-90424000D01*
X171482000Y-89202000D02*
X171482000Y-88452000D01*
%TO.N,Net-(U2-PA4_A1_D1)*%
X167482000Y-67660000D02*
X167482000Y-73052000D01*
X136743440Y-75946000D02*
X132334000Y-75946000D01*
X165100000Y-65278000D02*
X167482000Y-67660000D01*
%TO.N,Net-(U2-PA7_A8_D8_SCK)*%
X165482000Y-86488000D02*
X165482000Y-88452000D01*
X152908000Y-86106000D02*
X165100000Y-86106000D01*
X165100000Y-86106000D02*
X165482000Y-86488000D01*
%TO.N,Net-(U2-PA5_A9_D9_MISO)*%
X152908000Y-83566000D02*
X163322000Y-83566000D01*
X165862000Y-83566000D02*
X166624000Y-83566000D01*
X166624000Y-83566000D02*
X169482000Y-86424000D01*
X169482000Y-86424000D02*
X169482000Y-88452000D01*
%TO.N,Net-(U2-PA6_A10_D10_MOSI)*%
X167482000Y-86444000D02*
X167482000Y-88452000D01*
X162064000Y-81026000D02*
X167482000Y-86444000D01*
X152908000Y-81026000D02*
X162064000Y-81026000D01*
D21*
%TO.N,Net-(BT1-Pad+)*%
X143256000Y-83629500D02*
X143192500Y-83566000D01*
X145288000Y-83566000D02*
X143192500Y-83566000D01*
X143192500Y-83566000D02*
X140228320Y-80601820D01*
X143256000Y-93980000D02*
X143256000Y-83629500D01*
%TO.N,Net-(BT1-Pad-)*%
X146431000Y-89535000D02*
X148970000Y-92074000D01*
X142748000Y-80518000D02*
X141053820Y-78823820D01*
X141053820Y-78823820D02*
X140228320Y-78823820D01*
X140143503Y-78823820D02*
X140228320Y-78823820D01*
X148970000Y-92074000D02*
X148970000Y-93980000D01*
%TD*%
M02*
