M48
; DRILL file {KiCad 7.0.9} date Mon Jan  8 22:22:36 2024
; FORMAT={-:-/ absolute / inch / decimal}
; #@! TF.CreationDate,2024-01-08T22:22:36+01:00
; #@! TF.GenerationSoftware,Kicad,Pcbnew,7.0.9
; #@! TF.FileFunction,Plated,1,2,PTH
FMAT,2
INCH
; #@! TA.AperFunction,Plated,PTH,ViaDrill
T1C0.0157
; #@! TA.AperFunction,Plated,PTH,ComponentDrill
T2C0.0300
; #@! TA.AperFunction,Plated,PTH,ComponentDrill
T3C0.0394
%
G90
G05
T1
X4.837Y-3.637
X5.437Y-3.437
X5.537Y-3.337
T2
X5.237Y-2.927
X5.237Y-3.027
X5.237Y-3.127
X5.237Y-3.227
X5.237Y-3.327
X5.237Y-3.427
T3
X4.712Y-1.862
X4.712Y-1.962
X4.712Y-3.762
X4.712Y-3.862
X4.812Y-1.862
X4.812Y-1.962
X4.812Y-3.762
X4.812Y-3.862
X4.912Y-1.862
X4.912Y-1.962
X4.912Y-3.762
X4.912Y-3.862
X5.012Y-1.862
X5.012Y-1.962
X5.012Y-3.762
X5.012Y-3.862
X5.112Y-1.862
X5.112Y-1.962
X5.112Y-3.762
X5.112Y-3.862
X5.212Y-1.862
X5.212Y-1.962
X5.212Y-3.762
X5.212Y-3.862
X5.312Y-1.862
X5.312Y-1.962
X5.312Y-3.762
X5.312Y-3.862
X5.412Y-1.862
X5.412Y-1.962
X5.412Y-3.762
X5.412Y-3.862
X5.512Y-1.862
X5.512Y-1.962
X5.512Y-3.762
X5.512Y-3.862
X5.612Y-1.862
X5.612Y-1.962
X5.612Y-3.762
X5.612Y-3.862
X5.712Y-1.862
X5.712Y-1.962
X5.712Y-3.762
X5.712Y-3.862
X5.812Y-1.862
X5.812Y-1.962
X5.812Y-3.762
X5.812Y-3.862
X5.912Y-1.862
X5.912Y-1.962
X5.912Y-3.762
X5.912Y-3.862
X6.012Y-1.862
X6.012Y-1.962
X6.012Y-3.762
X6.012Y-3.862
X6.112Y-1.862
X6.112Y-1.962
X6.112Y-3.762
X6.112Y-3.862
X6.212Y-1.862
X6.212Y-1.962
X6.212Y-3.762
X6.212Y-3.862
X6.312Y-1.862
X6.312Y-1.962
X6.312Y-3.762
X6.312Y-3.862
X6.412Y-1.862
X6.412Y-1.962
X6.412Y-3.762
X6.412Y-3.862
X6.512Y-1.862
X6.512Y-1.962
X6.512Y-3.762
X6.512Y-3.862
X6.612Y-1.862
X6.612Y-1.962
X6.612Y-3.762
X6.612Y-3.862
X6.712Y-1.862
X6.712Y-1.962
X6.712Y-3.762
X6.712Y-3.862
X6.812Y-1.862
X6.812Y-1.962
X6.812Y-3.762
X6.812Y-3.862
X6.912Y-1.862
X6.912Y-1.962
X6.912Y-3.762
X6.912Y-3.862
T0
M30
