%TF.GenerationSoftware,KiCad,Pcbnew,7.0.9*%
%TF.CreationDate,2024-02-15T22:09:53+01:00*%
%TF.ProjectId,esp32c3,65737033-3263-4332-9e6b-696361645f70,rev?*%
%TF.SameCoordinates,Original*%
%TF.FileFunction,Legend,Top*%
%TF.FilePolarity,Positive*%
%FSLAX46Y46*%
G04 Gerber Fmt 4.6, Leading zero omitted, Abs format (unit mm)*
G04 Created by KiCad (PCBNEW 7.0.9) date 2024-02-15 22:09:53*
%MOMM*%
%LPD*%
G01*
G04 APERTURE LIST*
%ADD10C,0.150000*%
%ADD11C,0.101600*%
%ADD12C,0.076200*%
%ADD13C,0.127000*%
%ADD14C,0.200000*%
%ADD15C,0.066040*%
%ADD16C,0.254000*%
%ADD17C,0.120000*%
G04 APERTURE END LIST*
D10*
X175571819Y-76688904D02*
X176381342Y-76688904D01*
X176381342Y-76688904D02*
X176476580Y-76641285D01*
X176476580Y-76641285D02*
X176524200Y-76593666D01*
X176524200Y-76593666D02*
X176571819Y-76498428D01*
X176571819Y-76498428D02*
X176571819Y-76307952D01*
X176571819Y-76307952D02*
X176524200Y-76212714D01*
X176524200Y-76212714D02*
X176476580Y-76165095D01*
X176476580Y-76165095D02*
X176381342Y-76117476D01*
X176381342Y-76117476D02*
X175571819Y-76117476D01*
X175571819Y-75736523D02*
X175571819Y-75117476D01*
X175571819Y-75117476D02*
X175952771Y-75450809D01*
X175952771Y-75450809D02*
X175952771Y-75307952D01*
X175952771Y-75307952D02*
X176000390Y-75212714D01*
X176000390Y-75212714D02*
X176048009Y-75165095D01*
X176048009Y-75165095D02*
X176143247Y-75117476D01*
X176143247Y-75117476D02*
X176381342Y-75117476D01*
X176381342Y-75117476D02*
X176476580Y-75165095D01*
X176476580Y-75165095D02*
X176524200Y-75212714D01*
X176524200Y-75212714D02*
X176571819Y-75307952D01*
X176571819Y-75307952D02*
X176571819Y-75593666D01*
X176571819Y-75593666D02*
X176524200Y-75688904D01*
X176524200Y-75688904D02*
X176476580Y-75736523D01*
D11*
X144567486Y-69260305D02*
X144567486Y-69979972D01*
X144567486Y-69979972D02*
X144609820Y-70064638D01*
X144609820Y-70064638D02*
X144652153Y-70106972D01*
X144652153Y-70106972D02*
X144736820Y-70149305D01*
X144736820Y-70149305D02*
X144906153Y-70149305D01*
X144906153Y-70149305D02*
X144990820Y-70106972D01*
X144990820Y-70106972D02*
X145033153Y-70064638D01*
X145033153Y-70064638D02*
X145075486Y-69979972D01*
X145075486Y-69979972D02*
X145075486Y-69260305D01*
X145456486Y-69344972D02*
X145498819Y-69302638D01*
X145498819Y-69302638D02*
X145583486Y-69260305D01*
X145583486Y-69260305D02*
X145795153Y-69260305D01*
X145795153Y-69260305D02*
X145879819Y-69302638D01*
X145879819Y-69302638D02*
X145922153Y-69344972D01*
X145922153Y-69344972D02*
X145964486Y-69429638D01*
X145964486Y-69429638D02*
X145964486Y-69514305D01*
X145964486Y-69514305D02*
X145922153Y-69641305D01*
X145922153Y-69641305D02*
X145414153Y-70149305D01*
X145414153Y-70149305D02*
X145964486Y-70149305D01*
D12*
X141578149Y-80977841D02*
X141665235Y-81006869D01*
X141665235Y-81006869D02*
X141810377Y-81006869D01*
X141810377Y-81006869D02*
X141868435Y-80977841D01*
X141868435Y-80977841D02*
X141897463Y-80948812D01*
X141897463Y-80948812D02*
X141926492Y-80890755D01*
X141926492Y-80890755D02*
X141926492Y-80832698D01*
X141926492Y-80832698D02*
X141897463Y-80774641D01*
X141897463Y-80774641D02*
X141868435Y-80745612D01*
X141868435Y-80745612D02*
X141810377Y-80716583D01*
X141810377Y-80716583D02*
X141694263Y-80687555D01*
X141694263Y-80687555D02*
X141636206Y-80658526D01*
X141636206Y-80658526D02*
X141607177Y-80629498D01*
X141607177Y-80629498D02*
X141578149Y-80571441D01*
X141578149Y-80571441D02*
X141578149Y-80513383D01*
X141578149Y-80513383D02*
X141607177Y-80455326D01*
X141607177Y-80455326D02*
X141636206Y-80426298D01*
X141636206Y-80426298D02*
X141694263Y-80397269D01*
X141694263Y-80397269D02*
X141839406Y-80397269D01*
X141839406Y-80397269D02*
X141926492Y-80426298D01*
X142419977Y-80977841D02*
X142361920Y-81006869D01*
X142361920Y-81006869D02*
X142245806Y-81006869D01*
X142245806Y-81006869D02*
X142187748Y-80977841D01*
X142187748Y-80977841D02*
X142158720Y-80919783D01*
X142158720Y-80919783D02*
X142158720Y-80687555D01*
X142158720Y-80687555D02*
X142187748Y-80629498D01*
X142187748Y-80629498D02*
X142245806Y-80600469D01*
X142245806Y-80600469D02*
X142361920Y-80600469D01*
X142361920Y-80600469D02*
X142419977Y-80629498D01*
X142419977Y-80629498D02*
X142449006Y-80687555D01*
X142449006Y-80687555D02*
X142449006Y-80745612D01*
X142449006Y-80745612D02*
X142158720Y-80803669D01*
X142942491Y-80977841D02*
X142884434Y-81006869D01*
X142884434Y-81006869D02*
X142768320Y-81006869D01*
X142768320Y-81006869D02*
X142710262Y-80977841D01*
X142710262Y-80977841D02*
X142681234Y-80919783D01*
X142681234Y-80919783D02*
X142681234Y-80687555D01*
X142681234Y-80687555D02*
X142710262Y-80629498D01*
X142710262Y-80629498D02*
X142768320Y-80600469D01*
X142768320Y-80600469D02*
X142884434Y-80600469D01*
X142884434Y-80600469D02*
X142942491Y-80629498D01*
X142942491Y-80629498D02*
X142971520Y-80687555D01*
X142971520Y-80687555D02*
X142971520Y-80745612D01*
X142971520Y-80745612D02*
X142681234Y-80803669D01*
X143465005Y-80977841D02*
X143406948Y-81006869D01*
X143406948Y-81006869D02*
X143290834Y-81006869D01*
X143290834Y-81006869D02*
X143232776Y-80977841D01*
X143232776Y-80977841D02*
X143203748Y-80919783D01*
X143203748Y-80919783D02*
X143203748Y-80687555D01*
X143203748Y-80687555D02*
X143232776Y-80629498D01*
X143232776Y-80629498D02*
X143290834Y-80600469D01*
X143290834Y-80600469D02*
X143406948Y-80600469D01*
X143406948Y-80600469D02*
X143465005Y-80629498D01*
X143465005Y-80629498D02*
X143494034Y-80687555D01*
X143494034Y-80687555D02*
X143494034Y-80745612D01*
X143494034Y-80745612D02*
X143203748Y-80803669D01*
X144016548Y-81006869D02*
X144016548Y-80397269D01*
X144016548Y-80977841D02*
X143958490Y-81006869D01*
X143958490Y-81006869D02*
X143842376Y-81006869D01*
X143842376Y-81006869D02*
X143784319Y-80977841D01*
X143784319Y-80977841D02*
X143755290Y-80948812D01*
X143755290Y-80948812D02*
X143726262Y-80890755D01*
X143726262Y-80890755D02*
X143726262Y-80716583D01*
X143726262Y-80716583D02*
X143755290Y-80658526D01*
X143755290Y-80658526D02*
X143784319Y-80629498D01*
X143784319Y-80629498D02*
X143842376Y-80600469D01*
X143842376Y-80600469D02*
X143958490Y-80600469D01*
X143958490Y-80600469D02*
X144016548Y-80629498D01*
X144568091Y-80600469D02*
X144568091Y-81006869D01*
X144306833Y-80600469D02*
X144306833Y-80919783D01*
X144306833Y-80919783D02*
X144335862Y-80977841D01*
X144335862Y-80977841D02*
X144393919Y-81006869D01*
X144393919Y-81006869D02*
X144481005Y-81006869D01*
X144481005Y-81006869D02*
X144539062Y-80977841D01*
X144539062Y-80977841D02*
X144568091Y-80948812D01*
X144858376Y-81006869D02*
X144858376Y-80600469D01*
X144858376Y-80397269D02*
X144829348Y-80426298D01*
X144829348Y-80426298D02*
X144858376Y-80455326D01*
X144858376Y-80455326D02*
X144887405Y-80426298D01*
X144887405Y-80426298D02*
X144858376Y-80397269D01*
X144858376Y-80397269D02*
X144858376Y-80455326D01*
X145148662Y-80600469D02*
X145148662Y-81006869D01*
X145148662Y-80658526D02*
X145177691Y-80629498D01*
X145177691Y-80629498D02*
X145235748Y-80600469D01*
X145235748Y-80600469D02*
X145322834Y-80600469D01*
X145322834Y-80600469D02*
X145380891Y-80629498D01*
X145380891Y-80629498D02*
X145409920Y-80687555D01*
X145409920Y-80687555D02*
X145409920Y-81006869D01*
X145787291Y-81006869D02*
X145729234Y-80977841D01*
X145729234Y-80977841D02*
X145700205Y-80948812D01*
X145700205Y-80948812D02*
X145671177Y-80890755D01*
X145671177Y-80890755D02*
X145671177Y-80716583D01*
X145671177Y-80716583D02*
X145700205Y-80658526D01*
X145700205Y-80658526D02*
X145729234Y-80629498D01*
X145729234Y-80629498D02*
X145787291Y-80600469D01*
X145787291Y-80600469D02*
X145874377Y-80600469D01*
X145874377Y-80600469D02*
X145932434Y-80629498D01*
X145932434Y-80629498D02*
X145961463Y-80658526D01*
X145961463Y-80658526D02*
X145990491Y-80716583D01*
X145990491Y-80716583D02*
X145990491Y-80890755D01*
X145990491Y-80890755D02*
X145961463Y-80948812D01*
X145961463Y-80948812D02*
X145932434Y-80977841D01*
X145932434Y-80977841D02*
X145874377Y-81006869D01*
X145874377Y-81006869D02*
X145787291Y-81006869D01*
X146193691Y-80397269D02*
X146600091Y-81006869D01*
X146600091Y-80397269D02*
X146193691Y-81006869D01*
X146832319Y-81006869D02*
X146832319Y-80397269D01*
X147093577Y-80832698D02*
X147383863Y-80832698D01*
X147035520Y-81006869D02*
X147238720Y-80397269D01*
X147238720Y-80397269D02*
X147441920Y-81006869D01*
X147761234Y-80397269D02*
X147877348Y-80397269D01*
X147877348Y-80397269D02*
X147935405Y-80426298D01*
X147935405Y-80426298D02*
X147993462Y-80484355D01*
X147993462Y-80484355D02*
X148022491Y-80600469D01*
X148022491Y-80600469D02*
X148022491Y-80803669D01*
X148022491Y-80803669D02*
X147993462Y-80919783D01*
X147993462Y-80919783D02*
X147935405Y-80977841D01*
X147935405Y-80977841D02*
X147877348Y-81006869D01*
X147877348Y-81006869D02*
X147761234Y-81006869D01*
X147761234Y-81006869D02*
X147703177Y-80977841D01*
X147703177Y-80977841D02*
X147645119Y-80919783D01*
X147645119Y-80919783D02*
X147616091Y-80803669D01*
X147616091Y-80803669D02*
X147616091Y-80600469D01*
X147616091Y-80600469D02*
X147645119Y-80484355D01*
X147645119Y-80484355D02*
X147703177Y-80426298D01*
X147703177Y-80426298D02*
X147761234Y-80397269D01*
D10*
X162058819Y-65865333D02*
X162773104Y-65865333D01*
X162773104Y-65865333D02*
X162915961Y-65912952D01*
X162915961Y-65912952D02*
X163011200Y-66008190D01*
X163011200Y-66008190D02*
X163058819Y-66151047D01*
X163058819Y-66151047D02*
X163058819Y-66246285D01*
X163058819Y-64865333D02*
X163058819Y-65436761D01*
X163058819Y-65151047D02*
X162058819Y-65151047D01*
X162058819Y-65151047D02*
X162201676Y-65246285D01*
X162201676Y-65246285D02*
X162296914Y-65341523D01*
X162296914Y-65341523D02*
X162344533Y-65436761D01*
D13*
%TO.C,U3*%
X174982000Y-72752000D02*
X174982000Y-88752000D01*
X157982000Y-72752000D02*
X157982000Y-88752000D01*
D14*
X173582000Y-71176000D02*
G75*
G03*
X173582000Y-71176000I-100000J0D01*
G01*
D13*
%TO.C,U2*%
X135910320Y-71196200D02*
X135910320Y-91523820D01*
X135910320Y-91523820D02*
X153708100Y-91523820D01*
X136580880Y-70525640D02*
X135910320Y-71196200D01*
D15*
X139593320Y-70441820D02*
X141371320Y-70441820D01*
X139593320Y-73108820D02*
X139593320Y-70441820D01*
X139593320Y-73108820D02*
X141371320Y-73108820D01*
X139593320Y-74505820D02*
X141371320Y-74505820D01*
X139593320Y-77175360D02*
X139593320Y-74505820D01*
X139593320Y-77175360D02*
X141371320Y-77175360D01*
D13*
X140304520Y-76454000D02*
X140304520Y-69100700D01*
X140309600Y-69100700D02*
X149303740Y-69100700D01*
D15*
X141371320Y-73108820D02*
X141371320Y-70441820D01*
X141371320Y-77175360D02*
X141371320Y-74505820D01*
X142260320Y-71203820D02*
X147340320Y-71203820D01*
X142260320Y-73743820D02*
X142260320Y-71203820D01*
X142260320Y-73743820D02*
X147340320Y-73743820D01*
X147340320Y-73743820D02*
X147340320Y-71203820D01*
X148229320Y-70441820D02*
X150007320Y-70441820D01*
X148229320Y-73108820D02*
X148229320Y-70441820D01*
X148229320Y-73108820D02*
X150007320Y-73108820D01*
X148229320Y-74505820D02*
X150007320Y-74505820D01*
X148229320Y-77175360D02*
X148229320Y-74505820D01*
X148229320Y-77175360D02*
X150007320Y-77175360D01*
D13*
X149303740Y-69100700D02*
X149303740Y-76454000D01*
X149303740Y-76454000D02*
X140304520Y-76454000D01*
D15*
X150007320Y-73108820D02*
X150007320Y-70441820D01*
X150007320Y-77175360D02*
X150007320Y-74505820D01*
D13*
X153708100Y-70525640D02*
X136580880Y-70525640D01*
X153708100Y-91523820D02*
X153708100Y-70525640D01*
D16*
X135148320Y-73362820D02*
G75*
G03*
X135148320Y-73362820I-127000J0D01*
G01*
D17*
%TO.C,J1*%
X161604000Y-64202000D02*
X161604000Y-65532000D01*
X160274000Y-64202000D02*
X161604000Y-64202000D01*
X159004000Y-64202000D02*
X146244000Y-64202000D01*
X159004000Y-64202000D02*
X159004000Y-66862000D01*
X146244000Y-64202000D02*
X146244000Y-66862000D01*
X159004000Y-66862000D02*
X146244000Y-66862000D01*
%TD*%
M02*
