%TF.GenerationSoftware,KiCad,Pcbnew,7.0.9*%
%TF.CreationDate,2024-02-15T22:09:53+01:00*%
%TF.ProjectId,esp32c3,65737033-3263-4332-9e6b-696361645f70,rev?*%
%TF.SameCoordinates,Original*%
%TF.FileFunction,Legend,Bot*%
%TF.FilePolarity,Positive*%
%FSLAX46Y46*%
G04 Gerber Fmt 4.6, Leading zero omitted, Abs format (unit mm)*
G04 Created by KiCad (PCBNEW 7.0.9) date 2024-02-15 22:09:53*
%MOMM*%
%LPD*%
G01*
G04 APERTURE LIST*
%ADD10C,0.150000*%
%ADD11C,0.120000*%
G04 APERTURE END LIST*
D10*
X161887819Y-59309095D02*
X162697342Y-59309095D01*
X162697342Y-59309095D02*
X162792580Y-59356714D01*
X162792580Y-59356714D02*
X162840200Y-59404333D01*
X162840200Y-59404333D02*
X162887819Y-59499571D01*
X162887819Y-59499571D02*
X162887819Y-59690047D01*
X162887819Y-59690047D02*
X162840200Y-59785285D01*
X162840200Y-59785285D02*
X162792580Y-59832904D01*
X162792580Y-59832904D02*
X162697342Y-59880523D01*
X162697342Y-59880523D02*
X161887819Y-59880523D01*
X162887819Y-60880523D02*
X162887819Y-60309095D01*
X162887819Y-60594809D02*
X161887819Y-60594809D01*
X161887819Y-60594809D02*
X162030676Y-60499571D01*
X162030676Y-60499571D02*
X162125914Y-60404333D01*
X162125914Y-60404333D02*
X162173533Y-60309095D01*
X157363438Y-55753095D02*
X157315819Y-55657857D01*
X157315819Y-55657857D02*
X157315819Y-55515000D01*
X157315819Y-55515000D02*
X157363438Y-55372143D01*
X157363438Y-55372143D02*
X157458676Y-55276905D01*
X157458676Y-55276905D02*
X157553914Y-55229286D01*
X157553914Y-55229286D02*
X157744390Y-55181667D01*
X157744390Y-55181667D02*
X157887247Y-55181667D01*
X157887247Y-55181667D02*
X158077723Y-55229286D01*
X158077723Y-55229286D02*
X158172961Y-55276905D01*
X158172961Y-55276905D02*
X158268200Y-55372143D01*
X158268200Y-55372143D02*
X158315819Y-55515000D01*
X158315819Y-55515000D02*
X158315819Y-55610238D01*
X158315819Y-55610238D02*
X158268200Y-55753095D01*
X158268200Y-55753095D02*
X158220580Y-55800714D01*
X158220580Y-55800714D02*
X157887247Y-55800714D01*
X157887247Y-55800714D02*
X157887247Y-55610238D01*
X158315819Y-56229286D02*
X157315819Y-56229286D01*
X157315819Y-56229286D02*
X158315819Y-56800714D01*
X158315819Y-56800714D02*
X157315819Y-56800714D01*
X158315819Y-57276905D02*
X157315819Y-57276905D01*
X157315819Y-57276905D02*
X157315819Y-57515000D01*
X157315819Y-57515000D02*
X157363438Y-57657857D01*
X157363438Y-57657857D02*
X157458676Y-57753095D01*
X157458676Y-57753095D02*
X157553914Y-57800714D01*
X157553914Y-57800714D02*
X157744390Y-57848333D01*
X157744390Y-57848333D02*
X157887247Y-57848333D01*
X157887247Y-57848333D02*
X158077723Y-57800714D01*
X158077723Y-57800714D02*
X158172961Y-57753095D01*
X158172961Y-57753095D02*
X158268200Y-57657857D01*
X158268200Y-57657857D02*
X158315819Y-57515000D01*
X158315819Y-57515000D02*
X158315819Y-57276905D01*
X155728200Y-55324524D02*
X155775819Y-55467381D01*
X155775819Y-55467381D02*
X155775819Y-55705476D01*
X155775819Y-55705476D02*
X155728200Y-55800714D01*
X155728200Y-55800714D02*
X155680580Y-55848333D01*
X155680580Y-55848333D02*
X155585342Y-55895952D01*
X155585342Y-55895952D02*
X155490104Y-55895952D01*
X155490104Y-55895952D02*
X155394866Y-55848333D01*
X155394866Y-55848333D02*
X155347247Y-55800714D01*
X155347247Y-55800714D02*
X155299628Y-55705476D01*
X155299628Y-55705476D02*
X155252009Y-55515000D01*
X155252009Y-55515000D02*
X155204390Y-55419762D01*
X155204390Y-55419762D02*
X155156771Y-55372143D01*
X155156771Y-55372143D02*
X155061533Y-55324524D01*
X155061533Y-55324524D02*
X154966295Y-55324524D01*
X154966295Y-55324524D02*
X154871057Y-55372143D01*
X154871057Y-55372143D02*
X154823438Y-55419762D01*
X154823438Y-55419762D02*
X154775819Y-55515000D01*
X154775819Y-55515000D02*
X154775819Y-55753095D01*
X154775819Y-55753095D02*
X154823438Y-55895952D01*
X155680580Y-56895952D02*
X155728200Y-56848333D01*
X155728200Y-56848333D02*
X155775819Y-56705476D01*
X155775819Y-56705476D02*
X155775819Y-56610238D01*
X155775819Y-56610238D02*
X155728200Y-56467381D01*
X155728200Y-56467381D02*
X155632961Y-56372143D01*
X155632961Y-56372143D02*
X155537723Y-56324524D01*
X155537723Y-56324524D02*
X155347247Y-56276905D01*
X155347247Y-56276905D02*
X155204390Y-56276905D01*
X155204390Y-56276905D02*
X155013914Y-56324524D01*
X155013914Y-56324524D02*
X154918676Y-56372143D01*
X154918676Y-56372143D02*
X154823438Y-56467381D01*
X154823438Y-56467381D02*
X154775819Y-56610238D01*
X154775819Y-56610238D02*
X154775819Y-56705476D01*
X154775819Y-56705476D02*
X154823438Y-56848333D01*
X154823438Y-56848333D02*
X154871057Y-56895952D01*
X155775819Y-57800714D02*
X155775819Y-57324524D01*
X155775819Y-57324524D02*
X154775819Y-57324524D01*
X150600580Y-55848333D02*
X150648200Y-55800714D01*
X150648200Y-55800714D02*
X150695819Y-55657857D01*
X150695819Y-55657857D02*
X150695819Y-55562619D01*
X150695819Y-55562619D02*
X150648200Y-55419762D01*
X150648200Y-55419762D02*
X150552961Y-55324524D01*
X150552961Y-55324524D02*
X150457723Y-55276905D01*
X150457723Y-55276905D02*
X150267247Y-55229286D01*
X150267247Y-55229286D02*
X150124390Y-55229286D01*
X150124390Y-55229286D02*
X149933914Y-55276905D01*
X149933914Y-55276905D02*
X149838676Y-55324524D01*
X149838676Y-55324524D02*
X149743438Y-55419762D01*
X149743438Y-55419762D02*
X149695819Y-55562619D01*
X149695819Y-55562619D02*
X149695819Y-55657857D01*
X149695819Y-55657857D02*
X149743438Y-55800714D01*
X149743438Y-55800714D02*
X149791057Y-55848333D01*
X150648200Y-56229286D02*
X150695819Y-56372143D01*
X150695819Y-56372143D02*
X150695819Y-56610238D01*
X150695819Y-56610238D02*
X150648200Y-56705476D01*
X150648200Y-56705476D02*
X150600580Y-56753095D01*
X150600580Y-56753095D02*
X150505342Y-56800714D01*
X150505342Y-56800714D02*
X150410104Y-56800714D01*
X150410104Y-56800714D02*
X150314866Y-56753095D01*
X150314866Y-56753095D02*
X150267247Y-56705476D01*
X150267247Y-56705476D02*
X150219628Y-56610238D01*
X150219628Y-56610238D02*
X150172009Y-56419762D01*
X150172009Y-56419762D02*
X150124390Y-56324524D01*
X150124390Y-56324524D02*
X150076771Y-56276905D01*
X150076771Y-56276905D02*
X149981533Y-56229286D01*
X149981533Y-56229286D02*
X149886295Y-56229286D01*
X149886295Y-56229286D02*
X149791057Y-56276905D01*
X149791057Y-56276905D02*
X149743438Y-56324524D01*
X149743438Y-56324524D02*
X149695819Y-56419762D01*
X149695819Y-56419762D02*
X149695819Y-56657857D01*
X149695819Y-56657857D02*
X149743438Y-56800714D01*
X150172009Y-57562619D02*
X150219628Y-57705476D01*
X150219628Y-57705476D02*
X150267247Y-57753095D01*
X150267247Y-57753095D02*
X150362485Y-57800714D01*
X150362485Y-57800714D02*
X150505342Y-57800714D01*
X150505342Y-57800714D02*
X150600580Y-57753095D01*
X150600580Y-57753095D02*
X150648200Y-57705476D01*
X150648200Y-57705476D02*
X150695819Y-57610238D01*
X150695819Y-57610238D02*
X150695819Y-57229286D01*
X150695819Y-57229286D02*
X149695819Y-57229286D01*
X149695819Y-57229286D02*
X149695819Y-57562619D01*
X149695819Y-57562619D02*
X149743438Y-57657857D01*
X149743438Y-57657857D02*
X149791057Y-57705476D01*
X149791057Y-57705476D02*
X149886295Y-57753095D01*
X149886295Y-57753095D02*
X149981533Y-57753095D01*
X149981533Y-57753095D02*
X150076771Y-57705476D01*
X150076771Y-57705476D02*
X150124390Y-57657857D01*
X150124390Y-57657857D02*
X150172009Y-57562619D01*
X150172009Y-57562619D02*
X150172009Y-57229286D01*
X159855819Y-55181667D02*
X160855819Y-55515000D01*
X160855819Y-55515000D02*
X159855819Y-55848333D01*
X160760580Y-56753095D02*
X160808200Y-56705476D01*
X160808200Y-56705476D02*
X160855819Y-56562619D01*
X160855819Y-56562619D02*
X160855819Y-56467381D01*
X160855819Y-56467381D02*
X160808200Y-56324524D01*
X160808200Y-56324524D02*
X160712961Y-56229286D01*
X160712961Y-56229286D02*
X160617723Y-56181667D01*
X160617723Y-56181667D02*
X160427247Y-56134048D01*
X160427247Y-56134048D02*
X160284390Y-56134048D01*
X160284390Y-56134048D02*
X160093914Y-56181667D01*
X160093914Y-56181667D02*
X159998676Y-56229286D01*
X159998676Y-56229286D02*
X159903438Y-56324524D01*
X159903438Y-56324524D02*
X159855819Y-56467381D01*
X159855819Y-56467381D02*
X159855819Y-56562619D01*
X159855819Y-56562619D02*
X159903438Y-56705476D01*
X159903438Y-56705476D02*
X159951057Y-56753095D01*
X160760580Y-57753095D02*
X160808200Y-57705476D01*
X160808200Y-57705476D02*
X160855819Y-57562619D01*
X160855819Y-57562619D02*
X160855819Y-57467381D01*
X160855819Y-57467381D02*
X160808200Y-57324524D01*
X160808200Y-57324524D02*
X160712961Y-57229286D01*
X160712961Y-57229286D02*
X160617723Y-57181667D01*
X160617723Y-57181667D02*
X160427247Y-57134048D01*
X160427247Y-57134048D02*
X160284390Y-57134048D01*
X160284390Y-57134048D02*
X160093914Y-57181667D01*
X160093914Y-57181667D02*
X159998676Y-57229286D01*
X159998676Y-57229286D02*
X159903438Y-57324524D01*
X159903438Y-57324524D02*
X159855819Y-57467381D01*
X159855819Y-57467381D02*
X159855819Y-57562619D01*
X159855819Y-57562619D02*
X159903438Y-57705476D01*
X159903438Y-57705476D02*
X159951057Y-57753095D01*
X162364009Y-49808238D02*
X162411628Y-49951095D01*
X162411628Y-49951095D02*
X162459247Y-49998714D01*
X162459247Y-49998714D02*
X162554485Y-50046333D01*
X162554485Y-50046333D02*
X162697342Y-50046333D01*
X162697342Y-50046333D02*
X162792580Y-49998714D01*
X162792580Y-49998714D02*
X162840200Y-49951095D01*
X162840200Y-49951095D02*
X162887819Y-49855857D01*
X162887819Y-49855857D02*
X162887819Y-49474905D01*
X162887819Y-49474905D02*
X161887819Y-49474905D01*
X161887819Y-49474905D02*
X161887819Y-49808238D01*
X161887819Y-49808238D02*
X161935438Y-49903476D01*
X161935438Y-49903476D02*
X161983057Y-49951095D01*
X161983057Y-49951095D02*
X162078295Y-49998714D01*
X162078295Y-49998714D02*
X162173533Y-49998714D01*
X162173533Y-49998714D02*
X162268771Y-49951095D01*
X162268771Y-49951095D02*
X162316390Y-49903476D01*
X162316390Y-49903476D02*
X162364009Y-49808238D01*
X162364009Y-49808238D02*
X162364009Y-49474905D01*
X162887819Y-50474905D02*
X161887819Y-50474905D01*
X161887819Y-50474905D02*
X162602104Y-50808238D01*
X162602104Y-50808238D02*
X161887819Y-51141571D01*
X161887819Y-51141571D02*
X162887819Y-51141571D01*
X162364009Y-51617762D02*
X162364009Y-51951095D01*
X162887819Y-52093952D02*
X162887819Y-51617762D01*
X162887819Y-51617762D02*
X161887819Y-51617762D01*
X161887819Y-51617762D02*
X161887819Y-52093952D01*
X161840200Y-53236809D02*
X163125914Y-52379667D01*
X162887819Y-53570143D02*
X161887819Y-53570143D01*
X161887819Y-53570143D02*
X161887819Y-53951095D01*
X161887819Y-53951095D02*
X161935438Y-54046333D01*
X161935438Y-54046333D02*
X161983057Y-54093952D01*
X161983057Y-54093952D02*
X162078295Y-54141571D01*
X162078295Y-54141571D02*
X162221152Y-54141571D01*
X162221152Y-54141571D02*
X162316390Y-54093952D01*
X162316390Y-54093952D02*
X162364009Y-54046333D01*
X162364009Y-54046333D02*
X162411628Y-53951095D01*
X162411628Y-53951095D02*
X162411628Y-53570143D01*
X161983057Y-54522524D02*
X161935438Y-54570143D01*
X161935438Y-54570143D02*
X161887819Y-54665381D01*
X161887819Y-54665381D02*
X161887819Y-54903476D01*
X161887819Y-54903476D02*
X161935438Y-54998714D01*
X161935438Y-54998714D02*
X161983057Y-55046333D01*
X161983057Y-55046333D02*
X162078295Y-55093952D01*
X162078295Y-55093952D02*
X162173533Y-55093952D01*
X162173533Y-55093952D02*
X162316390Y-55046333D01*
X162316390Y-55046333D02*
X162887819Y-54474905D01*
X162887819Y-54474905D02*
X162887819Y-55093952D01*
X162316390Y-55665381D02*
X162268771Y-55570143D01*
X162268771Y-55570143D02*
X162221152Y-55522524D01*
X162221152Y-55522524D02*
X162125914Y-55474905D01*
X162125914Y-55474905D02*
X162078295Y-55474905D01*
X162078295Y-55474905D02*
X161983057Y-55522524D01*
X161983057Y-55522524D02*
X161935438Y-55570143D01*
X161935438Y-55570143D02*
X161887819Y-55665381D01*
X161887819Y-55665381D02*
X161887819Y-55855857D01*
X161887819Y-55855857D02*
X161935438Y-55951095D01*
X161935438Y-55951095D02*
X161983057Y-55998714D01*
X161983057Y-55998714D02*
X162078295Y-56046333D01*
X162078295Y-56046333D02*
X162125914Y-56046333D01*
X162125914Y-56046333D02*
X162221152Y-55998714D01*
X162221152Y-55998714D02*
X162268771Y-55951095D01*
X162268771Y-55951095D02*
X162316390Y-55855857D01*
X162316390Y-55855857D02*
X162316390Y-55665381D01*
X162316390Y-55665381D02*
X162364009Y-55570143D01*
X162364009Y-55570143D02*
X162411628Y-55522524D01*
X162411628Y-55522524D02*
X162506866Y-55474905D01*
X162506866Y-55474905D02*
X162697342Y-55474905D01*
X162697342Y-55474905D02*
X162792580Y-55522524D01*
X162792580Y-55522524D02*
X162840200Y-55570143D01*
X162840200Y-55570143D02*
X162887819Y-55665381D01*
X162887819Y-55665381D02*
X162887819Y-55855857D01*
X162887819Y-55855857D02*
X162840200Y-55951095D01*
X162840200Y-55951095D02*
X162792580Y-55998714D01*
X162792580Y-55998714D02*
X162697342Y-56046333D01*
X162697342Y-56046333D02*
X162506866Y-56046333D01*
X162506866Y-56046333D02*
X162411628Y-55998714D01*
X162411628Y-55998714D02*
X162364009Y-55951095D01*
X162364009Y-55951095D02*
X162316390Y-55855857D01*
X161887819Y-56665381D02*
X161887819Y-56760619D01*
X161887819Y-56760619D02*
X161935438Y-56855857D01*
X161935438Y-56855857D02*
X161983057Y-56903476D01*
X161983057Y-56903476D02*
X162078295Y-56951095D01*
X162078295Y-56951095D02*
X162268771Y-56998714D01*
X162268771Y-56998714D02*
X162506866Y-56998714D01*
X162506866Y-56998714D02*
X162697342Y-56951095D01*
X162697342Y-56951095D02*
X162792580Y-56903476D01*
X162792580Y-56903476D02*
X162840200Y-56855857D01*
X162840200Y-56855857D02*
X162887819Y-56760619D01*
X162887819Y-56760619D02*
X162887819Y-56665381D01*
X162887819Y-56665381D02*
X162840200Y-56570143D01*
X162840200Y-56570143D02*
X162792580Y-56522524D01*
X162792580Y-56522524D02*
X162697342Y-56474905D01*
X162697342Y-56474905D02*
X162506866Y-56427286D01*
X162506866Y-56427286D02*
X162268771Y-56427286D01*
X162268771Y-56427286D02*
X162078295Y-56474905D01*
X162078295Y-56474905D02*
X161983057Y-56522524D01*
X161983057Y-56522524D02*
X161935438Y-56570143D01*
X161935438Y-56570143D02*
X161887819Y-56665381D01*
X153188200Y-55300714D02*
X153235819Y-55443571D01*
X153235819Y-55443571D02*
X153235819Y-55681666D01*
X153235819Y-55681666D02*
X153188200Y-55776904D01*
X153188200Y-55776904D02*
X153140580Y-55824523D01*
X153140580Y-55824523D02*
X153045342Y-55872142D01*
X153045342Y-55872142D02*
X152950104Y-55872142D01*
X152950104Y-55872142D02*
X152854866Y-55824523D01*
X152854866Y-55824523D02*
X152807247Y-55776904D01*
X152807247Y-55776904D02*
X152759628Y-55681666D01*
X152759628Y-55681666D02*
X152712009Y-55491190D01*
X152712009Y-55491190D02*
X152664390Y-55395952D01*
X152664390Y-55395952D02*
X152616771Y-55348333D01*
X152616771Y-55348333D02*
X152521533Y-55300714D01*
X152521533Y-55300714D02*
X152426295Y-55300714D01*
X152426295Y-55300714D02*
X152331057Y-55348333D01*
X152331057Y-55348333D02*
X152283438Y-55395952D01*
X152283438Y-55395952D02*
X152235819Y-55491190D01*
X152235819Y-55491190D02*
X152235819Y-55729285D01*
X152235819Y-55729285D02*
X152283438Y-55872142D01*
X153235819Y-56300714D02*
X152235819Y-56300714D01*
X152235819Y-56300714D02*
X152235819Y-56538809D01*
X152235819Y-56538809D02*
X152283438Y-56681666D01*
X152283438Y-56681666D02*
X152378676Y-56776904D01*
X152378676Y-56776904D02*
X152473914Y-56824523D01*
X152473914Y-56824523D02*
X152664390Y-56872142D01*
X152664390Y-56872142D02*
X152807247Y-56872142D01*
X152807247Y-56872142D02*
X152997723Y-56824523D01*
X152997723Y-56824523D02*
X153092961Y-56776904D01*
X153092961Y-56776904D02*
X153188200Y-56681666D01*
X153188200Y-56681666D02*
X153235819Y-56538809D01*
X153235819Y-56538809D02*
X153235819Y-56300714D01*
X152950104Y-57253095D02*
X152950104Y-57729285D01*
X153235819Y-57157857D02*
X152235819Y-57491190D01*
X152235819Y-57491190D02*
X153235819Y-57824523D01*
X148108200Y-55253095D02*
X148155819Y-55395952D01*
X148155819Y-55395952D02*
X148155819Y-55634047D01*
X148155819Y-55634047D02*
X148108200Y-55729285D01*
X148108200Y-55729285D02*
X148060580Y-55776904D01*
X148060580Y-55776904D02*
X147965342Y-55824523D01*
X147965342Y-55824523D02*
X147870104Y-55824523D01*
X147870104Y-55824523D02*
X147774866Y-55776904D01*
X147774866Y-55776904D02*
X147727247Y-55729285D01*
X147727247Y-55729285D02*
X147679628Y-55634047D01*
X147679628Y-55634047D02*
X147632009Y-55443571D01*
X147632009Y-55443571D02*
X147584390Y-55348333D01*
X147584390Y-55348333D02*
X147536771Y-55300714D01*
X147536771Y-55300714D02*
X147441533Y-55253095D01*
X147441533Y-55253095D02*
X147346295Y-55253095D01*
X147346295Y-55253095D02*
X147251057Y-55300714D01*
X147251057Y-55300714D02*
X147203438Y-55348333D01*
X147203438Y-55348333D02*
X147155819Y-55443571D01*
X147155819Y-55443571D02*
X147155819Y-55681666D01*
X147155819Y-55681666D02*
X147203438Y-55824523D01*
X148155819Y-56253095D02*
X147155819Y-56253095D01*
X147155819Y-56253095D02*
X147155819Y-56491190D01*
X147155819Y-56491190D02*
X147203438Y-56634047D01*
X147203438Y-56634047D02*
X147298676Y-56729285D01*
X147298676Y-56729285D02*
X147393914Y-56776904D01*
X147393914Y-56776904D02*
X147584390Y-56824523D01*
X147584390Y-56824523D02*
X147727247Y-56824523D01*
X147727247Y-56824523D02*
X147917723Y-56776904D01*
X147917723Y-56776904D02*
X148012961Y-56729285D01*
X148012961Y-56729285D02*
X148108200Y-56634047D01*
X148108200Y-56634047D02*
X148155819Y-56491190D01*
X148155819Y-56491190D02*
X148155819Y-56253095D01*
X147155819Y-57443571D02*
X147155819Y-57538809D01*
X147155819Y-57538809D02*
X147203438Y-57634047D01*
X147203438Y-57634047D02*
X147251057Y-57681666D01*
X147251057Y-57681666D02*
X147346295Y-57729285D01*
X147346295Y-57729285D02*
X147536771Y-57776904D01*
X147536771Y-57776904D02*
X147774866Y-57776904D01*
X147774866Y-57776904D02*
X147965342Y-57729285D01*
X147965342Y-57729285D02*
X148060580Y-57681666D01*
X148060580Y-57681666D02*
X148108200Y-57634047D01*
X148108200Y-57634047D02*
X148155819Y-57538809D01*
X148155819Y-57538809D02*
X148155819Y-57443571D01*
X148155819Y-57443571D02*
X148108200Y-57348333D01*
X148108200Y-57348333D02*
X148060580Y-57300714D01*
X148060580Y-57300714D02*
X147965342Y-57253095D01*
X147965342Y-57253095D02*
X147774866Y-57205476D01*
X147774866Y-57205476D02*
X147536771Y-57205476D01*
X147536771Y-57205476D02*
X147346295Y-57253095D01*
X147346295Y-57253095D02*
X147251057Y-57300714D01*
X147251057Y-57300714D02*
X147203438Y-57348333D01*
X147203438Y-57348333D02*
X147155819Y-57443571D01*
D11*
%TO.C,U1*%
X146177000Y-61087000D02*
X146177000Y-49149000D01*
X161671000Y-61087000D02*
X146177000Y-61087000D01*
X146177000Y-49149000D02*
X161671000Y-49149000D01*
X161671000Y-49149000D02*
X161671000Y-61087000D01*
X150084832Y-52197000D02*
G75*
G03*
X150084832Y-52197000I-1367832J0D01*
G01*
X160567841Y-52197000D02*
G75*
G03*
X160567841Y-52197000I-1436841J0D01*
G01*
%TD*%
M02*
