%TF.GenerationSoftware,KiCad,Pcbnew,7.0.9*%
%TF.CreationDate,2024-01-08T18:42:38+01:00*%
%TF.ProjectId,BeaglebonePCBma_yC,42656167-6c65-4626-9f6e-655043426d61,rev?*%
%TF.SameCoordinates,Original*%
%TF.FileFunction,Legend,Top*%
%TF.FilePolarity,Positive*%
%FSLAX46Y46*%
G04 Gerber Fmt 4.6, Leading zero omitted, Abs format (unit mm)*
G04 Created by KiCad (PCBNEW 7.0.9) date 2024-01-08 18:42:38*
%MOMM*%
%LPD*%
G01*
G04 APERTURE LIST*
%ADD10C,0.150000*%
%ADD11C,0.120000*%
%ADD12C,0.127000*%
%ADD13C,0.200000*%
G04 APERTURE END LIST*
D10*
X117809819Y-49303094D02*
X116809819Y-49303094D01*
X116809819Y-49303094D02*
X116809819Y-48922142D01*
X116809819Y-48922142D02*
X116857438Y-48826904D01*
X116857438Y-48826904D02*
X116905057Y-48779285D01*
X116905057Y-48779285D02*
X117000295Y-48731666D01*
X117000295Y-48731666D02*
X117143152Y-48731666D01*
X117143152Y-48731666D02*
X117238390Y-48779285D01*
X117238390Y-48779285D02*
X117286009Y-48826904D01*
X117286009Y-48826904D02*
X117333628Y-48922142D01*
X117333628Y-48922142D02*
X117333628Y-49303094D01*
X117238390Y-48160237D02*
X117190771Y-48255475D01*
X117190771Y-48255475D02*
X117143152Y-48303094D01*
X117143152Y-48303094D02*
X117047914Y-48350713D01*
X117047914Y-48350713D02*
X117000295Y-48350713D01*
X117000295Y-48350713D02*
X116905057Y-48303094D01*
X116905057Y-48303094D02*
X116857438Y-48255475D01*
X116857438Y-48255475D02*
X116809819Y-48160237D01*
X116809819Y-48160237D02*
X116809819Y-47969761D01*
X116809819Y-47969761D02*
X116857438Y-47874523D01*
X116857438Y-47874523D02*
X116905057Y-47826904D01*
X116905057Y-47826904D02*
X117000295Y-47779285D01*
X117000295Y-47779285D02*
X117047914Y-47779285D01*
X117047914Y-47779285D02*
X117143152Y-47826904D01*
X117143152Y-47826904D02*
X117190771Y-47874523D01*
X117190771Y-47874523D02*
X117238390Y-47969761D01*
X117238390Y-47969761D02*
X117238390Y-48160237D01*
X117238390Y-48160237D02*
X117286009Y-48255475D01*
X117286009Y-48255475D02*
X117333628Y-48303094D01*
X117333628Y-48303094D02*
X117428866Y-48350713D01*
X117428866Y-48350713D02*
X117619342Y-48350713D01*
X117619342Y-48350713D02*
X117714580Y-48303094D01*
X117714580Y-48303094D02*
X117762200Y-48255475D01*
X117762200Y-48255475D02*
X117809819Y-48160237D01*
X117809819Y-48160237D02*
X117809819Y-47969761D01*
X117809819Y-47969761D02*
X117762200Y-47874523D01*
X117762200Y-47874523D02*
X117714580Y-47826904D01*
X117714580Y-47826904D02*
X117619342Y-47779285D01*
X117619342Y-47779285D02*
X117428866Y-47779285D01*
X117428866Y-47779285D02*
X117333628Y-47826904D01*
X117333628Y-47826904D02*
X117286009Y-47874523D01*
X117286009Y-47874523D02*
X117238390Y-47969761D01*
X117809819Y-97563094D02*
X116809819Y-97563094D01*
X116809819Y-97563094D02*
X116809819Y-97182142D01*
X116809819Y-97182142D02*
X116857438Y-97086904D01*
X116857438Y-97086904D02*
X116905057Y-97039285D01*
X116905057Y-97039285D02*
X117000295Y-96991666D01*
X117000295Y-96991666D02*
X117143152Y-96991666D01*
X117143152Y-96991666D02*
X117238390Y-97039285D01*
X117238390Y-97039285D02*
X117286009Y-97086904D01*
X117286009Y-97086904D02*
X117333628Y-97182142D01*
X117333628Y-97182142D02*
X117333628Y-97563094D01*
X117809819Y-96515475D02*
X117809819Y-96324999D01*
X117809819Y-96324999D02*
X117762200Y-96229761D01*
X117762200Y-96229761D02*
X117714580Y-96182142D01*
X117714580Y-96182142D02*
X117571723Y-96086904D01*
X117571723Y-96086904D02*
X117381247Y-96039285D01*
X117381247Y-96039285D02*
X117000295Y-96039285D01*
X117000295Y-96039285D02*
X116905057Y-96086904D01*
X116905057Y-96086904D02*
X116857438Y-96134523D01*
X116857438Y-96134523D02*
X116809819Y-96229761D01*
X116809819Y-96229761D02*
X116809819Y-96420237D01*
X116809819Y-96420237D02*
X116857438Y-96515475D01*
X116857438Y-96515475D02*
X116905057Y-96563094D01*
X116905057Y-96563094D02*
X117000295Y-96610713D01*
X117000295Y-96610713D02*
X117238390Y-96610713D01*
X117238390Y-96610713D02*
X117333628Y-96563094D01*
X117333628Y-96563094D02*
X117381247Y-96515475D01*
X117381247Y-96515475D02*
X117428866Y-96420237D01*
X117428866Y-96420237D02*
X117428866Y-96229761D01*
X117428866Y-96229761D02*
X117381247Y-96134523D01*
X117381247Y-96134523D02*
X117333628Y-96086904D01*
X117333628Y-96086904D02*
X117238390Y-96039285D01*
X178404580Y-80366666D02*
X178452200Y-80414285D01*
X178452200Y-80414285D02*
X178499819Y-80557142D01*
X178499819Y-80557142D02*
X178499819Y-80652380D01*
X178499819Y-80652380D02*
X178452200Y-80795237D01*
X178452200Y-80795237D02*
X178356961Y-80890475D01*
X178356961Y-80890475D02*
X178261723Y-80938094D01*
X178261723Y-80938094D02*
X178071247Y-80985713D01*
X178071247Y-80985713D02*
X177928390Y-80985713D01*
X177928390Y-80985713D02*
X177737914Y-80938094D01*
X177737914Y-80938094D02*
X177642676Y-80890475D01*
X177642676Y-80890475D02*
X177547438Y-80795237D01*
X177547438Y-80795237D02*
X177499819Y-80652380D01*
X177499819Y-80652380D02*
X177499819Y-80557142D01*
X177499819Y-80557142D02*
X177547438Y-80414285D01*
X177547438Y-80414285D02*
X177595057Y-80366666D01*
X178499819Y-79414285D02*
X178499819Y-79985713D01*
X178499819Y-79699999D02*
X177499819Y-79699999D01*
X177499819Y-79699999D02*
X177642676Y-79795237D01*
X177642676Y-79795237D02*
X177737914Y-79890475D01*
X177737914Y-79890475D02*
X177785533Y-79985713D01*
X170023095Y-79959819D02*
X170023095Y-80769342D01*
X170023095Y-80769342D02*
X170070714Y-80864580D01*
X170070714Y-80864580D02*
X170118333Y-80912200D01*
X170118333Y-80912200D02*
X170213571Y-80959819D01*
X170213571Y-80959819D02*
X170404047Y-80959819D01*
X170404047Y-80959819D02*
X170499285Y-80912200D01*
X170499285Y-80912200D02*
X170546904Y-80864580D01*
X170546904Y-80864580D02*
X170594523Y-80769342D01*
X170594523Y-80769342D02*
X170594523Y-79959819D01*
X171594523Y-80959819D02*
X171023095Y-80959819D01*
X171308809Y-80959819D02*
X171308809Y-79959819D01*
X171308809Y-79959819D02*
X171213571Y-80102676D01*
X171213571Y-80102676D02*
X171118333Y-80197914D01*
X171118333Y-80197914D02*
X171023095Y-80245533D01*
X180174580Y-80366666D02*
X180222200Y-80414285D01*
X180222200Y-80414285D02*
X180269819Y-80557142D01*
X180269819Y-80557142D02*
X180269819Y-80652380D01*
X180269819Y-80652380D02*
X180222200Y-80795237D01*
X180222200Y-80795237D02*
X180126961Y-80890475D01*
X180126961Y-80890475D02*
X180031723Y-80938094D01*
X180031723Y-80938094D02*
X179841247Y-80985713D01*
X179841247Y-80985713D02*
X179698390Y-80985713D01*
X179698390Y-80985713D02*
X179507914Y-80938094D01*
X179507914Y-80938094D02*
X179412676Y-80890475D01*
X179412676Y-80890475D02*
X179317438Y-80795237D01*
X179317438Y-80795237D02*
X179269819Y-80652380D01*
X179269819Y-80652380D02*
X179269819Y-80557142D01*
X179269819Y-80557142D02*
X179317438Y-80414285D01*
X179317438Y-80414285D02*
X179365057Y-80366666D01*
X179365057Y-79985713D02*
X179317438Y-79938094D01*
X179317438Y-79938094D02*
X179269819Y-79842856D01*
X179269819Y-79842856D02*
X179269819Y-79604761D01*
X179269819Y-79604761D02*
X179317438Y-79509523D01*
X179317438Y-79509523D02*
X179365057Y-79461904D01*
X179365057Y-79461904D02*
X179460295Y-79414285D01*
X179460295Y-79414285D02*
X179555533Y-79414285D01*
X179555533Y-79414285D02*
X179698390Y-79461904D01*
X179698390Y-79461904D02*
X180269819Y-80033332D01*
X180269819Y-80033332D02*
X180269819Y-79414285D01*
X132258095Y-78372819D02*
X132258095Y-79182342D01*
X132258095Y-79182342D02*
X132305714Y-79277580D01*
X132305714Y-79277580D02*
X132353333Y-79325200D01*
X132353333Y-79325200D02*
X132448571Y-79372819D01*
X132448571Y-79372819D02*
X132639047Y-79372819D01*
X132639047Y-79372819D02*
X132734285Y-79325200D01*
X132734285Y-79325200D02*
X132781904Y-79277580D01*
X132781904Y-79277580D02*
X132829523Y-79182342D01*
X132829523Y-79182342D02*
X132829523Y-78372819D01*
X133258095Y-78468057D02*
X133305714Y-78420438D01*
X133305714Y-78420438D02*
X133400952Y-78372819D01*
X133400952Y-78372819D02*
X133639047Y-78372819D01*
X133639047Y-78372819D02*
X133734285Y-78420438D01*
X133734285Y-78420438D02*
X133781904Y-78468057D01*
X133781904Y-78468057D02*
X133829523Y-78563295D01*
X133829523Y-78563295D02*
X133829523Y-78658533D01*
X133829523Y-78658533D02*
X133781904Y-78801390D01*
X133781904Y-78801390D02*
X133210476Y-79372819D01*
X133210476Y-79372819D02*
X133829523Y-79372819D01*
X128702095Y-73848438D02*
X128606857Y-73800819D01*
X128606857Y-73800819D02*
X128464000Y-73800819D01*
X128464000Y-73800819D02*
X128321143Y-73848438D01*
X128321143Y-73848438D02*
X128225905Y-73943676D01*
X128225905Y-73943676D02*
X128178286Y-74038914D01*
X128178286Y-74038914D02*
X128130667Y-74229390D01*
X128130667Y-74229390D02*
X128130667Y-74372247D01*
X128130667Y-74372247D02*
X128178286Y-74562723D01*
X128178286Y-74562723D02*
X128225905Y-74657961D01*
X128225905Y-74657961D02*
X128321143Y-74753200D01*
X128321143Y-74753200D02*
X128464000Y-74800819D01*
X128464000Y-74800819D02*
X128559238Y-74800819D01*
X128559238Y-74800819D02*
X128702095Y-74753200D01*
X128702095Y-74753200D02*
X128749714Y-74705580D01*
X128749714Y-74705580D02*
X128749714Y-74372247D01*
X128749714Y-74372247D02*
X128559238Y-74372247D01*
X129178286Y-74800819D02*
X129178286Y-73800819D01*
X129178286Y-73800819D02*
X129749714Y-74800819D01*
X129749714Y-74800819D02*
X129749714Y-73800819D01*
X130225905Y-74800819D02*
X130225905Y-73800819D01*
X130225905Y-73800819D02*
X130464000Y-73800819D01*
X130464000Y-73800819D02*
X130606857Y-73848438D01*
X130606857Y-73848438D02*
X130702095Y-73943676D01*
X130702095Y-73943676D02*
X130749714Y-74038914D01*
X130749714Y-74038914D02*
X130797333Y-74229390D01*
X130797333Y-74229390D02*
X130797333Y-74372247D01*
X130797333Y-74372247D02*
X130749714Y-74562723D01*
X130749714Y-74562723D02*
X130702095Y-74657961D01*
X130702095Y-74657961D02*
X130606857Y-74753200D01*
X130606857Y-74753200D02*
X130464000Y-74800819D01*
X130464000Y-74800819D02*
X130225905Y-74800819D01*
X128249714Y-69673200D02*
X128392571Y-69720819D01*
X128392571Y-69720819D02*
X128630666Y-69720819D01*
X128630666Y-69720819D02*
X128725904Y-69673200D01*
X128725904Y-69673200D02*
X128773523Y-69625580D01*
X128773523Y-69625580D02*
X128821142Y-69530342D01*
X128821142Y-69530342D02*
X128821142Y-69435104D01*
X128821142Y-69435104D02*
X128773523Y-69339866D01*
X128773523Y-69339866D02*
X128725904Y-69292247D01*
X128725904Y-69292247D02*
X128630666Y-69244628D01*
X128630666Y-69244628D02*
X128440190Y-69197009D01*
X128440190Y-69197009D02*
X128344952Y-69149390D01*
X128344952Y-69149390D02*
X128297333Y-69101771D01*
X128297333Y-69101771D02*
X128249714Y-69006533D01*
X128249714Y-69006533D02*
X128249714Y-68911295D01*
X128249714Y-68911295D02*
X128297333Y-68816057D01*
X128297333Y-68816057D02*
X128344952Y-68768438D01*
X128344952Y-68768438D02*
X128440190Y-68720819D01*
X128440190Y-68720819D02*
X128678285Y-68720819D01*
X128678285Y-68720819D02*
X128821142Y-68768438D01*
X129249714Y-69720819D02*
X129249714Y-68720819D01*
X129249714Y-68720819D02*
X129487809Y-68720819D01*
X129487809Y-68720819D02*
X129630666Y-68768438D01*
X129630666Y-68768438D02*
X129725904Y-68863676D01*
X129725904Y-68863676D02*
X129773523Y-68958914D01*
X129773523Y-68958914D02*
X129821142Y-69149390D01*
X129821142Y-69149390D02*
X129821142Y-69292247D01*
X129821142Y-69292247D02*
X129773523Y-69482723D01*
X129773523Y-69482723D02*
X129725904Y-69577961D01*
X129725904Y-69577961D02*
X129630666Y-69673200D01*
X129630666Y-69673200D02*
X129487809Y-69720819D01*
X129487809Y-69720819D02*
X129249714Y-69720819D01*
X130202095Y-69435104D02*
X130678285Y-69435104D01*
X130106857Y-69720819D02*
X130440190Y-68720819D01*
X130440190Y-68720819D02*
X130773523Y-69720819D01*
X128202095Y-64593200D02*
X128344952Y-64640819D01*
X128344952Y-64640819D02*
X128583047Y-64640819D01*
X128583047Y-64640819D02*
X128678285Y-64593200D01*
X128678285Y-64593200D02*
X128725904Y-64545580D01*
X128725904Y-64545580D02*
X128773523Y-64450342D01*
X128773523Y-64450342D02*
X128773523Y-64355104D01*
X128773523Y-64355104D02*
X128725904Y-64259866D01*
X128725904Y-64259866D02*
X128678285Y-64212247D01*
X128678285Y-64212247D02*
X128583047Y-64164628D01*
X128583047Y-64164628D02*
X128392571Y-64117009D01*
X128392571Y-64117009D02*
X128297333Y-64069390D01*
X128297333Y-64069390D02*
X128249714Y-64021771D01*
X128249714Y-64021771D02*
X128202095Y-63926533D01*
X128202095Y-63926533D02*
X128202095Y-63831295D01*
X128202095Y-63831295D02*
X128249714Y-63736057D01*
X128249714Y-63736057D02*
X128297333Y-63688438D01*
X128297333Y-63688438D02*
X128392571Y-63640819D01*
X128392571Y-63640819D02*
X128630666Y-63640819D01*
X128630666Y-63640819D02*
X128773523Y-63688438D01*
X129202095Y-64640819D02*
X129202095Y-63640819D01*
X129202095Y-63640819D02*
X129440190Y-63640819D01*
X129440190Y-63640819D02*
X129583047Y-63688438D01*
X129583047Y-63688438D02*
X129678285Y-63783676D01*
X129678285Y-63783676D02*
X129725904Y-63878914D01*
X129725904Y-63878914D02*
X129773523Y-64069390D01*
X129773523Y-64069390D02*
X129773523Y-64212247D01*
X129773523Y-64212247D02*
X129725904Y-64402723D01*
X129725904Y-64402723D02*
X129678285Y-64497961D01*
X129678285Y-64497961D02*
X129583047Y-64593200D01*
X129583047Y-64593200D02*
X129440190Y-64640819D01*
X129440190Y-64640819D02*
X129202095Y-64640819D01*
X130392571Y-63640819D02*
X130487809Y-63640819D01*
X130487809Y-63640819D02*
X130583047Y-63688438D01*
X130583047Y-63688438D02*
X130630666Y-63736057D01*
X130630666Y-63736057D02*
X130678285Y-63831295D01*
X130678285Y-63831295D02*
X130725904Y-64021771D01*
X130725904Y-64021771D02*
X130725904Y-64259866D01*
X130725904Y-64259866D02*
X130678285Y-64450342D01*
X130678285Y-64450342D02*
X130630666Y-64545580D01*
X130630666Y-64545580D02*
X130583047Y-64593200D01*
X130583047Y-64593200D02*
X130487809Y-64640819D01*
X130487809Y-64640819D02*
X130392571Y-64640819D01*
X130392571Y-64640819D02*
X130297333Y-64593200D01*
X130297333Y-64593200D02*
X130249714Y-64545580D01*
X130249714Y-64545580D02*
X130202095Y-64450342D01*
X130202095Y-64450342D02*
X130154476Y-64259866D01*
X130154476Y-64259866D02*
X130154476Y-64021771D01*
X130154476Y-64021771D02*
X130202095Y-63831295D01*
X130202095Y-63831295D02*
X130249714Y-63736057D01*
X130249714Y-63736057D02*
X130297333Y-63688438D01*
X130297333Y-63688438D02*
X130392571Y-63640819D01*
X122757238Y-78849009D02*
X122900095Y-78896628D01*
X122900095Y-78896628D02*
X122947714Y-78944247D01*
X122947714Y-78944247D02*
X122995333Y-79039485D01*
X122995333Y-79039485D02*
X122995333Y-79182342D01*
X122995333Y-79182342D02*
X122947714Y-79277580D01*
X122947714Y-79277580D02*
X122900095Y-79325200D01*
X122900095Y-79325200D02*
X122804857Y-79372819D01*
X122804857Y-79372819D02*
X122423905Y-79372819D01*
X122423905Y-79372819D02*
X122423905Y-78372819D01*
X122423905Y-78372819D02*
X122757238Y-78372819D01*
X122757238Y-78372819D02*
X122852476Y-78420438D01*
X122852476Y-78420438D02*
X122900095Y-78468057D01*
X122900095Y-78468057D02*
X122947714Y-78563295D01*
X122947714Y-78563295D02*
X122947714Y-78658533D01*
X122947714Y-78658533D02*
X122900095Y-78753771D01*
X122900095Y-78753771D02*
X122852476Y-78801390D01*
X122852476Y-78801390D02*
X122757238Y-78849009D01*
X122757238Y-78849009D02*
X122423905Y-78849009D01*
X123423905Y-79372819D02*
X123423905Y-78372819D01*
X123423905Y-78372819D02*
X123757238Y-79087104D01*
X123757238Y-79087104D02*
X124090571Y-78372819D01*
X124090571Y-78372819D02*
X124090571Y-79372819D01*
X124566762Y-78849009D02*
X124900095Y-78849009D01*
X125042952Y-79372819D02*
X124566762Y-79372819D01*
X124566762Y-79372819D02*
X124566762Y-78372819D01*
X124566762Y-78372819D02*
X125042952Y-78372819D01*
X126185809Y-78325200D02*
X125328667Y-79610914D01*
X126519143Y-79372819D02*
X126519143Y-78372819D01*
X126519143Y-78372819D02*
X126900095Y-78372819D01*
X126900095Y-78372819D02*
X126995333Y-78420438D01*
X126995333Y-78420438D02*
X127042952Y-78468057D01*
X127042952Y-78468057D02*
X127090571Y-78563295D01*
X127090571Y-78563295D02*
X127090571Y-78706152D01*
X127090571Y-78706152D02*
X127042952Y-78801390D01*
X127042952Y-78801390D02*
X126995333Y-78849009D01*
X126995333Y-78849009D02*
X126900095Y-78896628D01*
X126900095Y-78896628D02*
X126519143Y-78896628D01*
X127471524Y-78468057D02*
X127519143Y-78420438D01*
X127519143Y-78420438D02*
X127614381Y-78372819D01*
X127614381Y-78372819D02*
X127852476Y-78372819D01*
X127852476Y-78372819D02*
X127947714Y-78420438D01*
X127947714Y-78420438D02*
X127995333Y-78468057D01*
X127995333Y-78468057D02*
X128042952Y-78563295D01*
X128042952Y-78563295D02*
X128042952Y-78658533D01*
X128042952Y-78658533D02*
X127995333Y-78801390D01*
X127995333Y-78801390D02*
X127423905Y-79372819D01*
X127423905Y-79372819D02*
X128042952Y-79372819D01*
X128614381Y-78801390D02*
X128519143Y-78753771D01*
X128519143Y-78753771D02*
X128471524Y-78706152D01*
X128471524Y-78706152D02*
X128423905Y-78610914D01*
X128423905Y-78610914D02*
X128423905Y-78563295D01*
X128423905Y-78563295D02*
X128471524Y-78468057D01*
X128471524Y-78468057D02*
X128519143Y-78420438D01*
X128519143Y-78420438D02*
X128614381Y-78372819D01*
X128614381Y-78372819D02*
X128804857Y-78372819D01*
X128804857Y-78372819D02*
X128900095Y-78420438D01*
X128900095Y-78420438D02*
X128947714Y-78468057D01*
X128947714Y-78468057D02*
X128995333Y-78563295D01*
X128995333Y-78563295D02*
X128995333Y-78610914D01*
X128995333Y-78610914D02*
X128947714Y-78706152D01*
X128947714Y-78706152D02*
X128900095Y-78753771D01*
X128900095Y-78753771D02*
X128804857Y-78801390D01*
X128804857Y-78801390D02*
X128614381Y-78801390D01*
X128614381Y-78801390D02*
X128519143Y-78849009D01*
X128519143Y-78849009D02*
X128471524Y-78896628D01*
X128471524Y-78896628D02*
X128423905Y-78991866D01*
X128423905Y-78991866D02*
X128423905Y-79182342D01*
X128423905Y-79182342D02*
X128471524Y-79277580D01*
X128471524Y-79277580D02*
X128519143Y-79325200D01*
X128519143Y-79325200D02*
X128614381Y-79372819D01*
X128614381Y-79372819D02*
X128804857Y-79372819D01*
X128804857Y-79372819D02*
X128900095Y-79325200D01*
X128900095Y-79325200D02*
X128947714Y-79277580D01*
X128947714Y-79277580D02*
X128995333Y-79182342D01*
X128995333Y-79182342D02*
X128995333Y-78991866D01*
X128995333Y-78991866D02*
X128947714Y-78896628D01*
X128947714Y-78896628D02*
X128900095Y-78849009D01*
X128900095Y-78849009D02*
X128804857Y-78801390D01*
X129614381Y-78372819D02*
X129709619Y-78372819D01*
X129709619Y-78372819D02*
X129804857Y-78420438D01*
X129804857Y-78420438D02*
X129852476Y-78468057D01*
X129852476Y-78468057D02*
X129900095Y-78563295D01*
X129900095Y-78563295D02*
X129947714Y-78753771D01*
X129947714Y-78753771D02*
X129947714Y-78991866D01*
X129947714Y-78991866D02*
X129900095Y-79182342D01*
X129900095Y-79182342D02*
X129852476Y-79277580D01*
X129852476Y-79277580D02*
X129804857Y-79325200D01*
X129804857Y-79325200D02*
X129709619Y-79372819D01*
X129709619Y-79372819D02*
X129614381Y-79372819D01*
X129614381Y-79372819D02*
X129519143Y-79325200D01*
X129519143Y-79325200D02*
X129471524Y-79277580D01*
X129471524Y-79277580D02*
X129423905Y-79182342D01*
X129423905Y-79182342D02*
X129376286Y-78991866D01*
X129376286Y-78991866D02*
X129376286Y-78753771D01*
X129376286Y-78753771D02*
X129423905Y-78563295D01*
X129423905Y-78563295D02*
X129471524Y-78468057D01*
X129471524Y-78468057D02*
X129519143Y-78420438D01*
X129519143Y-78420438D02*
X129614381Y-78372819D01*
X128273524Y-72213200D02*
X128416381Y-72260819D01*
X128416381Y-72260819D02*
X128654476Y-72260819D01*
X128654476Y-72260819D02*
X128749714Y-72213200D01*
X128749714Y-72213200D02*
X128797333Y-72165580D01*
X128797333Y-72165580D02*
X128844952Y-72070342D01*
X128844952Y-72070342D02*
X128844952Y-71975104D01*
X128844952Y-71975104D02*
X128797333Y-71879866D01*
X128797333Y-71879866D02*
X128749714Y-71832247D01*
X128749714Y-71832247D02*
X128654476Y-71784628D01*
X128654476Y-71784628D02*
X128464000Y-71737009D01*
X128464000Y-71737009D02*
X128368762Y-71689390D01*
X128368762Y-71689390D02*
X128321143Y-71641771D01*
X128321143Y-71641771D02*
X128273524Y-71546533D01*
X128273524Y-71546533D02*
X128273524Y-71451295D01*
X128273524Y-71451295D02*
X128321143Y-71356057D01*
X128321143Y-71356057D02*
X128368762Y-71308438D01*
X128368762Y-71308438D02*
X128464000Y-71260819D01*
X128464000Y-71260819D02*
X128702095Y-71260819D01*
X128702095Y-71260819D02*
X128844952Y-71308438D01*
X129844952Y-72165580D02*
X129797333Y-72213200D01*
X129797333Y-72213200D02*
X129654476Y-72260819D01*
X129654476Y-72260819D02*
X129559238Y-72260819D01*
X129559238Y-72260819D02*
X129416381Y-72213200D01*
X129416381Y-72213200D02*
X129321143Y-72117961D01*
X129321143Y-72117961D02*
X129273524Y-72022723D01*
X129273524Y-72022723D02*
X129225905Y-71832247D01*
X129225905Y-71832247D02*
X129225905Y-71689390D01*
X129225905Y-71689390D02*
X129273524Y-71498914D01*
X129273524Y-71498914D02*
X129321143Y-71403676D01*
X129321143Y-71403676D02*
X129416381Y-71308438D01*
X129416381Y-71308438D02*
X129559238Y-71260819D01*
X129559238Y-71260819D02*
X129654476Y-71260819D01*
X129654476Y-71260819D02*
X129797333Y-71308438D01*
X129797333Y-71308438D02*
X129844952Y-71356057D01*
X130749714Y-72260819D02*
X130273524Y-72260819D01*
X130273524Y-72260819D02*
X130273524Y-71260819D01*
X128130667Y-76340819D02*
X128464000Y-77340819D01*
X128464000Y-77340819D02*
X128797333Y-76340819D01*
X129702095Y-77245580D02*
X129654476Y-77293200D01*
X129654476Y-77293200D02*
X129511619Y-77340819D01*
X129511619Y-77340819D02*
X129416381Y-77340819D01*
X129416381Y-77340819D02*
X129273524Y-77293200D01*
X129273524Y-77293200D02*
X129178286Y-77197961D01*
X129178286Y-77197961D02*
X129130667Y-77102723D01*
X129130667Y-77102723D02*
X129083048Y-76912247D01*
X129083048Y-76912247D02*
X129083048Y-76769390D01*
X129083048Y-76769390D02*
X129130667Y-76578914D01*
X129130667Y-76578914D02*
X129178286Y-76483676D01*
X129178286Y-76483676D02*
X129273524Y-76388438D01*
X129273524Y-76388438D02*
X129416381Y-76340819D01*
X129416381Y-76340819D02*
X129511619Y-76340819D01*
X129511619Y-76340819D02*
X129654476Y-76388438D01*
X129654476Y-76388438D02*
X129702095Y-76436057D01*
X130702095Y-77245580D02*
X130654476Y-77293200D01*
X130654476Y-77293200D02*
X130511619Y-77340819D01*
X130511619Y-77340819D02*
X130416381Y-77340819D01*
X130416381Y-77340819D02*
X130273524Y-77293200D01*
X130273524Y-77293200D02*
X130178286Y-77197961D01*
X130178286Y-77197961D02*
X130130667Y-77102723D01*
X130130667Y-77102723D02*
X130083048Y-76912247D01*
X130083048Y-76912247D02*
X130083048Y-76769390D01*
X130083048Y-76769390D02*
X130130667Y-76578914D01*
X130130667Y-76578914D02*
X130178286Y-76483676D01*
X130178286Y-76483676D02*
X130273524Y-76388438D01*
X130273524Y-76388438D02*
X130416381Y-76340819D01*
X130416381Y-76340819D02*
X130511619Y-76340819D01*
X130511619Y-76340819D02*
X130654476Y-76388438D01*
X130654476Y-76388438D02*
X130702095Y-76436057D01*
X128797333Y-67085580D02*
X128749714Y-67133200D01*
X128749714Y-67133200D02*
X128606857Y-67180819D01*
X128606857Y-67180819D02*
X128511619Y-67180819D01*
X128511619Y-67180819D02*
X128368762Y-67133200D01*
X128368762Y-67133200D02*
X128273524Y-67037961D01*
X128273524Y-67037961D02*
X128225905Y-66942723D01*
X128225905Y-66942723D02*
X128178286Y-66752247D01*
X128178286Y-66752247D02*
X128178286Y-66609390D01*
X128178286Y-66609390D02*
X128225905Y-66418914D01*
X128225905Y-66418914D02*
X128273524Y-66323676D01*
X128273524Y-66323676D02*
X128368762Y-66228438D01*
X128368762Y-66228438D02*
X128511619Y-66180819D01*
X128511619Y-66180819D02*
X128606857Y-66180819D01*
X128606857Y-66180819D02*
X128749714Y-66228438D01*
X128749714Y-66228438D02*
X128797333Y-66276057D01*
X129178286Y-67133200D02*
X129321143Y-67180819D01*
X129321143Y-67180819D02*
X129559238Y-67180819D01*
X129559238Y-67180819D02*
X129654476Y-67133200D01*
X129654476Y-67133200D02*
X129702095Y-67085580D01*
X129702095Y-67085580D02*
X129749714Y-66990342D01*
X129749714Y-66990342D02*
X129749714Y-66895104D01*
X129749714Y-66895104D02*
X129702095Y-66799866D01*
X129702095Y-66799866D02*
X129654476Y-66752247D01*
X129654476Y-66752247D02*
X129559238Y-66704628D01*
X129559238Y-66704628D02*
X129368762Y-66657009D01*
X129368762Y-66657009D02*
X129273524Y-66609390D01*
X129273524Y-66609390D02*
X129225905Y-66561771D01*
X129225905Y-66561771D02*
X129178286Y-66466533D01*
X129178286Y-66466533D02*
X129178286Y-66371295D01*
X129178286Y-66371295D02*
X129225905Y-66276057D01*
X129225905Y-66276057D02*
X129273524Y-66228438D01*
X129273524Y-66228438D02*
X129368762Y-66180819D01*
X129368762Y-66180819D02*
X129606857Y-66180819D01*
X129606857Y-66180819D02*
X129749714Y-66228438D01*
X130511619Y-66657009D02*
X130654476Y-66704628D01*
X130654476Y-66704628D02*
X130702095Y-66752247D01*
X130702095Y-66752247D02*
X130749714Y-66847485D01*
X130749714Y-66847485D02*
X130749714Y-66990342D01*
X130749714Y-66990342D02*
X130702095Y-67085580D01*
X130702095Y-67085580D02*
X130654476Y-67133200D01*
X130654476Y-67133200D02*
X130559238Y-67180819D01*
X130559238Y-67180819D02*
X130178286Y-67180819D01*
X130178286Y-67180819D02*
X130178286Y-66180819D01*
X130178286Y-66180819D02*
X130511619Y-66180819D01*
X130511619Y-66180819D02*
X130606857Y-66228438D01*
X130606857Y-66228438D02*
X130654476Y-66276057D01*
X130654476Y-66276057D02*
X130702095Y-66371295D01*
X130702095Y-66371295D02*
X130702095Y-66466533D01*
X130702095Y-66466533D02*
X130654476Y-66561771D01*
X130654476Y-66561771D02*
X130606857Y-66609390D01*
X130606857Y-66609390D02*
X130511619Y-66657009D01*
X130511619Y-66657009D02*
X130178286Y-66657009D01*
D11*
%TO.C,P8*%
X118355000Y-51165000D02*
X118355000Y-49835000D01*
X119685000Y-51165000D02*
X118355000Y-51165000D01*
X120955000Y-51165000D02*
X176895000Y-51165000D01*
X120955000Y-51165000D02*
X120955000Y-48565000D01*
X176895000Y-51165000D02*
X176895000Y-45965000D01*
X118355000Y-48565000D02*
X118355000Y-45965000D01*
X120955000Y-48565000D02*
X118355000Y-48565000D01*
X118355000Y-45965000D02*
X176895000Y-45965000D01*
%TO.C,P9*%
X118355000Y-99425000D02*
X118355000Y-98095000D01*
X119685000Y-99425000D02*
X118355000Y-99425000D01*
X120955000Y-99425000D02*
X176895000Y-99425000D01*
X120955000Y-99425000D02*
X120955000Y-96825000D01*
X176895000Y-99425000D02*
X176895000Y-94225000D01*
X118355000Y-96825000D02*
X118355000Y-94225000D01*
X120955000Y-96825000D02*
X118355000Y-96825000D01*
X118355000Y-94225000D02*
X176895000Y-94225000D01*
%TO.C,C1*%
X178510000Y-75709420D02*
X178510000Y-75990580D01*
X177490000Y-75709420D02*
X177490000Y-75990580D01*
D12*
%TO.C,U1*%
X173960000Y-79370000D02*
X157960000Y-79370000D01*
X173960000Y-62370000D02*
X157960000Y-62370000D01*
D13*
X175636000Y-77870000D02*
G75*
G03*
X175636000Y-77870000I-100000J0D01*
G01*
D11*
%TO.C,C2*%
X180310000Y-75709420D02*
X180310000Y-75990580D01*
X179290000Y-75709420D02*
X179290000Y-75990580D01*
%TO.C,U2*%
X134036000Y-78156000D02*
X134036000Y-62662000D01*
X134036000Y-62662000D02*
X122098000Y-62662000D01*
X122098000Y-78156000D02*
X134036000Y-78156000D01*
X122098000Y-62662000D02*
X122098000Y-78156000D01*
X126582841Y-75616000D02*
G75*
G03*
X126582841Y-75616000I-1436841J0D01*
G01*
X126513832Y-65202000D02*
G75*
G03*
X126513832Y-65202000I-1367832J0D01*
G01*
%TD*%
M02*
