%TF.GenerationSoftware,KiCad,Pcbnew,7.0.9*%
%TF.CreationDate,2024-01-08T22:22:32+01:00*%
%TF.ProjectId,BeaglebonePCBma_yC,42656167-6c65-4626-9f6e-655043426d61,rev?*%
%TF.SameCoordinates,Original*%
%TF.FileFunction,Legend,Top*%
%TF.FilePolarity,Positive*%
%FSLAX46Y46*%
G04 Gerber Fmt 4.6, Leading zero omitted, Abs format (unit mm)*
G04 Created by KiCad (PCBNEW 7.0.9) date 2024-01-08 22:22:32*
%MOMM*%
%LPD*%
G01*
G04 APERTURE LIST*
%ADD10C,0.150000*%
%ADD11C,0.127000*%
%ADD12C,0.200000*%
%ADD13C,0.120000*%
G04 APERTURE END LIST*
D10*
X165453095Y-55479819D02*
X165453095Y-56289342D01*
X165453095Y-56289342D02*
X165500714Y-56384580D01*
X165500714Y-56384580D02*
X165548333Y-56432200D01*
X165548333Y-56432200D02*
X165643571Y-56479819D01*
X165643571Y-56479819D02*
X165834047Y-56479819D01*
X165834047Y-56479819D02*
X165929285Y-56432200D01*
X165929285Y-56432200D02*
X165976904Y-56384580D01*
X165976904Y-56384580D02*
X166024523Y-56289342D01*
X166024523Y-56289342D02*
X166024523Y-55479819D01*
X167024523Y-56479819D02*
X166453095Y-56479819D01*
X166738809Y-56479819D02*
X166738809Y-55479819D01*
X166738809Y-55479819D02*
X166643571Y-55622676D01*
X166643571Y-55622676D02*
X166548333Y-55717914D01*
X166548333Y-55717914D02*
X166453095Y-55765533D01*
X117809819Y-49303094D02*
X116809819Y-49303094D01*
X116809819Y-49303094D02*
X116809819Y-48922142D01*
X116809819Y-48922142D02*
X116857438Y-48826904D01*
X116857438Y-48826904D02*
X116905057Y-48779285D01*
X116905057Y-48779285D02*
X117000295Y-48731666D01*
X117000295Y-48731666D02*
X117143152Y-48731666D01*
X117143152Y-48731666D02*
X117238390Y-48779285D01*
X117238390Y-48779285D02*
X117286009Y-48826904D01*
X117286009Y-48826904D02*
X117333628Y-48922142D01*
X117333628Y-48922142D02*
X117333628Y-49303094D01*
X117238390Y-48160237D02*
X117190771Y-48255475D01*
X117190771Y-48255475D02*
X117143152Y-48303094D01*
X117143152Y-48303094D02*
X117047914Y-48350713D01*
X117047914Y-48350713D02*
X117000295Y-48350713D01*
X117000295Y-48350713D02*
X116905057Y-48303094D01*
X116905057Y-48303094D02*
X116857438Y-48255475D01*
X116857438Y-48255475D02*
X116809819Y-48160237D01*
X116809819Y-48160237D02*
X116809819Y-47969761D01*
X116809819Y-47969761D02*
X116857438Y-47874523D01*
X116857438Y-47874523D02*
X116905057Y-47826904D01*
X116905057Y-47826904D02*
X117000295Y-47779285D01*
X117000295Y-47779285D02*
X117047914Y-47779285D01*
X117047914Y-47779285D02*
X117143152Y-47826904D01*
X117143152Y-47826904D02*
X117190771Y-47874523D01*
X117190771Y-47874523D02*
X117238390Y-47969761D01*
X117238390Y-47969761D02*
X117238390Y-48160237D01*
X117238390Y-48160237D02*
X117286009Y-48255475D01*
X117286009Y-48255475D02*
X117333628Y-48303094D01*
X117333628Y-48303094D02*
X117428866Y-48350713D01*
X117428866Y-48350713D02*
X117619342Y-48350713D01*
X117619342Y-48350713D02*
X117714580Y-48303094D01*
X117714580Y-48303094D02*
X117762200Y-48255475D01*
X117762200Y-48255475D02*
X117809819Y-48160237D01*
X117809819Y-48160237D02*
X117809819Y-47969761D01*
X117809819Y-47969761D02*
X117762200Y-47874523D01*
X117762200Y-47874523D02*
X117714580Y-47826904D01*
X117714580Y-47826904D02*
X117619342Y-47779285D01*
X117619342Y-47779285D02*
X117428866Y-47779285D01*
X117428866Y-47779285D02*
X117333628Y-47826904D01*
X117333628Y-47826904D02*
X117286009Y-47874523D01*
X117286009Y-47874523D02*
X117238390Y-47969761D01*
X117809819Y-97563094D02*
X116809819Y-97563094D01*
X116809819Y-97563094D02*
X116809819Y-97182142D01*
X116809819Y-97182142D02*
X116857438Y-97086904D01*
X116857438Y-97086904D02*
X116905057Y-97039285D01*
X116905057Y-97039285D02*
X117000295Y-96991666D01*
X117000295Y-96991666D02*
X117143152Y-96991666D01*
X117143152Y-96991666D02*
X117238390Y-97039285D01*
X117238390Y-97039285D02*
X117286009Y-97086904D01*
X117286009Y-97086904D02*
X117333628Y-97182142D01*
X117333628Y-97182142D02*
X117333628Y-97563094D01*
X117809819Y-96515475D02*
X117809819Y-96324999D01*
X117809819Y-96324999D02*
X117762200Y-96229761D01*
X117762200Y-96229761D02*
X117714580Y-96182142D01*
X117714580Y-96182142D02*
X117571723Y-96086904D01*
X117571723Y-96086904D02*
X117381247Y-96039285D01*
X117381247Y-96039285D02*
X117000295Y-96039285D01*
X117000295Y-96039285D02*
X116905057Y-96086904D01*
X116905057Y-96086904D02*
X116857438Y-96134523D01*
X116857438Y-96134523D02*
X116809819Y-96229761D01*
X116809819Y-96229761D02*
X116809819Y-96420237D01*
X116809819Y-96420237D02*
X116857438Y-96515475D01*
X116857438Y-96515475D02*
X116905057Y-96563094D01*
X116905057Y-96563094D02*
X117000295Y-96610713D01*
X117000295Y-96610713D02*
X117238390Y-96610713D01*
X117238390Y-96610713D02*
X117333628Y-96563094D01*
X117333628Y-96563094D02*
X117381247Y-96515475D01*
X117381247Y-96515475D02*
X117428866Y-96420237D01*
X117428866Y-96420237D02*
X117428866Y-96229761D01*
X117428866Y-96229761D02*
X117381247Y-96134523D01*
X117381247Y-96134523D02*
X117333628Y-96086904D01*
X117333628Y-96086904D02*
X117238390Y-96039285D01*
X160314580Y-56446666D02*
X160362200Y-56494285D01*
X160362200Y-56494285D02*
X160409819Y-56637142D01*
X160409819Y-56637142D02*
X160409819Y-56732380D01*
X160409819Y-56732380D02*
X160362200Y-56875237D01*
X160362200Y-56875237D02*
X160266961Y-56970475D01*
X160266961Y-56970475D02*
X160171723Y-57018094D01*
X160171723Y-57018094D02*
X159981247Y-57065713D01*
X159981247Y-57065713D02*
X159838390Y-57065713D01*
X159838390Y-57065713D02*
X159647914Y-57018094D01*
X159647914Y-57018094D02*
X159552676Y-56970475D01*
X159552676Y-56970475D02*
X159457438Y-56875237D01*
X159457438Y-56875237D02*
X159409819Y-56732380D01*
X159409819Y-56732380D02*
X159409819Y-56637142D01*
X159409819Y-56637142D02*
X159457438Y-56494285D01*
X159457438Y-56494285D02*
X159505057Y-56446666D01*
X160409819Y-55494285D02*
X160409819Y-56065713D01*
X160409819Y-55779999D02*
X159409819Y-55779999D01*
X159409819Y-55779999D02*
X159552676Y-55875237D01*
X159552676Y-55875237D02*
X159647914Y-55970475D01*
X159647914Y-55970475D02*
X159695533Y-56065713D01*
X158344580Y-56446666D02*
X158392200Y-56494285D01*
X158392200Y-56494285D02*
X158439819Y-56637142D01*
X158439819Y-56637142D02*
X158439819Y-56732380D01*
X158439819Y-56732380D02*
X158392200Y-56875237D01*
X158392200Y-56875237D02*
X158296961Y-56970475D01*
X158296961Y-56970475D02*
X158201723Y-57018094D01*
X158201723Y-57018094D02*
X158011247Y-57065713D01*
X158011247Y-57065713D02*
X157868390Y-57065713D01*
X157868390Y-57065713D02*
X157677914Y-57018094D01*
X157677914Y-57018094D02*
X157582676Y-56970475D01*
X157582676Y-56970475D02*
X157487438Y-56875237D01*
X157487438Y-56875237D02*
X157439819Y-56732380D01*
X157439819Y-56732380D02*
X157439819Y-56637142D01*
X157439819Y-56637142D02*
X157487438Y-56494285D01*
X157487438Y-56494285D02*
X157535057Y-56446666D01*
X157535057Y-56065713D02*
X157487438Y-56018094D01*
X157487438Y-56018094D02*
X157439819Y-55922856D01*
X157439819Y-55922856D02*
X157439819Y-55684761D01*
X157439819Y-55684761D02*
X157487438Y-55589523D01*
X157487438Y-55589523D02*
X157535057Y-55541904D01*
X157535057Y-55541904D02*
X157630295Y-55494285D01*
X157630295Y-55494285D02*
X157725533Y-55494285D01*
X157725533Y-55494285D02*
X157868390Y-55541904D01*
X157868390Y-55541904D02*
X158439819Y-56113332D01*
X158439819Y-56113332D02*
X158439819Y-55494285D01*
X132258095Y-88532819D02*
X132258095Y-89342342D01*
X132258095Y-89342342D02*
X132305714Y-89437580D01*
X132305714Y-89437580D02*
X132353333Y-89485200D01*
X132353333Y-89485200D02*
X132448571Y-89532819D01*
X132448571Y-89532819D02*
X132639047Y-89532819D01*
X132639047Y-89532819D02*
X132734285Y-89485200D01*
X132734285Y-89485200D02*
X132781904Y-89437580D01*
X132781904Y-89437580D02*
X132829523Y-89342342D01*
X132829523Y-89342342D02*
X132829523Y-88532819D01*
X133258095Y-88628057D02*
X133305714Y-88580438D01*
X133305714Y-88580438D02*
X133400952Y-88532819D01*
X133400952Y-88532819D02*
X133639047Y-88532819D01*
X133639047Y-88532819D02*
X133734285Y-88580438D01*
X133734285Y-88580438D02*
X133781904Y-88628057D01*
X133781904Y-88628057D02*
X133829523Y-88723295D01*
X133829523Y-88723295D02*
X133829523Y-88818533D01*
X133829523Y-88818533D02*
X133781904Y-88961390D01*
X133781904Y-88961390D02*
X133210476Y-89532819D01*
X133210476Y-89532819D02*
X133829523Y-89532819D01*
X128702095Y-84008438D02*
X128606857Y-83960819D01*
X128606857Y-83960819D02*
X128464000Y-83960819D01*
X128464000Y-83960819D02*
X128321143Y-84008438D01*
X128321143Y-84008438D02*
X128225905Y-84103676D01*
X128225905Y-84103676D02*
X128178286Y-84198914D01*
X128178286Y-84198914D02*
X128130667Y-84389390D01*
X128130667Y-84389390D02*
X128130667Y-84532247D01*
X128130667Y-84532247D02*
X128178286Y-84722723D01*
X128178286Y-84722723D02*
X128225905Y-84817961D01*
X128225905Y-84817961D02*
X128321143Y-84913200D01*
X128321143Y-84913200D02*
X128464000Y-84960819D01*
X128464000Y-84960819D02*
X128559238Y-84960819D01*
X128559238Y-84960819D02*
X128702095Y-84913200D01*
X128702095Y-84913200D02*
X128749714Y-84865580D01*
X128749714Y-84865580D02*
X128749714Y-84532247D01*
X128749714Y-84532247D02*
X128559238Y-84532247D01*
X129178286Y-84960819D02*
X129178286Y-83960819D01*
X129178286Y-83960819D02*
X129749714Y-84960819D01*
X129749714Y-84960819D02*
X129749714Y-83960819D01*
X130225905Y-84960819D02*
X130225905Y-83960819D01*
X130225905Y-83960819D02*
X130464000Y-83960819D01*
X130464000Y-83960819D02*
X130606857Y-84008438D01*
X130606857Y-84008438D02*
X130702095Y-84103676D01*
X130702095Y-84103676D02*
X130749714Y-84198914D01*
X130749714Y-84198914D02*
X130797333Y-84389390D01*
X130797333Y-84389390D02*
X130797333Y-84532247D01*
X130797333Y-84532247D02*
X130749714Y-84722723D01*
X130749714Y-84722723D02*
X130702095Y-84817961D01*
X130702095Y-84817961D02*
X130606857Y-84913200D01*
X130606857Y-84913200D02*
X130464000Y-84960819D01*
X130464000Y-84960819D02*
X130225905Y-84960819D01*
X128249714Y-79833200D02*
X128392571Y-79880819D01*
X128392571Y-79880819D02*
X128630666Y-79880819D01*
X128630666Y-79880819D02*
X128725904Y-79833200D01*
X128725904Y-79833200D02*
X128773523Y-79785580D01*
X128773523Y-79785580D02*
X128821142Y-79690342D01*
X128821142Y-79690342D02*
X128821142Y-79595104D01*
X128821142Y-79595104D02*
X128773523Y-79499866D01*
X128773523Y-79499866D02*
X128725904Y-79452247D01*
X128725904Y-79452247D02*
X128630666Y-79404628D01*
X128630666Y-79404628D02*
X128440190Y-79357009D01*
X128440190Y-79357009D02*
X128344952Y-79309390D01*
X128344952Y-79309390D02*
X128297333Y-79261771D01*
X128297333Y-79261771D02*
X128249714Y-79166533D01*
X128249714Y-79166533D02*
X128249714Y-79071295D01*
X128249714Y-79071295D02*
X128297333Y-78976057D01*
X128297333Y-78976057D02*
X128344952Y-78928438D01*
X128344952Y-78928438D02*
X128440190Y-78880819D01*
X128440190Y-78880819D02*
X128678285Y-78880819D01*
X128678285Y-78880819D02*
X128821142Y-78928438D01*
X129249714Y-79880819D02*
X129249714Y-78880819D01*
X129249714Y-78880819D02*
X129487809Y-78880819D01*
X129487809Y-78880819D02*
X129630666Y-78928438D01*
X129630666Y-78928438D02*
X129725904Y-79023676D01*
X129725904Y-79023676D02*
X129773523Y-79118914D01*
X129773523Y-79118914D02*
X129821142Y-79309390D01*
X129821142Y-79309390D02*
X129821142Y-79452247D01*
X129821142Y-79452247D02*
X129773523Y-79642723D01*
X129773523Y-79642723D02*
X129725904Y-79737961D01*
X129725904Y-79737961D02*
X129630666Y-79833200D01*
X129630666Y-79833200D02*
X129487809Y-79880819D01*
X129487809Y-79880819D02*
X129249714Y-79880819D01*
X130202095Y-79595104D02*
X130678285Y-79595104D01*
X130106857Y-79880819D02*
X130440190Y-78880819D01*
X130440190Y-78880819D02*
X130773523Y-79880819D01*
X128202095Y-74753200D02*
X128344952Y-74800819D01*
X128344952Y-74800819D02*
X128583047Y-74800819D01*
X128583047Y-74800819D02*
X128678285Y-74753200D01*
X128678285Y-74753200D02*
X128725904Y-74705580D01*
X128725904Y-74705580D02*
X128773523Y-74610342D01*
X128773523Y-74610342D02*
X128773523Y-74515104D01*
X128773523Y-74515104D02*
X128725904Y-74419866D01*
X128725904Y-74419866D02*
X128678285Y-74372247D01*
X128678285Y-74372247D02*
X128583047Y-74324628D01*
X128583047Y-74324628D02*
X128392571Y-74277009D01*
X128392571Y-74277009D02*
X128297333Y-74229390D01*
X128297333Y-74229390D02*
X128249714Y-74181771D01*
X128249714Y-74181771D02*
X128202095Y-74086533D01*
X128202095Y-74086533D02*
X128202095Y-73991295D01*
X128202095Y-73991295D02*
X128249714Y-73896057D01*
X128249714Y-73896057D02*
X128297333Y-73848438D01*
X128297333Y-73848438D02*
X128392571Y-73800819D01*
X128392571Y-73800819D02*
X128630666Y-73800819D01*
X128630666Y-73800819D02*
X128773523Y-73848438D01*
X129202095Y-74800819D02*
X129202095Y-73800819D01*
X129202095Y-73800819D02*
X129440190Y-73800819D01*
X129440190Y-73800819D02*
X129583047Y-73848438D01*
X129583047Y-73848438D02*
X129678285Y-73943676D01*
X129678285Y-73943676D02*
X129725904Y-74038914D01*
X129725904Y-74038914D02*
X129773523Y-74229390D01*
X129773523Y-74229390D02*
X129773523Y-74372247D01*
X129773523Y-74372247D02*
X129725904Y-74562723D01*
X129725904Y-74562723D02*
X129678285Y-74657961D01*
X129678285Y-74657961D02*
X129583047Y-74753200D01*
X129583047Y-74753200D02*
X129440190Y-74800819D01*
X129440190Y-74800819D02*
X129202095Y-74800819D01*
X130392571Y-73800819D02*
X130487809Y-73800819D01*
X130487809Y-73800819D02*
X130583047Y-73848438D01*
X130583047Y-73848438D02*
X130630666Y-73896057D01*
X130630666Y-73896057D02*
X130678285Y-73991295D01*
X130678285Y-73991295D02*
X130725904Y-74181771D01*
X130725904Y-74181771D02*
X130725904Y-74419866D01*
X130725904Y-74419866D02*
X130678285Y-74610342D01*
X130678285Y-74610342D02*
X130630666Y-74705580D01*
X130630666Y-74705580D02*
X130583047Y-74753200D01*
X130583047Y-74753200D02*
X130487809Y-74800819D01*
X130487809Y-74800819D02*
X130392571Y-74800819D01*
X130392571Y-74800819D02*
X130297333Y-74753200D01*
X130297333Y-74753200D02*
X130249714Y-74705580D01*
X130249714Y-74705580D02*
X130202095Y-74610342D01*
X130202095Y-74610342D02*
X130154476Y-74419866D01*
X130154476Y-74419866D02*
X130154476Y-74181771D01*
X130154476Y-74181771D02*
X130202095Y-73991295D01*
X130202095Y-73991295D02*
X130249714Y-73896057D01*
X130249714Y-73896057D02*
X130297333Y-73848438D01*
X130297333Y-73848438D02*
X130392571Y-73800819D01*
X122757238Y-89009009D02*
X122900095Y-89056628D01*
X122900095Y-89056628D02*
X122947714Y-89104247D01*
X122947714Y-89104247D02*
X122995333Y-89199485D01*
X122995333Y-89199485D02*
X122995333Y-89342342D01*
X122995333Y-89342342D02*
X122947714Y-89437580D01*
X122947714Y-89437580D02*
X122900095Y-89485200D01*
X122900095Y-89485200D02*
X122804857Y-89532819D01*
X122804857Y-89532819D02*
X122423905Y-89532819D01*
X122423905Y-89532819D02*
X122423905Y-88532819D01*
X122423905Y-88532819D02*
X122757238Y-88532819D01*
X122757238Y-88532819D02*
X122852476Y-88580438D01*
X122852476Y-88580438D02*
X122900095Y-88628057D01*
X122900095Y-88628057D02*
X122947714Y-88723295D01*
X122947714Y-88723295D02*
X122947714Y-88818533D01*
X122947714Y-88818533D02*
X122900095Y-88913771D01*
X122900095Y-88913771D02*
X122852476Y-88961390D01*
X122852476Y-88961390D02*
X122757238Y-89009009D01*
X122757238Y-89009009D02*
X122423905Y-89009009D01*
X123423905Y-89532819D02*
X123423905Y-88532819D01*
X123423905Y-88532819D02*
X123757238Y-89247104D01*
X123757238Y-89247104D02*
X124090571Y-88532819D01*
X124090571Y-88532819D02*
X124090571Y-89532819D01*
X124566762Y-89009009D02*
X124900095Y-89009009D01*
X125042952Y-89532819D02*
X124566762Y-89532819D01*
X124566762Y-89532819D02*
X124566762Y-88532819D01*
X124566762Y-88532819D02*
X125042952Y-88532819D01*
X126185809Y-88485200D02*
X125328667Y-89770914D01*
X126519143Y-89532819D02*
X126519143Y-88532819D01*
X126519143Y-88532819D02*
X126900095Y-88532819D01*
X126900095Y-88532819D02*
X126995333Y-88580438D01*
X126995333Y-88580438D02*
X127042952Y-88628057D01*
X127042952Y-88628057D02*
X127090571Y-88723295D01*
X127090571Y-88723295D02*
X127090571Y-88866152D01*
X127090571Y-88866152D02*
X127042952Y-88961390D01*
X127042952Y-88961390D02*
X126995333Y-89009009D01*
X126995333Y-89009009D02*
X126900095Y-89056628D01*
X126900095Y-89056628D02*
X126519143Y-89056628D01*
X127471524Y-88628057D02*
X127519143Y-88580438D01*
X127519143Y-88580438D02*
X127614381Y-88532819D01*
X127614381Y-88532819D02*
X127852476Y-88532819D01*
X127852476Y-88532819D02*
X127947714Y-88580438D01*
X127947714Y-88580438D02*
X127995333Y-88628057D01*
X127995333Y-88628057D02*
X128042952Y-88723295D01*
X128042952Y-88723295D02*
X128042952Y-88818533D01*
X128042952Y-88818533D02*
X127995333Y-88961390D01*
X127995333Y-88961390D02*
X127423905Y-89532819D01*
X127423905Y-89532819D02*
X128042952Y-89532819D01*
X128614381Y-88961390D02*
X128519143Y-88913771D01*
X128519143Y-88913771D02*
X128471524Y-88866152D01*
X128471524Y-88866152D02*
X128423905Y-88770914D01*
X128423905Y-88770914D02*
X128423905Y-88723295D01*
X128423905Y-88723295D02*
X128471524Y-88628057D01*
X128471524Y-88628057D02*
X128519143Y-88580438D01*
X128519143Y-88580438D02*
X128614381Y-88532819D01*
X128614381Y-88532819D02*
X128804857Y-88532819D01*
X128804857Y-88532819D02*
X128900095Y-88580438D01*
X128900095Y-88580438D02*
X128947714Y-88628057D01*
X128947714Y-88628057D02*
X128995333Y-88723295D01*
X128995333Y-88723295D02*
X128995333Y-88770914D01*
X128995333Y-88770914D02*
X128947714Y-88866152D01*
X128947714Y-88866152D02*
X128900095Y-88913771D01*
X128900095Y-88913771D02*
X128804857Y-88961390D01*
X128804857Y-88961390D02*
X128614381Y-88961390D01*
X128614381Y-88961390D02*
X128519143Y-89009009D01*
X128519143Y-89009009D02*
X128471524Y-89056628D01*
X128471524Y-89056628D02*
X128423905Y-89151866D01*
X128423905Y-89151866D02*
X128423905Y-89342342D01*
X128423905Y-89342342D02*
X128471524Y-89437580D01*
X128471524Y-89437580D02*
X128519143Y-89485200D01*
X128519143Y-89485200D02*
X128614381Y-89532819D01*
X128614381Y-89532819D02*
X128804857Y-89532819D01*
X128804857Y-89532819D02*
X128900095Y-89485200D01*
X128900095Y-89485200D02*
X128947714Y-89437580D01*
X128947714Y-89437580D02*
X128995333Y-89342342D01*
X128995333Y-89342342D02*
X128995333Y-89151866D01*
X128995333Y-89151866D02*
X128947714Y-89056628D01*
X128947714Y-89056628D02*
X128900095Y-89009009D01*
X128900095Y-89009009D02*
X128804857Y-88961390D01*
X129614381Y-88532819D02*
X129709619Y-88532819D01*
X129709619Y-88532819D02*
X129804857Y-88580438D01*
X129804857Y-88580438D02*
X129852476Y-88628057D01*
X129852476Y-88628057D02*
X129900095Y-88723295D01*
X129900095Y-88723295D02*
X129947714Y-88913771D01*
X129947714Y-88913771D02*
X129947714Y-89151866D01*
X129947714Y-89151866D02*
X129900095Y-89342342D01*
X129900095Y-89342342D02*
X129852476Y-89437580D01*
X129852476Y-89437580D02*
X129804857Y-89485200D01*
X129804857Y-89485200D02*
X129709619Y-89532819D01*
X129709619Y-89532819D02*
X129614381Y-89532819D01*
X129614381Y-89532819D02*
X129519143Y-89485200D01*
X129519143Y-89485200D02*
X129471524Y-89437580D01*
X129471524Y-89437580D02*
X129423905Y-89342342D01*
X129423905Y-89342342D02*
X129376286Y-89151866D01*
X129376286Y-89151866D02*
X129376286Y-88913771D01*
X129376286Y-88913771D02*
X129423905Y-88723295D01*
X129423905Y-88723295D02*
X129471524Y-88628057D01*
X129471524Y-88628057D02*
X129519143Y-88580438D01*
X129519143Y-88580438D02*
X129614381Y-88532819D01*
X128273524Y-82373200D02*
X128416381Y-82420819D01*
X128416381Y-82420819D02*
X128654476Y-82420819D01*
X128654476Y-82420819D02*
X128749714Y-82373200D01*
X128749714Y-82373200D02*
X128797333Y-82325580D01*
X128797333Y-82325580D02*
X128844952Y-82230342D01*
X128844952Y-82230342D02*
X128844952Y-82135104D01*
X128844952Y-82135104D02*
X128797333Y-82039866D01*
X128797333Y-82039866D02*
X128749714Y-81992247D01*
X128749714Y-81992247D02*
X128654476Y-81944628D01*
X128654476Y-81944628D02*
X128464000Y-81897009D01*
X128464000Y-81897009D02*
X128368762Y-81849390D01*
X128368762Y-81849390D02*
X128321143Y-81801771D01*
X128321143Y-81801771D02*
X128273524Y-81706533D01*
X128273524Y-81706533D02*
X128273524Y-81611295D01*
X128273524Y-81611295D02*
X128321143Y-81516057D01*
X128321143Y-81516057D02*
X128368762Y-81468438D01*
X128368762Y-81468438D02*
X128464000Y-81420819D01*
X128464000Y-81420819D02*
X128702095Y-81420819D01*
X128702095Y-81420819D02*
X128844952Y-81468438D01*
X129844952Y-82325580D02*
X129797333Y-82373200D01*
X129797333Y-82373200D02*
X129654476Y-82420819D01*
X129654476Y-82420819D02*
X129559238Y-82420819D01*
X129559238Y-82420819D02*
X129416381Y-82373200D01*
X129416381Y-82373200D02*
X129321143Y-82277961D01*
X129321143Y-82277961D02*
X129273524Y-82182723D01*
X129273524Y-82182723D02*
X129225905Y-81992247D01*
X129225905Y-81992247D02*
X129225905Y-81849390D01*
X129225905Y-81849390D02*
X129273524Y-81658914D01*
X129273524Y-81658914D02*
X129321143Y-81563676D01*
X129321143Y-81563676D02*
X129416381Y-81468438D01*
X129416381Y-81468438D02*
X129559238Y-81420819D01*
X129559238Y-81420819D02*
X129654476Y-81420819D01*
X129654476Y-81420819D02*
X129797333Y-81468438D01*
X129797333Y-81468438D02*
X129844952Y-81516057D01*
X130749714Y-82420819D02*
X130273524Y-82420819D01*
X130273524Y-82420819D02*
X130273524Y-81420819D01*
X128130667Y-86500819D02*
X128464000Y-87500819D01*
X128464000Y-87500819D02*
X128797333Y-86500819D01*
X129702095Y-87405580D02*
X129654476Y-87453200D01*
X129654476Y-87453200D02*
X129511619Y-87500819D01*
X129511619Y-87500819D02*
X129416381Y-87500819D01*
X129416381Y-87500819D02*
X129273524Y-87453200D01*
X129273524Y-87453200D02*
X129178286Y-87357961D01*
X129178286Y-87357961D02*
X129130667Y-87262723D01*
X129130667Y-87262723D02*
X129083048Y-87072247D01*
X129083048Y-87072247D02*
X129083048Y-86929390D01*
X129083048Y-86929390D02*
X129130667Y-86738914D01*
X129130667Y-86738914D02*
X129178286Y-86643676D01*
X129178286Y-86643676D02*
X129273524Y-86548438D01*
X129273524Y-86548438D02*
X129416381Y-86500819D01*
X129416381Y-86500819D02*
X129511619Y-86500819D01*
X129511619Y-86500819D02*
X129654476Y-86548438D01*
X129654476Y-86548438D02*
X129702095Y-86596057D01*
X130702095Y-87405580D02*
X130654476Y-87453200D01*
X130654476Y-87453200D02*
X130511619Y-87500819D01*
X130511619Y-87500819D02*
X130416381Y-87500819D01*
X130416381Y-87500819D02*
X130273524Y-87453200D01*
X130273524Y-87453200D02*
X130178286Y-87357961D01*
X130178286Y-87357961D02*
X130130667Y-87262723D01*
X130130667Y-87262723D02*
X130083048Y-87072247D01*
X130083048Y-87072247D02*
X130083048Y-86929390D01*
X130083048Y-86929390D02*
X130130667Y-86738914D01*
X130130667Y-86738914D02*
X130178286Y-86643676D01*
X130178286Y-86643676D02*
X130273524Y-86548438D01*
X130273524Y-86548438D02*
X130416381Y-86500819D01*
X130416381Y-86500819D02*
X130511619Y-86500819D01*
X130511619Y-86500819D02*
X130654476Y-86548438D01*
X130654476Y-86548438D02*
X130702095Y-86596057D01*
X128797333Y-77245580D02*
X128749714Y-77293200D01*
X128749714Y-77293200D02*
X128606857Y-77340819D01*
X128606857Y-77340819D02*
X128511619Y-77340819D01*
X128511619Y-77340819D02*
X128368762Y-77293200D01*
X128368762Y-77293200D02*
X128273524Y-77197961D01*
X128273524Y-77197961D02*
X128225905Y-77102723D01*
X128225905Y-77102723D02*
X128178286Y-76912247D01*
X128178286Y-76912247D02*
X128178286Y-76769390D01*
X128178286Y-76769390D02*
X128225905Y-76578914D01*
X128225905Y-76578914D02*
X128273524Y-76483676D01*
X128273524Y-76483676D02*
X128368762Y-76388438D01*
X128368762Y-76388438D02*
X128511619Y-76340819D01*
X128511619Y-76340819D02*
X128606857Y-76340819D01*
X128606857Y-76340819D02*
X128749714Y-76388438D01*
X128749714Y-76388438D02*
X128797333Y-76436057D01*
X129178286Y-77293200D02*
X129321143Y-77340819D01*
X129321143Y-77340819D02*
X129559238Y-77340819D01*
X129559238Y-77340819D02*
X129654476Y-77293200D01*
X129654476Y-77293200D02*
X129702095Y-77245580D01*
X129702095Y-77245580D02*
X129749714Y-77150342D01*
X129749714Y-77150342D02*
X129749714Y-77055104D01*
X129749714Y-77055104D02*
X129702095Y-76959866D01*
X129702095Y-76959866D02*
X129654476Y-76912247D01*
X129654476Y-76912247D02*
X129559238Y-76864628D01*
X129559238Y-76864628D02*
X129368762Y-76817009D01*
X129368762Y-76817009D02*
X129273524Y-76769390D01*
X129273524Y-76769390D02*
X129225905Y-76721771D01*
X129225905Y-76721771D02*
X129178286Y-76626533D01*
X129178286Y-76626533D02*
X129178286Y-76531295D01*
X129178286Y-76531295D02*
X129225905Y-76436057D01*
X129225905Y-76436057D02*
X129273524Y-76388438D01*
X129273524Y-76388438D02*
X129368762Y-76340819D01*
X129368762Y-76340819D02*
X129606857Y-76340819D01*
X129606857Y-76340819D02*
X129749714Y-76388438D01*
X130511619Y-76817009D02*
X130654476Y-76864628D01*
X130654476Y-76864628D02*
X130702095Y-76912247D01*
X130702095Y-76912247D02*
X130749714Y-77007485D01*
X130749714Y-77007485D02*
X130749714Y-77150342D01*
X130749714Y-77150342D02*
X130702095Y-77245580D01*
X130702095Y-77245580D02*
X130654476Y-77293200D01*
X130654476Y-77293200D02*
X130559238Y-77340819D01*
X130559238Y-77340819D02*
X130178286Y-77340819D01*
X130178286Y-77340819D02*
X130178286Y-76340819D01*
X130178286Y-76340819D02*
X130511619Y-76340819D01*
X130511619Y-76340819D02*
X130606857Y-76388438D01*
X130606857Y-76388438D02*
X130654476Y-76436057D01*
X130654476Y-76436057D02*
X130702095Y-76531295D01*
X130702095Y-76531295D02*
X130702095Y-76626533D01*
X130702095Y-76626533D02*
X130654476Y-76721771D01*
X130654476Y-76721771D02*
X130606857Y-76769390D01*
X130606857Y-76769390D02*
X130511619Y-76817009D01*
X130511619Y-76817009D02*
X130178286Y-76817009D01*
D11*
%TO.C,U1*%
X163040000Y-57160000D02*
X179040000Y-57160000D01*
X163040000Y-74160000D02*
X179040000Y-74160000D01*
D12*
X161564000Y-58660000D02*
G75*
G03*
X161564000Y-58660000I-100000J0D01*
G01*
D13*
%TO.C,P8*%
X118355000Y-51165000D02*
X118355000Y-49835000D01*
X119685000Y-51165000D02*
X118355000Y-51165000D01*
X120955000Y-51165000D02*
X176895000Y-51165000D01*
X120955000Y-51165000D02*
X120955000Y-48565000D01*
X176895000Y-51165000D02*
X176895000Y-45965000D01*
X118355000Y-48565000D02*
X118355000Y-45965000D01*
X120955000Y-48565000D02*
X118355000Y-48565000D01*
X118355000Y-45965000D02*
X176895000Y-45965000D01*
%TO.C,P9*%
X118355000Y-99425000D02*
X118355000Y-98095000D01*
X119685000Y-99425000D02*
X118355000Y-99425000D01*
X120955000Y-99425000D02*
X176895000Y-99425000D01*
X120955000Y-99425000D02*
X120955000Y-96825000D01*
X176895000Y-99425000D02*
X176895000Y-94225000D01*
X118355000Y-96825000D02*
X118355000Y-94225000D01*
X120955000Y-96825000D02*
X118355000Y-96825000D01*
X118355000Y-94225000D02*
X176895000Y-94225000D01*
%TO.C,C1*%
X160510000Y-60770580D02*
X160510000Y-60489420D01*
X159490000Y-60770580D02*
X159490000Y-60489420D01*
%TO.C,C2*%
X158510000Y-60770580D02*
X158510000Y-60489420D01*
X157490000Y-60770580D02*
X157490000Y-60489420D01*
%TO.C,U2*%
X134036000Y-88316000D02*
X134036000Y-72822000D01*
X134036000Y-72822000D02*
X122098000Y-72822000D01*
X122098000Y-88316000D02*
X134036000Y-88316000D01*
X122098000Y-72822000D02*
X122098000Y-88316000D01*
X126582841Y-85776000D02*
G75*
G03*
X126582841Y-85776000I-1436841J0D01*
G01*
X126513832Y-75362000D02*
G75*
G03*
X126513832Y-75362000I-1367832J0D01*
G01*
%TD*%
M02*
