%TF.GenerationSoftware,KiCad,Pcbnew,7.0.9*%
%TF.CreationDate,2024-02-26T23:44:44+01:00*%
%TF.ProjectId,esp32c3,65737033-3263-4332-9e6b-696361645f70,rev?*%
%TF.SameCoordinates,Original*%
%TF.FileFunction,Legend,Top*%
%TF.FilePolarity,Positive*%
%FSLAX46Y46*%
G04 Gerber Fmt 4.6, Leading zero omitted, Abs format (unit mm)*
G04 Created by KiCad (PCBNEW 7.0.9) date 2024-02-26 23:44:44*
%MOMM*%
%LPD*%
G01*
G04 APERTURE LIST*
%ADD10C,0.150000*%
%ADD11C,0.101600*%
%ADD12C,0.076200*%
%ADD13C,0.127000*%
%ADD14C,0.200000*%
%ADD15C,0.120000*%
%ADD16C,0.066040*%
%ADD17C,0.254000*%
G04 APERTURE END LIST*
D10*
X175571819Y-76688904D02*
X176381342Y-76688904D01*
X176381342Y-76688904D02*
X176476580Y-76641285D01*
X176476580Y-76641285D02*
X176524200Y-76593666D01*
X176524200Y-76593666D02*
X176571819Y-76498428D01*
X176571819Y-76498428D02*
X176571819Y-76307952D01*
X176571819Y-76307952D02*
X176524200Y-76212714D01*
X176524200Y-76212714D02*
X176476580Y-76165095D01*
X176476580Y-76165095D02*
X176381342Y-76117476D01*
X176381342Y-76117476D02*
X175571819Y-76117476D01*
X175571819Y-75736523D02*
X175571819Y-75117476D01*
X175571819Y-75117476D02*
X175952771Y-75450809D01*
X175952771Y-75450809D02*
X175952771Y-75307952D01*
X175952771Y-75307952D02*
X176000390Y-75212714D01*
X176000390Y-75212714D02*
X176048009Y-75165095D01*
X176048009Y-75165095D02*
X176143247Y-75117476D01*
X176143247Y-75117476D02*
X176381342Y-75117476D01*
X176381342Y-75117476D02*
X176476580Y-75165095D01*
X176476580Y-75165095D02*
X176524200Y-75212714D01*
X176524200Y-75212714D02*
X176571819Y-75307952D01*
X176571819Y-75307952D02*
X176571819Y-75593666D01*
X176571819Y-75593666D02*
X176524200Y-75688904D01*
X176524200Y-75688904D02*
X176476580Y-75736523D01*
X171270333Y-68749580D02*
X171222714Y-68797200D01*
X171222714Y-68797200D02*
X171079857Y-68844819D01*
X171079857Y-68844819D02*
X170984619Y-68844819D01*
X170984619Y-68844819D02*
X170841762Y-68797200D01*
X170841762Y-68797200D02*
X170746524Y-68701961D01*
X170746524Y-68701961D02*
X170698905Y-68606723D01*
X170698905Y-68606723D02*
X170651286Y-68416247D01*
X170651286Y-68416247D02*
X170651286Y-68273390D01*
X170651286Y-68273390D02*
X170698905Y-68082914D01*
X170698905Y-68082914D02*
X170746524Y-67987676D01*
X170746524Y-67987676D02*
X170841762Y-67892438D01*
X170841762Y-67892438D02*
X170984619Y-67844819D01*
X170984619Y-67844819D02*
X171079857Y-67844819D01*
X171079857Y-67844819D02*
X171222714Y-67892438D01*
X171222714Y-67892438D02*
X171270333Y-67940057D01*
X171651286Y-67940057D02*
X171698905Y-67892438D01*
X171698905Y-67892438D02*
X171794143Y-67844819D01*
X171794143Y-67844819D02*
X172032238Y-67844819D01*
X172032238Y-67844819D02*
X172127476Y-67892438D01*
X172127476Y-67892438D02*
X172175095Y-67940057D01*
X172175095Y-67940057D02*
X172222714Y-68035295D01*
X172222714Y-68035295D02*
X172222714Y-68130533D01*
X172222714Y-68130533D02*
X172175095Y-68273390D01*
X172175095Y-68273390D02*
X171603667Y-68844819D01*
X171603667Y-68844819D02*
X172222714Y-68844819D01*
X143914333Y-93004819D02*
X143581000Y-92528628D01*
X143342905Y-93004819D02*
X143342905Y-92004819D01*
X143342905Y-92004819D02*
X143723857Y-92004819D01*
X143723857Y-92004819D02*
X143819095Y-92052438D01*
X143819095Y-92052438D02*
X143866714Y-92100057D01*
X143866714Y-92100057D02*
X143914333Y-92195295D01*
X143914333Y-92195295D02*
X143914333Y-92338152D01*
X143914333Y-92338152D02*
X143866714Y-92433390D01*
X143866714Y-92433390D02*
X143819095Y-92481009D01*
X143819095Y-92481009D02*
X143723857Y-92528628D01*
X143723857Y-92528628D02*
X143342905Y-92528628D01*
X144866714Y-93004819D02*
X144295286Y-93004819D01*
X144581000Y-93004819D02*
X144581000Y-92004819D01*
X144581000Y-92004819D02*
X144485762Y-92147676D01*
X144485762Y-92147676D02*
X144390524Y-92242914D01*
X144390524Y-92242914D02*
X144295286Y-92290533D01*
X147978333Y-93004819D02*
X147645000Y-92528628D01*
X147406905Y-93004819D02*
X147406905Y-92004819D01*
X147406905Y-92004819D02*
X147787857Y-92004819D01*
X147787857Y-92004819D02*
X147883095Y-92052438D01*
X147883095Y-92052438D02*
X147930714Y-92100057D01*
X147930714Y-92100057D02*
X147978333Y-92195295D01*
X147978333Y-92195295D02*
X147978333Y-92338152D01*
X147978333Y-92338152D02*
X147930714Y-92433390D01*
X147930714Y-92433390D02*
X147883095Y-92481009D01*
X147883095Y-92481009D02*
X147787857Y-92528628D01*
X147787857Y-92528628D02*
X147406905Y-92528628D01*
X148359286Y-92100057D02*
X148406905Y-92052438D01*
X148406905Y-92052438D02*
X148502143Y-92004819D01*
X148502143Y-92004819D02*
X148740238Y-92004819D01*
X148740238Y-92004819D02*
X148835476Y-92052438D01*
X148835476Y-92052438D02*
X148883095Y-92100057D01*
X148883095Y-92100057D02*
X148930714Y-92195295D01*
X148930714Y-92195295D02*
X148930714Y-92290533D01*
X148930714Y-92290533D02*
X148883095Y-92433390D01*
X148883095Y-92433390D02*
X148311667Y-93004819D01*
X148311667Y-93004819D02*
X148930714Y-93004819D01*
D11*
X144567486Y-69260305D02*
X144567486Y-69979972D01*
X144567486Y-69979972D02*
X144609820Y-70064638D01*
X144609820Y-70064638D02*
X144652153Y-70106972D01*
X144652153Y-70106972D02*
X144736820Y-70149305D01*
X144736820Y-70149305D02*
X144906153Y-70149305D01*
X144906153Y-70149305D02*
X144990820Y-70106972D01*
X144990820Y-70106972D02*
X145033153Y-70064638D01*
X145033153Y-70064638D02*
X145075486Y-69979972D01*
X145075486Y-69979972D02*
X145075486Y-69260305D01*
X145456486Y-69344972D02*
X145498819Y-69302638D01*
X145498819Y-69302638D02*
X145583486Y-69260305D01*
X145583486Y-69260305D02*
X145795153Y-69260305D01*
X145795153Y-69260305D02*
X145879819Y-69302638D01*
X145879819Y-69302638D02*
X145922153Y-69344972D01*
X145922153Y-69344972D02*
X145964486Y-69429638D01*
X145964486Y-69429638D02*
X145964486Y-69514305D01*
X145964486Y-69514305D02*
X145922153Y-69641305D01*
X145922153Y-69641305D02*
X145414153Y-70149305D01*
X145414153Y-70149305D02*
X145964486Y-70149305D01*
D12*
X141578149Y-80977841D02*
X141665235Y-81006869D01*
X141665235Y-81006869D02*
X141810377Y-81006869D01*
X141810377Y-81006869D02*
X141868435Y-80977841D01*
X141868435Y-80977841D02*
X141897463Y-80948812D01*
X141897463Y-80948812D02*
X141926492Y-80890755D01*
X141926492Y-80890755D02*
X141926492Y-80832698D01*
X141926492Y-80832698D02*
X141897463Y-80774641D01*
X141897463Y-80774641D02*
X141868435Y-80745612D01*
X141868435Y-80745612D02*
X141810377Y-80716583D01*
X141810377Y-80716583D02*
X141694263Y-80687555D01*
X141694263Y-80687555D02*
X141636206Y-80658526D01*
X141636206Y-80658526D02*
X141607177Y-80629498D01*
X141607177Y-80629498D02*
X141578149Y-80571441D01*
X141578149Y-80571441D02*
X141578149Y-80513383D01*
X141578149Y-80513383D02*
X141607177Y-80455326D01*
X141607177Y-80455326D02*
X141636206Y-80426298D01*
X141636206Y-80426298D02*
X141694263Y-80397269D01*
X141694263Y-80397269D02*
X141839406Y-80397269D01*
X141839406Y-80397269D02*
X141926492Y-80426298D01*
X142419977Y-80977841D02*
X142361920Y-81006869D01*
X142361920Y-81006869D02*
X142245806Y-81006869D01*
X142245806Y-81006869D02*
X142187748Y-80977841D01*
X142187748Y-80977841D02*
X142158720Y-80919783D01*
X142158720Y-80919783D02*
X142158720Y-80687555D01*
X142158720Y-80687555D02*
X142187748Y-80629498D01*
X142187748Y-80629498D02*
X142245806Y-80600469D01*
X142245806Y-80600469D02*
X142361920Y-80600469D01*
X142361920Y-80600469D02*
X142419977Y-80629498D01*
X142419977Y-80629498D02*
X142449006Y-80687555D01*
X142449006Y-80687555D02*
X142449006Y-80745612D01*
X142449006Y-80745612D02*
X142158720Y-80803669D01*
X142942491Y-80977841D02*
X142884434Y-81006869D01*
X142884434Y-81006869D02*
X142768320Y-81006869D01*
X142768320Y-81006869D02*
X142710262Y-80977841D01*
X142710262Y-80977841D02*
X142681234Y-80919783D01*
X142681234Y-80919783D02*
X142681234Y-80687555D01*
X142681234Y-80687555D02*
X142710262Y-80629498D01*
X142710262Y-80629498D02*
X142768320Y-80600469D01*
X142768320Y-80600469D02*
X142884434Y-80600469D01*
X142884434Y-80600469D02*
X142942491Y-80629498D01*
X142942491Y-80629498D02*
X142971520Y-80687555D01*
X142971520Y-80687555D02*
X142971520Y-80745612D01*
X142971520Y-80745612D02*
X142681234Y-80803669D01*
X143465005Y-80977841D02*
X143406948Y-81006869D01*
X143406948Y-81006869D02*
X143290834Y-81006869D01*
X143290834Y-81006869D02*
X143232776Y-80977841D01*
X143232776Y-80977841D02*
X143203748Y-80919783D01*
X143203748Y-80919783D02*
X143203748Y-80687555D01*
X143203748Y-80687555D02*
X143232776Y-80629498D01*
X143232776Y-80629498D02*
X143290834Y-80600469D01*
X143290834Y-80600469D02*
X143406948Y-80600469D01*
X143406948Y-80600469D02*
X143465005Y-80629498D01*
X143465005Y-80629498D02*
X143494034Y-80687555D01*
X143494034Y-80687555D02*
X143494034Y-80745612D01*
X143494034Y-80745612D02*
X143203748Y-80803669D01*
X144016548Y-81006869D02*
X144016548Y-80397269D01*
X144016548Y-80977841D02*
X143958490Y-81006869D01*
X143958490Y-81006869D02*
X143842376Y-81006869D01*
X143842376Y-81006869D02*
X143784319Y-80977841D01*
X143784319Y-80977841D02*
X143755290Y-80948812D01*
X143755290Y-80948812D02*
X143726262Y-80890755D01*
X143726262Y-80890755D02*
X143726262Y-80716583D01*
X143726262Y-80716583D02*
X143755290Y-80658526D01*
X143755290Y-80658526D02*
X143784319Y-80629498D01*
X143784319Y-80629498D02*
X143842376Y-80600469D01*
X143842376Y-80600469D02*
X143958490Y-80600469D01*
X143958490Y-80600469D02*
X144016548Y-80629498D01*
X144568091Y-80600469D02*
X144568091Y-81006869D01*
X144306833Y-80600469D02*
X144306833Y-80919783D01*
X144306833Y-80919783D02*
X144335862Y-80977841D01*
X144335862Y-80977841D02*
X144393919Y-81006869D01*
X144393919Y-81006869D02*
X144481005Y-81006869D01*
X144481005Y-81006869D02*
X144539062Y-80977841D01*
X144539062Y-80977841D02*
X144568091Y-80948812D01*
X144858376Y-81006869D02*
X144858376Y-80600469D01*
X144858376Y-80397269D02*
X144829348Y-80426298D01*
X144829348Y-80426298D02*
X144858376Y-80455326D01*
X144858376Y-80455326D02*
X144887405Y-80426298D01*
X144887405Y-80426298D02*
X144858376Y-80397269D01*
X144858376Y-80397269D02*
X144858376Y-80455326D01*
X145148662Y-80600469D02*
X145148662Y-81006869D01*
X145148662Y-80658526D02*
X145177691Y-80629498D01*
X145177691Y-80629498D02*
X145235748Y-80600469D01*
X145235748Y-80600469D02*
X145322834Y-80600469D01*
X145322834Y-80600469D02*
X145380891Y-80629498D01*
X145380891Y-80629498D02*
X145409920Y-80687555D01*
X145409920Y-80687555D02*
X145409920Y-81006869D01*
X145787291Y-81006869D02*
X145729234Y-80977841D01*
X145729234Y-80977841D02*
X145700205Y-80948812D01*
X145700205Y-80948812D02*
X145671177Y-80890755D01*
X145671177Y-80890755D02*
X145671177Y-80716583D01*
X145671177Y-80716583D02*
X145700205Y-80658526D01*
X145700205Y-80658526D02*
X145729234Y-80629498D01*
X145729234Y-80629498D02*
X145787291Y-80600469D01*
X145787291Y-80600469D02*
X145874377Y-80600469D01*
X145874377Y-80600469D02*
X145932434Y-80629498D01*
X145932434Y-80629498D02*
X145961463Y-80658526D01*
X145961463Y-80658526D02*
X145990491Y-80716583D01*
X145990491Y-80716583D02*
X145990491Y-80890755D01*
X145990491Y-80890755D02*
X145961463Y-80948812D01*
X145961463Y-80948812D02*
X145932434Y-80977841D01*
X145932434Y-80977841D02*
X145874377Y-81006869D01*
X145874377Y-81006869D02*
X145787291Y-81006869D01*
X146193691Y-80397269D02*
X146600091Y-81006869D01*
X146600091Y-80397269D02*
X146193691Y-81006869D01*
X146832319Y-81006869D02*
X146832319Y-80397269D01*
X147093577Y-80832698D02*
X147383863Y-80832698D01*
X147035520Y-81006869D02*
X147238720Y-80397269D01*
X147238720Y-80397269D02*
X147441920Y-81006869D01*
X147761234Y-80397269D02*
X147877348Y-80397269D01*
X147877348Y-80397269D02*
X147935405Y-80426298D01*
X147935405Y-80426298D02*
X147993462Y-80484355D01*
X147993462Y-80484355D02*
X148022491Y-80600469D01*
X148022491Y-80600469D02*
X148022491Y-80803669D01*
X148022491Y-80803669D02*
X147993462Y-80919783D01*
X147993462Y-80919783D02*
X147935405Y-80977841D01*
X147935405Y-80977841D02*
X147877348Y-81006869D01*
X147877348Y-81006869D02*
X147761234Y-81006869D01*
X147761234Y-81006869D02*
X147703177Y-80977841D01*
X147703177Y-80977841D02*
X147645119Y-80919783D01*
X147645119Y-80919783D02*
X147616091Y-80803669D01*
X147616091Y-80803669D02*
X147616091Y-80600469D01*
X147616091Y-80600469D02*
X147645119Y-80484355D01*
X147645119Y-80484355D02*
X147703177Y-80426298D01*
X147703177Y-80426298D02*
X147761234Y-80397269D01*
D10*
X171283333Y-66747580D02*
X171235714Y-66795200D01*
X171235714Y-66795200D02*
X171092857Y-66842819D01*
X171092857Y-66842819D02*
X170997619Y-66842819D01*
X170997619Y-66842819D02*
X170854762Y-66795200D01*
X170854762Y-66795200D02*
X170759524Y-66699961D01*
X170759524Y-66699961D02*
X170711905Y-66604723D01*
X170711905Y-66604723D02*
X170664286Y-66414247D01*
X170664286Y-66414247D02*
X170664286Y-66271390D01*
X170664286Y-66271390D02*
X170711905Y-66080914D01*
X170711905Y-66080914D02*
X170759524Y-65985676D01*
X170759524Y-65985676D02*
X170854762Y-65890438D01*
X170854762Y-65890438D02*
X170997619Y-65842819D01*
X170997619Y-65842819D02*
X171092857Y-65842819D01*
X171092857Y-65842819D02*
X171235714Y-65890438D01*
X171235714Y-65890438D02*
X171283333Y-65938057D01*
X172235714Y-66842819D02*
X171664286Y-66842819D01*
X171950000Y-66842819D02*
X171950000Y-65842819D01*
X171950000Y-65842819D02*
X171854762Y-65985676D01*
X171854762Y-65985676D02*
X171759524Y-66080914D01*
X171759524Y-66080914D02*
X171664286Y-66128533D01*
X152520666Y-64642819D02*
X152520666Y-65357104D01*
X152520666Y-65357104D02*
X152473047Y-65499961D01*
X152473047Y-65499961D02*
X152377809Y-65595200D01*
X152377809Y-65595200D02*
X152234952Y-65642819D01*
X152234952Y-65642819D02*
X152139714Y-65642819D01*
X153520666Y-65642819D02*
X152949238Y-65642819D01*
X153234952Y-65642819D02*
X153234952Y-64642819D01*
X153234952Y-64642819D02*
X153139714Y-64785676D01*
X153139714Y-64785676D02*
X153044476Y-64880914D01*
X153044476Y-64880914D02*
X152949238Y-64928533D01*
D13*
%TO.C,U3*%
X174982000Y-72752000D02*
X174982000Y-88752000D01*
X157982000Y-72752000D02*
X157982000Y-88752000D01*
D14*
X173582000Y-71176000D02*
G75*
G03*
X173582000Y-71176000I-100000J0D01*
G01*
D15*
%TO.C,C2*%
X171296420Y-69310000D02*
X171577580Y-69310000D01*
X171296420Y-70330000D02*
X171577580Y-70330000D01*
%TO.C,R1*%
X143843742Y-93457500D02*
X144318258Y-93457500D01*
X143843742Y-94502500D02*
X144318258Y-94502500D01*
%TO.C,R2*%
X147907742Y-93457500D02*
X148382258Y-93457500D01*
X147907742Y-94502500D02*
X148382258Y-94502500D01*
D13*
%TO.C,U2*%
X135910320Y-71196200D02*
X135910320Y-91523820D01*
X135910320Y-91523820D02*
X153708100Y-91523820D01*
X136580880Y-70525640D02*
X135910320Y-71196200D01*
D16*
X139593320Y-70441820D02*
X141371320Y-70441820D01*
X139593320Y-73108820D02*
X139593320Y-70441820D01*
X139593320Y-73108820D02*
X141371320Y-73108820D01*
X139593320Y-74505820D02*
X141371320Y-74505820D01*
X139593320Y-77175360D02*
X139593320Y-74505820D01*
X139593320Y-77175360D02*
X141371320Y-77175360D01*
D13*
X140304520Y-76454000D02*
X140304520Y-69100700D01*
X140309600Y-69100700D02*
X149303740Y-69100700D01*
D16*
X141371320Y-73108820D02*
X141371320Y-70441820D01*
X141371320Y-77175360D02*
X141371320Y-74505820D01*
X142260320Y-71203820D02*
X147340320Y-71203820D01*
X142260320Y-73743820D02*
X142260320Y-71203820D01*
X142260320Y-73743820D02*
X147340320Y-73743820D01*
X147340320Y-73743820D02*
X147340320Y-71203820D01*
X148229320Y-70441820D02*
X150007320Y-70441820D01*
X148229320Y-73108820D02*
X148229320Y-70441820D01*
X148229320Y-73108820D02*
X150007320Y-73108820D01*
X148229320Y-74505820D02*
X150007320Y-74505820D01*
X148229320Y-77175360D02*
X148229320Y-74505820D01*
X148229320Y-77175360D02*
X150007320Y-77175360D01*
D13*
X149303740Y-69100700D02*
X149303740Y-76454000D01*
X149303740Y-76454000D02*
X140304520Y-76454000D01*
D16*
X150007320Y-73108820D02*
X150007320Y-70441820D01*
X150007320Y-77175360D02*
X150007320Y-74505820D01*
D13*
X153708100Y-70525640D02*
X136580880Y-70525640D01*
X153708100Y-91523820D02*
X153708100Y-70525640D01*
D17*
X135148320Y-73362820D02*
G75*
G03*
X135148320Y-73362820I-127000J0D01*
G01*
D15*
%TO.C,C1*%
X171309420Y-67308000D02*
X171590580Y-67308000D01*
X171309420Y-68328000D02*
X171590580Y-68328000D01*
%TO.C,J1*%
X168154000Y-54768000D02*
X168154000Y-54028000D01*
X168154000Y-54028000D02*
X167654000Y-54028000D01*
X167914000Y-64189000D02*
X167914000Y-54268000D01*
X167914000Y-64189000D02*
X137794000Y-64189000D01*
X167914000Y-61229000D02*
X137794000Y-61229000D01*
X167914000Y-56328000D02*
X137794000Y-56328000D01*
X167914000Y-54828000D02*
X137794000Y-54828000D01*
X167914000Y-54268000D02*
X137794000Y-54268000D01*
X161581000Y-57905000D02*
X161628000Y-57859000D01*
X161388000Y-57689000D02*
X161423000Y-57654000D01*
X159284000Y-60203000D02*
X159319000Y-60167000D01*
X159079000Y-59997000D02*
X159126000Y-59951000D01*
X156581000Y-57905000D02*
X156628000Y-57859000D01*
X156388000Y-57689000D02*
X156423000Y-57654000D01*
X154284000Y-60203000D02*
X154319000Y-60167000D01*
X154079000Y-59997000D02*
X154126000Y-59951000D01*
X151581000Y-57905000D02*
X151628000Y-57859000D01*
X151388000Y-57689000D02*
X151423000Y-57654000D01*
X149284000Y-60203000D02*
X149319000Y-60167000D01*
X149079000Y-59997000D02*
X149126000Y-59951000D01*
X146581000Y-57905000D02*
X146628000Y-57859000D01*
X146388000Y-57689000D02*
X146423000Y-57654000D01*
X144284000Y-60203000D02*
X144319000Y-60167000D01*
X144079000Y-59997000D02*
X144126000Y-59951000D01*
X141581000Y-57905000D02*
X141628000Y-57859000D01*
X141388000Y-57689000D02*
X141423000Y-57654000D01*
X139284000Y-60203000D02*
X139319000Y-60167000D01*
X139079000Y-59997000D02*
X139126000Y-59951000D01*
X137794000Y-64189000D02*
X137794000Y-54268000D01*
X166888999Y-59611999D02*
G75*
G03*
X166889426Y-58244958I-1534992J684000D01*
G01*
X164670001Y-60462999D02*
G75*
G03*
X166037042Y-60463426I684000J1534992D01*
G01*
X166038000Y-57393001D02*
G75*
G03*
X165325195Y-57247748I-683999J-1535000D01*
G01*
X165354000Y-57248001D02*
G75*
G03*
X164670682Y-57393245I0J-1679999D01*
G01*
X163819000Y-58244000D02*
G75*
G03*
X163818574Y-59611042I1535000J-684000D01*
G01*
X162034000Y-58928000D02*
G75*
G03*
X162034000Y-58928000I-1680000J0D01*
G01*
X157034000Y-58928000D02*
G75*
G03*
X157034000Y-58928000I-1680000J0D01*
G01*
X152034000Y-58928000D02*
G75*
G03*
X152034000Y-58928000I-1680000J0D01*
G01*
X147034000Y-58928000D02*
G75*
G03*
X147034000Y-58928000I-1680000J0D01*
G01*
X142034000Y-58928000D02*
G75*
G03*
X142034000Y-58928000I-1680000J0D01*
G01*
%TD*%
M02*
