%TF.GenerationSoftware,KiCad,Pcbnew,7.0.9*%
%TF.CreationDate,2024-02-26T23:44:44+01:00*%
%TF.ProjectId,esp32c3,65737033-3263-4332-9e6b-696361645f70,rev?*%
%TF.SameCoordinates,Original*%
%TF.FileFunction,Legend,Bot*%
%TF.FilePolarity,Positive*%
%FSLAX46Y46*%
G04 Gerber Fmt 4.6, Leading zero omitted, Abs format (unit mm)*
G04 Created by KiCad (PCBNEW 7.0.9) date 2024-02-26 23:44:44*
%MOMM*%
%LPD*%
G01*
G04 APERTURE LIST*
%ADD10C,0.150000*%
%ADD11C,0.127000*%
%ADD12C,0.120000*%
G04 APERTURE END LIST*
D10*
X189656714Y-64193009D02*
X189513857Y-64240628D01*
X189513857Y-64240628D02*
X189466238Y-64288247D01*
X189466238Y-64288247D02*
X189418619Y-64383485D01*
X189418619Y-64383485D02*
X189418619Y-64526342D01*
X189418619Y-64526342D02*
X189466238Y-64621580D01*
X189466238Y-64621580D02*
X189513857Y-64669200D01*
X189513857Y-64669200D02*
X189609095Y-64716819D01*
X189609095Y-64716819D02*
X189990047Y-64716819D01*
X189990047Y-64716819D02*
X189990047Y-63716819D01*
X189990047Y-63716819D02*
X189656714Y-63716819D01*
X189656714Y-63716819D02*
X189561476Y-63764438D01*
X189561476Y-63764438D02*
X189513857Y-63812057D01*
X189513857Y-63812057D02*
X189466238Y-63907295D01*
X189466238Y-63907295D02*
X189466238Y-64002533D01*
X189466238Y-64002533D02*
X189513857Y-64097771D01*
X189513857Y-64097771D02*
X189561476Y-64145390D01*
X189561476Y-64145390D02*
X189656714Y-64193009D01*
X189656714Y-64193009D02*
X189990047Y-64193009D01*
X189132904Y-63716819D02*
X188561476Y-63716819D01*
X188847190Y-64716819D02*
X188847190Y-63716819D01*
X187704333Y-64716819D02*
X188275761Y-64716819D01*
X187990047Y-64716819D02*
X187990047Y-63716819D01*
X187990047Y-63716819D02*
X188085285Y-63859676D01*
X188085285Y-63859676D02*
X188180523Y-63954914D01*
X188180523Y-63954914D02*
X188275761Y-64002533D01*
X161125819Y-47625095D02*
X161935342Y-47625095D01*
X161935342Y-47625095D02*
X162030580Y-47672714D01*
X162030580Y-47672714D02*
X162078200Y-47720333D01*
X162078200Y-47720333D02*
X162125819Y-47815571D01*
X162125819Y-47815571D02*
X162125819Y-48006047D01*
X162125819Y-48006047D02*
X162078200Y-48101285D01*
X162078200Y-48101285D02*
X162030580Y-48148904D01*
X162030580Y-48148904D02*
X161935342Y-48196523D01*
X161935342Y-48196523D02*
X161125819Y-48196523D01*
X162125819Y-49196523D02*
X162125819Y-48625095D01*
X162125819Y-48910809D02*
X161125819Y-48910809D01*
X161125819Y-48910809D02*
X161268676Y-48815571D01*
X161268676Y-48815571D02*
X161363914Y-48720333D01*
X161363914Y-48720333D02*
X161411533Y-48625095D01*
X156601438Y-44069095D02*
X156553819Y-43973857D01*
X156553819Y-43973857D02*
X156553819Y-43831000D01*
X156553819Y-43831000D02*
X156601438Y-43688143D01*
X156601438Y-43688143D02*
X156696676Y-43592905D01*
X156696676Y-43592905D02*
X156791914Y-43545286D01*
X156791914Y-43545286D02*
X156982390Y-43497667D01*
X156982390Y-43497667D02*
X157125247Y-43497667D01*
X157125247Y-43497667D02*
X157315723Y-43545286D01*
X157315723Y-43545286D02*
X157410961Y-43592905D01*
X157410961Y-43592905D02*
X157506200Y-43688143D01*
X157506200Y-43688143D02*
X157553819Y-43831000D01*
X157553819Y-43831000D02*
X157553819Y-43926238D01*
X157553819Y-43926238D02*
X157506200Y-44069095D01*
X157506200Y-44069095D02*
X157458580Y-44116714D01*
X157458580Y-44116714D02*
X157125247Y-44116714D01*
X157125247Y-44116714D02*
X157125247Y-43926238D01*
X157553819Y-44545286D02*
X156553819Y-44545286D01*
X156553819Y-44545286D02*
X157553819Y-45116714D01*
X157553819Y-45116714D02*
X156553819Y-45116714D01*
X157553819Y-45592905D02*
X156553819Y-45592905D01*
X156553819Y-45592905D02*
X156553819Y-45831000D01*
X156553819Y-45831000D02*
X156601438Y-45973857D01*
X156601438Y-45973857D02*
X156696676Y-46069095D01*
X156696676Y-46069095D02*
X156791914Y-46116714D01*
X156791914Y-46116714D02*
X156982390Y-46164333D01*
X156982390Y-46164333D02*
X157125247Y-46164333D01*
X157125247Y-46164333D02*
X157315723Y-46116714D01*
X157315723Y-46116714D02*
X157410961Y-46069095D01*
X157410961Y-46069095D02*
X157506200Y-45973857D01*
X157506200Y-45973857D02*
X157553819Y-45831000D01*
X157553819Y-45831000D02*
X157553819Y-45592905D01*
X154966200Y-43640524D02*
X155013819Y-43783381D01*
X155013819Y-43783381D02*
X155013819Y-44021476D01*
X155013819Y-44021476D02*
X154966200Y-44116714D01*
X154966200Y-44116714D02*
X154918580Y-44164333D01*
X154918580Y-44164333D02*
X154823342Y-44211952D01*
X154823342Y-44211952D02*
X154728104Y-44211952D01*
X154728104Y-44211952D02*
X154632866Y-44164333D01*
X154632866Y-44164333D02*
X154585247Y-44116714D01*
X154585247Y-44116714D02*
X154537628Y-44021476D01*
X154537628Y-44021476D02*
X154490009Y-43831000D01*
X154490009Y-43831000D02*
X154442390Y-43735762D01*
X154442390Y-43735762D02*
X154394771Y-43688143D01*
X154394771Y-43688143D02*
X154299533Y-43640524D01*
X154299533Y-43640524D02*
X154204295Y-43640524D01*
X154204295Y-43640524D02*
X154109057Y-43688143D01*
X154109057Y-43688143D02*
X154061438Y-43735762D01*
X154061438Y-43735762D02*
X154013819Y-43831000D01*
X154013819Y-43831000D02*
X154013819Y-44069095D01*
X154013819Y-44069095D02*
X154061438Y-44211952D01*
X154918580Y-45211952D02*
X154966200Y-45164333D01*
X154966200Y-45164333D02*
X155013819Y-45021476D01*
X155013819Y-45021476D02*
X155013819Y-44926238D01*
X155013819Y-44926238D02*
X154966200Y-44783381D01*
X154966200Y-44783381D02*
X154870961Y-44688143D01*
X154870961Y-44688143D02*
X154775723Y-44640524D01*
X154775723Y-44640524D02*
X154585247Y-44592905D01*
X154585247Y-44592905D02*
X154442390Y-44592905D01*
X154442390Y-44592905D02*
X154251914Y-44640524D01*
X154251914Y-44640524D02*
X154156676Y-44688143D01*
X154156676Y-44688143D02*
X154061438Y-44783381D01*
X154061438Y-44783381D02*
X154013819Y-44926238D01*
X154013819Y-44926238D02*
X154013819Y-45021476D01*
X154013819Y-45021476D02*
X154061438Y-45164333D01*
X154061438Y-45164333D02*
X154109057Y-45211952D01*
X155013819Y-46116714D02*
X155013819Y-45640524D01*
X155013819Y-45640524D02*
X154013819Y-45640524D01*
X149838580Y-44164333D02*
X149886200Y-44116714D01*
X149886200Y-44116714D02*
X149933819Y-43973857D01*
X149933819Y-43973857D02*
X149933819Y-43878619D01*
X149933819Y-43878619D02*
X149886200Y-43735762D01*
X149886200Y-43735762D02*
X149790961Y-43640524D01*
X149790961Y-43640524D02*
X149695723Y-43592905D01*
X149695723Y-43592905D02*
X149505247Y-43545286D01*
X149505247Y-43545286D02*
X149362390Y-43545286D01*
X149362390Y-43545286D02*
X149171914Y-43592905D01*
X149171914Y-43592905D02*
X149076676Y-43640524D01*
X149076676Y-43640524D02*
X148981438Y-43735762D01*
X148981438Y-43735762D02*
X148933819Y-43878619D01*
X148933819Y-43878619D02*
X148933819Y-43973857D01*
X148933819Y-43973857D02*
X148981438Y-44116714D01*
X148981438Y-44116714D02*
X149029057Y-44164333D01*
X149886200Y-44545286D02*
X149933819Y-44688143D01*
X149933819Y-44688143D02*
X149933819Y-44926238D01*
X149933819Y-44926238D02*
X149886200Y-45021476D01*
X149886200Y-45021476D02*
X149838580Y-45069095D01*
X149838580Y-45069095D02*
X149743342Y-45116714D01*
X149743342Y-45116714D02*
X149648104Y-45116714D01*
X149648104Y-45116714D02*
X149552866Y-45069095D01*
X149552866Y-45069095D02*
X149505247Y-45021476D01*
X149505247Y-45021476D02*
X149457628Y-44926238D01*
X149457628Y-44926238D02*
X149410009Y-44735762D01*
X149410009Y-44735762D02*
X149362390Y-44640524D01*
X149362390Y-44640524D02*
X149314771Y-44592905D01*
X149314771Y-44592905D02*
X149219533Y-44545286D01*
X149219533Y-44545286D02*
X149124295Y-44545286D01*
X149124295Y-44545286D02*
X149029057Y-44592905D01*
X149029057Y-44592905D02*
X148981438Y-44640524D01*
X148981438Y-44640524D02*
X148933819Y-44735762D01*
X148933819Y-44735762D02*
X148933819Y-44973857D01*
X148933819Y-44973857D02*
X148981438Y-45116714D01*
X149410009Y-45878619D02*
X149457628Y-46021476D01*
X149457628Y-46021476D02*
X149505247Y-46069095D01*
X149505247Y-46069095D02*
X149600485Y-46116714D01*
X149600485Y-46116714D02*
X149743342Y-46116714D01*
X149743342Y-46116714D02*
X149838580Y-46069095D01*
X149838580Y-46069095D02*
X149886200Y-46021476D01*
X149886200Y-46021476D02*
X149933819Y-45926238D01*
X149933819Y-45926238D02*
X149933819Y-45545286D01*
X149933819Y-45545286D02*
X148933819Y-45545286D01*
X148933819Y-45545286D02*
X148933819Y-45878619D01*
X148933819Y-45878619D02*
X148981438Y-45973857D01*
X148981438Y-45973857D02*
X149029057Y-46021476D01*
X149029057Y-46021476D02*
X149124295Y-46069095D01*
X149124295Y-46069095D02*
X149219533Y-46069095D01*
X149219533Y-46069095D02*
X149314771Y-46021476D01*
X149314771Y-46021476D02*
X149362390Y-45973857D01*
X149362390Y-45973857D02*
X149410009Y-45878619D01*
X149410009Y-45878619D02*
X149410009Y-45545286D01*
X159093819Y-43497667D02*
X160093819Y-43831000D01*
X160093819Y-43831000D02*
X159093819Y-44164333D01*
X159998580Y-45069095D02*
X160046200Y-45021476D01*
X160046200Y-45021476D02*
X160093819Y-44878619D01*
X160093819Y-44878619D02*
X160093819Y-44783381D01*
X160093819Y-44783381D02*
X160046200Y-44640524D01*
X160046200Y-44640524D02*
X159950961Y-44545286D01*
X159950961Y-44545286D02*
X159855723Y-44497667D01*
X159855723Y-44497667D02*
X159665247Y-44450048D01*
X159665247Y-44450048D02*
X159522390Y-44450048D01*
X159522390Y-44450048D02*
X159331914Y-44497667D01*
X159331914Y-44497667D02*
X159236676Y-44545286D01*
X159236676Y-44545286D02*
X159141438Y-44640524D01*
X159141438Y-44640524D02*
X159093819Y-44783381D01*
X159093819Y-44783381D02*
X159093819Y-44878619D01*
X159093819Y-44878619D02*
X159141438Y-45021476D01*
X159141438Y-45021476D02*
X159189057Y-45069095D01*
X159998580Y-46069095D02*
X160046200Y-46021476D01*
X160046200Y-46021476D02*
X160093819Y-45878619D01*
X160093819Y-45878619D02*
X160093819Y-45783381D01*
X160093819Y-45783381D02*
X160046200Y-45640524D01*
X160046200Y-45640524D02*
X159950961Y-45545286D01*
X159950961Y-45545286D02*
X159855723Y-45497667D01*
X159855723Y-45497667D02*
X159665247Y-45450048D01*
X159665247Y-45450048D02*
X159522390Y-45450048D01*
X159522390Y-45450048D02*
X159331914Y-45497667D01*
X159331914Y-45497667D02*
X159236676Y-45545286D01*
X159236676Y-45545286D02*
X159141438Y-45640524D01*
X159141438Y-45640524D02*
X159093819Y-45783381D01*
X159093819Y-45783381D02*
X159093819Y-45878619D01*
X159093819Y-45878619D02*
X159141438Y-46021476D01*
X159141438Y-46021476D02*
X159189057Y-46069095D01*
X161602009Y-38124238D02*
X161649628Y-38267095D01*
X161649628Y-38267095D02*
X161697247Y-38314714D01*
X161697247Y-38314714D02*
X161792485Y-38362333D01*
X161792485Y-38362333D02*
X161935342Y-38362333D01*
X161935342Y-38362333D02*
X162030580Y-38314714D01*
X162030580Y-38314714D02*
X162078200Y-38267095D01*
X162078200Y-38267095D02*
X162125819Y-38171857D01*
X162125819Y-38171857D02*
X162125819Y-37790905D01*
X162125819Y-37790905D02*
X161125819Y-37790905D01*
X161125819Y-37790905D02*
X161125819Y-38124238D01*
X161125819Y-38124238D02*
X161173438Y-38219476D01*
X161173438Y-38219476D02*
X161221057Y-38267095D01*
X161221057Y-38267095D02*
X161316295Y-38314714D01*
X161316295Y-38314714D02*
X161411533Y-38314714D01*
X161411533Y-38314714D02*
X161506771Y-38267095D01*
X161506771Y-38267095D02*
X161554390Y-38219476D01*
X161554390Y-38219476D02*
X161602009Y-38124238D01*
X161602009Y-38124238D02*
X161602009Y-37790905D01*
X162125819Y-38790905D02*
X161125819Y-38790905D01*
X161125819Y-38790905D02*
X161840104Y-39124238D01*
X161840104Y-39124238D02*
X161125819Y-39457571D01*
X161125819Y-39457571D02*
X162125819Y-39457571D01*
X161602009Y-39933762D02*
X161602009Y-40267095D01*
X162125819Y-40409952D02*
X162125819Y-39933762D01*
X162125819Y-39933762D02*
X161125819Y-39933762D01*
X161125819Y-39933762D02*
X161125819Y-40409952D01*
X161078200Y-41552809D02*
X162363914Y-40695667D01*
X162125819Y-41886143D02*
X161125819Y-41886143D01*
X161125819Y-41886143D02*
X161125819Y-42267095D01*
X161125819Y-42267095D02*
X161173438Y-42362333D01*
X161173438Y-42362333D02*
X161221057Y-42409952D01*
X161221057Y-42409952D02*
X161316295Y-42457571D01*
X161316295Y-42457571D02*
X161459152Y-42457571D01*
X161459152Y-42457571D02*
X161554390Y-42409952D01*
X161554390Y-42409952D02*
X161602009Y-42362333D01*
X161602009Y-42362333D02*
X161649628Y-42267095D01*
X161649628Y-42267095D02*
X161649628Y-41886143D01*
X161221057Y-42838524D02*
X161173438Y-42886143D01*
X161173438Y-42886143D02*
X161125819Y-42981381D01*
X161125819Y-42981381D02*
X161125819Y-43219476D01*
X161125819Y-43219476D02*
X161173438Y-43314714D01*
X161173438Y-43314714D02*
X161221057Y-43362333D01*
X161221057Y-43362333D02*
X161316295Y-43409952D01*
X161316295Y-43409952D02*
X161411533Y-43409952D01*
X161411533Y-43409952D02*
X161554390Y-43362333D01*
X161554390Y-43362333D02*
X162125819Y-42790905D01*
X162125819Y-42790905D02*
X162125819Y-43409952D01*
X161554390Y-43981381D02*
X161506771Y-43886143D01*
X161506771Y-43886143D02*
X161459152Y-43838524D01*
X161459152Y-43838524D02*
X161363914Y-43790905D01*
X161363914Y-43790905D02*
X161316295Y-43790905D01*
X161316295Y-43790905D02*
X161221057Y-43838524D01*
X161221057Y-43838524D02*
X161173438Y-43886143D01*
X161173438Y-43886143D02*
X161125819Y-43981381D01*
X161125819Y-43981381D02*
X161125819Y-44171857D01*
X161125819Y-44171857D02*
X161173438Y-44267095D01*
X161173438Y-44267095D02*
X161221057Y-44314714D01*
X161221057Y-44314714D02*
X161316295Y-44362333D01*
X161316295Y-44362333D02*
X161363914Y-44362333D01*
X161363914Y-44362333D02*
X161459152Y-44314714D01*
X161459152Y-44314714D02*
X161506771Y-44267095D01*
X161506771Y-44267095D02*
X161554390Y-44171857D01*
X161554390Y-44171857D02*
X161554390Y-43981381D01*
X161554390Y-43981381D02*
X161602009Y-43886143D01*
X161602009Y-43886143D02*
X161649628Y-43838524D01*
X161649628Y-43838524D02*
X161744866Y-43790905D01*
X161744866Y-43790905D02*
X161935342Y-43790905D01*
X161935342Y-43790905D02*
X162030580Y-43838524D01*
X162030580Y-43838524D02*
X162078200Y-43886143D01*
X162078200Y-43886143D02*
X162125819Y-43981381D01*
X162125819Y-43981381D02*
X162125819Y-44171857D01*
X162125819Y-44171857D02*
X162078200Y-44267095D01*
X162078200Y-44267095D02*
X162030580Y-44314714D01*
X162030580Y-44314714D02*
X161935342Y-44362333D01*
X161935342Y-44362333D02*
X161744866Y-44362333D01*
X161744866Y-44362333D02*
X161649628Y-44314714D01*
X161649628Y-44314714D02*
X161602009Y-44267095D01*
X161602009Y-44267095D02*
X161554390Y-44171857D01*
X161125819Y-44981381D02*
X161125819Y-45076619D01*
X161125819Y-45076619D02*
X161173438Y-45171857D01*
X161173438Y-45171857D02*
X161221057Y-45219476D01*
X161221057Y-45219476D02*
X161316295Y-45267095D01*
X161316295Y-45267095D02*
X161506771Y-45314714D01*
X161506771Y-45314714D02*
X161744866Y-45314714D01*
X161744866Y-45314714D02*
X161935342Y-45267095D01*
X161935342Y-45267095D02*
X162030580Y-45219476D01*
X162030580Y-45219476D02*
X162078200Y-45171857D01*
X162078200Y-45171857D02*
X162125819Y-45076619D01*
X162125819Y-45076619D02*
X162125819Y-44981381D01*
X162125819Y-44981381D02*
X162078200Y-44886143D01*
X162078200Y-44886143D02*
X162030580Y-44838524D01*
X162030580Y-44838524D02*
X161935342Y-44790905D01*
X161935342Y-44790905D02*
X161744866Y-44743286D01*
X161744866Y-44743286D02*
X161506771Y-44743286D01*
X161506771Y-44743286D02*
X161316295Y-44790905D01*
X161316295Y-44790905D02*
X161221057Y-44838524D01*
X161221057Y-44838524D02*
X161173438Y-44886143D01*
X161173438Y-44886143D02*
X161125819Y-44981381D01*
X152426200Y-43616714D02*
X152473819Y-43759571D01*
X152473819Y-43759571D02*
X152473819Y-43997666D01*
X152473819Y-43997666D02*
X152426200Y-44092904D01*
X152426200Y-44092904D02*
X152378580Y-44140523D01*
X152378580Y-44140523D02*
X152283342Y-44188142D01*
X152283342Y-44188142D02*
X152188104Y-44188142D01*
X152188104Y-44188142D02*
X152092866Y-44140523D01*
X152092866Y-44140523D02*
X152045247Y-44092904D01*
X152045247Y-44092904D02*
X151997628Y-43997666D01*
X151997628Y-43997666D02*
X151950009Y-43807190D01*
X151950009Y-43807190D02*
X151902390Y-43711952D01*
X151902390Y-43711952D02*
X151854771Y-43664333D01*
X151854771Y-43664333D02*
X151759533Y-43616714D01*
X151759533Y-43616714D02*
X151664295Y-43616714D01*
X151664295Y-43616714D02*
X151569057Y-43664333D01*
X151569057Y-43664333D02*
X151521438Y-43711952D01*
X151521438Y-43711952D02*
X151473819Y-43807190D01*
X151473819Y-43807190D02*
X151473819Y-44045285D01*
X151473819Y-44045285D02*
X151521438Y-44188142D01*
X152473819Y-44616714D02*
X151473819Y-44616714D01*
X151473819Y-44616714D02*
X151473819Y-44854809D01*
X151473819Y-44854809D02*
X151521438Y-44997666D01*
X151521438Y-44997666D02*
X151616676Y-45092904D01*
X151616676Y-45092904D02*
X151711914Y-45140523D01*
X151711914Y-45140523D02*
X151902390Y-45188142D01*
X151902390Y-45188142D02*
X152045247Y-45188142D01*
X152045247Y-45188142D02*
X152235723Y-45140523D01*
X152235723Y-45140523D02*
X152330961Y-45092904D01*
X152330961Y-45092904D02*
X152426200Y-44997666D01*
X152426200Y-44997666D02*
X152473819Y-44854809D01*
X152473819Y-44854809D02*
X152473819Y-44616714D01*
X152188104Y-45569095D02*
X152188104Y-46045285D01*
X152473819Y-45473857D02*
X151473819Y-45807190D01*
X151473819Y-45807190D02*
X152473819Y-46140523D01*
X147346200Y-43569095D02*
X147393819Y-43711952D01*
X147393819Y-43711952D02*
X147393819Y-43950047D01*
X147393819Y-43950047D02*
X147346200Y-44045285D01*
X147346200Y-44045285D02*
X147298580Y-44092904D01*
X147298580Y-44092904D02*
X147203342Y-44140523D01*
X147203342Y-44140523D02*
X147108104Y-44140523D01*
X147108104Y-44140523D02*
X147012866Y-44092904D01*
X147012866Y-44092904D02*
X146965247Y-44045285D01*
X146965247Y-44045285D02*
X146917628Y-43950047D01*
X146917628Y-43950047D02*
X146870009Y-43759571D01*
X146870009Y-43759571D02*
X146822390Y-43664333D01*
X146822390Y-43664333D02*
X146774771Y-43616714D01*
X146774771Y-43616714D02*
X146679533Y-43569095D01*
X146679533Y-43569095D02*
X146584295Y-43569095D01*
X146584295Y-43569095D02*
X146489057Y-43616714D01*
X146489057Y-43616714D02*
X146441438Y-43664333D01*
X146441438Y-43664333D02*
X146393819Y-43759571D01*
X146393819Y-43759571D02*
X146393819Y-43997666D01*
X146393819Y-43997666D02*
X146441438Y-44140523D01*
X147393819Y-44569095D02*
X146393819Y-44569095D01*
X146393819Y-44569095D02*
X146393819Y-44807190D01*
X146393819Y-44807190D02*
X146441438Y-44950047D01*
X146441438Y-44950047D02*
X146536676Y-45045285D01*
X146536676Y-45045285D02*
X146631914Y-45092904D01*
X146631914Y-45092904D02*
X146822390Y-45140523D01*
X146822390Y-45140523D02*
X146965247Y-45140523D01*
X146965247Y-45140523D02*
X147155723Y-45092904D01*
X147155723Y-45092904D02*
X147250961Y-45045285D01*
X147250961Y-45045285D02*
X147346200Y-44950047D01*
X147346200Y-44950047D02*
X147393819Y-44807190D01*
X147393819Y-44807190D02*
X147393819Y-44569095D01*
X146393819Y-45759571D02*
X146393819Y-45854809D01*
X146393819Y-45854809D02*
X146441438Y-45950047D01*
X146441438Y-45950047D02*
X146489057Y-45997666D01*
X146489057Y-45997666D02*
X146584295Y-46045285D01*
X146584295Y-46045285D02*
X146774771Y-46092904D01*
X146774771Y-46092904D02*
X147012866Y-46092904D01*
X147012866Y-46092904D02*
X147203342Y-46045285D01*
X147203342Y-46045285D02*
X147298580Y-45997666D01*
X147298580Y-45997666D02*
X147346200Y-45950047D01*
X147346200Y-45950047D02*
X147393819Y-45854809D01*
X147393819Y-45854809D02*
X147393819Y-45759571D01*
X147393819Y-45759571D02*
X147346200Y-45664333D01*
X147346200Y-45664333D02*
X147298580Y-45616714D01*
X147298580Y-45616714D02*
X147203342Y-45569095D01*
X147203342Y-45569095D02*
X147012866Y-45521476D01*
X147012866Y-45521476D02*
X146774771Y-45521476D01*
X146774771Y-45521476D02*
X146584295Y-45569095D01*
X146584295Y-45569095D02*
X146489057Y-45616714D01*
X146489057Y-45616714D02*
X146441438Y-45664333D01*
X146441438Y-45664333D02*
X146393819Y-45759571D01*
D11*
%TO.C,BT1*%
X195046000Y-75692000D02*
X193046000Y-75692000D01*
X194046000Y-74692000D02*
X194046000Y-76692000D01*
X191896000Y-86182000D02*
X191896000Y-65202000D01*
X191896000Y-65202000D02*
X114936000Y-65202000D01*
X114936000Y-86182000D02*
X191896000Y-86182000D01*
X114936000Y-65202000D02*
X114936000Y-86182000D01*
X113786000Y-75692000D02*
X111786000Y-75692000D01*
D12*
%TO.C,U1*%
X145415000Y-49403000D02*
X145415000Y-37465000D01*
X160909000Y-49403000D02*
X145415000Y-49403000D01*
X145415000Y-37465000D02*
X160909000Y-37465000D01*
X160909000Y-37465000D02*
X160909000Y-49403000D01*
X149322832Y-40513000D02*
G75*
G03*
X149322832Y-40513000I-1367832J0D01*
G01*
X159805841Y-40513000D02*
G75*
G03*
X159805841Y-40513000I-1436841J0D01*
G01*
%TD*%
M02*
