%TF.GenerationSoftware,KiCad,Pcbnew,7.0.9*%
%TF.CreationDate,2024-01-04T22:09:18+01:00*%
%TF.ProjectId,BeaglebonePCBma_yC,42656167-6c65-4626-9f6e-655043426d61,rev?*%
%TF.SameCoordinates,Original*%
%TF.FileFunction,Copper,L1,Top*%
%TF.FilePolarity,Positive*%
%FSLAX46Y46*%
G04 Gerber Fmt 4.6, Leading zero omitted, Abs format (unit mm)*
G04 Created by KiCad (PCBNEW 7.0.9) date 2024-01-04 22:09:18*
%MOMM*%
%LPD*%
G01*
G04 APERTURE LIST*
G04 Aperture macros list*
%AMRoundRect*
0 Rectangle with rounded corners*
0 $1 Rounding radius*
0 $2 $3 $4 $5 $6 $7 $8 $9 X,Y pos of 4 corners*
0 Add a 4 corners polygon primitive as box body*
4,1,4,$2,$3,$4,$5,$6,$7,$8,$9,$2,$3,0*
0 Add four circle primitives for the rounded corners*
1,1,$1+$1,$2,$3*
1,1,$1+$1,$4,$5*
1,1,$1+$1,$6,$7*
1,1,$1+$1,$8,$9*
0 Add four rect primitives between the rounded corners*
20,1,$1+$1,$2,$3,$4,$5,0*
20,1,$1+$1,$4,$5,$6,$7,0*
20,1,$1+$1,$6,$7,$8,$9,0*
20,1,$1+$1,$8,$9,$2,$3,0*%
G04 Aperture macros list end*
%TA.AperFunction,SMDPad,CuDef*%
%ADD10R,2.800000X1.100000*%
%TD*%
%TA.AperFunction,SMDPad,CuDef*%
%ADD11R,2.600000X1.100000*%
%TD*%
%TA.AperFunction,SMDPad,CuDef*%
%ADD12RoundRect,0.225000X-0.250000X0.225000X-0.250000X-0.225000X0.250000X-0.225000X0.250000X0.225000X0*%
%TD*%
%TA.AperFunction,ComponentPad*%
%ADD13R,1.700000X1.700000*%
%TD*%
%TA.AperFunction,ComponentPad*%
%ADD14O,1.700000X1.700000*%
%TD*%
%TA.AperFunction,ViaPad*%
%ADD15C,0.600000*%
%TD*%
%TA.AperFunction,Conductor*%
%ADD16C,0.250000*%
%TD*%
%TA.AperFunction,Conductor*%
%ADD17C,0.500000*%
%TD*%
G04 APERTURE END LIST*
D10*
%TO.P,U1,1,GND*%
%TO.N,GNDD*%
X173560000Y-77870000D03*
D11*
%TO.P,U1,2,GND*%
X173660000Y-75870000D03*
%TO.P,U1,3,3.3V*%
%TO.N,+3V3*%
X173660000Y-73870000D03*
%TO.P,U1,4,RESET*%
%TO.N,/GPIO66*%
X173660000Y-71870000D03*
%TO.P,U1,5,DI00*%
%TO.N,unconnected-(U1-DI00-Pad5)*%
X173660000Y-69870000D03*
%TO.P,U1,6,DI01*%
%TO.N,unconnected-(U1-DI01-Pad6)*%
X173660000Y-67870000D03*
%TO.P,U1,7,DI02*%
%TO.N,unconnected-(U1-DI02-Pad7)*%
X173660000Y-65870000D03*
%TO.P,U1,8,DI03*%
%TO.N,unconnected-(U1-DI03-Pad8)*%
X173660000Y-63870000D03*
%TO.P,U1,9,GND*%
%TO.N,GNDD*%
X158260000Y-63870000D03*
%TO.P,U1,10,DI04*%
%TO.N,unconnected-(U1-DI04-Pad10)*%
X158260000Y-65870000D03*
%TO.P,U1,11,DI05*%
%TO.N,unconnected-(U1-DI05-Pad11)*%
X158260000Y-67870000D03*
%TO.P,U1,12,SCK*%
%TO.N,/GPIO2*%
X158260000Y-69870000D03*
%TO.P,U1,13,MISO*%
%TO.N,/GPIO3*%
X158260000Y-71870000D03*
%TO.P,U1,14,MOSI*%
%TO.N,/GPIO4*%
X158260000Y-73870000D03*
%TO.P,U1,15,NSS*%
%TO.N,/GPIO67*%
X158260000Y-75870000D03*
%TO.P,U1,16,GND*%
%TO.N,GNDD*%
X158260000Y-77870000D03*
%TD*%
D12*
%TO.P,C2,1*%
%TO.N,+3V3*%
X179800000Y-75075000D03*
%TO.P,C2,2*%
%TO.N,GNDD*%
X179800000Y-76625000D03*
%TD*%
%TO.P,C1,1*%
%TO.N,+3V3*%
X178000000Y-75075000D03*
%TO.P,C1,2*%
%TO.N,GNDD*%
X178000000Y-76625000D03*
%TD*%
D13*
%TO.P,P8,1,Pin_1*%
%TO.N,GNDD*%
X119685000Y-49835000D03*
D14*
%TO.P,P8,2,Pin_2*%
X119685000Y-47295000D03*
%TO.P,P8,3,Pin_3*%
%TO.N,/MMC1.DAT6*%
X122225000Y-49835000D03*
%TO.P,P8,4,Pin_4*%
%TO.N,/MMC1.DAT7*%
X122225000Y-47295000D03*
%TO.P,P8,5,Pin_5*%
%TO.N,/MMC1.DAT2*%
X124765000Y-49835000D03*
%TO.P,P8,6,Pin_6*%
%TO.N,/MMC1.DAT3*%
X124765000Y-47295000D03*
%TO.P,P8,7,Pin_7*%
%TO.N,/GPIO66*%
X127305000Y-49835000D03*
%TO.P,P8,8,Pin_8*%
%TO.N,/GPIO67*%
X127305000Y-47295000D03*
%TO.P,P8,9,Pin_9*%
%TO.N,/GPIO69*%
X129845000Y-49835000D03*
%TO.P,P8,10,Pin_10*%
%TO.N,/GPIO68*%
X129845000Y-47295000D03*
%TO.P,P8,11,Pin_11*%
%TO.N,/GPIO45*%
X132385000Y-49835000D03*
%TO.P,P8,12,Pin_12*%
%TO.N,/GPIO44*%
X132385000Y-47295000D03*
%TO.P,P8,13,Pin_13*%
%TO.N,/GPIO23*%
X134925000Y-49835000D03*
%TO.P,P8,14,Pin_14*%
%TO.N,/GPIO26*%
X134925000Y-47295000D03*
%TO.P,P8,15,Pin_15*%
%TO.N,/GPIO47*%
X137465000Y-49835000D03*
%TO.P,P8,16,Pin_16*%
%TO.N,/GPIO46*%
X137465000Y-47295000D03*
%TO.P,P8,17,Pin_17*%
%TO.N,/GPIO27*%
X140005000Y-49835000D03*
%TO.P,P8,18,Pin_18*%
%TO.N,/GPIO65*%
X140005000Y-47295000D03*
%TO.P,P8,19,Pin_19*%
%TO.N,/GPIO22*%
X142545000Y-49835000D03*
%TO.P,P8,20,Pin_20*%
%TO.N,/MMC1.CMD*%
X142545000Y-47295000D03*
%TO.P,P8,21,Pin_21*%
%TO.N,/MMC1.CLK*%
X145085000Y-49835000D03*
%TO.P,P8,22,Pin_22*%
%TO.N,/MMC1.DAT5*%
X145085000Y-47295000D03*
%TO.P,P8,23,Pin_23*%
%TO.N,/MMC1.DAT4*%
X147625000Y-49835000D03*
%TO.P,P8,24,Pin_24*%
%TO.N,/MMC1.DAT1*%
X147625000Y-47295000D03*
%TO.P,P8,25,Pin_25*%
%TO.N,/MMC1.DAT0*%
X150165000Y-49835000D03*
%TO.P,P8,26,Pin_26*%
%TO.N,/LCD.PCLK*%
X150165000Y-47295000D03*
%TO.P,P8,27,Pin_27*%
%TO.N,/LCD.VSYNC*%
X152705000Y-49835000D03*
%TO.P,P8,28,Pin_28*%
%TO.N,/GPIO61*%
X152705000Y-47295000D03*
%TO.P,P8,29,Pin_29*%
%TO.N,/LCD.HSYNC*%
X155245000Y-49835000D03*
%TO.P,P8,30,Pin_30*%
%TO.N,/LCD.AC_BIAS_E*%
X155245000Y-47295000D03*
%TO.P,P8,31,Pin_31*%
%TO.N,/LCD.DATA14*%
X157785000Y-49835000D03*
%TO.P,P8,32,Pin_32*%
%TO.N,/LCD.DATA15*%
X157785000Y-47295000D03*
%TO.P,P8,33,Pin_33*%
%TO.N,/LCD.DATA13*%
X160325000Y-49835000D03*
%TO.P,P8,34,Pin_34*%
%TO.N,/LCD.DATA11*%
X160325000Y-47295000D03*
%TO.P,P8,35,Pin_35*%
%TO.N,/LCD.DATA8*%
X162865000Y-49835000D03*
%TO.P,P8,36,Pin_36*%
%TO.N,/LCD.DATA10*%
X162865000Y-47295000D03*
%TO.P,P8,37,Pin_37*%
%TO.N,/LCD.DATA6*%
X165405000Y-49835000D03*
%TO.P,P8,38,Pin_38*%
%TO.N,/LCD.DATA9*%
X165405000Y-47295000D03*
%TO.P,P8,39,Pin_39*%
%TO.N,/LCD.DATA4*%
X167945000Y-49835000D03*
%TO.P,P8,40,Pin_40*%
%TO.N,/LCD.DATA7*%
X167945000Y-47295000D03*
%TO.P,P8,41,Pin_41*%
%TO.N,/LCD.DATA2*%
X170485000Y-49835000D03*
%TO.P,P8,42,Pin_42*%
%TO.N,/LCD.DATA5*%
X170485000Y-47295000D03*
%TO.P,P8,43,Pin_43*%
%TO.N,/LCD.DATA0*%
X173025000Y-49835000D03*
%TO.P,P8,44,Pin_44*%
%TO.N,/LCD.DATA3*%
X173025000Y-47295000D03*
%TO.P,P8,45,Pin_45*%
%TO.N,GNDD*%
X175565000Y-49835000D03*
%TO.P,P8,46,Pin_46*%
%TO.N,/LCD.DATA1*%
X175565000Y-47295000D03*
%TD*%
D13*
%TO.P,P9,1,Pin_1*%
%TO.N,GNDD*%
X119685000Y-98095000D03*
D14*
%TO.P,P9,2,Pin_2*%
X119685000Y-95555000D03*
%TO.P,P9,3,Pin_3*%
%TO.N,+3V3*%
X122225000Y-98095000D03*
%TO.P,P9,4,Pin_4*%
X122225000Y-95555000D03*
%TO.P,P9,5,Pin_5*%
%TO.N,+5V*%
X124765000Y-98095000D03*
%TO.P,P9,6,Pin_6*%
X124765000Y-95555000D03*
%TO.P,P9,7,Pin_7*%
%TO.N,VBUS*%
X127305000Y-98095000D03*
%TO.P,P9,8,Pin_8*%
X127305000Y-95555000D03*
%TO.P,P9,9,Pin_9*%
%TO.N,/PWR_BUT*%
X129845000Y-98095000D03*
%TO.P,P9,10,Pin_10*%
%TO.N,/~{SYS_RESET}*%
X129845000Y-95555000D03*
%TO.P,P9,11,Pin_11*%
%TO.N,/GPIO30*%
X132385000Y-98095000D03*
%TO.P,P9,12,Pin_12*%
%TO.N,/GPIO60*%
X132385000Y-95555000D03*
%TO.P,P9,13,Pin_13*%
%TO.N,/GPIO31*%
X134925000Y-98095000D03*
%TO.P,P9,14,Pin_14*%
%TO.N,/GPIO40*%
X134925000Y-95555000D03*
%TO.P,P9,15,Pin_15*%
%TO.N,/GPIO48*%
X137465000Y-98095000D03*
%TO.P,P9,16,Pin_16*%
%TO.N,/GPIO51*%
X137465000Y-95555000D03*
%TO.P,P9,17,Pin_17*%
%TO.N,/GPIO4*%
X140005000Y-98095000D03*
%TO.P,P9,18,Pin_18*%
%TO.N,/GPIO5*%
X140005000Y-95555000D03*
%TO.P,P9,19,Pin_19*%
%TO.N,/I2C2.SCL*%
X142545000Y-98095000D03*
%TO.P,P9,20,Pin_20*%
%TO.N,/I2C2.SDA*%
X142545000Y-95555000D03*
%TO.P,P9,21,Pin_21*%
%TO.N,/GPIO3*%
X145085000Y-98095000D03*
%TO.P,P9,22,Pin_22*%
%TO.N,/GPIO2*%
X145085000Y-95555000D03*
%TO.P,P9,23,Pin_23*%
%TO.N,/GPIO49*%
X147625000Y-98095000D03*
%TO.P,P9,24,Pin_24*%
%TO.N,/GPIO15*%
X147625000Y-95555000D03*
%TO.P,P9,25,Pin_25*%
%TO.N,/GPIO117*%
X150165000Y-98095000D03*
%TO.P,P9,26,Pin_26*%
%TO.N,/GPIO14*%
X150165000Y-95555000D03*
%TO.P,P9,27,Pin_27*%
%TO.N,/GPIO125*%
X152705000Y-98095000D03*
%TO.P,P9,28,Pin_28*%
%TO.N,/SPI1.CS0*%
X152705000Y-95555000D03*
%TO.P,P9,29,Pin_29*%
%TO.N,/SPI1.D0*%
X155245000Y-98095000D03*
%TO.P,P9,30,Pin_30*%
%TO.N,/GPIO122*%
X155245000Y-95555000D03*
%TO.P,P9,31,Pin_31*%
%TO.N,/SPI1.SCLK*%
X157785000Y-98095000D03*
%TO.P,P9,32,Pin_32*%
%TO.N,+1V8*%
X157785000Y-95555000D03*
%TO.P,P9,33,Pin_33*%
%TO.N,/AIN4*%
X160325000Y-98095000D03*
%TO.P,P9,34,Pin_34*%
%TO.N,GNDA*%
X160325000Y-95555000D03*
%TO.P,P9,35,Pin_35*%
%TO.N,/AIN6*%
X162865000Y-98095000D03*
%TO.P,P9,36,Pin_36*%
%TO.N,/AIN5*%
X162865000Y-95555000D03*
%TO.P,P9,37,Pin_37*%
%TO.N,/AIN2*%
X165405000Y-98095000D03*
%TO.P,P9,38,Pin_38*%
%TO.N,/AIN3*%
X165405000Y-95555000D03*
%TO.P,P9,39,Pin_39*%
%TO.N,/AIN0*%
X167945000Y-98095000D03*
%TO.P,P9,40,Pin_40*%
%TO.N,/AIN1*%
X167945000Y-95555000D03*
%TO.P,P9,41,Pin_41*%
%TO.N,/GPIO20*%
X170485000Y-98095000D03*
%TO.P,P9,42,Pin_42*%
%TO.N,/GPIO7*%
X170485000Y-95555000D03*
%TO.P,P9,43,Pin_43*%
%TO.N,GNDD*%
X173025000Y-98095000D03*
%TO.P,P9,44,Pin_44*%
X173025000Y-95555000D03*
%TO.P,P9,45,Pin_45*%
X175565000Y-98095000D03*
%TO.P,P9,46,Pin_46*%
X175565000Y-95555000D03*
%TD*%
D15*
%TO.N,/GPIO2*%
X150800000Y-69520000D03*
%TO.N,/GPIO3*%
X150800000Y-72060000D03*
%TO.N,/GPIO4*%
X140640000Y-82220000D03*
%TD*%
D16*
%TO.N,/GPIO2*%
X153340000Y-69520000D02*
X150800000Y-69520000D01*
X153690000Y-69870000D02*
X153340000Y-69520000D01*
X158260000Y-69870000D02*
X153690000Y-69870000D01*
%TO.N,/GPIO3*%
X153340000Y-72060000D02*
X150800000Y-72060000D01*
X153530000Y-71870000D02*
X153340000Y-72060000D01*
X158260000Y-71870000D02*
X153530000Y-71870000D01*
%TO.N,/GPIO4*%
X140640000Y-77140000D02*
X140640000Y-82220000D01*
X143910000Y-73870000D02*
X140640000Y-77140000D01*
X158260000Y-73870000D02*
X143910000Y-73870000D01*
%TO.N,/GPIO67*%
X126130000Y-57550000D02*
X126130000Y-48470000D01*
X127940000Y-59360000D02*
X126130000Y-57550000D01*
X163500000Y-59360000D02*
X127940000Y-59360000D01*
X166040000Y-72060000D02*
X166040000Y-61900000D01*
X162230000Y-75870000D02*
X166040000Y-72060000D01*
X166040000Y-61900000D02*
X163500000Y-59360000D01*
X158260000Y-75870000D02*
X162230000Y-75870000D01*
X126130000Y-48470000D02*
X127305000Y-47295000D01*
%TO.N,/GPIO66*%
X127305000Y-53645000D02*
X127305000Y-49835000D01*
X168580000Y-59360000D02*
X166040000Y-56820000D01*
X166040000Y-56820000D02*
X130480000Y-56820000D01*
X168580000Y-69520000D02*
X168580000Y-59360000D01*
X130480000Y-56820000D02*
X127305000Y-53645000D01*
X170930000Y-71870000D02*
X168580000Y-69520000D01*
X173660000Y-71870000D02*
X170930000Y-71870000D01*
D17*
%TO.N,GNDD*%
X178000000Y-76625000D02*
X177445000Y-76625000D01*
X177445000Y-76625000D02*
X176200000Y-77870000D01*
X176200000Y-77870000D02*
X173560000Y-77870000D01*
X179470000Y-77870000D02*
X176200000Y-77870000D01*
X179800000Y-77540000D02*
X179470000Y-77870000D01*
X179800000Y-76625000D02*
X179800000Y-77540000D01*
%TO.N,+3V3*%
X177405000Y-75075000D02*
X176200000Y-73870000D01*
X178000000Y-75075000D02*
X177405000Y-75075000D01*
X176200000Y-73870000D02*
X173660000Y-73870000D01*
X178740000Y-73870000D02*
X176200000Y-73870000D01*
X179800000Y-74930000D02*
X178740000Y-73870000D01*
X179800000Y-75075000D02*
X179800000Y-74930000D01*
X183090000Y-73870000D02*
X178740000Y-73870000D01*
%TO.N,GNDD*%
X119685000Y-93015000D02*
X119685000Y-98095000D01*
X122860000Y-89840000D02*
X119685000Y-93015000D01*
X176200000Y-89840000D02*
X122860000Y-89840000D01*
X181280000Y-79680000D02*
X181280000Y-84760000D01*
X179470000Y-77870000D02*
X181280000Y-79680000D01*
X181280000Y-84760000D02*
X176200000Y-89840000D01*
%TO.N,+3V3*%
X176200000Y-92380000D02*
X122860000Y-92380000D01*
X183820000Y-84760000D02*
X176200000Y-92380000D01*
X122860000Y-92380000D02*
X122225000Y-93015000D01*
X122225000Y-93015000D02*
X122225000Y-98095000D01*
X183820000Y-74600000D02*
X183820000Y-84760000D01*
X183090000Y-73870000D02*
X183820000Y-74600000D01*
%TD*%
M02*
